<svg xmlns="http://www.w3.org/2000/svg" width="860" height="300" viewBox="0 0 860 300" role="img" aria-label="ἦθος ἀνθρώπῳ δαίμων. Character is a person's fate. (Heraclitus, DK 22 B119)">
  <defs>
    <linearGradient id="parch" x1="0" y1="0" x2="0" y2="1">
      <stop offset="0" stop-color="#FEFCF8"/>
      <stop offset="1" stop-color="#F1ECE2"/>
    </linearGradient>
    <radialGradient id="glow" cx="0.5" cy="0.14" r="0.9">
      <stop offset="0" stop-color="#C5A059" stop-opacity="0.14"/>
      <stop offset="0.5" stop-color="#C5A059" stop-opacity="0"/>
    </radialGradient>
    <filter id="grain"><feTurbulence type="fractalNoise" baseFrequency="0.9" numOctaves="2" stitchTiles="stitch" result="n"/><feColorMatrix in="n" type="matrix" values="0 0 0 0 0  0 0 0 0 0  0 0 0 0 0  0 0 0 0.035 0"/></filter>
    <filter id="lift" x="-8%" y="-8%" width="116%" height="124%"><feDropShadow dx="0" dy="3" stdDeviation="7" flood-color="#3A2A18" flood-opacity="0.20"/></filter>
  </defs>

  <g filter="url(#lift)">
    <rect x="6" y="5" width="848" height="286" rx="15" fill="url(#parch)" stroke="#EAE3D6" stroke-width="1"/>
  </g>
  <rect x="6" y="5" width="848" height="286" rx="15" fill="url(#glow)"/>
  <rect x="6" y="5" width="848" height="286" rx="15" fill="#000" filter="url(#grain)" opacity="0.5" clip-path="inset(0 round 15px)"/>
  <rect x="16" y="16" width="828" height="264" rx="9" fill="none" stroke="#C5A059" stroke-width="1" opacity="0.55"/>
  <path d="M26 23.4L28.6 26L26 28.6L23.4 26Z" fill="#C5A059" opacity="0.7"/><path d="M834 23.4L836.6 26L834 28.6L831.4 26Z" fill="#C5A059" opacity="0.7"/><path d="M26 271.4L28.6 274L26 276.6L23.4 274Z" fill="#C5A059" opacity="0.7"/><path d="M834 271.4L836.6 274L834 276.6L831.4 274Z" fill="#C5A059" opacity="0.7"/>

  <g fill="#5E4722" stroke="#5E4722" stroke-width="0.2"><path transform="translate(46 60)" d="M3.87 0.15L3.87 0.15Q3.13 0.15 2.55-0.01Q1.96-0.16 1.55-0.44Q1.14-0.72 0.93-1.09Q0.72-1.47 0.72-1.92L0.72-1.92Q0.72-2.27 0.85-2.50Q0.97-2.73 1.21-2.85Q1.45-2.97 1.80-2.97L1.80-2.97Q1.81-1.99 2.05-1.33Q2.28-0.66 2.76-0.33Q3.24 0 3.97 0L3.97 0Q4.93 0 5.53-0.56Q6.12-1.13 6.12-2.22L6.12-2.22Q6.12-2.90 5.87-3.31Q5.63-3.73 5.08-4.07Q4.53-4.41 3.65-4.81L3.65-4.81Q3.18-5.04 2.69-5.30Q2.21-5.56 1.79-5.93Q1.38-6.30 1.13-6.83Q0.89-7.36 0.89-8.10L0.89-8.10Q0.89-9 1.27-9.62Q1.67-10.23 2.38-10.54Q3.09-10.86 4.05-10.86L4.05-10.86Q4.93-10.86 5.59-10.62Q6.24-10.38 6.61-9.99Q6.97-9.60 6.97-9.13L6.97-9.13Q6.97-8.70 6.64-8.45Q6.31-8.21 5.79-8.21L5.79-8.21Q5.79-9.45 5.38-10.08Q4.98-10.71 4.04-10.71L4.04-10.71Q3.46-10.71 3.03-10.48Q2.59-10.24 2.36-9.79Q2.13-9.33 2.13-8.64L2.13-8.64Q2.13-7.90 2.40-7.46Q2.67-7.00 3.22-6.68Q3.76-6.36 4.59-5.97L4.59-5.97Q5.34-5.63 5.98-5.25Q6.61-4.88 7.00-4.30Q7.39-3.73 7.39-2.80L7.39-2.80Q7.39-1.89 6.98-1.23Q6.57-0.57 5.78-0.21Q5.00 0.15 3.87 0.15Z M20.17 0L12.13 0L12.13-0.15L12.33-0.15Q12.73-0.15 13.01-0.27Q13.29-0.39 13.42-0.63Q13.55-0.87 13.55-1.23L13.55-1.23L13.55-9.54Q13.55-9.88 13.42-10.11Q13.29-10.33 13.01-10.45Q12.73-10.56 12.33-10.56L12.33-10.56L12.13-10.56L12.13-10.71L19.68-10.71L19.77-8.08L19.62-8.08L19.59-8.58Q19.54-9.33 19.33-9.76Q19.12-10.20 18.68-10.38Q18.23-10.56 17.47-10.56L17.47-10.56L15.07-10.56L15.07-5.68L18.84-5.68L18.84-5.54L15.07-5.54L15.07-0.15L17.84-0.15Q18.66-0.15 19.13-0.33Q19.62-0.51 19.83-0.94Q20.05-1.38 20.09-2.13L20.09-2.13L20.13-2.63L20.27-2.63L20.17 0Z M28.34 0L24.88 0L24.88-0.15L25.31-0.15Q25.71-0.15 25.99-0.27Q26.27-0.39 26.41-0.63Q26.54-0.87 26.54-1.23L26.54-1.23L26.54-9.54Q26.54-9.88 26.41-10.11Q26.27-10.33 25.99-10.45Q25.71-10.56 25.31-10.56L25.31-10.56L24.88-10.56L24.88-10.71L27.80-10.71L33.52-2.15L33.52-9.48Q33.52-9.84 33.38-10.08Q33.24-10.32 32.98-10.44Q32.70-10.56 32.28-10.56L32.28-10.56L31.86-10.56L31.86-10.71L35.33-10.71L35.33-10.56L34.89-10.56Q34.49-10.56 34.22-10.44Q33.95-10.32 33.81-10.08Q33.66-9.84 33.66-9.48L33.66-9.48L33.66 0L33.22 0L26.69-9.78L26.69-1.23Q26.69-0.87 26.82-0.63Q26.96-0.39 27.24-0.27Q27.52-0.15 27.92-0.15L27.92-0.15L28.34-0.15L28.34 0Z M45.91 0L41.55 0L41.55-0.15L41.74-0.15Q42.15-0.15 42.43-0.27Q42.70-0.39 42.84-0.63Q42.98-0.87 42.98-1.23L42.98-1.23L42.98-10.56L41.74-10.56Q40.99-10.56 40.55-10.38Q40.09-10.20 39.88-9.76Q39.67-9.33 39.63-8.58L39.63-8.58L39.60-8.08L39.45-8.08L39.54-10.71L47.95-10.71L48.05-8.08L47.89-8.08L47.86-8.58Q47.82-9.33 47.61-9.76Q47.40-10.20 46.96-10.38Q46.52-10.56 45.75-10.56L45.75-10.56L44.49-10.56L44.49-1.23Q44.49-0.87 44.63-0.63Q44.76-0.39 45.04-0.27Q45.31-0.15 45.72-0.15L45.72-0.15L45.91-0.15L45.91 0Z M60.35 0L52.31 0L52.31-0.15L52.51-0.15Q52.91-0.15 53.19-0.27Q53.47-0.39 53.60-0.63Q53.74-0.87 53.74-1.23L53.74-1.23L53.74-9.54Q53.74-9.88 53.60-10.11Q53.47-10.33 53.19-10.45Q52.91-10.56 52.51-10.56L52.51-10.56L52.31-10.56L52.31-10.71L59.86-10.71L59.95-8.08L59.80-8.08L59.77-8.58Q59.72-9.33 59.52-9.76Q59.30-10.20 58.86-10.38Q58.42-10.56 57.66-10.56L57.66-10.56L55.25-10.56L55.25-5.68L59.02-5.68L59.02-5.54L55.25-5.54L55.25-0.15L58.03-0.15Q58.84-0.15 59.32-0.33Q59.80-0.51 60.02-0.94Q60.23-1.38 60.28-2.13L60.28-2.13L60.31-2.63L60.46-2.63L60.35 0Z M68.52 0L65.06 0L65.06-0.15L65.49-0.15Q65.90-0.15 66.18-0.27Q66.45-0.39 66.59-0.63Q66.72-0.87 66.72-1.23L66.72-1.23L66.72-9.54Q66.72-9.88 66.59-10.11Q66.45-10.33 66.18-10.45Q65.90-10.56 65.49-10.56L65.49-10.56L65.06-10.56L65.06-10.71L67.98-10.71L73.70-2.15L73.70-9.48Q73.70-9.84 73.56-10.08Q73.43-10.32 73.16-10.44Q72.89-10.56 72.47-10.56L72.47-10.56L72.05-10.56L72.05-10.71L75.52-10.71L75.52-10.56L75.08-10.56Q74.67-10.56 74.41-10.44Q74.13-10.32 73.99-10.08Q73.85-9.84 73.85-9.48L73.85-9.48L73.85 0L73.40 0L66.88-9.78L66.88-1.23Q66.88-0.87 67.01-0.63Q67.14-0.39 67.42-0.27Q67.70-0.15 68.10-0.15L68.10-0.15L68.52-0.15L68.52 0Z M86.10 0L81.73 0L81.73-0.15L81.93-0.15Q82.33-0.15 82.61-0.27Q82.89-0.39 83.02-0.63Q83.16-0.87 83.16-1.23L83.16-1.23L83.16-10.56L81.93-10.56Q81.18-10.56 80.73-10.38Q80.28-10.20 80.07-9.76Q79.86-9.33 79.81-8.58L79.81-8.58L79.78-8.08L79.63-8.08L79.72-10.71L88.14-10.71L88.23-8.08L88.08-8.08L88.05-8.58Q88.00-9.33 87.79-9.76Q87.58-10.20 87.14-10.38Q86.70-10.56 85.93-10.56L85.93-10.56L84.67-10.56L84.67-1.23Q84.67-0.87 84.81-0.63Q84.94-0.39 85.22-0.27Q85.50-0.15 85.90-0.15L85.90-0.15L86.10-0.15L86.10 0Z M96.86 0L92.50 0L92.50-0.15L92.69-0.15Q93.10-0.15 93.38-0.27Q93.65-0.39 93.79-0.63Q93.92-0.87 93.92-1.23L93.92-1.23L93.92-9.54Q93.92-9.88 93.79-10.11Q93.65-10.33 93.38-10.45Q93.10-10.56 92.69-10.56L92.69-10.56L92.50-10.56L92.50-10.71L96.86-10.71L96.86-10.56L96.67-10.56Q96.26-10.56 95.99-10.44Q95.71-10.32 95.57-10.08Q95.44-9.84 95.44-9.48L95.44-9.48L95.44-1.23Q95.44-0.87 95.57-0.63Q95.71-0.39 95.99-0.27Q96.26-0.15 96.67-0.15L96.67-0.15L96.86-0.15L96.86 0Z M104.49 0L100.83 0L100.83-0.15L101.27-0.15Q101.60-0.15 101.82-0.26Q102.05-0.36 102.21-0.61Q102.38-0.87 102.53-1.32L102.53-1.32L105.80-10.71L106.56-10.71L110.33-0.94Q110.45-0.65 110.57-0.47Q110.69-0.30 110.85-0.22Q111.00-0.15 111.21-0.15L111.21-0.15L111.41-0.15L111.41 0L107.28 0L107.28-0.15L107.63-0.15Q108.20-0.15 108.45-0.28Q108.71-0.42 108.71-0.77L108.71-0.77Q108.71-0.85 108.69-0.95Q108.68-1.05 108.66-1.17Q108.63-1.29 108.57-1.43L108.57-1.43L107.66-3.88L103.59-3.88L102.77-1.53Q102.72-1.41 102.69-1.29Q102.66-1.17 102.65-1.07Q102.63-0.97 102.63-0.89L102.63-0.89Q102.63-0.48 102.99-0.32Q103.35-0.15 104.15-0.15L104.15-0.15L104.49-0.15L104.49 0ZM104.75-7.21L103.64-4.04L107.60-4.04L106.50-6.96Q106.31-7.47 106.14-7.93Q105.98-8.40 105.84-8.83Q105.69-9.25 105.57-9.66L105.57-9.66Q105.47-9.33 105.38-9.05Q105.29-8.78 105.20-8.50Q105.11-8.23 105.00-7.93Q104.88-7.62 104.75-7.21L104.75-7.21Z M133.52 0L128.93 0L128.93-0.15L129.12-0.15Q129.53-0.15 129.81-0.27Q130.08-0.39 130.22-0.63Q130.35-0.87 130.35-1.23L130.35-1.23L130.35-9.54Q130.35-9.88 130.22-10.11Q130.08-10.33 129.81-10.45Q129.53-10.56 129.12-10.56L129.12-10.56L128.93-10.56L128.93-10.71L133.52-10.71Q135.06-10.71 136.16-10.09Q137.25-9.46 137.83-8.27Q138.41-7.08 138.41-5.37L138.41-5.37Q138.41-3.73 137.86-2.53Q137.31-1.32 136.23-0.66Q135.15 0 133.52 0L133.52 0ZM131.87-0.15L133.17-0.15Q134.43-0.15 135.22-0.69Q136.01-1.23 136.38-2.38Q136.74-3.54 136.74-5.37L136.74-5.37Q136.74-7.18 136.38-8.33Q136.01-9.48 135.22-10.02Q134.43-10.56 133.19-10.56L133.19-10.56L131.87-10.56L131.87-0.15Z M147.60 0L143.23 0L143.23-0.15L143.43-0.15Q143.83-0.15 144.11-0.27Q144.39-0.39 144.53-0.63Q144.66-0.87 144.66-1.23L144.66-1.23L144.66-9.54Q144.66-9.88 144.53-10.11Q144.39-10.33 144.11-10.45Q143.83-10.56 143.43-10.56L143.43-10.56L143.23-10.56L143.23-10.71L147.60-10.71L147.60-10.56L147.41-10.56Q147-10.56 146.72-10.44Q146.44-10.32 146.31-10.08Q146.17-9.84 146.17-9.48L146.17-9.48L146.17-1.23Q146.17-0.87 146.31-0.63Q146.44-0.39 146.72-0.27Q147-0.15 147.41-0.15L147.41-0.15L147.60-0.15L147.60 0Z M160.18 0L152.14 0L152.14-0.15L152.33-0.15Q152.74-0.15 153.02-0.27Q153.29-0.39 153.43-0.63Q153.56-0.87 153.56-1.23L153.56-1.23L153.56-9.54Q153.56-9.88 153.43-10.11Q153.29-10.33 153.02-10.45Q152.74-10.56 152.33-10.56L152.33-10.56L152.14-10.56L152.14-10.71L159.69-10.71L159.78-8.08L159.63-8.08L159.59-8.58Q159.55-9.33 159.34-9.76Q159.13-10.20 158.69-10.38Q158.25-10.56 157.48-10.56L157.48-10.56L155.08-10.56L155.08-5.68L158.84-5.68L158.84-5.54L155.08-5.54L155.08-0.15L157.85-0.15Q158.66-0.15 159.14-0.33Q159.63-0.51 159.84-0.94Q160.06-1.38 160.10-2.13L160.10-2.13L160.13-2.63L160.28-2.63L160.18 0Z M169.25 0L164.88 0L164.88-0.15L165.08-0.15Q165.48-0.15 165.76-0.27Q166.04-0.39 166.18-0.63Q166.31-0.87 166.31-1.23L166.31-1.23L166.31-9.54Q166.31-9.88 166.18-10.11Q166.04-10.33 165.76-10.45Q165.48-10.56 165.08-10.56L165.08-10.56L164.88-10.56L164.88-10.71L169.25-10.71L169.25-10.56L169.06-10.56Q168.65-10.56 168.37-10.44Q168.09-10.32 167.96-10.08Q167.82-9.84 167.82-9.48L167.82-9.48L167.82-1.23Q167.82-0.87 167.96-0.63Q168.09-0.39 168.37-0.27Q168.65-0.15 169.06-0.15L169.06-0.15L169.25-0.15L169.25 0Z"/></g>
  <g fill="#5D5147"><path transform="translate(761.85 60)" d="M3.78 0.14L3.78 0.14Q2.67 0.14 1.97-0.49Q1.27-1.11 0.94-2.23Q0.61-3.35 0.61-4.85L0.61-4.85Q0.61-6.34 0.94-7.45Q1.27-8.56 1.97-9.17Q2.67-9.77 3.79-9.77L3.79-9.77Q4.85-9.77 5.55-9.17Q6.25-8.56 6.59-7.45Q6.94-6.33 6.94-4.83L6.94-4.83Q6.94-3.33 6.59-2.22Q6.24-1.11 5.54-0.49Q4.85 0.14 3.78 0.14ZM3.78 0L3.78 0Q4.27 0 4.60-0.26Q4.94-0.51 5.14-1.07Q5.35-1.63 5.44-2.56Q5.54-3.50 5.54-4.83L5.54-4.83Q5.54-6.17 5.44-7.09Q5.35-8.01 5.14-8.57Q4.94-9.13 4.61-9.38Q4.28-9.64 3.79-9.64L3.79-9.64Q3.29-9.64 2.96-9.38Q2.62-9.13 2.41-8.57Q2.20-8.01 2.11-7.09Q2.01-6.17 2.01-4.83L2.01-4.83Q2.01-3.50 2.11-2.56Q2.20-1.63 2.40-1.07Q2.61-0.51 2.95-0.26Q3.29 0 3.78 0Z M16.51 0L12.45 0L12.45-0.14L12.83-0.14Q13.19-0.14 13.44-0.24Q13.69-0.35 13.81-0.57Q13.93-0.78 13.93-1.11L13.93-1.11L13.93-2.65L9.78-2.65L9.78-3.20L13.95-9.64L15.23-9.64L15.23-3.40L16.90-3.40L16.90-2.65L15.23-2.65L15.23-1.11Q15.23-0.78 15.35-0.57Q15.47-0.35 15.72-0.24Q15.97-0.14 16.34-0.14L16.34-0.14L16.51-0.14L16.51 0ZM12.83-7.67L10.06-3.40L13.93-3.40L13.93-5.90Q13.93-6.20 13.93-6.66Q13.93-7.13 13.93-7.65Q13.93-8.17 13.94-8.65Q13.95-9.13 13.96-9.44L13.96-9.44Q13.85-9.26 13.71-9.04Q13.57-8.82 13.41-8.58Q13.26-8.34 13.11-8.11Q12.96-7.87 12.83-7.67L12.83-7.67Z M24.59 1.63L24.45 1.63L27.56-10.26L27.69-10.26L24.59 1.63Z M41.54 0L35.74 0L35.74-0.99L37.70-3.10Q38.38-3.83 38.81-4.39Q39.24-4.95 39.48-5.44Q39.73-5.93 39.82-6.39Q39.92-6.86 39.92-7.38L39.92-7.38Q39.92-8.19 39.77-8.69Q39.62-9.19 39.31-9.42Q39.00-9.64 38.50-9.64L38.50-9.64Q37.97-9.64 37.65-9.38Q37.34-9.13 37.20-8.57Q37.05-8.01 37.05-7.09L37.05-7.09Q36.73-7.09 36.47-7.17Q36.20-7.25 36.05-7.45Q35.89-7.65 35.89-8.02L35.89-8.02Q35.89-8.52 36.20-8.92Q36.51-9.31 37.10-9.54Q37.69-9.77 38.51-9.77L38.51-9.77Q39.40-9.77 40.02-9.49Q40.64-9.21 40.96-8.69Q41.28-8.18 41.28-7.47L41.28-7.47Q41.28-7.05 41.14-6.62Q41.00-6.20 40.62-5.68Q40.24-5.16 39.56-4.45Q38.88-3.74 37.80-2.74L37.80-2.74L36.00-1.08L40.25-1.08Q40.90-1.08 41.16-1.31Q41.41-1.54 41.47-2.16L41.47-2.16L41.48-2.34L41.62-2.34L41.54 0Z M47.96 0.15L47.96 0.15Q47.07 0.15 46.53-0.06Q45.98-0.27 45.73-0.60Q45.48-0.93 45.48-1.27L45.48-1.27Q45.48-1.58 45.69-1.80Q45.90-2.02 46.33-2.02L46.33-2.02Q46.33-1.32 46.53-0.87Q46.74-0.42 47.13-0.21Q47.52 0 48.07 0L48.07 0Q48.67 0 49.04-0.30Q49.42-0.59 49.60-1.23Q49.77-1.86 49.77-2.86L49.77-2.86Q49.77-3.86 49.57-4.46Q49.37-5.05 48.94-5.32Q48.50-5.59 47.80-5.59L47.80-5.59Q47.29-5.59 46.93-5.45Q46.57-5.32 46.33-5.12Q46.09-4.93 45.90-4.74L45.90-4.74L45.74-4.79L46.16-9.63L50.66-9.63L50.73-7.59L50.60-7.59L50.58-7.74Q50.56-8.05 50.45-8.22Q50.35-8.40 50.16-8.47Q49.96-8.55 49.64-8.55L49.64-8.55L46.20-8.55L45.87-4.89Q46.28-5.35 46.85-5.57Q47.42-5.79 48.10-5.79L48.10-5.79Q48.92-5.79 49.62-5.49Q50.31-5.20 50.74-4.56Q51.18-3.93 51.18-2.92L51.18-2.92Q51.18-2.27 50.99-1.71Q50.81-1.15 50.43-0.74Q50.04-0.32 49.43-0.09Q48.81 0.15 47.96 0.15Z"/></g>

  <g opacity="1">
    <animate attributeName="opacity" from="0" to="1" dur="0.85s" begin="0s" fill="freeze"/>
    <animateTransform attributeName="transform" type="translate" from="0 10" to="0 0" dur="0.95s" begin="0s" fill="freeze" calcMode="spline" keySplines="0.22 1 0.36 1" keyTimes="0;1" values="0 10;0 0"/>
    <g transform="translate(0 109.09)">
      <g fill="#1A1919"><path transform="translate(173.74 33.84)" d="M24.72 11.28L20.21 11.28Q19.93 10.67 19.74 9.19Q19.55 7.71 19.48 5.92Q19.41 4.14 19.41 2.73L19.41 2.73L19.41-18.24Q19.41-21.76 18.12-23.36Q16.83-24.96 14.76-24.96L14.76-24.96Q12.97-24.96 11.68-23.83Q10.39-22.70 9.71-20.87Q9.02-19.04 9.02-16.97L9.02-16.97L9.02 0L4.61 0L4.61-15.93Q4.61-19.13 4.37-21.29Q4.14-23.45 3.38-25.19L3.38-25.19L6.02-25.19Q6.82-24.25 7.47-23.01Q8.13-21.76 8.70-19.32L8.70-19.32L8.79-19.32Q9.16-21.34 10.13-22.75Q11.09-24.16 12.53-24.91Q13.96-25.66 15.74-25.66L15.74-25.66Q19.83-25.66 21.83-23.48Q23.83-21.29 23.83-16.45L23.83-16.45L23.83 3.29Q23.83 4.42 23.95 6.09Q24.06 7.75 24.28 9.21Q24.49 10.67 24.72 11.28L24.72 11.28ZM6.77-36.19L6.30-36.19Q6.49-37.60 6.98-38.80Q7.47-40.00 8.44-40.75Q9.40-41.50 10.90-41.50L10.90-41.50Q12.13-41.50 13.28-41.08Q14.43-40.66 15.58-40.14Q16.73-39.62 17.84-39.20Q18.94-38.77 19.98-38.77L19.98-38.77Q21.43-38.77 21.90-39.62Q22.37-40.47 22.56-41.50L22.56-41.50L23.03-41.50Q22.84-40.19 22.35-38.96Q21.86-37.74 20.91-36.97Q19.98-36.19 18.42-36.19L18.42-36.19Q17.25-36.19 16.07-36.61Q14.90-37.04 13.77-37.55Q12.64-38.07 11.54-38.49Q10.43-38.92 9.35-38.92L9.35-38.92Q7.80-38.92 7.40-38.02Q7.00-37.13 6.77-36.19L6.77-36.19ZM11.80-27.68L11.80-28.15Q13.25-28.39 14.10-28.86Q14.95-29.33 14.95-30.17L14.95-30.17Q14.95-30.83 14.52-31.09Q14.10-31.35 13.58-31.54Q13.07-31.73 12.64-32.08Q12.22-32.43 12.22-33.18L12.22-33.18Q12.22-34.08 12.83-34.50Q13.44-34.92 14.43-34.92L14.43-34.92Q15.89-34.92 16.61-34.12Q17.34-33.32 17.34-32.05L17.34-32.05Q17.34-31.07 16.83-30.13Q16.31-29.19 15.09-28.55Q13.87-27.92 11.80-27.68L11.80-27.68Z M42.56 0.47L42.56 0.47Q38.71 0.47 36.27-1.74Q33.82-3.95 32.67-8.04Q31.52-12.13 31.52-17.81L31.52-17.81Q31.52-23.50 32.67-27.54Q33.82-31.58 36.27-33.75Q38.71-35.91 42.61-35.91L42.61-35.91Q46.28-35.91 48.72-33.75Q51.17-31.58 52.36-27.52Q53.56-23.45 53.56-17.77L53.56-17.77Q53.56-12.13 52.34-8.04Q51.12-3.95 48.70-1.74Q46.28 0.47 42.56 0.47ZM42.56 0L42.56 0Q44.40 0 45.64-1.01Q46.89-2.02 47.64-4.18Q48.39-6.34 48.75-9.73Q49.10-13.11 49.10-17.91L49.10-17.91L35.94-17.91Q35.94-13.07 36.29-9.63Q36.64-6.20 37.44-4.09Q38.24-1.97 39.49-0.99Q40.73 0 42.56 0ZM35.94-18.38L49.10-18.38Q49.10-22.98 48.72-26.23Q48.35-29.47 47.57-31.51Q46.80-33.56 45.57-34.50Q44.35-35.44 42.61-35.44L42.61-35.44Q40.87-35.44 39.60-34.50Q38.34-33.56 37.54-31.51Q36.74-29.47 36.36-26.23Q35.98-22.98 35.94-18.38L35.94-18.38Z M70.14 0.47L70.14 0.47Q65.06 0.47 62.15-2.77Q59.23-6.02 59.23-12.64L59.23-12.64Q59.23-19.22 62.03-22.44Q64.83-25.66 70.28-25.66L70.28-25.66Q75.35-25.66 78.27-22.44Q81.18-19.22 81.18-12.64L81.18-12.64Q81.18-6.02 78.39-2.77Q75.59 0.47 70.14 0.47ZM70.23 0L70.23 0Q72.53 0 73.94-1.27Q75.35-2.54 75.99-5.31Q76.62-8.08 76.62-12.64L76.62-12.64Q76.62-17.16 75.99-19.93Q75.35-22.70 73.94-23.95Q72.53-25.19 70.18-25.19L70.18-25.19Q67.88-25.19 66.47-23.95Q65.06-22.70 64.43-19.93Q63.79-17.16 63.79-12.64L63.79-12.64Q63.79-8.08 64.43-5.31Q65.06-2.54 66.49-1.27Q67.93 0 70.23 0Z M97.47 9.54L97.47 9.07Q99.97 8.04 100.93 6.82Q101.89 5.59 101.89 4.00L101.89 4.00Q101.89 2.58 101.26 1.65Q100.62 0.70 99.38 0.12Q98.13-0.47 96.25-0.89L96.25-0.89Q93.01-1.69 90.94-2.96Q88.87-4.23 87.86-6.42Q86.85-8.60 86.85-12.08L86.85-12.08Q86.85-15.65 87.65-18.24Q88.45-20.82 89.91-22.47Q91.36-24.11 93.27-24.89Q95.17-25.66 97.33-25.66L97.33-25.66Q99.54-25.66 101.40-25.14Q103.25-24.63 104.38-23.57Q105.51-22.51 105.51-20.87L105.51-20.87Q105.51-19.79 105.04-19.13Q104.57-18.47 103.65-18.19Q102.74-17.91 101.33-17.91L101.33-17.91Q101.33-20.45 100.91-22.07Q100.48-23.69 99.61-24.44Q98.74-25.19 97.33-25.19L97.33-25.19Q95.78-25.19 94.63-24.46Q93.48-23.73 92.70-22.21Q91.93-20.68 91.55-18.31Q91.18-15.93 91.18-12.60L91.18-12.60Q91.18-10.39 91.60-9.00Q92.02-7.61 92.91-6.74Q93.81-5.88 95.22-5.33Q96.63-4.79 98.55-4.28L98.55-4.28Q100.44-3.81 101.80-3.13Q103.16-2.44 103.91-1.34Q104.66-0.23 104.66 1.50L104.66 1.50Q104.66 3.15 103.89 4.75Q103.11 6.34 101.54 7.61Q99.97 8.88 97.47 9.54L97.47 9.54Z M130.25 0.47L130.25 0.47Q127.14 0.47 125.01-0.89Q122.87-2.26 121.76-5.15Q120.66-8.04 120.66-12.55L120.66-12.55Q120.66-17.11 121.95-20.00Q123.24-22.89 125.55-24.28Q127.85-25.66 130.95-25.66L130.95-25.66Q133.72-25.66 135.46-24.23Q137.20-22.80 138.09-20.26L138.09-20.26L138.19-20.26Q138.56-21.86 139.22-23.08Q139.88-24.30 140.59-25.19L140.59-25.19L143.08-25.19Q142.79-24.30 142.51-22.68Q142.23-21.06 142.04-19.25Q141.85-17.44 141.85-15.93L141.85-15.93L141.85-4.84Q141.85-2.77 142.84-1.62Q143.83-0.47 145.71-0.47L145.71-0.47L146.08-0.47L146.08 0L142.14 0Q140.59 0 139.62-0.70Q138.66-1.41 138.19-2.51Q137.72-3.62 137.53-4.79L137.53-4.79L137.44-4.79Q136.40-2.49 134.71-1.01Q133.02 0.47 130.25 0.47ZM131.04-0.23L131.04-0.23Q132.88-0.23 134.10-1.15Q135.32-2.07 136.07-3.69Q136.83-5.31 137.13-7.50Q137.44-9.68 137.44-12.22L137.44-12.22L137.44-18.75Q136.87-22.09 135.20-23.62Q133.54-25.14 131.51-25.14L131.51-25.14Q129.35-25.14 127.94-23.90Q126.53-22.65 125.88-19.88Q125.22-17.11 125.22-12.50L125.22-12.50Q125.22-8.04 125.80-5.33Q126.39-2.63 127.68-1.43Q128.98-0.23 131.04-0.23ZM128.69-27.59L128.69-28.06Q130.25-28.43 131.07-29.02Q131.89-29.61 131.89-30.60L131.89-30.60Q131.89-31.35 131.47-31.68Q131.04-32.01 130.50-32.20Q129.96-32.38 129.54-32.74Q129.12-33.09 129.12-33.89L129.12-33.89Q129.12-34.73 129.71-35.32Q130.29-35.91 131.33-35.91L131.33-35.91Q132.55-35.91 133.39-35.06Q134.24-34.22 134.24-32.71L134.24-32.71Q134.24-31.54 133.72-30.50Q133.21-29.47 131.98-28.72Q130.76-27.96 128.69-27.59L128.69-27.59Z M161.16 0L158.24 0Q157.30-3.67 156.38-7.12Q155.47-10.57 154.57-13.54Q153.68-16.50 152.77-18.75Q151.85-21.01 150.93-22.25Q150.02-23.50 149.08-23.50L149.08-23.50Q148.79-23.50 148.37-23.38Q147.95-23.27 147.53-22.98L147.53-22.98L147.29-23.36Q148.23-24.16 149.45-24.75Q150.67-25.33 151.99-25.33L151.99-25.33Q153.26-25.33 154.22-24.63Q155.19-23.92 156.03-22.30Q156.88-20.68 157.72-17.93Q158.57-15.18 159.63-11.16Q160.69-7.14 162.14-1.60L162.14-1.60Q163.55-3.10 164.77-5.05Q166.00-7.00 166.89-9.19Q167.78-11.37 168.28-13.61Q168.77-15.84 168.77-17.86L168.77-17.86Q168.77-19.55 168.44-20.61Q168.11-21.67 167.50-22.21Q166.89-22.75 166.04-22.84L166.04-22.84Q166.04-24.30 166.77-24.98Q167.50-25.66 168.67-25.66L168.67-25.66Q169.94-25.66 170.65-24.98Q171.35-24.30 171.64-23.24Q171.92-22.18 171.92-21.01L171.92-21.01Q171.92-18.52 170.95-15.56Q169.99-12.60 168.42-9.66Q166.84-6.72 164.94-4.18Q163.03-1.65 161.16 0L161.16 0Z M188.63 0.47L188.63 0.47Q184.78 0.47 182.33-1.74Q179.89-3.95 178.74-8.04Q177.59-12.13 177.59-17.81L177.59-17.81Q177.59-23.50 178.74-27.54Q179.89-31.58 182.33-33.75Q184.78-35.91 188.68-35.91L188.68-35.91Q192.35-35.91 194.79-33.75Q197.23-31.58 198.43-27.52Q199.63-23.45 199.63-17.77L199.63-17.77Q199.63-12.13 198.41-8.04Q197.19-3.95 194.77-1.74Q192.35 0.47 188.63 0.47ZM188.63 0L188.63 0Q190.47 0 191.71-1.01Q192.96-2.02 193.71-4.18Q194.46-6.34 194.81-9.73Q195.17-13.11 195.17-17.91L195.17-17.91L182.01-17.91Q182.01-13.07 182.36-9.63Q182.71-6.20 183.51-4.09Q184.31-1.97 185.55-0.99Q186.80 0 188.63 0ZM182.01-18.38L195.17-18.38Q195.17-22.98 194.79-26.23Q194.41-29.47 193.64-31.51Q192.86-33.56 191.64-34.50Q190.42-35.44 188.68-35.44L188.68-35.44Q186.94-35.44 185.67-34.50Q184.40-33.56 183.60-31.51Q182.80-29.47 182.43-26.23Q182.05-22.98 182.01-18.38L182.01-18.38Z M206.85 11.28L206.85-13.77Q206.85-19.50 209.39-22.58Q211.93-25.66 217.38-25.66L217.38-25.66Q220.76-25.66 223.35-24.11Q225.93-22.56 227.37-19.55Q228.80-16.54 228.80-12.13L228.80-12.13Q228.80-7.71 227.56-4.93Q226.31-2.16 224.01-0.85Q221.70 0.47 218.41 0.47L218.41 0.47Q216.35 0.47 214.54-0.26Q212.73-0.99 211.22-2.16L211.22-2.16Q211.22-1.46 211.25-0.21Q211.27 1.03 211.27 2.30L211.27 2.30L211.27 11.28L206.85 11.28ZM218.41 0L218.41 0Q220.48 0 221.75-1.27Q223.02-2.54 223.63-5.22Q224.24-7.90 224.24-12.13L224.24-12.13Q224.24-16.73 223.51-19.60Q222.78-22.47 221.26-23.83Q219.73-25.19 217.29-25.19L217.29-25.19Q214.94-25.19 213.62-24.02Q212.30-22.84 211.79-20.75Q211.27-18.66 211.27-15.79L211.27-15.79L211.27-2.77Q212.73-1.60 214.49-0.80Q216.25 0 218.41 0Z M243.35 0.47L243.35 0.47Q240.63 0.47 238.63-0.85Q236.63-2.16 235.55-4.82Q234.47-7.47 234.47-11.47L234.47-11.47Q234.47-14.57 235.41-17.34Q236.35-20.12 238.04-22.28Q239.73-24.44 241.94-25.66L241.94-25.66L242.27-25.33Q240.96-23.88 239.99-20.80Q239.03-17.72 239.03-12.08L239.03-12.08Q239.03-8.13 239.55-5.45Q240.06-2.77 241.19-1.43Q242.32-0.09 244.06-0.09L244.06-0.09Q245.42-0.09 246.41-0.85Q247.40-1.60 248.01-3.13Q248.62-4.65 248.85-6.86L248.85-6.86Q248.62-8.08 248.36-9.28Q248.10-10.48 247.94-11.66Q247.77-12.83 247.77-13.91L247.77-13.91Q247.77-15.89 248.41-16.73Q249.04-17.58 249.93-17.58L249.93-17.58Q250.87-17.58 251.48-16.73Q252.10-15.89 252.10-13.91L252.10-13.91Q252.10-12.83 251.91-11.66Q251.72-10.48 251.48-9.28Q251.25-8.08 251.01-6.86L251.01-6.86Q251.25-4.70 251.88-3.20Q252.52-1.69 253.51-0.89Q254.49-0.09 255.81-0.09L255.81-0.09Q257.59-0.09 258.70-1.43Q259.80-2.77 260.32-5.45Q260.84-8.13 260.84-12.08L260.84-12.08Q260.84-17.72 259.90-20.80Q258.96-23.88 257.59-25.33L257.59-25.33L257.92-25.66Q260.13-24.44 261.82-22.28Q263.52-20.12 264.46-17.34Q265.40-14.57 265.40-11.47L265.40-11.47Q265.40-7.47 264.32-4.82Q263.23-2.16 261.24-0.85Q259.24 0.47 256.51 0.47L256.51 0.47Q254.02 0.47 252.45-0.87Q250.87-2.21 249.98-4.37L249.98-4.37Q249.28-2.30 247.54-0.92Q245.80 0.47 243.35 0.47ZM248.34-28.48L248.34-28.95Q248.81-30.03 249.35-31.56Q249.89-33.09 250.38-34.66Q250.87-36.24 251.16-37.41L251.16-37.41L254.68-37.41L254.68-36.85Q254.21-35.86 253.18-34.31Q252.14-32.76 250.97-31.18Q249.79-29.61 248.81-28.48L248.81-28.48L248.34-28.48Z M291.65 0.38L291.65 0.38Q289.49 0.38 288.34-1.01Q287.19-2.40 287.19-5.73L287.19-5.73Q287.19-6.72 287.26-8.04Q287.33-9.35 287.42-10.93Q287.52-12.50 287.66-14.24Q287.80-15.98 287.96-17.77Q288.13-19.55 288.27-21.29L288.27-21.29L279.29-21.29L278.21-7.99Q277.98-5.03 277.29-3.29Q276.61-1.55 275.25-0.78Q273.89 0 271.58 0L271.58 0L270.50 0L270.50-1.97Q272.34-1.97 273.58-2.33Q274.83-2.68 275.65-3.50Q276.47-4.32 276.94-5.71Q277.41-7.10 277.60-9.12L277.60-9.12L278.82-21.29L274.83-21.29Q272.57-21.29 271.63-20.66Q270.69-20.02 270.46-18.33L270.46-18.33L269.99-18.33Q269.99-20.21 270.50-21.76Q271.02-23.31 272.17-24.25Q273.32-25.19 275.20-25.19L275.20-25.19L296.16-25.19L296.16-21.29L291.09-21.29Q290.90-18.71 290.78-15.93Q290.67-13.16 290.60-10.65Q290.52-8.13 290.52-6.20L290.52-6.20Q290.52-3.85 290.85-2.66Q291.18-1.46 291.77-1.03Q292.36-0.61 293.16-0.61L293.16-0.61Q293.81-0.61 294.33-0.78Q294.85-0.94 295.32-1.18L295.32-1.18L295.32-0.70Q294.75-0.23 293.79 0.07Q292.83 0.38 291.65 0.38Z M310.06 0.47L310.06 0.47Q307.33 0.47 305.34-0.85Q303.34-2.16 302.26-4.82Q301.18-7.47 301.18-11.47L301.18-11.47Q301.18-14.57 302.12-17.34Q303.06-20.12 304.75-22.28Q306.44-24.44 308.65-25.66L308.65-25.66L308.98-25.33Q307.66-23.88 306.70-20.80Q305.74-17.72 305.74-12.08L305.74-12.08Q305.74-8.13 306.25-5.45Q306.77-2.77 307.90-1.43Q309.03-0.09 310.76-0.09L310.76-0.09Q312.13-0.09 313.12-0.85Q314.10-1.60 314.71-3.13Q315.32-4.65 315.56-6.86L315.56-6.86Q315.32-8.08 315.07-9.28Q314.81-10.48 314.64-11.66Q314.48-12.83 314.48-13.91L314.48-13.91Q314.48-15.89 315.11-16.73Q315.75-17.58 316.64-17.58L316.64-17.58Q317.58-17.58 318.19-16.73Q318.80-15.89 318.80-13.91L318.80-13.91Q318.80-12.83 318.61-11.66Q318.43-10.48 318.19-9.28Q317.96-8.08 317.72-6.86L317.72-6.86Q317.96-4.70 318.59-3.20Q319.22-1.69 320.21-0.89Q321.20-0.09 322.51-0.09L322.51-0.09Q324.30-0.09 325.41-1.43Q326.51-2.77 327.03-5.45Q327.54-8.13 327.54-12.08L327.54-12.08Q327.54-17.72 326.60-20.80Q325.66-23.88 324.30-25.33L324.30-25.33L324.63-25.66Q326.84-24.44 328.53-22.28Q330.22-20.12 331.16-17.34Q332.10-14.57 332.10-11.47L332.10-11.47Q332.10-7.47 331.02-4.82Q329.94-2.16 327.94-0.85Q325.95 0.47 323.22 0.47L323.22 0.47Q320.73 0.47 319.15-0.87Q317.58-2.21 316.69-4.37L316.69-4.37Q315.98-2.30 314.24-0.92Q312.50 0.47 310.06 0.47ZM318.61 10.72L318.61 10.72Q316.69 10.72 315.77 9.68Q314.85 8.65 314.85 6.96L314.85 6.96L314.85 3.29L318.28 3.29L318.28 8.27Q318.28 9.26 318.75 9.66Q319.22 10.06 319.93 10.06L319.93 10.06Q320.26 10.06 320.56 10.01Q320.87 9.96 321.20 9.87L321.20 9.87L321.20 10.34Q320.68 10.53 319.95 10.62Q319.22 10.72 318.61 10.72Z M359.99 0.47L359.99 0.47Q356.84 0.47 354.30-0.75Q351.76-1.97 350.28-4.35Q348.80-6.72 348.80-10.06L348.80-10.06Q348.80-13.30 350.07-15.53Q351.34-17.77 353.50-19.20Q355.66-20.63 358.29-21.43L358.29-21.43Q356.74-22.47 355.50-23.62Q354.25-24.77 353.52-26.18Q352.80-27.59 352.80-29.33L352.80-29.33Q352.80-31.49 353.88-32.95Q354.96-34.40 356.88-35.18Q358.81-35.95 361.26-35.95L361.26-35.95Q363.89-35.95 365.63-35.18Q367.37-34.40 368.24-33.23Q369.10-32.05 369.10-30.83L369.10-30.83Q369.10-29.52 368.19-28.81Q367.27-28.11 365.63-28.11L365.63-28.11Q365.63-31.73 364.31-33.60Q363.00-35.48 360.50-35.48L360.50-35.48Q358.53-35.48 357.33-34.33Q356.13-33.18 356.13-30.83L356.13-30.83Q356.13-29.09 356.84-27.89Q357.54-26.70 358.95-25.66Q360.36-24.63 362.48-23.27L362.48-23.27Q365.02-21.67 366.87-19.93Q368.73-18.19 369.76-15.98Q370.80-13.77 370.80-10.72L370.80-10.72Q370.80-7.19 369.48-4.68Q368.16-2.16 365.74-0.85Q363.32 0.47 359.99 0.47ZM359.99 0L359.99 0Q363.32 0 365.04-2.44Q366.75-4.89 366.75-9.16L366.75-9.16Q366.75-11.94 365.96-13.96Q365.16-15.98 363.44-17.65Q361.73-19.32 358.91-21.06L358.91-21.06Q356.98-20.35 355.71-18.85Q354.44-17.34 353.83-15.09Q353.22-12.83 353.22-9.82L353.22-9.82Q353.22-4.84 354.98-2.42Q356.74 0 359.99 0Z M386.05 0.47L386.05 0.47Q382.95 0.47 380.81-0.89Q378.68-2.26 377.57-5.15Q376.47-8.04 376.47-12.55L376.47-12.55Q376.47-17.11 377.76-20.00Q379.05-22.89 381.35-24.28Q383.66-25.66 386.76-25.66L386.76-25.66Q389.53-25.66 391.27-24.23Q393.01-22.80 393.90-20.26L393.90-20.26L394.00-20.26Q394.37-21.86 395.03-23.08Q395.69-24.30 396.39-25.19L396.39-25.19L398.89-25.19Q398.60-24.30 398.32-22.68Q398.04-21.06 397.85-19.25Q397.66-17.44 397.66-15.93L397.66-15.93L397.66-4.84Q397.66-2.77 398.65-1.62Q399.64-0.47 401.52-0.47L401.52-0.47L401.89-0.47L401.89 0L397.95 0Q396.39 0 395.43-0.70Q394.47-1.41 394.00-2.51Q393.53-3.62 393.34-4.79L393.34-4.79L393.25-4.79Q392.21-2.49 390.52-1.01Q388.83 0.47 386.05 0.47ZM386.85-0.23L386.85-0.23Q388.69-0.23 389.91-1.15Q391.13-2.07 391.88-3.69Q392.63-5.31 392.94-7.50Q393.25-9.68 393.25-12.22L393.25-12.22L393.25-18.75Q392.68-22.09 391.01-23.62Q389.34-25.14 387.32-25.14L387.32-25.14Q385.16-25.14 383.75-23.90Q382.34-22.65 381.68-19.88Q381.03-17.11 381.03-12.50L381.03-12.50Q381.03-8.04 381.61-5.33Q382.20-2.63 383.49-1.43Q384.79-0.23 386.85-0.23Z M414.10 0.47L414.10 0.47Q410.85 0.47 409.28-1.15Q407.70-2.77 407.70-6.82L407.70-6.82L407.70-25.19L412.12-25.19L412.12-4.79Q412.12-2.35 413.11-1.29Q414.10-0.23 415.84-0.23L415.84-0.23Q416.49-0.23 417.22-0.38Q417.95-0.52 418.70-0.75L418.70-0.75L418.70-0.28Q418.04 0 416.80 0.23Q415.55 0.47 414.10 0.47ZM408.36-28.48L408.36-28.95Q408.83-30.03 409.37-31.56Q409.91-33.09 410.41-34.66Q410.90-36.24 411.18-37.41L411.18-37.41L414.71-37.41L414.71-36.85Q414.24-35.86 413.20-34.31Q412.17-32.76 410.99-31.18Q409.82-29.61 408.83-28.48L408.83-28.48L408.36-28.48Z M427.00 11.28L427.00 11.28Q426.02 11.28 425.20 10.83Q424.37 10.39 423.86 9.09Q423.34 7.80 423.34 5.22L423.34 5.22Q423.34 4.14 423.43 2.66Q423.53 1.18 423.62-0.80Q423.71-2.77 423.81-5.19Q423.90-7.61 423.90-10.57L423.90-10.57L423.90-25.19L428.32-25.19L428.32-9.40Q428.32-6.20 428.77-4.18Q429.21-2.16 430.25-1.20Q431.28-0.23 432.97-0.23L432.97-0.23Q434.81-0.23 436.10-1.29Q437.39-2.35 438.05-4.54Q438.71-6.72 438.71-10.15L438.71-10.15L438.71-25.19L443.13-25.19L443.13-4.56Q443.13-2.30 443.78-1.39Q444.44-0.47 446.09-0.47L446.09-0.47L446.23-0.47L446.23 0L443.69 0Q441.43 0 440.24-1.25Q439.04-2.49 438.75-5.08L438.75-5.08L438.66-5.08Q437.96-2.21 436.40-0.87Q434.85 0.47 431.99 0.47L431.99 0.47Q430.01 0.47 428.44-0.19Q426.86-0.85 425.81-2.19Q424.75-3.52 424.28-5.59L424.28-5.59Q424.28-2.82 424.47-0.75Q424.65 1.32 425.10 2.77Q425.55 4.23 426.25 5.15Q426.96 6.06 427.99 6.56Q429.03 7.05 430.44 7.19L430.44 7.19Q430.44 8.93 429.73 10.11Q429.03 11.28 427.00 11.28Z M460.17 0.47L460.17 0.47Q457.44 0.47 455.45-0.85Q453.45-2.16 452.37-4.82Q451.29-7.47 451.29-11.47L451.29-11.47Q451.29-14.57 452.23-17.34Q453.17-20.12 454.86-22.28Q456.55-24.44 458.76-25.66L458.76-25.66L459.09-25.33Q457.77-23.88 456.81-20.80Q455.85-17.72 455.85-12.08L455.85-12.08Q455.85-8.13 456.36-5.45Q456.88-2.77 458.01-1.43Q459.14-0.09 460.87-0.09L460.87-0.09Q462.24-0.09 463.22-0.85Q464.21-1.60 464.82-3.13Q465.43-4.65 465.67-6.86L465.67-6.86Q465.43-8.08 465.18-9.28Q464.92-10.48 464.75-11.66Q464.59-12.83 464.59-13.91L464.59-13.91Q464.59-15.89 465.22-16.73Q465.86-17.58 466.75-17.58L466.75-17.58Q467.69-17.58 468.30-16.73Q468.91-15.89 468.91-13.91L468.91-13.91Q468.91-12.83 468.72-11.66Q468.54-10.48 468.30-9.28Q468.07-8.08 467.83-6.86L467.83-6.86Q468.07-4.70 468.70-3.20Q469.33-1.69 470.32-0.89Q471.31-0.09 472.62-0.09L472.62-0.09Q474.41-0.09 475.52-1.43Q476.62-2.77 477.14-5.45Q477.65-8.13 477.65-12.08L477.65-12.08Q477.65-17.72 476.71-20.80Q475.77-23.88 474.41-25.33L474.41-25.33L474.74-25.66Q476.95-24.44 478.64-22.28Q480.33-20.12 481.27-17.34Q482.21-14.57 482.21-11.47L482.21-11.47Q482.21-7.47 481.13-4.82Q480.05-2.16 478.05-0.85Q476.06 0.47 473.33 0.47L473.33 0.47Q470.84 0.47 469.26-0.87Q467.69-2.21 466.80-4.37L466.80-4.37Q466.09-2.30 464.35-0.92Q462.61 0.47 460.17 0.47Z M499.16 0L496.25 0Q495.31-3.67 494.39-7.12Q493.48-10.57 492.58-13.54Q491.69-16.50 490.77-18.75Q489.86-21.01 488.94-22.25Q488.02-23.50 487.08-23.50L487.08-23.50Q486.80-23.50 486.38-23.38Q485.96-23.27 485.53-22.98L485.53-22.98L485.30-23.36Q486.24-24.16 487.46-24.75Q488.68-25.33 490.00-25.33L490.00-25.33Q491.27-25.33 492.23-24.63Q493.19-23.92 494.04-22.30Q494.89-20.68 495.73-17.93Q496.58-15.18 497.64-11.16Q498.69-7.14 500.15-1.60L500.15-1.60Q501.56-3.10 502.78-5.05Q504.00-7.00 504.90-9.19Q505.79-11.37 506.28-13.61Q506.78-15.84 506.78-17.86L506.78-17.86Q506.78-19.55 506.45-20.61Q506.12-21.67 505.51-22.21Q504.90-22.75 504.05-22.84L504.05-22.84Q504.05-24.30 504.78-24.98Q505.51-25.66 506.68-25.66L506.68-25.66Q507.95-25.66 508.66-24.98Q509.36-24.30 509.64-23.24Q509.93-22.18 509.93-21.01L509.93-21.01Q509.93-18.52 508.96-15.56Q508.00-12.60 506.42-9.66Q504.85-6.72 502.95-4.18Q501.04-1.65 499.16 0L499.16 0Z"/></g>
      
      <g opacity="0.9">
        <line x1="384" y1="66.66" x2="476" y2="66.66"
          stroke="#C5A059" stroke-width="1.4" stroke-linecap="round"
          stroke-dasharray="92" stroke-dashoffset="0">
          <animate attributeName="stroke-dashoffset" from="92" to="0" dur="1.1s" begin="0s" fill="freeze" calcMode="spline" keySplines="0.22 1 0.36 1" keyTimes="0;1" values="92;0"/>
        </line>
        <path d="M430 63.26L433.4 66.66L430 70.06L426.6 66.66Z" fill="#8B1E1E" opacity="1"/>
      </g>
      <g fill="#5D4E42"><path transform="translate(285.32 112.5)" d="M8.07 0.22L8.07 0.22Q5.81 0.22 4.29-0.79Q2.77-1.80 2.01-3.61Q1.25-5.41 1.25-7.81L1.25-7.81Q1.25-10.23 2.02-12.06Q2.79-13.88 4.37-14.90Q5.94-15.93 8.34-15.93L8.34-15.93Q9.77-15.93 10.75-15.58Q11.73-15.22 12.24-14.65Q12.76-14.08 12.76-13.40L12.76-13.40Q12.76-12.65 12.21-12.29Q11.66-11.92 10.85-11.92L10.85-11.92Q10.85-13.29 10.56-14.11Q10.27-14.94 9.66-15.31Q9.04-15.69 8.05-15.69L8.05-15.69Q6.51-15.69 5.54-14.81Q4.58-13.93 4.14-12.20Q3.70-10.47 3.70-7.92L3.70-7.92Q3.70-5.28 4.17-3.52Q4.64-1.76 5.67-0.88Q6.69 0 8.34 0L8.34 0Q9.83 0 10.75-0.76Q11.66-1.52 12.12-3.21L12.12-3.21Q12.41-3.10 12.54-2.89Q12.67-2.68 12.67-2.38L12.67-2.38Q12.67-1.96 12.39-1.51Q12.10-1.06 11.53-0.66Q10.96-0.26 10.10-0.02Q9.24 0.22 8.07 0.22Z M20.02 0L14.10 0L14.10-0.22L14.28-0.22Q14.96-0.22 15.36-0.41Q15.75-0.59 15.92-1.03Q16.08-1.47 16.08-2.24L16.08-2.24L16.08-14.52Q16.08-15.27 15.92-15.70Q15.75-16.13 15.38-16.31Q15.01-16.50 14.32-16.50L14.32-16.50L14.21-16.50L14.21-16.72L18.15-16.72L18.15-12.28Q18.15-11.86 18.15-11.43Q18.15-11 18.15-10.58Q18.15-10.16 18.13-9.72L18.13-9.72L18.17-9.72Q18.48-10.76 19.03-11.24Q19.58-11.73 20.23-11.87Q20.88-12.01 21.43-12.01L21.43-12.01Q23.39-12.01 24.34-10.99Q25.30-9.97 25.30-7.70L25.30-7.70L25.30-2.24Q25.30-1.47 25.46-1.03Q25.61-0.59 25.97-0.41Q26.34-0.22 26.95-0.22L26.95-0.22L27.06-0.22L27.06 0L23.23 0L23.23-8.45Q23.23-9.88 22.71-10.78Q22.18-11.68 20.88-11.68L20.88-11.68Q19.85-11.68 19.25-11.13Q18.66-10.58 18.40-9.71Q18.15-8.84 18.15-7.90L18.15-7.90L18.15-2.24Q18.15-1.47 18.32-1.03Q18.48-0.59 18.87-0.41Q19.25-0.22 19.91-0.22L19.91-0.22L20.02-0.22L20.02 0Z M32.61 0.22L32.61 0.22Q30.94 0.22 29.96-0.65Q28.98-1.52 28.98-3.04L28.98-3.04Q28.98-4.73 30.22-5.57Q31.46-6.40 33.99-6.49L33.99-6.49L35.82-6.56L35.82-8.21Q35.82-9.44 35.69-10.23Q35.56-11.02 35.12-11.41Q34.68-11.79 33.77-11.79L33.77-11.79Q32.50-11.79 32.13-11Q31.77-10.21 31.77-8.51L31.77-8.51Q30.85-8.51 30.37-8.82Q29.90-9.13 29.90-9.83L29.90-9.83Q29.90-10.63 30.44-11.10Q30.98-11.57 31.88-11.79Q32.78-12.01 33.86-12.01L33.86-12.01Q35.89-12.01 36.89-11.15Q37.89-10.30 37.89-8.21L37.89-8.21L37.89-1.63Q37.89-1.10 38.02-0.79Q38.15-0.48 38.46-0.35Q38.77-0.22 39.25-0.22L39.25-0.22L39.32-0.22L39.32 0L36.00 0L36.00-2.31L35.95-2.31Q35.73-1.43 35.25-0.87Q34.76-0.31 34.09-0.04Q33.42 0.22 32.61 0.22ZM33.05-0.09L33.05-0.09Q33.86-0.09 34.49-0.51Q35.12-0.92 35.47-1.63Q35.82-2.33 35.82-3.15L35.82-3.15L35.82-6.31L34.41-6.25Q32.54-6.16 31.83-5.39Q31.11-4.62 31.11-2.79L31.11-2.79Q31.11-1.91 31.32-1.31Q31.53-0.70 31.97-0.40Q32.41-0.09 33.05-0.09Z M47.22 0L40.97 0L40.97-0.22L41.26-0.22Q41.92-0.22 42.31-0.40Q42.71-0.57 42.88-0.95Q43.06-1.32 43.06-1.91L43.06-1.91L43.06-9.86Q43.06-10.47 42.88-10.85Q42.71-11.22 42.31-11.40Q41.92-11.57 41.26-11.57L41.26-11.57L41.19-11.57L41.19-11.79L45.11-11.79L45.11-9.59L45.15-9.59Q45.30-10.16 45.61-10.71Q45.92-11.26 46.55-11.64Q47.17-12.01 48.23-12.01L48.23-12.01Q49.33-12.01 49.91-11.58Q50.50-11.15 50.50-10.38L50.50-10.38Q50.50-9.72 50.02-9.28Q49.55-8.84 48.45-8.84L48.45-8.84Q48.45-10.21 47.99-10.72Q47.53-11.24 46.95-11.24L46.95-11.24Q46.32-11.24 45.94-10.79Q45.57-10.34 45.39-9.63Q45.22-8.91 45.17-8.15Q45.13-7.39 45.13-6.75L45.13-6.75L45.13-2.02Q45.13-1.36 45.30-0.97Q45.48-0.57 45.89-0.40Q46.29-0.22 46.93-0.22L46.93-0.22L47.22-0.22L47.22 0Z M55.76 0.22L55.76 0.22Q54.08 0.22 53.10-0.65Q52.13-1.52 52.13-3.04L52.13-3.04Q52.13-4.73 53.37-5.57Q54.61-6.40 57.14-6.49L57.14-6.49L58.97-6.56L58.97-8.21Q58.97-9.44 58.84-10.23Q58.70-11.02 58.26-11.41Q57.82-11.79 56.92-11.79L56.92-11.79Q55.65-11.79 55.28-11Q54.92-10.21 54.92-8.51L54.92-8.51Q54.00-8.51 53.52-8.82Q53.05-9.13 53.05-9.83L53.05-9.83Q53.05-10.63 53.59-11.10Q54.13-11.57 55.03-11.79Q55.93-12.01 57.01-12.01L57.01-12.01Q59.03-12.01 60.03-11.15Q61.04-10.30 61.04-8.21L61.04-8.21L61.04-1.63Q61.04-1.10 61.17-0.79Q61.30-0.48 61.61-0.35Q61.92-0.22 62.40-0.22L62.40-0.22L62.47-0.22L62.47 0L59.14 0L59.14-2.31L59.10-2.31Q58.88-1.43 58.40-0.87Q57.91-0.31 57.24-0.04Q56.57 0.22 55.76 0.22ZM56.20-0.09L56.20-0.09Q57.01-0.09 57.64-0.51Q58.26-0.92 58.62-1.63Q58.97-2.33 58.97-3.15L58.97-3.15L58.97-6.31L57.56-6.25Q55.69-6.16 54.97-5.39Q54.26-4.62 54.26-2.79L54.26-2.79Q54.26-1.91 54.47-1.31Q54.68-0.70 55.12-0.40Q55.56-0.09 56.20-0.09Z M69.88 0.22L69.88 0.22Q68.39 0.22 67.24-0.38Q66.10-0.99 65.46-2.35Q64.82-3.72 64.82-5.94L64.82-5.94Q64.82-8.21 65.47-9.54Q66.12-10.87 67.22-11.44Q68.32-12.01 69.71-12.01L69.71-12.01Q70.63-12.01 71.52-11.77Q72.41-11.53 72.98-11.03Q73.56-10.54 73.56-9.72L73.56-9.72Q73.56-9.24 73.32-8.94Q73.09-8.65 72.66-8.51Q72.24-8.38 71.60-8.38L71.60-8.38Q71.60-9.55 71.43-10.31Q71.27-11.07 70.85-11.43Q70.43-11.79 69.66-11.79L69.66-11.79Q68.87-11.79 68.25-11.30Q67.64-10.80 67.30-9.54Q66.96-8.27 66.96-5.92L66.96-5.92Q66.96-3.76 67.29-2.45Q67.62-1.14 68.34-0.57Q69.07 0 70.21 0L70.21 0Q70.94 0 71.52-0.24Q72.10-0.48 72.53-1.09Q72.96-1.69 73.20-2.75L73.20-2.75Q73.42-2.71 73.54-2.53Q73.67-2.35 73.67-2.05L73.67-2.05Q73.67-1.52 73.25-1.00Q72.83-0.48 71.99-0.13Q71.16 0.22 69.88 0.22Z M79.92 0.22L79.92 0.22Q78.24 0.22 77.48-0.54Q76.73-1.30 76.73-3.19L76.73-3.19L76.73-11.57L75.05-11.57L75.05-11.79Q75.85-11.79 76.43-11.93Q77.01-12.08 77.43-12.39L77.43-12.39Q77.87-12.69 78.14-13.22Q78.42-13.75 78.57-14.50L78.57-14.50L78.79-14.50L78.79-11.79L81.87-11.79L81.87-11.57L78.79-11.57L78.79-2.38Q78.79-1.23 79.23-0.66Q79.67-0.09 80.53-0.09L80.53-0.09Q80.84-0.09 81.17-0.15Q81.50-0.22 81.87-0.35L81.87-0.35L81.87-0.13Q81.59 0 81.02 0.11Q80.44 0.22 79.92 0.22Z M89.00 0.22L89.00 0.22Q86.54 0.22 85.16-1.36Q83.79-2.95 83.79-5.81L83.79-5.81Q83.79-8.89 85.07-10.45Q86.34-12.01 88.67-12.01L88.67-12.01Q90.81-12.01 92.03-10.69Q93.25-9.37 93.25-6.75L93.25-6.75L93.25-6.23L85.92-6.23Q85.95-3.98 86.25-2.62Q86.56-1.25 87.25-0.63Q87.95 0 89.07 0L89.07 0Q89.91 0 90.55-0.31Q91.20-0.62 91.64-1.22Q92.08-1.83 92.24-2.71L92.24-2.71Q92.50-2.66 92.63-2.44Q92.77-2.22 92.77-1.98L92.77-1.98Q92.77-1.54 92.35-1.02Q91.93-0.51 91.11-0.14Q90.28 0.22 89.00 0.22ZM85.92-6.45L91.03-6.45Q91.03-8.38 90.79-9.55Q90.54-10.71 90.02-11.25Q89.49-11.79 88.63-11.79L88.63-11.79Q87.73-11.79 87.16-11.25Q86.58-10.71 86.30-9.55Q86.01-8.38 85.92-6.45L85.92-6.45Z M101.30 0L95.06 0L95.06-0.22L95.34-0.22Q96.00-0.22 96.40-0.40Q96.79-0.57 96.97-0.95Q97.15-1.32 97.15-1.91L97.15-1.91L97.15-9.86Q97.15-10.47 96.97-10.85Q96.79-11.22 96.40-11.40Q96.00-11.57 95.34-11.57L95.34-11.57L95.28-11.57L95.28-11.79L99.19-11.79L99.19-9.59L99.24-9.59Q99.39-10.16 99.70-10.71Q100.01-11.26 100.63-11.64Q101.26-12.01 102.32-12.01L102.32-12.01Q103.42-12.01 104.00-11.58Q104.58-11.15 104.58-10.38L104.58-10.38Q104.58-9.72 104.11-9.28Q103.64-8.84 102.54-8.84L102.54-8.84Q102.54-10.21 102.07-10.72Q101.61-11.24 101.04-11.24L101.04-11.24Q100.40-11.24 100.03-10.79Q99.65-10.34 99.48-9.63Q99.30-8.91 99.26-8.15Q99.21-7.39 99.21-6.75L99.21-6.75L99.21-2.02Q99.21-1.36 99.39-0.97Q99.57-0.57 99.97-0.40Q100.38-0.22 101.02-0.22L101.02-0.22L101.30-0.22L101.30 0Z M117.02 0L110.77 0L110.77-0.22L111.05-0.22Q111.71-0.22 112.11-0.40Q112.51-0.57 112.68-0.95Q112.86-1.32 112.86-1.91L112.86-1.91L112.86-9.86Q112.86-10.47 112.68-10.85Q112.51-11.22 112.11-11.40Q111.71-11.57 111.05-11.57L111.05-11.57L110.99-11.57L110.99-11.79L114.93-11.79L114.93-2.02Q114.93-1.36 115.10-0.97Q115.28-0.57 115.69-0.40Q116.09-0.22 116.73-0.22L116.73-0.22L117.02-0.22L117.02 0ZM113.78-13.90L113.78-13.90Q113.36-13.90 113.09-14.18Q112.81-14.45 112.81-15.14L112.81-15.14Q112.81-15.84 113.09-16.10Q113.36-16.37 113.78-16.37L113.78-16.37Q114.18-16.37 114.46-16.10Q114.75-15.84 114.75-15.14L114.75-15.14Q114.75-14.45 114.46-14.18Q114.18-13.90 113.78-13.90Z M122.21 0.22L122.21 0.22Q121.11 0.22 120.27-0.04Q119.44-0.31 118.96-0.82Q118.49-1.34 118.49-2.11L118.49-2.11Q118.49-2.71 118.73-3.04Q118.98-3.37 119.30-3.50Q119.61-3.63 119.88-3.63L119.88-3.63Q119.88-2.44 120.10-1.64Q120.32-0.84 120.85-0.42Q121.37 0 122.25 0L122.25 0Q123.42 0 124.10-0.60Q124.78-1.21 124.78-2.40L124.78-2.40Q124.78-3.17 124.52-3.62Q124.26-4.07 123.65-4.42Q123.05-4.77 121.97-5.24L121.97-5.24Q120.71-5.79 119.99-6.30Q119.26-6.82 118.95-7.44Q118.65-8.05 118.65-8.89L118.65-8.89Q118.65-10.38 119.70-11.19Q120.76-11.99 122.63-11.99L122.63-11.99Q123.68-11.99 124.44-11.71Q125.20-11.44 125.60-10.98Q125.99-10.52 125.99-9.97L125.99-9.97Q125.99-9.37 125.59-9.01Q125.18-8.65 124.41-8.65L124.41-8.65Q124.41-10.34 123.95-11.05Q123.49-11.77 122.52-11.77L122.52-11.77Q121.77-11.77 121.27-11.53Q120.78-11.29 120.53-10.82Q120.27-10.36 120.27-9.66L120.27-9.66Q120.27-8.89 120.58-8.43Q120.89-7.96 121.54-7.63Q122.19-7.30 123.16-6.89L123.16-6.89Q124.41-6.38 125.14-5.86Q125.86-5.35 126.16-4.72Q126.46-4.09 126.46-3.23L126.46-3.23Q126.46-1.52 125.31-0.65Q124.17 0.22 122.21 0.22Z M137.50 0.22L137.50 0.22Q135.83 0.22 134.85-0.65Q133.87-1.52 133.87-3.04L133.87-3.04Q133.87-4.73 135.12-5.57Q136.36-6.40 138.89-6.49L138.89-6.49L140.72-6.56L140.72-8.21Q140.72-9.44 140.58-10.23Q140.45-11.02 140.01-11.41Q139.57-11.79 138.67-11.79L138.67-11.79Q137.39-11.79 137.03-11Q136.67-10.21 136.67-8.51L136.67-8.51Q135.74-8.51 135.27-8.82Q134.80-9.13 134.80-9.83L134.80-9.83Q134.80-10.63 135.34-11.10Q135.88-11.57 136.78-11.79Q137.68-12.01 138.76-12.01L138.76-12.01Q140.78-12.01 141.78-11.15Q142.78-10.30 142.78-8.21L142.78-8.21L142.78-1.63Q142.78-1.10 142.92-0.79Q143.05-0.48 143.36-0.35Q143.66-0.22 144.15-0.22L144.15-0.22L144.21-0.22L144.21 0L140.89 0L140.89-2.31L140.85-2.31Q140.63-1.43 140.14-0.87Q139.66-0.31 138.99-0.04Q138.32 0.22 137.50 0.22ZM137.94-0.09L137.94-0.09Q138.76-0.09 139.38-0.51Q140.01-0.92 140.36-1.63Q140.72-2.33 140.72-3.15L140.72-3.15L140.72-6.31L139.31-6.25Q137.44-6.16 136.72-5.39Q136.01-4.62 136.01-2.79L136.01-2.79Q136.01-1.91 136.22-1.31Q136.43-0.70 136.87-0.40Q137.31-0.09 137.94-0.09Z M156.82 5.28L150.91 5.28L150.91 5.06L151.08 5.06Q151.74 5.06 152.14 4.88Q152.53 4.71 152.71 4.33Q152.89 3.96 152.89 3.37L152.89 3.37L152.89-9.86Q152.89-10.47 152.71-10.85Q152.53-11.22 152.14-11.40Q151.74-11.57 151.08-11.57L151.08-11.57L150.80-11.57L150.80-11.79L154.91-11.79L154.91-8.73L154.95-8.73Q155.26-10.41 156.11-11.21Q156.96-12.01 158.43-12.01L158.43-12.01Q160.59-12.01 161.70-10.47Q162.81-8.93 162.81-5.92L162.81-5.92Q162.81-2.90 161.68-1.34Q160.54 0.22 158.39 0.22L158.39 0.22Q156.96 0.22 156.12-0.59Q155.28-1.41 154.98-3.10L154.98-3.10L154.93-3.10Q154.95-2.55 154.95-2.00Q154.95-1.45 154.95-0.90L154.95-0.90L154.95 3.26Q154.95 3.89 155.13 4.30Q155.31 4.71 155.70 4.88Q156.10 5.06 156.76 5.06L156.76 5.06L156.82 5.06L156.82 5.28ZM158.01-0.11L158.01-0.11Q158.98-0.11 159.56-0.69Q160.15-1.28 160.41-2.56Q160.67-3.85 160.67-5.94L160.67-5.94Q160.67-8.01 160.41-9.27Q160.15-10.54 159.55-11.11Q158.96-11.68 157.99-11.68L157.99-11.68Q156.93-11.68 156.26-11.03Q155.59-10.38 155.27-9.11Q154.95-7.83 154.95-5.92L154.95-5.92Q154.95-3.96 155.28-2.66Q155.61-1.36 156.30-0.74Q156.98-0.11 158.01-0.11Z M170.64 0.22L170.64 0.22Q168.18 0.22 166.80-1.36Q165.43-2.95 165.43-5.81L165.43-5.81Q165.43-8.89 166.70-10.45Q167.98-12.01 170.31-12.01L170.31-12.01Q172.45-12.01 173.67-10.69Q174.89-9.37 174.89-6.75L174.89-6.75L174.89-6.23L167.56-6.23Q167.58-3.98 167.89-2.62Q168.20-1.25 168.89-0.63Q169.59 0 170.71 0L170.71 0Q171.54 0 172.19-0.31Q172.84-0.62 173.28-1.22Q173.72-1.83 173.88-2.71L173.88-2.71Q174.14-2.66 174.27-2.44Q174.40-2.22 174.40-1.98L174.40-1.98Q174.40-1.54 173.99-1.02Q173.57-0.51 172.74-0.14Q171.92 0.22 170.64 0.22ZM167.56-6.45L172.67-6.45Q172.67-8.38 172.42-9.55Q172.18-10.71 171.65-11.25Q171.13-11.79 170.27-11.79L170.27-11.79Q169.37-11.79 168.79-11.25Q168.22-10.71 167.94-9.55Q167.65-8.38 167.56-6.45L167.56-6.45Z M182.94 0L176.69 0L176.69-0.22L176.98-0.22Q177.64-0.22 178.04-0.40Q178.43-0.57 178.61-0.95Q178.78-1.32 178.78-1.91L178.78-1.91L178.78-9.86Q178.78-10.47 178.61-10.85Q178.43-11.22 178.04-11.40Q177.64-11.57 176.98-11.57L176.98-11.57L176.91-11.57L176.91-11.79L180.83-11.79L180.83-9.59L180.87-9.59Q181.03-10.16 181.34-10.71Q181.64-11.26 182.27-11.64Q182.90-12.01 183.95-12.01L183.95-12.01Q185.05-12.01 185.64-11.58Q186.22-11.15 186.22-10.38L186.22-10.38Q186.22-9.72 185.75-9.28Q185.27-8.84 184.17-8.84L184.17-8.84Q184.17-10.21 183.71-10.72Q183.25-11.24 182.68-11.24L182.68-11.24Q182.04-11.24 181.67-10.79Q181.29-10.34 181.12-9.63Q180.94-8.91 180.90-8.15Q180.85-7.39 180.85-6.75L180.85-6.75L180.85-2.02Q180.85-1.36 181.03-0.97Q181.20-0.57 181.61-0.40Q182.02-0.22 182.66-0.22L182.66-0.22L182.94-0.22L182.94 0Z M191.46 0.22L191.46 0.22Q190.36 0.22 189.52-0.04Q188.69-0.31 188.21-0.82Q187.74-1.34 187.74-2.11L187.74-2.11Q187.74-2.71 187.98-3.04Q188.22-3.37 188.54-3.50Q188.86-3.63 189.13-3.63L189.13-3.63Q189.13-2.44 189.35-1.64Q189.57-0.84 190.09-0.42Q190.62 0 191.50 0L191.50 0Q192.67 0 193.35-0.60Q194.03-1.21 194.03-2.40L194.03-2.40Q194.03-3.17 193.77-3.62Q193.50-4.07 192.90-4.42Q192.29-4.77 191.22-5.24L191.22-5.24Q189.96-5.79 189.24-6.30Q188.51-6.82 188.20-7.44Q187.89-8.05 187.89-8.89L187.89-8.89Q187.89-10.38 188.95-11.19Q190.01-11.99 191.88-11.99L191.88-11.99Q192.93-11.99 193.69-11.71Q194.45-11.44 194.85-10.98Q195.24-10.52 195.24-9.97L195.24-9.97Q195.24-9.37 194.84-9.01Q194.43-8.65 193.66-8.65L193.66-8.65Q193.66-10.34 193.20-11.05Q192.73-11.77 191.77-11.77L191.77-11.77Q191.02-11.77 190.52-11.53Q190.03-11.29 189.78-10.82Q189.52-10.36 189.52-9.66L189.52-9.66Q189.52-8.89 189.83-8.43Q190.14-7.96 190.79-7.63Q191.44-7.30 192.40-6.89L192.40-6.89Q193.66-6.38 194.38-5.86Q195.11-5.35 195.41-4.72Q195.70-4.09 195.70-3.23L195.70-3.23Q195.70-1.52 194.56-0.65Q193.42 0.22 191.46 0.22Z M203.19 0.22L203.19 0.22Q200.81 0.22 199.45-1.30Q198.08-2.82 198.08-5.92L198.08-5.92Q198.08-9.00 199.39-10.50Q200.70-12.01 203.25-12.01L203.25-12.01Q205.63-12.01 206.99-10.50Q208.36-9.00 208.36-5.92L208.36-5.92Q208.36-2.82 207.05-1.30Q205.74 0.22 203.19 0.22ZM203.23 0L203.23 0Q204.31 0 204.97-0.59Q205.63-1.19 205.93-2.49Q206.22-3.78 206.22-5.92L206.22-5.92Q206.22-8.03 205.93-9.33Q205.63-10.63 204.97-11.21Q204.31-11.79 203.21-11.79L203.21-11.79Q202.13-11.79 201.47-11.21Q200.81-10.63 200.51-9.33Q200.22-8.03 200.22-5.92L200.22-5.92Q200.22-3.78 200.51-2.49Q200.81-1.19 201.48-0.59Q202.15 0 203.23 0Z M216.30 0L210.38 0L210.38-0.22L210.56-0.22Q211.24-0.22 211.64-0.41Q212.03-0.59 212.20-1.03Q212.36-1.47 212.36-2.24L212.36-2.24L212.36-9.59Q212.36-10.34 212.20-10.77Q212.03-11.20 211.66-11.38Q211.28-11.57 210.60-11.57L210.60-11.57L210.49-11.57L210.49-11.79L214.41-11.79L214.41-9.72L214.45-9.72Q214.76-10.76 215.31-11.24Q215.86-11.73 216.51-11.87Q217.16-12.01 217.71-12.01L217.71-12.01Q219.67-12.01 220.62-10.99Q221.58-9.97 221.58-7.70L221.58-7.70L221.58-2.24Q221.58-1.47 221.73-1.03Q221.89-0.59 222.25-0.41Q222.61-0.22 223.23-0.22L223.23-0.22L223.34-0.22L223.34 0L219.51 0L219.51-8.45Q219.51-9.88 218.98-10.78Q218.46-11.68 217.16-11.68L217.16-11.68Q216.12-11.68 215.53-11.13Q214.94-10.58 214.68-9.71Q214.43-8.84 214.43-7.90L214.43-7.90L214.43-2.24Q214.43-1.47 214.60-1.03Q214.76-0.59 215.15-0.41Q215.53-0.22 216.19-0.22L216.19-0.22L216.30-0.22L216.30 0Z M226.03-10.54L225.70-10.54L224.82-15.71L226.91-15.71L226.03-10.54Z M232.47 0.22L232.47 0.22Q231.37 0.22 230.54-0.04Q229.70-0.31 229.23-0.82Q228.76-1.34 228.76-2.11L228.76-2.11Q228.76-2.71 229.00-3.04Q229.24-3.37 229.56-3.50Q229.88-3.63 230.14-3.63L230.14-3.63Q230.14-2.44 230.36-1.64Q230.58-0.84 231.11-0.42Q231.64 0 232.52 0L232.52 0Q233.68 0 234.37-0.60Q235.05-1.21 235.05-2.40L235.05-2.40Q235.05-3.17 234.78-3.62Q234.52-4.07 233.92-4.42Q233.31-4.77 232.23-5.24L232.23-5.24Q230.98-5.79 230.25-6.30Q229.53-6.82 229.22-7.44Q228.91-8.05 228.91-8.89L228.91-8.89Q228.91-10.38 229.97-11.19Q231.02-11.99 232.89-11.99L232.89-11.99Q233.95-11.99 234.71-11.71Q235.47-11.44 235.86-10.98Q236.26-10.52 236.26-9.97L236.26-9.97Q236.26-9.37 235.85-9.01Q235.44-8.65 234.67-8.65L234.67-8.65Q234.67-10.34 234.21-11.05Q233.75-11.77 232.78-11.77L232.78-11.77Q232.03-11.77 231.54-11.53Q231.04-11.29 230.79-10.82Q230.54-10.36 230.54-9.66L230.54-9.66Q230.54-8.89 230.85-8.43Q231.15-7.96 231.80-7.63Q232.45-7.30 233.42-6.89L233.42-6.89Q234.67-6.38 235.40-5.86Q236.13-5.35 236.42-4.72Q236.72-4.09 236.72-3.23L236.72-3.23Q236.72-1.52 235.58-0.65Q234.43 0.22 232.47 0.22Z M250.43 0L243.63 0L243.63-0.22L243.92-0.22Q244.58-0.22 244.97-0.40Q245.37-0.57 245.55-0.95Q245.72-1.32 245.72-1.91L245.72-1.91L245.72-11.57L243.72-11.57L243.72-11.79L245.72-11.79L245.72-12.89Q245.72-14.85 246.76-15.89Q247.79-16.94 249.88-16.94L249.88-16.94Q250.83-16.94 251.44-16.74Q252.06-16.54 252.38-16.20Q252.70-15.86 252.70-15.40L252.70-15.40Q252.70-15.00 252.47-14.73Q252.23-14.45 251.83-14.31Q251.42-14.17 250.89-14.17L250.89-14.17Q250.89-15.58 250.57-16.15Q250.25-16.72 249.46-16.72L249.46-16.72Q248.54-16.72 248.16-15.92Q247.79-15.11 247.79-13.09L247.79-13.09L247.79-11.79L250.89-11.79L250.89-11.57L247.79-11.57L247.79-2.02Q247.79-1.36 247.97-0.97Q248.14-0.57 248.55-0.40Q248.96-0.22 249.59-0.22L249.59-0.22L250.43-0.22L250.43 0Z M256.09 0.22L256.09 0.22Q254.41 0.22 253.44-0.65Q252.46-1.52 252.46-3.04L252.46-3.04Q252.46-4.73 253.70-5.57Q254.94-6.40 257.47-6.49L257.47-6.49L259.30-6.56L259.30-8.21Q259.30-9.44 259.17-10.23Q259.03-11.02 258.59-11.41Q258.15-11.79 257.25-11.79L257.25-11.79Q255.98-11.79 255.61-11Q255.25-10.21 255.25-8.51L255.25-8.51Q254.33-8.51 253.85-8.82Q253.38-9.13 253.38-9.83L253.38-9.83Q253.38-10.63 253.92-11.10Q254.46-11.57 255.36-11.79Q256.26-12.01 257.34-12.01L257.34-12.01Q259.36-12.01 260.37-11.15Q261.37-10.30 261.37-8.21L261.37-8.21L261.37-1.63Q261.37-1.10 261.50-0.79Q261.63-0.48 261.94-0.35Q262.25-0.22 262.73-0.22L262.73-0.22L262.80-0.22L262.80 0L259.47 0L259.47-2.31L259.43-2.31Q259.21-1.43 258.73-0.87Q258.24-0.31 257.57-0.04Q256.90 0.22 256.09 0.22ZM256.53-0.09L256.53-0.09Q257.34-0.09 257.97-0.51Q258.59-0.92 258.95-1.63Q259.30-2.33 259.30-3.15L259.30-3.15L259.30-6.31L257.89-6.25Q256.02-6.16 255.31-5.39Q254.59-4.62 254.59-2.79L254.59-2.79Q254.59-1.91 254.80-1.31Q255.01-0.70 255.45-0.40Q255.89-0.09 256.53-0.09Z M269.22 0.22L269.22 0.22Q267.55 0.22 266.79-0.54Q266.03-1.30 266.03-3.19L266.03-3.19L266.03-11.57L264.36-11.57L264.36-11.79Q265.15-11.79 265.74-11.93Q266.32-12.08 266.74-12.39L266.74-12.39Q267.18-12.69 267.45-13.22Q267.73-13.75 267.88-14.50L267.88-14.50L268.10-14.50L268.10-11.79L271.18-11.79L271.18-11.57L268.10-11.57L268.10-2.38Q268.10-1.23 268.54-0.66Q268.98-0.09 269.84-0.09L269.84-0.09Q270.15-0.09 270.48-0.15Q270.81-0.22 271.18-0.35L271.18-0.35L271.18-0.13Q270.89 0 270.32 0.11Q269.75 0.22 269.22 0.22Z M278.31 0.22L278.31 0.22Q275.85 0.22 274.47-1.36Q273.10-2.95 273.10-5.81L273.10-5.81Q273.10-8.89 274.37-10.45Q275.65-12.01 277.98-12.01L277.98-12.01Q280.11-12.01 281.34-10.69Q282.56-9.37 282.56-6.75L282.56-6.75L282.56-6.23L275.23-6.23Q275.25-3.98 275.56-2.62Q275.87-1.25 276.56-0.63Q277.25 0 278.38 0L278.38 0Q279.21 0 279.86-0.31Q280.51-0.62 280.95-1.22Q281.39-1.83 281.54-2.71L281.54-2.71Q281.81-2.66 281.94-2.44Q282.07-2.22 282.07-1.98L282.07-1.98Q282.07-1.54 281.65-1.02Q281.24-0.51 280.41-0.14Q279.59 0.22 278.31 0.22ZM275.23-6.45L280.33-6.45Q280.33-8.38 280.09-9.55Q279.85-10.71 279.32-11.25Q278.79-11.79 277.94-11.79L277.94-11.79Q277.03-11.79 276.46-11.25Q275.89-10.71 275.60-9.55Q275.32-8.38 275.23-6.45L275.23-6.45Z M286.61 0.15L286.61 0.15Q286.01 0.15 285.71-0.22Q285.42-0.59 285.42-1.34L285.42-1.34Q285.42-2.09 285.71-2.46Q286.01-2.84 286.61-2.84L286.61-2.84Q287.20-2.84 287.50-2.46Q287.79-2.09 287.79-1.34L287.79-1.34Q287.79-0.59 287.50-0.22Q287.20 0.15 286.61 0.15Z"/></g>
    </g>
  </g>

  <g fill="#5E4722" stroke="#5E4722" stroke-width="0.2" opacity="1"><animate attributeName="opacity" from="0" to="1" dur="1.2s" begin="0s" fill="freeze"/><path transform="translate(617.23 262)" d="M5.28 0L0.62 0L0.62-0.16L0.83-0.16Q1.26-0.16 1.56-0.29Q1.86-0.42 2-0.67Q2.14-0.93 2.14-1.31L2.14-1.31L2.14-10.18Q2.14-10.54 2-10.78Q1.86-11.02 1.56-11.14Q1.26-11.26 0.83-11.26L0.83-11.26L0.62-11.26L0.62-11.42L5.28-11.42L5.28-11.26L5.07-11.26Q4.64-11.26 4.34-11.14Q4.05-11.01 3.90-10.75Q3.76-10.50 3.76-10.11L3.76-10.11L3.76-6.05L8.94-6.05L8.94-10.11Q8.94-10.50 8.80-10.75Q8.66-11.01 8.37-11.14Q8.08-11.26 7.63-11.26L7.63-11.26L7.42-11.26L7.42-11.42L12.08-11.42L12.08-11.26L11.87-11.26Q11.44-11.26 11.15-11.14Q10.86-11.02 10.71-10.78Q10.56-10.54 10.56-10.18L10.56-10.18L10.56-1.31Q10.56-0.93 10.71-0.67Q10.86-0.42 11.15-0.29Q11.44-0.16 11.87-0.16L11.87-0.16L12.08-0.16L12.08 0L7.42 0L7.42-0.16L7.63-0.16Q8.08-0.16 8.37-0.29Q8.66-0.42 8.80-0.67Q8.94-0.93 8.94-1.31L8.94-1.31L8.94-5.89L3.76-5.89L3.76-1.31Q3.76-0.93 3.90-0.67Q4.05-0.42 4.34-0.29Q4.64-0.16 5.07-0.16L5.07-0.16L5.28-0.16L5.28 0Z M18.56 0.16L18.56 0.16Q16.77 0.16 15.77-0.99Q14.77-2.14 14.77-4.22L14.77-4.22Q14.77-6.46 15.70-7.60Q16.62-8.74 18.32-8.74L18.32-8.74Q19.87-8.74 20.76-7.78Q21.65-6.82 21.65-4.91L21.65-4.91L21.65-4.53L16.32-4.53Q16.34-2.90 16.56-1.90Q16.78-0.91 17.29-0.46Q17.79 0 18.61 0L18.61 0Q19.22 0 19.69-0.22Q20.16-0.45 20.48-0.89Q20.80-1.33 20.91-1.97L20.91-1.97Q21.10-1.94 21.20-1.78Q21.30-1.62 21.30-1.44L21.30-1.44Q21.30-1.12 20.99-0.74Q20.69-0.37 20.09-0.10Q19.49 0.16 18.56 0.16ZM16.32-4.69L20.03-4.69Q20.03-6.10 19.86-6.94Q19.68-7.79 19.30-8.18Q18.91-8.58 18.29-8.58L18.29-8.58Q17.63-8.58 17.22-8.18Q16.80-7.79 16.59-6.94Q16.38-6.10 16.32-4.69L16.32-4.69Z M28.56 0L24.02 0L24.02-0.16L24.22-0.16Q24.70-0.16 24.99-0.29Q25.28-0.42 25.41-0.69Q25.54-0.96 25.54-1.39L25.54-1.39L25.54-7.17Q25.54-7.62 25.41-7.89Q25.28-8.16 24.99-8.29Q24.70-8.42 24.22-8.42L24.22-8.42L24.18-8.42L24.18-8.58L27.02-8.58L27.02-6.98L27.06-6.98Q27.17-7.39 27.39-7.79Q27.62-8.19 28.07-8.46Q28.53-8.74 29.30-8.74L29.30-8.74Q30.10-8.74 30.52-8.42Q30.94-8.11 30.94-7.55L30.94-7.55Q30.94-7.07 30.60-6.75Q30.26-6.43 29.46-6.43L29.46-6.43Q29.46-7.42 29.12-7.80Q28.78-8.18 28.37-8.18L28.37-8.18Q27.90-8.18 27.63-7.85Q27.36-7.52 27.23-7Q27.10-6.48 27.07-5.93Q27.04-5.38 27.04-4.91L27.04-4.91L27.04-1.47Q27.04-0.99 27.17-0.70Q27.30-0.42 27.59-0.29Q27.89-0.16 28.35-0.16L28.35-0.16L28.56-0.16L28.56 0Z M35.82 0.16L35.82 0.16Q34.61 0.16 33.90-0.47Q33.18-1.10 33.18-2.21L33.18-2.21Q33.18-3.44 34.09-4.05Q34.99-4.66 36.83-4.72L36.83-4.72L38.16-4.77L38.16-5.97Q38.16-6.86 38.06-7.44Q37.97-8.02 37.65-8.30Q37.33-8.58 36.67-8.58L36.67-8.58Q35.74-8.58 35.48-8Q35.22-7.42 35.22-6.19L35.22-6.19Q34.54-6.19 34.20-6.42Q33.86-6.64 33.86-7.15L33.86-7.15Q33.86-7.73 34.25-8.07Q34.64-8.42 35.30-8.58Q35.95-8.74 36.74-8.74L36.74-8.74Q38.21-8.74 38.94-8.11Q39.66-7.49 39.66-5.97L39.66-5.97L39.66-1.18Q39.66-0.80 39.76-0.58Q39.86-0.35 40.08-0.26Q40.30-0.16 40.66-0.16L40.66-0.16L40.70-0.16L40.70 0L38.29 0L38.29-1.68L38.26-1.68Q38.10-1.04 37.74-0.63Q37.39-0.22 36.90-0.03Q36.42 0.16 35.82 0.16ZM36.14-0.06L36.14-0.06Q36.74-0.06 37.19-0.37Q37.65-0.67 37.90-1.18Q38.16-1.70 38.16-2.29L38.16-2.29L38.16-4.59L37.14-4.54Q35.78-4.48 35.26-3.92Q34.74-3.36 34.74-2.03L34.74-2.03Q34.74-1.39 34.89-0.95Q35.04-0.51 35.36-0.29Q35.68-0.06 36.14-0.06Z M47.15 0.16L47.15 0.16Q46.06 0.16 45.23-0.28Q44.40-0.72 43.94-1.71Q43.47-2.70 43.47-4.32L43.47-4.32Q43.47-5.97 43.94-6.94Q44.42-7.90 45.22-8.32Q46.02-8.74 47.02-8.74L47.02-8.74Q47.70-8.74 48.34-8.56Q48.99-8.38 49.41-8.02Q49.82-7.66 49.82-7.07L49.82-7.07Q49.82-6.72 49.66-6.50Q49.49-6.29 49.18-6.19Q48.86-6.10 48.40-6.10L48.40-6.10Q48.40-6.94 48.28-7.50Q48.16-8.05 47.86-8.31Q47.55-8.58 46.99-8.58L46.99-8.58Q46.42-8.58 45.97-8.22Q45.52-7.86 45.27-6.94Q45.02-6.02 45.02-4.30L45.02-4.30Q45.02-2.74 45.26-1.78Q45.50-0.83 46.03-0.42Q46.56 0 47.39 0L47.39 0Q47.92 0 48.34-0.18Q48.77-0.35 49.08-0.79Q49.39-1.23 49.57-2L49.57-2Q49.73-1.97 49.82-1.84Q49.90-1.71 49.90-1.49L49.90-1.49Q49.90-1.10 49.60-0.73Q49.30-0.35 48.69-0.10Q48.08 0.16 47.15 0.16Z M56.42 0L51.87 0L51.87-0.16L52.08-0.16Q52.56-0.16 52.85-0.29Q53.14-0.42 53.26-0.69Q53.39-0.96 53.39-1.39L53.39-1.39L53.39-10.75Q53.39-11.20 53.26-11.47Q53.14-11.74 52.85-11.87Q52.56-12 52.08-12L52.08-12L51.87-12L51.87-12.16L54.90-12.16L54.90-1.47Q54.90-0.99 55.02-0.70Q55.15-0.42 55.44-0.29Q55.73-0.16 56.21-0.16L56.21-0.16L56.42-0.16L56.42 0Z M62.74 0L58.19 0L58.19-0.16L58.40-0.16Q58.88-0.16 59.17-0.29Q59.46-0.42 59.58-0.69Q59.71-0.96 59.71-1.39L59.71-1.39L59.71-7.17Q59.71-7.62 59.58-7.89Q59.46-8.16 59.17-8.29Q58.88-8.42 58.40-8.42L58.40-8.42L58.35-8.42L58.35-8.58L61.22-8.58L61.22-1.47Q61.22-0.99 61.34-0.70Q61.47-0.42 61.77-0.29Q62.06-0.16 62.53-0.16L62.53-0.16L62.74-0.16L62.74 0ZM60.38-10.11L60.38-10.11Q60.08-10.11 59.88-10.31Q59.68-10.51 59.68-11.01L59.68-11.01Q59.68-11.52 59.88-11.71Q60.08-11.90 60.38-11.90L60.38-11.90Q60.67-11.90 60.88-11.71Q61.09-11.52 61.09-11.01L61.09-11.01Q61.09-10.51 60.88-10.31Q60.67-10.11 60.38-10.11Z M67.98 0.16L67.98 0.16Q66.77 0.16 66.22-0.39Q65.66-0.94 65.66-2.32L65.66-2.32L65.66-8.42L64.45-8.42L64.45-8.58Q65.02-8.58 65.45-8.68Q65.87-8.78 66.18-9.01L66.18-9.01Q66.50-9.23 66.70-9.62Q66.90-10 67.01-10.54L67.01-10.54L67.17-10.54L67.17-8.58L69.41-8.58L69.41-8.42L67.17-8.42L67.17-1.73Q67.17-0.90 67.49-0.48Q67.81-0.06 68.43-0.06L68.43-0.06Q68.66-0.06 68.90-0.11Q69.14-0.16 69.41-0.26L69.41-0.26L69.41-0.10Q69.20 0 68.78 0.08Q68.37 0.16 67.98 0.16Z M75.50 0.16L75.50 0.16Q74.10 0.16 73.40-0.58Q72.70-1.33 72.70-2.98L72.70-2.98L72.70-6.98Q72.70-7.52 72.58-7.83Q72.46-8.14 72.18-8.28Q71.89-8.42 71.39-8.42L71.39-8.42L71.34-8.42L71.34-8.58L74.21-8.58L74.21-2.90Q74.21-1.87 74.35-1.26Q74.50-0.64 74.84-0.35Q75.18-0.06 75.76-0.06L75.76-0.06Q76.48-0.06 76.95-0.44Q77.42-0.82 77.66-1.54Q77.90-2.27 77.90-3.30L77.90-3.30L77.90-6.98Q77.90-7.52 77.78-7.83Q77.66-8.14 77.38-8.28Q77.09-8.42 76.59-8.42L76.59-8.42L76.54-8.42L76.54-8.58L79.41-8.58L79.41-1.58Q79.41-1.04 79.53-0.73Q79.65-0.42 79.94-0.29Q80.22-0.16 80.72-0.16L80.72-0.16L80.77-0.16L80.77 0L78.02 0L78.02-2.19L77.98-2.19Q77.86-1.38 77.58-0.90Q77.30-0.43 76.94-0.21Q76.58 0.02 76.20 0.09Q75.82 0.16 75.50 0.16Z M85.76 0.16L85.76 0.16Q84.96 0.16 84.35-0.03Q83.74-0.22 83.40-0.60Q83.06-0.98 83.06-1.54L83.06-1.54Q83.06-1.97 83.23-2.21Q83.41-2.45 83.64-2.54Q83.87-2.64 84.06-2.64L84.06-2.64Q84.06-1.78 84.22-1.19Q84.38-0.61 84.77-0.30Q85.15 0 85.79 0L85.79 0Q86.64 0 87.14-0.44Q87.63-0.88 87.63-1.74L87.63-1.74Q87.63-2.30 87.44-2.63Q87.25-2.96 86.81-3.22Q86.37-3.47 85.58-3.81L85.58-3.81Q84.67-4.21 84.14-4.58Q83.62-4.96 83.39-5.41Q83.17-5.86 83.17-6.46L83.17-6.46Q83.17-7.55 83.94-8.14Q84.70-8.72 86.06-8.72L86.06-8.72Q86.83-8.72 87.38-8.52Q87.94-8.32 88.22-7.98Q88.51-7.65 88.51-7.25L88.51-7.25Q88.51-6.82 88.22-6.55Q87.92-6.29 87.36-6.29L87.36-6.29Q87.36-7.52 87.02-8.04Q86.69-8.56 85.98-8.56L85.98-8.56Q85.44-8.56 85.08-8.38Q84.72-8.21 84.54-7.87Q84.35-7.54 84.35-7.02L84.35-7.02Q84.35-6.46 84.58-6.13Q84.80-5.79 85.27-5.55Q85.74-5.31 86.45-5.01L86.45-5.01Q87.36-4.64 87.89-4.26Q88.42-3.89 88.63-3.43Q88.85-2.98 88.85-2.35L88.85-2.35Q88.85-1.10 88.02-0.47Q87.18 0.16 85.76 0.16Z M91.23 2.46L91.23 2.30Q91.73 2.14 92.10 1.92Q92.48 1.70 92.70 1.39Q92.91 1.09 92.91 0.69L92.91 0.69Q92.91 0.35 92.78 0.17Q92.64-0.02 92.45-0.12Q92.26-0.22 92.06-0.32Q91.86-0.42 91.72-0.59Q91.58-0.77 91.58-1.09L91.58-1.09Q91.58-1.57 91.88-1.82Q92.18-2.06 92.62-2.06L92.62-2.06Q93.12-2.06 93.49-1.72Q93.86-1.38 93.86-0.58L93.86-0.58Q93.86 0.35 93.24 1.21Q92.62 2.06 91.23 2.46L91.23 2.46Z M106.26 0L101.36 0L101.36-0.16L101.57-0.16Q102-0.16 102.30-0.29Q102.59-0.42 102.74-0.67Q102.88-0.93 102.88-1.31L102.88-1.31L102.88-10.18Q102.88-10.54 102.74-10.78Q102.59-11.02 102.30-11.14Q102-11.26 101.57-11.26L101.57-11.26L101.36-11.26L101.36-11.42L106.26-11.42Q107.90-11.42 109.07-10.76Q110.24-10.10 110.86-8.82Q111.47-7.55 111.47-5.73L111.47-5.73Q111.47-3.98 110.89-2.70Q110.30-1.41 109.15-0.70Q108 0 106.26 0L106.26 0ZM104.50-0.16L105.89-0.16Q107.23-0.16 108.07-0.74Q108.91-1.31 109.30-2.54Q109.70-3.78 109.70-5.73L109.70-5.73Q109.70-7.66 109.30-8.89Q108.91-10.11 108.07-10.69Q107.23-11.26 105.90-11.26L105.90-11.26L104.50-11.26L104.50-0.16Z M118.85 0L114.19 0L114.19-0.16L114.40-0.16Q114.83-0.16 115.13-0.29Q115.42-0.42 115.57-0.67Q115.71-0.93 115.71-1.31L115.71-1.31L115.71-10.18Q115.71-10.54 115.57-10.78Q115.42-11.02 115.13-11.14Q114.83-11.26 114.40-11.26L114.40-11.26L114.19-11.26L114.19-11.42L118.85-11.42L118.85-11.26L118.64-11.26Q118.21-11.26 117.91-11.14Q117.62-11.01 117.47-10.75Q117.33-10.50 117.33-10.11L117.33-10.11L117.33-4.74L121.41-9.36Q121.70-9.68 121.88-9.93Q122.06-10.18 122.15-10.38Q122.24-10.58 122.24-10.72L122.24-10.72Q122.24-10.91 122.08-11.03Q121.92-11.15 121.58-11.20Q121.25-11.25 120.74-11.25L120.74-11.25L120.74-11.42L124.27-11.42L124.27-11.25Q123.92-11.25 123.58-11.11Q123.25-10.98 122.86-10.64Q122.48-10.30 121.97-9.73L121.97-9.73L119.50-6.96L123.02-1.97Q123.39-1.46 123.67-1.10Q123.95-0.75 124.17-0.54Q124.38-0.34 124.57-0.25Q124.75-0.16 124.94-0.16L124.94-0.16L124.98-0.16L124.98 0L124.80 0Q124.00 0 123.48-0.06Q122.96-0.13 122.62-0.29Q122.29-0.45 122.02-0.73Q121.74-1.01 121.44-1.44L121.44-1.44L118.43-5.74L117.33-4.48L117.33-1.31Q117.33-0.93 117.47-0.67Q117.62-0.42 117.91-0.29Q118.21-0.16 118.64-0.16L118.64-0.16L118.85-0.16L118.85 0Z M138.46 0L131.60 0L131.60-1.17L133.92-3.68Q134.72-4.54 135.23-5.21Q135.74-5.87 136.03-6.45Q136.32-7.02 136.43-7.58Q136.54-8.13 136.54-8.75L136.54-8.75Q136.54-9.71 136.37-10.30Q136.19-10.90 135.82-11.16Q135.46-11.42 134.86-11.42L134.86-11.42Q134.24-11.42 133.86-11.12Q133.49-10.82 133.32-10.15Q133.15-9.49 133.15-8.40L133.15-8.40Q132.77-8.40 132.46-8.50Q132.14-8.59 131.96-8.83Q131.78-9.07 131.78-9.50L131.78-9.50Q131.78-10.10 132.14-10.57Q132.51-11.04 133.21-11.31Q133.90-11.58 134.88-11.58L134.88-11.58Q135.94-11.58 136.67-11.25Q137.41-10.91 137.78-10.30Q138.16-9.70 138.16-8.85L138.16-8.85Q138.16-8.35 137.99-7.85Q137.82-7.34 137.38-6.73Q136.93-6.11 136.12-5.27Q135.31-4.43 134.03-3.25L134.03-3.25L131.90-1.28L136.94-1.28Q137.71-1.28 138.02-1.55Q138.32-1.82 138.38-2.56L138.38-2.56L138.40-2.77L138.56-2.77L138.46 0Z M148.61 0L141.74 0L141.74-1.17L144.06-3.68Q144.86-4.54 145.38-5.21Q145.89-5.87 146.18-6.45Q146.46-7.02 146.58-7.58Q146.69-8.13 146.69-8.75L146.69-8.75Q146.69-9.71 146.51-10.30Q146.34-10.90 145.97-11.16Q145.60-11.42 145.01-11.42L145.01-11.42Q144.38-11.42 144.01-11.12Q143.63-10.82 143.46-10.15Q143.30-9.49 143.30-8.40L143.30-8.40Q142.91-8.40 142.60-8.50Q142.29-8.59 142.10-8.83Q141.92-9.07 141.92-9.50L141.92-9.50Q141.92-10.10 142.29-10.57Q142.66-11.04 143.35-11.31Q144.05-11.58 145.02-11.58L145.02-11.58Q146.08-11.58 146.82-11.25Q147.55-10.91 147.93-10.30Q148.30-9.70 148.30-8.85L148.30-8.85Q148.30-8.35 148.14-7.85Q147.97-7.34 147.52-6.73Q147.07-6.11 146.26-5.27Q145.46-4.43 144.18-3.25L144.18-3.25L142.05-1.28L147.09-1.28Q147.86-1.28 148.16-1.55Q148.46-1.82 148.53-2.56L148.53-2.56L148.54-2.77L148.70-2.77L148.61 0Z M161.25 0L156.48 0L156.48-0.16L156.69-0.16Q157.12-0.16 157.42-0.29Q157.71-0.42 157.86-0.67Q158-0.93 158-1.31L158-1.31L158-10.18Q158-10.54 157.86-10.78Q157.71-11.02 157.42-11.14Q157.12-11.26 156.69-11.26L156.69-11.26L156.48-11.26L156.48-11.42L160.77-11.42Q162.82-11.42 163.85-10.74Q164.88-10.05 164.88-8.70L164.88-8.70Q164.88-7.90 164.54-7.34Q164.19-6.77 163.51-6.45Q162.83-6.13 161.81-6.05L161.81-6.05L161.81-6.02Q163.71-5.94 164.54-5.14Q165.36-4.35 165.36-3.07L165.36-3.07Q165.36-1.52 164.34-0.76Q163.33 0 161.25 0L161.25 0ZM159.62-0.16L161.17-0.16Q162.51-0.16 163.08-0.83Q163.65-1.50 163.65-3.07L163.65-3.07Q163.65-4.10 163.40-4.71Q163.15-5.33 162.62-5.62Q162.08-5.90 161.20-5.90L161.20-5.90L159.62-5.90L159.62-0.16ZM159.62-6.06L160.72-6.06Q161.60-6.06 162.14-6.31Q162.67-6.56 162.92-7.11Q163.17-7.66 163.17-8.56L163.17-8.56Q163.17-10.03 162.60-10.65Q162.03-11.26 160.69-11.26L160.69-11.26L159.62-11.26L159.62-6.06Z M175.17 0L169.07 0L169.07-0.16L170.14-0.16Q170.58-0.16 170.87-0.29Q171.17-0.42 171.31-0.67Q171.46-0.93 171.46-1.31L171.46-1.31L171.46-10.43Q170.80-9.62 170.42-9.22Q170.03-8.82 169.80-8.69Q169.57-8.56 169.34-8.56L169.34-8.56Q168.96-8.56 168.78-8.80Q168.59-9.04 168.59-9.42L168.59-9.42Q169.25-9.44 169.72-9.54Q170.19-9.65 170.56-9.88Q170.93-10.11 171.30-10.50L171.30-10.50L172.24-11.49L173.07-11.49L173.07-1.31Q173.07-0.93 173.22-0.67Q173.36-0.42 173.66-0.29Q173.95-0.16 174.38-0.16L174.38-0.16L175.17-0.16L175.17 0Z M185.31 0L179.22 0L179.22-0.16L180.29-0.16Q180.72-0.16 181.02-0.29Q181.31-0.42 181.46-0.67Q181.60-0.93 181.60-1.31L181.60-1.31L181.60-10.43Q180.94-9.62 180.56-9.22Q180.18-8.82 179.94-8.69Q179.71-8.56 179.49-8.56L179.49-8.56Q179.10-8.56 178.92-8.80Q178.74-9.04 178.74-9.42L178.74-9.42Q179.39-9.44 179.86-9.54Q180.34-9.65 180.70-9.88Q181.07-10.11 181.44-10.50L181.44-10.50L182.38-11.49L183.22-11.49L183.22-1.31Q183.22-0.93 183.36-0.67Q183.50-0.42 183.80-0.29Q184.10-0.16 184.53-0.16L184.53-0.16L185.31-0.16L185.31 0Z M191.55 0.18L191.55 0.18Q190.75 0.18 190.22-0.03Q189.68-0.24 189.41-0.56Q189.14-0.88 189.14-1.23L189.14-1.23Q189.14-1.50 189.30-1.70Q189.47-1.90 189.78-1.97L189.78-1.97Q189.94-0.90 190.42-0.44Q190.90 0.02 191.68 0.02L191.68 0.02Q192.58 0.02 193.09-0.54Q193.60-1.09 193.85-2.30Q194.10-3.50 194.14-5.49L194.14-5.49Q193.92-5.22 193.58-4.96Q193.23-4.70 192.77-4.55Q192.30-4.40 191.70-4.40L191.70-4.40Q190.82-4.40 190.13-4.79Q189.44-5.18 189.04-5.94Q188.64-6.69 188.64-7.76L188.64-7.76Q188.64-8.91 189.05-9.78Q189.46-10.64 190.22-11.11Q190.99-11.58 192.06-11.58L192.06-11.58Q193.15-11.58 193.99-11.02Q194.83-10.46 195.31-9.28Q195.79-8.10 195.79-6.21L195.79-6.21Q195.79-4.94 195.59-3.80Q195.39-2.66 194.91-1.76Q194.43-0.86 193.62-0.34Q192.80 0.18 191.55 0.18ZM192.06-4.67L192.06-4.67Q192.62-4.67 193.04-4.86Q193.46-5.06 193.74-5.32Q194.02-5.58 194.16-5.78L194.16-5.78Q194.14-7.30 194.03-8.38Q193.92-9.46 193.68-10.13Q193.44-10.80 193.06-11.11Q192.67-11.42 192.10-11.42L192.10-11.42Q191.49-11.42 191.08-11.06Q190.67-10.70 190.48-9.91Q190.29-9.12 190.29-7.81L190.29-7.81Q190.29-6.69 190.47-5.99Q190.66-5.30 191.05-4.98Q191.44-4.67 192.06-4.67Z"/></g>
</svg>