<svg xmlns="http://www.w3.org/2000/svg" width="860" height="300" viewBox="0 0 860 300" role="img" aria-label="μνάσεσθαί τινά φαῖμι καὶ ἕτερον ἀμμέων. Someone, I say, will remember us in time to come. (Sappho, fr. 147 Voigt)">
  <defs>
    <linearGradient id="parch" x1="0" y1="0" x2="0" y2="1">
      <stop offset="0" stop-color="#FEFCF8"/>
      <stop offset="1" stop-color="#F1ECE2"/>
    </linearGradient>
    <filter id="lift" x="-8%" y="-8%" width="116%" height="124%"><feDropShadow dx="0" dy="3" stdDeviation="7" flood-color="#3A2A18" flood-opacity="0.20"/></filter>
  </defs>

  <g filter="url(#lift)">
    <rect x="6" y="5" width="848" height="286" rx="3" fill="url(#parch)" stroke="#EAE3D6" stroke-width="1"/>
  </g>

  <g opacity="0.14"><line x1="196" y1="76" x2="820" y2="76" stroke="#C5A059" stroke-width="0.6"/><line x1="196" y1="100" x2="820" y2="100" stroke="#C5A059" stroke-width="0.6"/><line x1="196" y1="124" x2="820" y2="124" stroke="#C5A059" stroke-width="0.6"/><line x1="196" y1="148" x2="820" y2="148" stroke="#C5A059" stroke-width="0.6"/><line x1="196" y1="172" x2="820" y2="172" stroke="#C5A059" stroke-width="0.6"/><line x1="196" y1="196" x2="820" y2="196" stroke="#C5A059" stroke-width="0.6"/><line x1="196" y1="220" x2="820" y2="220" stroke="#C5A059" stroke-width="0.6"/><line x1="196" y1="244" x2="820" y2="244" stroke="#C5A059" stroke-width="0.6"/></g>

  <line x1="170" y1="30" x2="170" y2="270" stroke="#C5A059" stroke-width="1" opacity="0.5" stroke-dasharray="240" stroke-dashoffset="0">
    <animate attributeName="stroke-dashoffset" from="240" to="0" dur="0.9s" begin="0s" fill="freeze" calcMode="spline" keySplines="0.22 1 0.36 1" keyTimes="0;1" values="240;0"/>
  </line>

  <g fill="#8B1E1E" stroke="#8B1E1E" stroke-width="0.25">
    <path transform="translate(36 64)" d="M3.87 0.15L3.87 0.15Q3.13 0.15 2.55-0.01Q1.96-0.16 1.55-0.44Q1.14-0.72 0.93-1.09Q0.72-1.47 0.72-1.92L0.72-1.92Q0.72-2.27 0.85-2.50Q0.97-2.73 1.21-2.85Q1.45-2.97 1.80-2.97L1.80-2.97Q1.81-1.99 2.05-1.33Q2.28-0.66 2.76-0.33Q3.24 0 3.97 0L3.97 0Q4.93 0 5.53-0.56Q6.12-1.13 6.12-2.22L6.12-2.22Q6.12-2.90 5.87-3.31Q5.63-3.73 5.08-4.07Q4.53-4.41 3.65-4.81L3.65-4.81Q3.18-5.04 2.69-5.30Q2.21-5.56 1.79-5.93Q1.38-6.30 1.13-6.83Q0.89-7.36 0.89-8.10L0.89-8.10Q0.89-9 1.27-9.62Q1.67-10.23 2.38-10.54Q3.09-10.86 4.05-10.86L4.05-10.86Q4.93-10.86 5.59-10.62Q6.24-10.38 6.61-9.99Q6.97-9.60 6.97-9.13L6.97-9.13Q6.97-8.70 6.64-8.45Q6.31-8.21 5.79-8.21L5.79-8.21Q5.79-9.45 5.38-10.08Q4.98-10.71 4.04-10.71L4.04-10.71Q3.46-10.71 3.03-10.48Q2.59-10.24 2.36-9.79Q2.13-9.33 2.13-8.64L2.13-8.64Q2.13-7.90 2.40-7.46Q2.67-7.00 3.22-6.68Q3.76-6.36 4.59-5.97L4.59-5.97Q5.34-5.63 5.98-5.25Q6.61-4.88 7.00-4.30Q7.39-3.73 7.39-2.80L7.39-2.80Q7.39-1.89 6.98-1.23Q6.57-0.57 5.78-0.21Q5.00 0.15 3.87 0.15Z M19.37 0L11.33 0L11.33-0.15L11.53-0.15Q11.93-0.15 12.21-0.27Q12.48-0.39 12.62-0.63Q12.75-0.87 12.75-1.23L12.75-1.23L12.75-9.54Q12.75-9.88 12.62-10.11Q12.48-10.33 12.21-10.45Q11.93-10.56 11.53-10.56L11.53-10.56L11.33-10.56L11.33-10.71L18.88-10.71L18.96-8.08L18.81-8.08L18.79-8.58Q18.74-9.33 18.53-9.76Q18.32-10.20 17.88-10.38Q17.43-10.56 16.67-10.56L16.67-10.56L14.27-10.56L14.27-5.68L18.04-5.68L18.04-5.54L14.27-5.54L14.27-0.15L17.05-0.15Q17.86-0.15 18.34-0.33Q18.81-0.51 19.03-0.94Q19.25-1.38 19.30-2.13L19.30-2.13L19.32-2.63L19.48-2.63L19.37 0Z M26.74 0L23.27 0L23.27-0.15L23.71-0.15Q24.11-0.15 24.39-0.27Q24.67-0.39 24.80-0.63Q24.94-0.87 24.94-1.23L24.94-1.23L24.94-9.54Q24.94-9.88 24.80-10.11Q24.67-10.33 24.39-10.45Q24.11-10.56 23.71-10.56L23.71-10.56L23.27-10.56L23.27-10.71L26.20-10.71L31.91-2.15L31.91-9.48Q31.91-9.84 31.78-10.08Q31.64-10.32 31.38-10.44Q31.10-10.56 30.68-10.56L30.68-10.56L30.26-10.56L30.26-10.71L33.73-10.71L33.73-10.56L33.30-10.56Q32.89-10.56 32.62-10.44Q32.35-10.32 32.21-10.08Q32.06-9.84 32.06-9.48L32.06-9.48L32.06 0L31.61 0L25.09-9.78L25.09-1.23Q25.09-0.87 25.22-0.63Q25.36-0.39 25.64-0.27Q25.91-0.15 26.32-0.15L26.32-0.15L26.74-0.15L26.74 0Z M43.52 0L39.15 0L39.15-0.15L39.34-0.15Q39.75-0.15 40.03-0.27Q40.30-0.39 40.44-0.63Q40.58-0.87 40.58-1.23L40.58-1.23L40.58-10.56L39.34-10.56Q38.59-10.56 38.15-10.38Q37.70-10.20 37.48-9.76Q37.27-9.33 37.23-8.58L37.23-8.58L37.20-8.08L37.05-8.08L37.14-10.71L45.55-10.71L45.64-8.08L45.49-8.08L45.47-8.58Q45.42-9.33 45.21-9.76Q45-10.20 44.56-10.38Q44.12-10.56 43.35-10.56L43.35-10.56L42.09-10.56L42.09-1.23Q42.09-0.87 42.23-0.63Q42.36-0.39 42.64-0.27Q42.91-0.15 43.32-0.15L43.32-0.15L43.52-0.15L43.52 0Z M57.16 0L49.12 0L49.12-0.15L49.31-0.15Q49.72-0.15 49.99-0.27Q50.27-0.39 50.41-0.63Q50.54-0.87 50.54-1.23L50.54-1.23L50.54-9.54Q50.54-9.88 50.41-10.11Q50.27-10.33 49.99-10.45Q49.72-10.56 49.31-10.56L49.31-10.56L49.12-10.56L49.12-10.71L56.66-10.71L56.75-8.08L56.60-8.08L56.57-8.58Q56.52-9.33 56.31-9.76Q56.11-10.20 55.66-10.38Q55.22-10.56 54.45-10.56L54.45-10.56L52.05-10.56L52.05-5.68L55.82-5.68L55.82-5.54L52.05-5.54L52.05-0.15L54.83-0.15Q55.64-0.15 56.12-0.33Q56.60-0.51 56.82-0.94Q57.04-1.38 57.08-2.13L57.08-2.13L57.11-2.63L57.26-2.63L57.16 0Z M64.53 0L61.06 0L61.06-0.15L61.50-0.15Q61.90-0.15 62.18-0.27Q62.45-0.39 62.59-0.63Q62.73-0.87 62.73-1.23L62.73-1.23L62.73-9.54Q62.73-9.88 62.59-10.11Q62.45-10.33 62.18-10.45Q61.90-10.56 61.50-10.56L61.50-10.56L61.06-10.56L61.06-10.71L63.98-10.71L69.70-2.15L69.70-9.48Q69.70-9.84 69.56-10.08Q69.43-10.32 69.16-10.44Q68.89-10.56 68.47-10.56L68.47-10.56L68.05-10.56L68.05-10.71L71.52-10.71L71.52-10.56L71.08-10.56Q70.67-10.56 70.41-10.44Q70.14-10.32 69.99-10.08Q69.85-9.84 69.85-9.48L69.85-9.48L69.85 0L69.40 0L62.88-9.78L62.88-1.23Q62.88-0.87 63.01-0.63Q63.15-0.39 63.42-0.27Q63.70-0.15 64.11-0.15L64.11-0.15L64.53-0.15L64.53 0Z M81.30 0L76.94 0L76.94-0.15L77.13-0.15Q77.53-0.15 77.81-0.27Q78.09-0.39 78.22-0.63Q78.36-0.87 78.36-1.23L78.36-1.23L78.36-10.56L77.13-10.56Q76.38-10.56 75.93-10.38Q75.48-10.20 75.27-9.76Q75.06-9.33 75.02-8.58L75.02-8.58L74.98-8.08L74.83-8.08L74.92-10.71L83.34-10.71L83.43-8.08L83.28-8.08L83.25-8.58Q83.20-9.33 82.99-9.76Q82.78-10.20 82.34-10.38Q81.90-10.56 81.13-10.56L81.13-10.56L79.88-10.56L79.88-1.23Q79.88-0.87 80.01-0.63Q80.14-0.39 80.42-0.27Q80.70-0.15 81.10-0.15L81.10-0.15L81.30-0.15L81.30 0Z M91.27 0L86.90 0L86.90-0.15L87.09-0.15Q87.50-0.15 87.78-0.27Q88.05-0.39 88.19-0.63Q88.33-0.87 88.33-1.23L88.33-1.23L88.33-9.54Q88.33-9.88 88.19-10.11Q88.05-10.33 87.78-10.45Q87.50-10.56 87.09-10.56L87.09-10.56L86.90-10.56L86.90-10.71L91.27-10.71L91.27-10.56L91.07-10.56Q90.66-10.56 90.39-10.44Q90.11-10.32 89.97-10.08Q89.84-9.84 89.84-9.48L89.84-9.48L89.84-1.23Q89.84-0.87 89.97-0.63Q90.11-0.39 90.39-0.27Q90.66-0.15 91.07-0.15L91.07-0.15L91.27-0.15L91.27 0Z M98.09 0L94.44 0L94.44-0.15L94.87-0.15Q95.20-0.15 95.42-0.26Q95.65-0.36 95.81-0.61Q95.98-0.87 96.13-1.32L96.13-1.32L99.40-10.71L100.17-10.71L103.93-0.94Q104.05-0.65 104.17-0.47Q104.29-0.30 104.45-0.22Q104.61-0.15 104.81-0.15L104.81-0.15L105.01-0.15L105.01 0L100.89 0L100.89-0.15L101.23-0.15Q101.80-0.15 102.06-0.28Q102.31-0.42 102.31-0.77L102.31-0.77Q102.31-0.85 102.30-0.95Q102.28-1.05 102.26-1.17Q102.23-1.29 102.17-1.43L102.17-1.43L101.26-3.88L97.20-3.88L96.37-1.53Q96.33-1.41 96.30-1.29Q96.27-1.17 96.25-1.07Q96.23-0.97 96.23-0.89L96.23-0.89Q96.23-0.48 96.59-0.32Q96.95-0.15 97.75-0.15L97.75-0.15L98.09-0.15L98.09 0ZM98.35-7.21L97.24-4.04L101.20-4.04L100.11-6.96Q99.91-7.47 99.75-7.93Q99.58-8.40 99.44-8.83Q99.30-9.25 99.17-9.66L99.17-9.66Q99.07-9.33 98.98-9.05Q98.89-8.78 98.80-8.50Q98.71-8.23 98.60-7.93Q98.48-7.62 98.35-7.21L98.35-7.21Z"/>
    <path transform="translate(36 88)" d="M5.16 0L0.57 0L0.57-0.15L0.77-0.15Q1.17-0.15 1.45-0.27Q1.72-0.39 1.86-0.63Q1.99-0.87 1.99-1.23L1.99-1.23L1.99-9.54Q1.99-9.88 1.86-10.11Q1.72-10.33 1.45-10.45Q1.17-10.56 0.77-10.56L0.77-10.56L0.57-10.56L0.57-10.71L5.16-10.71Q6.71-10.71 7.80-10.09Q8.89-9.46 9.47-8.27Q10.05-7.08 10.05-5.37L10.05-5.37Q10.05-3.73 9.50-2.53Q8.96-1.32 7.88-0.66Q6.79 0 5.16 0L5.16 0ZM3.51-0.15L4.81-0.15Q6.08-0.15 6.86-0.69Q7.65-1.23 8.02-2.38Q8.38-3.54 8.38-5.37L8.38-5.37Q8.38-7.18 8.02-8.33Q7.65-9.48 6.86-10.02Q6.08-10.56 4.83-10.56L4.83-10.56L3.51-10.56L3.51-0.15Z M18.44 0L14.07 0L14.07-0.15L14.27-0.15Q14.67-0.15 14.95-0.27Q15.23-0.39 15.36-0.63Q15.50-0.87 15.50-1.23L15.50-1.23L15.50-9.54Q15.50-9.88 15.36-10.11Q15.23-10.33 14.95-10.45Q14.67-10.56 14.27-10.56L14.27-10.56L14.07-10.56L14.07-10.71L18.44-10.71L18.44-10.56L18.24-10.56Q17.84-10.56 17.56-10.44Q17.29-10.32 17.15-10.08Q17.02-9.84 17.02-9.48L17.02-9.48L17.02-1.23Q17.02-0.87 17.15-0.63Q17.29-0.39 17.56-0.27Q17.84-0.15 18.24-0.15L18.24-0.15L18.44-0.15L18.44 0Z M30.22 0L22.18 0L22.18-0.15L22.38-0.15Q22.78-0.15 23.06-0.27Q23.34-0.39 23.47-0.63Q23.61-0.87 23.61-1.23L23.61-1.23L23.61-9.54Q23.61-9.88 23.47-10.11Q23.34-10.33 23.06-10.45Q22.78-10.56 22.38-10.56L22.38-10.56L22.18-10.56L22.18-10.71L29.73-10.71L29.81-8.08L29.66-8.08L29.63-8.58Q29.59-9.33 29.38-9.76Q29.17-10.20 28.73-10.38Q28.29-10.56 27.52-10.56L27.52-10.56L25.12-10.56L25.12-5.68L28.88-5.68L28.88-5.54L25.12-5.54L25.12-0.15L27.89-0.15Q28.70-0.15 29.18-0.33Q29.66-0.51 29.88-0.94Q30.10-1.38 30.14-2.13L30.14-2.13L30.17-2.63L30.32-2.63L30.22 0Z M38.49 0L34.13 0L34.13-0.15L34.32-0.15Q34.73-0.15 35.00-0.27Q35.28-0.39 35.41-0.63Q35.55-0.87 35.55-1.23L35.55-1.23L35.55-9.54Q35.55-9.88 35.41-10.11Q35.28-10.33 35.00-10.45Q34.73-10.56 34.32-10.56L34.32-10.56L34.13-10.56L34.13-10.71L38.49-10.71L38.49-10.56L38.30-10.56Q37.89-10.56 37.61-10.44Q37.34-10.32 37.20-10.08Q37.06-9.84 37.06-9.48L37.06-9.48L37.06-1.23Q37.06-0.87 37.20-0.63Q37.34-0.39 37.61-0.27Q37.89-0.15 38.30-0.15L38.30-0.15L38.49-0.15L38.49 0Z"/>
  </g>
  <g fill="#5D5147"><path transform="translate(36 118)" d="M4.08 0L1.11-8.45Q1.01-8.72 0.90-8.87Q0.78-9.02 0.61-9.09Q0.44-9.15 0.17-9.15L0.17-9.15L0-9.15L0-9.28L3.58-9.28L3.58-9.15L3.26-9.15Q2.85-9.15 2.65-9.04Q2.46-8.93 2.46-8.66L2.46-8.66Q2.46-8.58 2.47-8.48Q2.48-8.39 2.52-8.28Q2.55-8.18 2.59-8.05L2.59-8.05L4.20-3.41Q4.32-3.08 4.41-2.78Q4.51-2.48 4.60-2.20Q4.69-1.91 4.76-1.65Q4.84-1.39 4.90-1.14L4.90-1.14Q5.01-1.48 5.12-1.87Q5.24-2.25 5.37-2.65Q5.50-3.04 5.62-3.41L5.62-3.41L7.10-7.94Q7.15-8.09 7.18-8.20Q7.20-8.31 7.22-8.41Q7.24-8.52 7.24-8.59L7.24-8.59Q7.24-8.91 7.03-9.03Q6.83-9.15 6.37-9.15L6.37-9.15L5.60-9.15L5.60-9.28L8.78-9.28L8.78-9.15L8.31-9.15Q8.06-9.15 7.89-9.06Q7.72-8.97 7.59-8.75Q7.46-8.53 7.33-8.15L7.33-8.15L4.64 0L4.08 0Z M14.45 0L10.67 0L10.67-0.13L10.84-0.13Q11.19-0.13 11.43-0.23Q11.67-0.34 11.79-0.55Q11.90-0.75 11.90-1.07L11.90-1.07L11.90-8.27Q11.90-8.57 11.79-8.76Q11.67-8.96 11.43-9.05Q11.19-9.15 10.84-9.15L10.84-9.15L10.67-9.15L10.67-9.28L14.45-9.28L14.45-9.15L14.28-9.15Q13.93-9.15 13.69-9.05Q13.45-8.94 13.33-8.74Q13.22-8.53 13.22-8.22L13.22-8.22L13.22-1.07Q13.22-0.75 13.33-0.55Q13.45-0.34 13.69-0.23Q13.93-0.13 14.28-0.13L14.28-0.13L14.45-0.13L14.45 0Z M20.62 0L16.84 0L16.84-0.13L17.01-0.13Q17.36-0.13 17.60-0.23Q17.84-0.34 17.96-0.55Q18.07-0.75 18.07-1.07L18.07-1.07L18.07-8.27Q18.07-8.57 17.96-8.76Q17.84-8.96 17.60-9.05Q17.36-9.15 17.01-9.15L17.01-9.15L16.84-9.15L16.84-9.28L20.62-9.28L20.62-9.15L20.45-9.15Q20.10-9.15 19.86-9.05Q19.62-8.94 19.50-8.74Q19.39-8.53 19.39-8.22L19.39-8.22L19.39-1.07Q19.39-0.75 19.50-0.55Q19.62-0.34 19.86-0.23Q20.10-0.13 20.45-0.13L20.45-0.13L20.62-0.13L20.62 0Z M28.47-3.74L28.47-3.74Q28.12-3.74 27.94-3.97Q27.77-4.19 27.77-4.63L27.77-4.63Q27.77-5.07 27.94-5.29Q28.12-5.51 28.47-5.51L28.47-5.51Q28.82-5.51 28.99-5.29Q29.17-5.07 29.17-4.63L29.17-4.63Q29.17-4.19 28.99-3.97Q28.82-3.74 28.47-3.74Z M39.01 0L35.92 0L35.92-0.13L36.21-0.13Q36.47-0.13 36.67-0.21Q36.87-0.30 37.06-0.51Q37.26-0.72 37.49-1.07L37.49-1.07L39.65-4.36L37.36-8.45Q37.22-8.72 37.06-8.87Q36.91-9.02 36.72-9.09Q36.53-9.15 36.25-9.15L36.25-9.15L36.09-9.15L36.09-9.28L39.61-9.28L39.61-9.15L39.50-9.15Q39.13-9.15 38.96-9.07Q38.78-8.98 38.78-8.78L38.78-8.78Q38.78-8.65 38.85-8.46Q38.92-8.27 39.07-8.01L39.07-8.01L40.50-5.46L42.15-7.98Q42.33-8.27 42.43-8.47Q42.52-8.67 42.52-8.80L42.52-8.80Q42.52-9.00 42.34-9.07Q42.15-9.15 41.77-9.15L41.77-9.15L41.13-9.15L41.13-9.28L43.98-9.28L43.98-9.15L43.75-9.15Q43.50-9.15 43.29-9.07Q43.08-8.98 42.89-8.78Q42.69-8.58 42.46-8.22L42.46-8.22L40.56-5.32L43.07-0.83Q43.23-0.57 43.38-0.42Q43.53-0.26 43.72-0.20Q43.92-0.13 44.19-0.13L44.19-0.13L44.29-0.13L44.29 0L40.78 0L40.78-0.13L40.94-0.13Q41.30-0.13 41.48-0.21Q41.65-0.30 41.65-0.51L41.65-0.51Q41.65-0.64 41.58-0.83Q41.51-1.03 41.37-1.27L41.37-1.27L39.72-4.23L37.81-1.30Q37.69-1.12 37.60-0.96Q37.52-0.81 37.47-0.69Q37.43-0.57 37.43-0.48L37.43-0.48Q37.43-0.29 37.62-0.21Q37.81-0.13 38.18-0.13L38.18-0.13L39.01-0.13L39.01 0Z M48.99 0L45.90 0L45.90-0.13L46.19-0.13Q46.45-0.13 46.65-0.21Q46.85-0.30 47.04-0.51Q47.24-0.72 47.47-1.07L47.47-1.07L49.63-4.36L47.34-8.45Q47.20-8.72 47.04-8.87Q46.89-9.02 46.70-9.09Q46.51-9.15 46.23-9.15L46.23-9.15L46.07-9.15L46.07-9.28L49.59-9.28L49.59-9.15L49.48-9.15Q49.11-9.15 48.94-9.07Q48.76-8.98 48.76-8.78L48.76-8.78Q48.76-8.65 48.83-8.46Q48.90-8.27 49.05-8.01L49.05-8.01L50.48-5.46L52.13-7.98Q52.31-8.27 52.41-8.47Q52.50-8.67 52.50-8.80L52.50-8.80Q52.50-9.00 52.32-9.07Q52.13-9.15 51.75-9.15L51.75-9.15L51.11-9.15L51.11-9.28L53.96-9.28L53.96-9.15L53.73-9.15Q53.48-9.15 53.27-9.07Q53.06-8.98 52.87-8.78Q52.67-8.58 52.44-8.22L52.44-8.22L50.54-5.32L53.05-0.83Q53.21-0.57 53.36-0.42Q53.51-0.26 53.70-0.20Q53.90-0.13 54.17-0.13L54.17-0.13L54.27-0.13L54.27 0L50.76 0L50.76-0.13L50.92-0.13Q51.28-0.13 51.46-0.21Q51.63-0.30 51.63-0.51L51.63-0.51Q51.63-0.64 51.56-0.83Q51.49-1.03 51.35-1.27L51.35-1.27L49.70-4.23L47.79-1.30Q47.67-1.12 47.58-0.96Q47.50-0.81 47.45-0.69Q47.41-0.57 47.41-0.48L47.41-0.48Q47.41-0.29 47.60-0.21Q47.79-0.13 48.16-0.13L48.16-0.13L48.99-0.13L48.99 0Z M59.86 0L56.88-8.45Q56.79-8.72 56.67-8.87Q56.56-9.02 56.39-9.09Q56.22-9.15 55.95-9.15L55.95-9.15L55.78-9.15L55.78-9.28L59.35-9.28L59.35-9.15L59.04-9.15Q58.62-9.15 58.43-9.04Q58.23-8.93 58.23-8.66L58.23-8.66Q58.23-8.58 58.25-8.48Q58.26-8.39 58.29-8.28Q58.33-8.18 58.36-8.05L58.36-8.05L59.98-3.41Q60.09-3.08 60.19-2.78Q60.29-2.48 60.38-2.20Q60.47-1.91 60.54-1.65Q60.61-1.39 60.68-1.14L60.68-1.14Q60.78-1.48 60.90-1.87Q61.02-2.25 61.15-2.65Q61.28-3.04 61.39-3.41L61.39-3.41L62.88-7.94Q62.93-8.09 62.95-8.20Q62.98-8.31 63.00-8.41Q63.02-8.52 63.02-8.59L63.02-8.59Q63.02-8.91 62.81-9.03Q62.60-9.15 62.15-9.15L62.15-9.15L61.38-9.15L61.38-9.28L64.55-9.28L64.55-9.15L64.08-9.15Q63.84-9.15 63.67-9.06Q63.50-8.97 63.37-8.75Q63.24-8.53 63.11-8.15L63.11-8.15L60.42 0L59.86 0Z"/></g>
  <g transform="translate(46 254) scale(0.88 0.88)" opacity="0.8"><path d="M7 0C5 -5.6 -0.6 -7.2 -3.9 -5C-6.6 -3.1 -6.5 -0.9 -3.4 0C-6.5 0.9 -6.6 3.1 -3.9 5C-0.6 7.2 5 5.6 7 0Z" fill="#C5A059"/><path d="M-3.4 0C-6.2 -0.3 -7.9 -1.4 -9.1 -3.3" fill="none" stroke="#C5A059" stroke-width="1.2" stroke-linecap="round"/></g>

  <g opacity="1">
    <animate attributeName="opacity" from="0" to="1" dur="0.85s" begin="0s" fill="freeze"/>
    <animateTransform attributeName="transform" type="translate" from="0 10" to="0 0" dur="0.95s" begin="0s" fill="freeze" calcMode="spline" keySplines="0.22 1 0.36 1" keyTimes="0;1" values="0 10;0 0"/>
    <g transform="translate(0 67.19)">
      <g fill="#1A1919"><path transform="translate(229.29 33.12)" d="M7.54 11.04L7.54 11.04Q6.58 11.04 5.77 10.60Q4.97 10.17 4.46 8.90Q3.96 7.64 3.96 5.11L3.96 5.11Q3.96 4.05 4.05 2.60Q4.14 1.15 4.23-0.78Q4.32-2.71 4.42-5.08Q4.51-7.45 4.51-10.35L4.51-10.35L4.51-24.66L8.83-24.66L8.83-9.20Q8.83-6.07 9.27-4.09Q9.71-2.12 10.72-1.17Q11.73-0.23 13.39-0.23L13.39-0.23Q15.18-0.23 16.45-1.26Q17.71-2.30 18.35-4.44Q19.00-6.58 19.00-9.94L19.00-9.94L19.00-24.66L23.32-24.66L23.32-4.46Q23.32-2.25 23.97-1.36Q24.61-0.46 26.22-0.46L26.22-0.46L26.36-0.46L26.36 0L23.87 0Q21.67 0 20.49-1.22Q19.32-2.44 19.04-4.97L19.04-4.97L18.95-4.97Q18.26-2.16 16.74-0.85Q15.23 0.46 12.42 0.46L12.42 0.46Q10.49 0.46 8.95-0.18Q7.41-0.83 6.37-2.14Q5.34-3.45 4.88-5.47L4.88-5.47Q4.88-2.76 5.06-0.74Q5.24 1.29 5.68 2.71Q6.12 4.14 6.81 5.04Q7.50 5.93 8.51 6.42Q9.52 6.90 10.90 7.04L10.90 7.04Q10.90 8.74 10.21 9.89Q9.52 11.04 7.54 11.04Z M42.36 0L39.51 0Q38.59-3.59 37.69-6.97Q36.79-10.35 35.92-13.25Q35.05-16.15 34.15-18.35Q33.25-20.56 32.35-21.78Q31.46-23 30.54-23L30.54-23Q30.26-23 29.85-22.88Q29.43-22.77 29.02-22.49L29.02-22.49L28.79-22.86Q29.71-23.64 30.91-24.22Q32.10-24.79 33.39-24.79L33.39-24.79Q34.63-24.79 35.58-24.10Q36.52-23.41 37.35-21.83Q38.17-20.24 39.00-17.55Q39.83-14.86 40.86-10.92Q41.90-6.99 43.33-1.56L43.33-1.56Q44.71-3.04 45.90-4.95Q47.10-6.85 47.97-8.99Q48.85-11.13 49.33-13.32Q49.81-15.50 49.81-17.48L49.81-17.48Q49.81-19.14 49.49-20.17Q49.17-21.21 48.57-21.73Q47.97-22.26 47.14-22.36L47.14-22.36Q47.14-23.78 47.86-24.45Q48.57-25.12 49.72-25.12L49.72-25.12Q50.96-25.12 51.65-24.45Q52.34-23.78 52.62-22.75Q52.89-21.71 52.89-20.56L52.89-20.56Q52.89-18.12 51.95-15.23Q51.01-12.33 49.47-9.45Q47.93-6.58 46.06-4.09Q44.20-1.61 42.36 0L42.36 0Z M67.84 0.46L67.84 0.46Q64.80 0.46 62.71-0.87Q60.62-2.21 59.53-5.04Q58.45-7.87 58.45-12.28L58.45-12.28Q58.45-16.74 59.72-19.57Q60.98-22.40 63.24-23.76Q65.49-25.12 68.53-25.12L68.53-25.12Q71.24-25.12 72.94-23.71Q74.65-22.31 75.52-19.83L75.52-19.83L75.61-19.83Q75.98-21.39 76.62-22.59Q77.27-23.78 77.96-24.66L77.96-24.66L80.40-24.66Q80.12-23.78 79.84-22.20Q79.57-20.61 79.38-18.84Q79.20-17.07 79.20-15.59L79.20-15.59L79.20-4.74Q79.20-2.71 80.17-1.59Q81.13-0.46 82.97-0.46L82.97-0.46L83.34-0.46L83.34 0L79.48 0Q77.96 0 77.02-0.69Q76.07-1.38 75.61-2.46Q75.15-3.54 74.97-4.69L74.97-4.69L74.88-4.69Q73.86-2.44 72.21-0.99Q70.55 0.46 67.84 0.46ZM68.62-0.23L68.62-0.23Q70.41-0.23 71.61-1.13Q72.81-2.02 73.54-3.61Q74.28-5.20 74.58-7.34Q74.88-9.48 74.88-11.96L74.88-11.96L74.88-18.35Q74.32-21.62 72.69-23.11Q71.06-24.61 69.08-24.61L69.08-24.61Q66.96-24.61 65.58-23.39Q64.20-22.17 63.56-19.46Q62.92-16.74 62.92-12.24L62.92-12.24Q62.92-7.87 63.49-5.22Q64.07-2.58 65.33-1.40Q66.60-0.23 68.62-0.23ZM68.21-27.88L68.21-28.34Q68.67-29.39 69.19-30.89Q69.72-32.38 70.21-33.92Q70.69-35.47 70.97-36.62L70.97-36.62L74.42-36.62L74.42-36.06Q73.96-35.10 72.94-33.58Q71.93-32.06 70.78-30.52Q69.63-28.98 68.67-27.88L68.67-27.88L68.21-27.88Z M98.42 0.46L98.42 0.46Q94.88 0.46 92.33-0.99Q89.77-2.44 88.42-5.17Q87.06-7.91 87.06-11.73L87.06-11.73Q87.06-15.55 88.30-18.05Q89.54-20.56 91.66-22.01Q93.78-23.46 96.38-24.06Q98.97-24.66 101.69-24.66L101.69-24.66L111.81-24.66L111.81-20.84L102.70-20.84Q104.82-19.96 106.24-18.47Q107.67-16.97 108.40-14.93Q109.14-12.88 109.14-10.30L109.14-10.30Q109.14-6.90 107.88-4.49Q106.61-2.07 104.22-0.80Q101.83 0.46 98.42 0.46ZM98.42 0L98.42 0Q100.58 0 101.96-1.17Q103.34-2.35 104.01-4.78Q104.68-7.22 104.68-10.90L104.68-10.90Q104.68-13.39 104.36-15.32Q104.03-17.25 103.41-18.65Q102.79-20.06 101.87-20.84L101.87-20.84L100.91-20.84Q99.20-20.84 97.50-20.52Q95.80-20.19 94.42-19.16Q93.04-18.12 92.21-16.10Q91.38-14.08 91.38-10.67L91.38-10.67Q91.38-7.59 92.14-5.17Q92.90-2.76 94.47-1.38Q96.03 0 98.42 0Z M125.10 0.46L125.10 0.46Q120.77 0.46 118.03-1.43Q115.30-3.31 115.30-6.53L115.30-6.53Q115.30-9.11 117.28-10.83Q119.25-12.56 123.53-13.02L123.53-13.02L123.53-13.11Q121.00-13.29 119.35-14.01Q117.69-14.72 116.88-15.96Q116.08-17.20 116.08-18.86L116.08-18.86Q116.08-21.67 118.59-23.37Q121.09-25.07 125.56-25.07L125.56-25.07Q128.13-25.07 129.86-24.45Q131.58-23.83 132.43-22.86Q133.28-21.90 133.28-20.75L133.28-20.75Q133.28-19.78 132.89-19.18Q132.50-18.58 131.70-18.29Q130.89-17.99 129.65-17.99L129.65-17.99Q129.65-20.24 129.14-21.71Q128.64-23.18 127.65-23.90Q126.66-24.61 125.10-24.61L125.10-24.61Q122.70-24.61 121.58-23.14Q120.45-21.67 120.45-18.58L120.45-18.58Q120.45-16.28 121.48-15.02Q122.52-13.75 124.64-13.39L124.64-13.39Q125.42-13.62 126.38-13.80Q127.35-13.98 128.18-13.98L128.18-13.98Q128.96-13.98 129.47-13.80Q129.97-13.62 129.97-13.11L129.97-13.11Q129.97-12.60 129.51-12.40Q129.05-12.19 128.27-12.19L128.27-12.19Q127.44-12.19 126.43-12.37Q125.42-12.56 124.41-12.79L124.41-12.79Q122.84-12.42 121.81-11.62Q120.77-10.81 120.27-9.54Q119.76-8.28 119.76-6.49L119.76-6.49Q119.76-4.28 120.40-2.85Q121.05-1.43 122.40-0.71Q123.76 0 125.79 0L125.79 0Q128.50 0 130.32-1.29Q132.13-2.58 133.10-5.66L133.10-5.66Q133.51-5.52 133.81-5.11Q134.11-4.69 134.11-4.09L134.11-4.09Q134.11-2.99 133.08-1.93Q132.04-0.87 130.04-0.21Q128.04 0.46 125.10 0.46Z M150.02 0.46L150.02 0.46Q146.48 0.46 143.93-0.99Q141.37-2.44 140.02-5.17Q138.66-7.91 138.66-11.73L138.66-11.73Q138.66-15.55 139.90-18.05Q141.14-20.56 143.26-22.01Q145.38-23.46 147.97-24.06Q150.57-24.66 153.29-24.66L153.29-24.66L163.41-24.66L163.41-20.84L154.30-20.84Q156.42-19.96 157.84-18.47Q159.27-16.97 160.00-14.93Q160.74-12.88 160.74-10.30L160.74-10.30Q160.74-6.90 159.47-4.49Q158.21-2.07 155.82-0.80Q153.43 0.46 150.02 0.46ZM150.02 0L150.02 0Q152.18 0 153.56-1.17Q154.94-2.35 155.61-4.78Q156.28-7.22 156.28-10.90L156.28-10.90Q156.28-13.39 155.96-15.32Q155.63-17.25 155.01-18.65Q154.39-20.06 153.47-20.84L153.47-20.84L152.51-20.84Q150.80-20.84 149.10-20.52Q147.40-20.19 146.02-19.16Q144.64-18.12 143.81-16.10Q142.98-14.08 142.98-10.67L142.98-10.67Q142.98-7.59 143.74-5.17Q144.50-2.76 146.07-1.38Q147.63 0 150.02 0Z M177.75 0.46L177.75 0.46Q173.98 0.46 171.59-1.70Q169.20-3.86 168.07-7.87Q166.94-11.87 166.94-17.43L166.94-17.43Q166.94-23 168.07-26.96Q169.20-30.91 171.59-33.03Q173.98-35.14 177.80-35.14L177.80-35.14Q181.39-35.14 183.78-33.03Q186.17-30.91 187.34-26.93Q188.52-22.95 188.52-17.39L188.52-17.39Q188.52-11.87 187.32-7.87Q186.13-3.86 183.76-1.70Q181.39 0.46 177.75 0.46ZM177.75 0L177.75 0Q179.55 0 180.77-0.99Q181.99-1.98 182.72-4.09Q183.46-6.21 183.80-9.52Q184.15-12.83 184.15-17.53L184.15-17.53L171.27-17.53Q171.27-12.79 171.61-9.43Q171.96-6.07 172.74-4.00Q173.52-1.93 174.74-0.97Q175.96 0 177.75 0ZM171.27-17.99L184.15-17.99Q184.15-22.49 183.78-25.67Q183.41-28.84 182.65-30.84Q181.89-32.84 180.70-33.76Q179.50-34.68 177.80-34.68L177.80-34.68Q176.10-34.68 174.86-33.76Q173.61-32.84 172.83-30.84Q172.05-28.84 171.68-25.67Q171.31-22.49 171.27-17.99L171.27-17.99Z M203.46 0.46L203.46 0.46Q200.43 0.46 198.33-0.87Q196.24-2.21 195.16-5.04Q194.08-7.87 194.08-12.28L194.08-12.28Q194.08-16.74 195.34-19.57Q196.61-22.40 198.86-23.76Q201.12-25.12 204.15-25.12L204.15-25.12Q206.87-25.12 208.57-23.71Q210.27-22.31 211.14-19.83L211.14-19.83L211.24-19.83Q211.60-21.39 212.25-22.59Q212.89-23.78 213.58-24.66L213.58-24.66L216.02-24.66Q215.74-23.78 215.47-22.20Q215.19-20.61 215.01-18.84Q214.82-17.07 214.82-15.59L214.82-15.59L214.82-4.74Q214.82-2.71 215.79-1.59Q216.76-0.46 218.60-0.46L218.60-0.46L218.96-0.46L218.96 0L215.10 0Q213.58 0 212.64-0.69Q211.70-1.38 211.24-2.46Q210.78-3.54 210.59-4.69L210.59-4.69L210.50-4.69Q209.49-2.44 207.83-0.99Q206.18 0.46 203.46 0.46ZM204.24-0.23L204.24-0.23Q206.04-0.23 207.23-1.13Q208.43-2.02 209.17-3.61Q209.90-5.20 210.20-7.34Q210.50-9.48 210.50-11.96L210.50-11.96L210.50-18.35Q209.95-21.62 208.31-23.11Q206.68-24.61 204.70-24.61L204.70-24.61Q202.59-24.61 201.21-23.39Q199.83-22.17 199.18-19.46Q198.54-16.74 198.54-12.24L198.54-12.24Q198.54-7.87 199.12-5.22Q199.69-2.58 200.96-1.40Q202.22-0.23 204.24-0.23Z M230.92 0.46L230.92 0.46Q227.74 0.46 226.20-1.13Q224.66-2.71 224.66-6.67L224.66-6.67L224.66-24.66L228.99-24.66L228.99-4.69Q228.99-2.30 229.95-1.26Q230.92-0.23 232.62-0.23L232.62-0.23Q233.26-0.23 233.98-0.37Q234.69-0.51 235.43-0.74L235.43-0.74L235.43-0.28Q234.78 0 233.56 0.23Q232.34 0.46 230.92 0.46ZM225.31-27.88L225.31-28.34Q225.77-29.39 226.29-30.89Q226.82-32.38 227.31-33.92Q227.79-35.47 228.07-36.62L228.07-36.62L231.52-36.62L231.52-36.06Q231.06-35.10 230.04-33.58Q229.03-32.06 227.88-30.52Q226.73-28.98 225.77-27.88L225.77-27.88L225.31-27.88Z M261.04 0.46L261.04 0.46Q257.91 0.46 256.18-1.08Q254.46-2.62 254.46-5.70L254.46-5.70Q254.46-7.54 255.03-9.84Q255.61-12.14 256.71-14.90Q257.82-17.66 259.43-20.84L259.43-20.84L252.89-20.84Q250.55-20.84 249.67-20.01Q248.80-19.18 248.80-16.93L248.80-16.93L248.34-16.93Q248.34-19.73 249.08-21.41Q249.81-23.09 251.17-23.87Q252.53-24.66 254.27-24.66L254.27-24.66L268.72-24.66L268.72-20.84L260.58-20.84Q259.89-17.80 259.43-15.09Q258.97-12.37 258.74-10.17Q258.51-7.96 258.51-6.35L258.51-6.35Q258.51-4.32 258.99-2.94Q259.47-1.56 260.32-0.87Q261.17-0.18 262.32-0.18L262.32-0.18Q263.01-0.18 263.84-0.44Q264.67-0.69 265.54-1.15L265.54-1.15L265.54-0.64Q264.72-0.14 263.52 0.16Q262.32 0.46 261.04 0.46Z M280.86 0.46L280.86 0.46Q277.68 0.46 276.14-1.13Q274.60-2.71 274.60-6.67L274.60-6.67L274.60-24.66L278.92-24.66L278.92-4.69Q278.92-2.30 279.89-1.26Q280.86-0.23 282.56-0.23L282.56-0.23Q283.20-0.23 283.91-0.37Q284.63-0.51 285.36-0.74L285.36-0.74L285.36-0.28Q284.72 0 283.50 0.23Q282.28 0.46 280.86 0.46Z M299.53 0L296.67 0Q295.75-3.59 294.86-6.97Q293.96-10.35 293.09-13.25Q292.21-16.15 291.31-18.35Q290.42-20.56 289.52-21.78Q288.62-23 287.70-23L287.70-23Q287.43-23 287.01-22.88Q286.60-22.77 286.19-22.49L286.19-22.49L285.96-22.86Q286.88-23.64 288.07-24.22Q289.27-24.79 290.56-24.79L290.56-24.79Q291.80-24.79 292.74-24.10Q293.68-23.41 294.51-21.83Q295.34-20.24 296.17-17.55Q297.00-14.86 298.03-10.92Q299.07-6.99 300.49-1.56L300.49-1.56Q301.87-3.04 303.07-4.95Q304.26-6.85 305.14-8.99Q306.01-11.13 306.49-13.32Q306.98-15.50 306.98-17.48L306.98-17.48Q306.98-19.14 306.66-20.17Q306.33-21.21 305.74-21.73Q305.14-22.26 304.31-22.36L304.31-22.36Q304.31-23.78 305.02-24.45Q305.74-25.12 306.89-25.12L306.89-25.12Q308.13-25.12 308.82-24.45Q309.51-23.78 309.78-22.75Q310.06-21.71 310.06-20.56L310.06-20.56Q310.06-18.12 309.12-15.23Q308.17-12.33 306.63-9.45Q305.09-6.58 303.23-4.09Q301.37-1.61 299.53 0L299.53 0Z M325.00 0.46L325.00 0.46Q321.97 0.46 319.88-0.87Q317.78-2.21 316.70-5.04Q315.62-7.87 315.62-12.28L315.62-12.28Q315.62-16.74 316.88-19.57Q318.15-22.40 320.40-23.76Q322.66-25.12 325.69-25.12L325.69-25.12Q328.41-25.12 330.11-23.71Q331.81-22.31 332.69-19.83L332.69-19.83L332.78-19.83Q333.15-21.39 333.79-22.59Q334.43-23.78 335.12-24.66L335.12-24.66L337.56-24.66Q337.29-23.78 337.01-22.20Q336.73-20.61 336.55-18.84Q336.37-17.07 336.37-15.59L336.37-15.59L336.37-4.74Q336.37-2.71 337.33-1.59Q338.30-0.46 340.14-0.46L340.14-0.46L340.51-0.46L340.51 0L336.64 0Q335.12 0 334.18-0.69Q333.24-1.38 332.78-2.46Q332.32-3.54 332.13-4.69L332.13-4.69L332.04-4.69Q331.03-2.44 329.37-0.99Q327.72 0.46 325.00 0.46ZM325.79-0.23L325.79-0.23Q327.58-0.23 328.78-1.13Q329.97-2.02 330.71-3.61Q331.44-5.20 331.74-7.34Q332.04-9.48 332.04-11.96L332.04-11.96L332.04-18.35Q331.49-21.62 329.86-23.11Q328.22-24.61 326.25-24.61L326.25-24.61Q324.13-24.61 322.75-23.39Q321.37-22.17 320.73-19.46Q320.08-16.74 320.08-12.24L320.08-12.24Q320.08-7.87 320.66-5.22Q321.23-2.58 322.50-1.40Q323.76-0.23 325.79-0.23ZM325.37-27.88L325.37-28.34Q325.83-29.39 326.36-30.89Q326.89-32.38 327.37-33.92Q327.86-35.47 328.13-36.62L328.13-36.62L331.58-36.62L331.58-36.06Q331.12-35.10 330.11-33.58Q329.10-32.06 327.95-30.52Q326.80-28.98 325.83-27.88L325.83-27.88L325.37-27.88Z M367.68 11.04L367.68 0.46Q363.77 0.32 360.94-1.13Q358.11-2.58 356.59-5.38Q355.08-8.19 355.08-12.37L355.08-12.37Q355.08-15.13 355.79-17.71Q356.50-20.29 358.23-22.26Q359.95-24.24 362.99-25.12L362.99-25.12L363.13-24.70Q361.84-24.10 361.06-22.66Q360.27-21.21 359.91-18.70Q359.54-16.19 359.54-12.37L359.54-12.37Q359.54-9.20 360.00-6.90Q360.46-4.60 361.42-3.13Q362.39-1.66 363.93-0.90Q365.47-0.14 367.68 0L367.68 0L367.68-17.53Q367.68-21.02 368.85-23.07Q370.03-25.12 373.25-25.12L373.25-25.12Q375.96-25.12 377.94-23.48Q379.92-21.85 381.00-19.00Q382.08-16.15 382.08-12.51L382.08-12.51Q382.08-8.37 380.65-5.54Q379.23-2.71 376.44-1.22Q373.66 0.28 369.52 0.46L369.52 0.46L369.52 11.04L367.68 11.04ZM369.52-17.62L369.52 0Q371.68-0.14 373.22-0.90Q374.76-1.66 375.73-3.15Q376.70-4.65 377.16-6.97Q377.62-9.29 377.62-12.51L377.62-12.51Q377.62-17.16 377.22-19.80Q376.83-22.45 375.87-23.55Q374.90-24.66 373.11-24.66L373.11-24.66Q371.22-24.66 370.37-23.14Q369.52-21.62 369.52-17.62L369.52-17.62Z M397.02 0.46L397.02 0.46Q393.99 0.46 391.89-0.87Q389.80-2.21 388.72-5.04Q387.64-7.87 387.64-12.28L387.64-12.28Q387.64-16.74 388.90-19.57Q390.17-22.40 392.42-23.76Q394.68-25.12 397.71-25.12L397.71-25.12Q400.43-25.12 402.13-23.71Q403.83-22.31 404.70-19.83L404.70-19.83L404.80-19.83Q405.16-21.39 405.81-22.59Q406.45-23.78 407.14-24.66L407.14-24.66L409.58-24.66Q409.30-23.78 409.03-22.20Q408.75-20.61 408.57-18.84Q408.38-17.07 408.38-15.59L408.38-15.59L408.38-4.74Q408.38-2.71 409.35-1.59Q410.32-0.46 412.16-0.46L412.16-0.46L412.52-0.46L412.52 0L408.66 0Q407.14 0 406.20-0.69Q405.26-1.38 404.80-2.46Q404.34-3.54 404.15-4.69L404.15-4.69L404.06-4.69Q403.05-2.44 401.39-0.99Q399.74 0.46 397.02 0.46ZM397.80-0.23L397.80-0.23Q399.60-0.23 400.79-1.13Q401.99-2.02 402.73-3.61Q403.46-5.20 403.76-7.34Q404.06-9.48 404.06-11.96L404.06-11.96L404.06-18.35Q403.51-21.62 401.88-23.11Q400.24-24.61 398.26-24.61L398.26-24.61Q396.15-24.61 394.77-23.39Q393.39-22.17 392.74-19.46Q392.10-16.74 392.10-12.24L392.10-12.24Q392.10-7.87 392.68-5.22Q393.25-2.58 394.51-1.40Q395.78-0.23 397.80-0.23Z M424.48 0.46L424.48 0.46Q421.30 0.46 419.76-1.13Q418.22-2.71 418.22-6.67L418.22-6.67L418.22-24.66L422.55-24.66L422.55-4.69Q422.55-2.30 423.51-1.26Q424.48-0.23 426.18-0.23L426.18-0.23Q426.82-0.23 427.54-0.37Q428.25-0.51 428.99-0.74L428.99-0.74L428.99-0.28Q428.34 0 427.12 0.23Q425.90 0.46 424.48 0.46ZM424.25-27.88L424.25-27.88Q423.10-27.88 421.99-28.31Q420.89-28.75 419.81-29.32Q418.73-29.90 417.62-30.34Q416.52-30.77 415.28-30.77L415.28-30.77Q413.76-30.77 413.37-30.02Q412.98-29.26 412.75-28.34L412.75-28.34L412.29-28.34Q412.43-29.72 412.89-30.96Q413.35-32.20 414.29-32.98Q415.23-33.76 416.70-33.76L416.70-33.76Q417.90-33.76 418.98-33.33Q420.06-32.89 421.14-32.31Q422.22-31.74 423.35-31.30Q424.48-30.87 425.67-30.87L425.67-30.87Q427.10-30.87 427.56-31.58Q428.02-32.29 428.20-33.30L428.20-33.30L428.66-33.30Q428.53-32.02 428.07-30.75Q427.61-29.49 426.69-28.68Q425.77-27.88 424.25-27.88Z M437.12 11.04L437.12 11.04Q436.16 11.04 435.35 10.60Q434.55 10.17 434.04 8.90Q433.53 7.64 433.53 5.11L433.53 5.11Q433.53 4.05 433.63 2.60Q433.72 1.15 433.81-0.78Q433.90-2.71 433.99-5.08Q434.09-7.45 434.09-10.35L434.09-10.35L434.09-24.66L438.41-24.66L438.41-9.20Q438.41-6.07 438.85-4.09Q439.28-2.12 440.30-1.17Q441.31-0.23 442.96-0.23L442.96-0.23Q444.76-0.23 446.02-1.26Q447.29-2.30 447.93-4.44Q448.58-6.58 448.58-9.94L448.58-9.94L448.58-24.66L452.90-24.66L452.90-4.46Q452.90-2.25 453.54-1.36Q454.19-0.46 455.80-0.46L455.80-0.46L455.94-0.46L455.94 0L453.45 0Q451.24 0 450.07-1.22Q448.90-2.44 448.62-4.97L448.62-4.97L448.53-4.97Q447.84-2.16 446.32-0.85Q444.80 0.46 442.00 0.46L442.00 0.46Q440.07 0.46 438.52-0.18Q436.98-0.83 435.95-2.14Q434.91-3.45 434.45-5.47L434.45-5.47Q434.45-2.76 434.64-0.74Q434.82 1.29 435.26 2.71Q435.70 4.14 436.39 5.04Q437.08 5.93 438.09 6.42Q439.10 6.90 440.48 7.04L440.48 7.04Q440.48 8.74 439.79 9.89Q439.10 11.04 437.12 11.04Z M469.13 0.46L469.13 0.46Q465.96 0.46 464.42-1.13Q462.88-2.71 462.88-6.67L462.88-6.67L462.88-24.66L467.20-24.66L467.20-4.69Q467.20-2.30 468.17-1.26Q469.13-0.23 470.83-0.23L470.83-0.23Q471.48-0.23 472.19-0.37Q472.90-0.51 473.64-0.74L473.64-0.74L473.64-0.28Q473.00 0 471.78 0.23Q470.56 0.46 469.13 0.46Z M490.05 0L490.05-21.07Q490.05-22.45 489.52-23.11Q488.99-23.78 488.14-23.99Q487.29-24.20 486.28-24.20L486.28-24.20L485.91-24.20L485.91-24.66L494.37-24.66L494.37-17.20Q494.37-15.27 494.37-13.94Q494.37-12.60 494.35-11.52Q494.33-10.44 494.28-9.25L494.28-9.25L501.18-19.23Q502.65-21.39 503.80-22.61Q504.95-23.83 506.01-24.36Q507.07-24.89 508.17-24.89L508.17-24.89Q509.78-24.89 510.63-24.04Q511.49-23.18 511.49-21.90L511.49-21.90Q511.49-21.39 511.37-20.91Q511.26-20.42 511.03-20.10L511.03-20.10Q510.34-20.79 509.37-21.21Q508.40-21.62 507.07-21.62L507.07-21.62Q505.55-21.62 504.43-20.98Q503.30-20.33 502.19-18.86L502.19-18.86L500.12-16.10L506.75-5.61Q507.85-3.86 508.61-2.71Q509.37-1.56 510.13-1.01Q510.89-0.46 511.90-0.46L511.90-0.46L512.04-0.46L512.04 0L511.39 0Q509.42 0 508.08-0.11Q506.75-0.23 505.81-0.67Q504.86-1.10 504.08-2.00Q503.30-2.90 502.38-4.46L502.38-4.46L497.55-12.74L494.37-8.60L494.37 0L490.05 0Z M525.37 0.46L525.37 0.46Q522.34 0.46 520.24-0.87Q518.15-2.21 517.07-5.04Q515.99-7.87 515.99-12.28L515.99-12.28Q515.99-16.74 517.25-19.57Q518.52-22.40 520.77-23.76Q523.03-25.12 526.06-25.12L526.06-25.12Q528.78-25.12 530.48-23.71Q532.18-22.31 533.05-19.83L533.05-19.83L533.15-19.83Q533.51-21.39 534.16-22.59Q534.80-23.78 535.49-24.66L535.49-24.66L537.93-24.66Q537.65-23.78 537.38-22.20Q537.10-20.61 536.92-18.84Q536.73-17.07 536.73-15.59L536.73-15.59L536.73-4.74Q536.73-2.71 537.70-1.59Q538.67-0.46 540.51-0.46L540.51-0.46L540.87-0.46L540.87 0L537.01 0Q535.49 0 534.55-0.69Q533.61-1.38 533.15-2.46Q532.69-3.54 532.50-4.69L532.50-4.69L532.41-4.69Q531.40-2.44 529.74-0.99Q528.09 0.46 525.37 0.46ZM526.15-0.23L526.15-0.23Q527.95-0.23 529.14-1.13Q530.34-2.02 531.08-3.61Q531.81-5.20 532.11-7.34Q532.41-9.48 532.41-11.96L532.41-11.96L532.41-18.35Q531.86-21.62 530.23-23.11Q528.59-24.61 526.61-24.61L526.61-24.61Q524.50-24.61 523.12-23.39Q521.74-22.17 521.09-19.46Q520.45-16.74 520.45-12.24L520.45-12.24Q520.45-7.87 521.02-5.22Q521.60-2.58 522.87-1.40Q524.13-0.23 526.15-0.23Z M552.83 0.46L552.83 0.46Q549.65 0.46 548.11-1.13Q546.57-2.71 546.57-6.67L546.57-6.67L546.57-24.66L550.90-24.66L550.90-4.69Q550.90-2.30 551.86-1.26Q552.83-0.23 554.53-0.23L554.53-0.23Q555.17-0.23 555.89-0.37Q556.60-0.51 557.34-0.74L557.34-0.74L557.34-0.28Q556.69 0 555.47 0.23Q554.25 0.46 552.83 0.46ZM549.84-27.88L549.38-27.88Q548.46-28.98 547.28-30.52Q546.11-32.06 545.12-33.58Q544.13-35.10 543.63-36.06L543.63-36.06L543.63-36.62L547.08-36.62Q547.35-35.47 547.84-33.92Q548.32-32.38 548.85-30.89Q549.38-29.39 549.84-28.34L549.84-28.34L549.84-27.88Z"/><path transform="translate(340.3 86.48)" d="M12.28 0.46L12.28 0.46Q7.96 0.46 5.22-1.43Q2.48-3.31 2.48-6.53L2.48-6.53Q2.48-9.11 4.46-10.83Q6.44-12.56 10.72-13.02L10.72-13.02L10.72-13.11Q8.19-13.29 6.53-14.01Q4.88-14.72 4.07-15.96Q3.27-17.20 3.27-18.86L3.27-18.86Q3.27-21.67 5.77-23.37Q8.28-25.07 12.74-25.07L12.74-25.07Q15.32-25.07 17.04-24.45Q18.77-23.83 19.62-22.86Q20.47-21.90 20.47-20.75L20.47-20.75Q20.47-19.78 20.08-19.18Q19.69-18.58 18.88-18.29Q18.08-17.99 16.84-17.99L16.84-17.99Q16.84-20.24 16.33-21.71Q15.82-23.18 14.83-23.90Q13.85-24.61 12.28-24.61L12.28-24.61Q9.89-24.61 8.76-23.14Q7.64-21.67 7.64-18.58L7.64-18.58Q7.64-16.28 8.67-15.02Q9.71-13.75 11.82-13.39L11.82-13.39Q12.60-13.62 13.57-13.80Q14.54-13.98 15.36-13.98L15.36-13.98Q16.15-13.98 16.65-13.80Q17.16-13.62 17.16-13.11L17.16-13.11Q17.16-12.60 16.70-12.40Q16.24-12.19 15.46-12.19L15.46-12.19Q14.63-12.19 13.62-12.37Q12.60-12.56 11.59-12.79L11.59-12.79Q10.03-12.42 8.99-11.62Q7.96-10.81 7.45-9.54Q6.95-8.28 6.95-6.49L6.95-6.49Q6.95-4.28 7.59-2.85Q8.23-1.43 9.59-0.71Q10.95 0 12.97 0L12.97 0Q15.69 0 17.50-1.29Q19.32-2.58 20.29-5.66L20.29-5.66Q20.70-5.52 21.00-5.11Q21.30-4.69 21.30-4.09L21.30-4.09Q21.30-2.99 20.26-1.93Q19.23-0.87 17.23-0.21Q15.23 0.46 12.28 0.46ZM11.04-27.46L11.04-27.00Q9.02-27.37 7.82-28.11Q6.62-28.84 6.12-29.85Q5.61-30.87 5.61-32.02L5.61-32.02Q5.61-33.49 6.44-34.32Q7.27-35.14 8.46-35.14L8.46-35.14Q9.52-35.14 10.07-34.57Q10.63-33.99 10.63-33.17L10.63-33.17Q10.63-32.38 10.21-32.04Q9.80-31.69 9.27-31.51Q8.74-31.33 8.33-31.00Q7.91-30.68 7.91-29.95L7.91-29.95Q7.91-28.98 8.72-28.41Q9.52-27.83 11.04-27.46L11.04-27.46ZM12.83-27.60L12.83-28.06Q13.20-28.93 13.59-30.11Q13.98-31.28 14.33-32.50Q14.67-33.72 14.86-34.68L14.86-34.68L18.31-34.68L18.31-34.22Q17.94-33.49 17.04-32.27Q16.15-31.05 15.13-29.76Q14.12-28.47 13.29-27.60L13.29-27.60L12.83-27.60Z M37.48 0.46L37.48 0.46Q34.36 0.46 32.63-1.08Q30.91-2.62 30.91-5.70L30.91-5.70Q30.91-7.54 31.48-9.84Q32.06-12.14 33.16-14.90Q34.26-17.66 35.87-20.84L35.87-20.84L29.34-20.84Q27.00-20.84 26.12-20.01Q25.25-19.18 25.25-16.93L25.25-16.93L24.79-16.93Q24.79-19.73 25.52-21.41Q26.26-23.09 27.62-23.87Q28.97-24.66 30.72-24.66L30.72-24.66L45.17-24.66L45.17-20.84L37.02-20.84Q36.33-17.80 35.87-15.09Q35.41-12.37 35.18-10.17Q34.95-7.96 34.95-6.35L34.95-6.35Q34.95-4.32 35.44-2.94Q35.92-1.56 36.77-0.87Q37.62-0.18 38.77-0.18L38.77-0.18Q39.46-0.18 40.29-0.44Q41.12-0.69 41.99-1.15L41.99-1.15L41.99-0.64Q41.16-0.14 39.97 0.16Q38.77 0.46 37.48 0.46Z M58.82 0.46L58.82 0.46Q54.50 0.46 51.76-1.43Q49.02-3.31 49.02-6.53L49.02-6.53Q49.02-9.11 51.00-10.83Q52.98-12.56 57.26-13.02L57.26-13.02L57.26-13.11Q54.73-13.29 53.07-14.01Q51.42-14.72 50.61-15.96Q49.81-17.20 49.81-18.86L49.81-18.86Q49.81-21.67 52.31-23.37Q54.82-25.07 59.28-25.07L59.28-25.07Q61.86-25.07 63.58-24.45Q65.31-23.83 66.16-22.86Q67.01-21.90 67.01-20.75L67.01-20.75Q67.01-19.78 66.62-19.18Q66.23-18.58 65.42-18.29Q64.62-17.99 63.38-17.99L63.38-17.99Q63.38-20.24 62.87-21.71Q62.36-23.18 61.38-23.90Q60.39-24.61 58.82-24.61L58.82-24.61Q56.43-24.61 55.30-23.14Q54.18-21.67 54.18-18.58L54.18-18.58Q54.18-16.28 55.21-15.02Q56.25-13.75 58.36-13.39L58.36-13.39Q59.14-13.62 60.11-13.80Q61.08-13.98 61.90-13.98L61.90-13.98Q62.69-13.98 63.19-13.80Q63.70-13.62 63.70-13.11L63.70-13.11Q63.70-12.60 63.24-12.40Q62.78-12.19 62.00-12.19L62.00-12.19Q61.17-12.19 60.16-12.37Q59.14-12.56 58.13-12.79L58.13-12.79Q56.57-12.42 55.53-11.62Q54.50-10.81 53.99-9.54Q53.49-8.28 53.49-6.49L53.49-6.49Q53.49-4.28 54.13-2.85Q54.77-1.43 56.13-0.71Q57.49 0 59.51 0L59.51 0Q62.23 0 64.04-1.29Q65.86-2.58 66.83-5.66L66.83-5.66Q67.24-5.52 67.54-5.11Q67.84-4.69 67.84-4.09L67.84-4.09Q67.84-2.99 66.80-1.93Q65.77-0.87 63.77-0.21Q61.77 0.46 58.82 0.46Z M73.90 11.04L73.90-13.48Q73.90-19.09 76.39-22.10Q78.87-25.12 84.21-25.12L84.21-25.12Q87.52-25.12 90.05-23.60Q92.58-22.08 93.98-19.14Q95.39-16.19 95.39-11.87L95.39-11.87Q95.39-7.54 94.17-4.83Q92.95-2.12 90.69-0.83Q88.44 0.46 85.22 0.46L85.22 0.46Q83.20 0.46 81.42-0.25Q79.65-0.97 78.18-2.12L78.18-2.12Q78.18-1.43 78.20-0.21Q78.23 1.01 78.23 2.25L78.23 2.25L78.23 11.04L73.90 11.04ZM85.22 0L85.22 0Q87.24 0 88.49-1.24Q89.73-2.48 90.33-5.11Q90.92-7.73 90.92-11.87L90.92-11.87Q90.92-16.38 90.21-19.18Q89.50-21.99 88.00-23.32Q86.51-24.66 84.12-24.66L84.12-24.66Q81.82-24.66 80.53-23.51Q79.24-22.36 78.73-20.31Q78.23-18.26 78.23-15.46L78.23-15.46L78.23-2.71Q79.65-1.56 81.38-0.78Q83.10 0 85.22 0Z M111.62 0.46L111.62 0.46Q106.65 0.46 103.80-2.71Q100.95-5.89 100.95-12.37L100.95-12.37Q100.95-18.81 103.68-21.96Q106.42-25.12 111.76-25.12L111.76-25.12Q116.72-25.12 119.58-21.96Q122.43-18.81 122.43-12.37L122.43-12.37Q122.43-5.89 119.69-2.71Q116.95 0.46 111.62 0.46ZM111.71 0L111.71 0Q113.96 0 115.34-1.24Q116.72-2.48 117.34-5.20Q117.97-7.91 117.97-12.37L117.97-12.37Q117.97-16.79 117.34-19.50Q116.72-22.22 115.34-23.44Q113.96-24.66 111.66-24.66L111.66-24.66Q109.41-24.66 108.03-23.44Q106.65-22.22 106.03-19.50Q105.41-16.79 105.41-12.37L105.41-12.37Q105.41-7.91 106.03-5.20Q106.65-2.48 108.05-1.24Q109.46 0 111.71 0Z M139.03 0L136.18 0Q135.26-3.59 134.36-6.97Q133.46-10.35 132.59-13.25Q131.71-16.15 130.82-18.35Q129.92-20.56 129.02-21.78Q128.13-23 127.21-23L127.21-23Q126.93-23 126.52-22.88Q126.10-22.77 125.69-22.49L125.69-22.49L125.46-22.86Q126.38-23.64 127.57-24.22Q128.77-24.79 130.06-24.79L130.06-24.79Q131.30-24.79 132.24-24.10Q133.19-23.41 134.01-21.83Q134.84-20.24 135.67-17.55Q136.50-14.86 137.53-10.92Q138.57-6.99 139.99-1.56L139.99-1.56Q141.37-3.04 142.57-4.95Q143.77-6.85 144.64-8.99Q145.51-11.13 146.00-13.32Q146.48-15.50 146.48-17.48L146.48-17.48Q146.48-19.14 146.16-20.17Q145.84-21.21 145.24-21.73Q144.64-22.26 143.81-22.36L143.81-22.36Q143.81-23.78 144.53-24.45Q145.24-25.12 146.39-25.12L146.39-25.12Q147.63-25.12 148.32-24.45Q149.01-23.78 149.29-22.75Q149.56-21.71 149.56-20.56L149.56-20.56Q149.56-18.12 148.62-15.23Q147.68-12.33 146.13-9.45Q144.59-6.58 142.73-4.09Q140.87-1.61 139.03 0L139.03 0Z M175.36 0.46L175.36 0.46Q172.32 0.46 170.23-0.87Q168.13-2.21 167.05-5.04Q165.97-7.87 165.97-12.28L165.97-12.28Q165.97-16.74 167.24-19.57Q168.50-22.40 170.76-23.76Q173.01-25.12 176.05-25.12L176.05-25.12Q178.76-25.12 180.46-23.71Q182.16-22.31 183.04-19.83L183.04-19.83L183.13-19.83Q183.50-21.39 184.14-22.59Q184.79-23.78 185.48-24.66L185.48-24.66L187.91-24.66Q187.64-23.78 187.36-22.20Q187.09-20.61 186.90-18.84Q186.72-17.07 186.72-15.59L186.72-15.59L186.72-4.74Q186.72-2.71 187.68-1.59Q188.65-0.46 190.49-0.46L190.49-0.46L190.86-0.46L190.86 0L186.99 0Q185.48 0 184.53-0.69Q183.59-1.38 183.13-2.46Q182.67-3.54 182.49-4.69L182.49-4.69L182.39-4.69Q181.38-2.44 179.73-0.99Q178.07 0.46 175.36 0.46ZM176.14-0.23L176.14-0.23Q177.93-0.23 179.13-1.13Q180.32-2.02 181.06-3.61Q181.80-5.20 182.09-7.34Q182.39-9.48 182.39-11.96L182.39-11.96L182.39-18.35Q181.84-21.62 180.21-23.11Q178.58-24.61 176.60-24.61L176.60-24.61Q174.48-24.61 173.10-23.39Q171.72-22.17 171.08-19.46Q170.43-16.74 170.43-12.24L170.43-12.24Q170.43-7.87 171.01-5.22Q171.58-2.58 172.85-1.40Q174.11-0.23 176.14-0.23ZM173.84-27.00L173.84-27.46Q175.36-27.83 176.16-28.41Q176.97-28.98 176.97-29.95L176.97-29.95Q176.97-30.68 176.55-31.00Q176.14-31.33 175.61-31.51Q175.08-31.69 174.67-32.04Q174.25-32.38 174.25-33.17L174.25-33.17Q174.25-33.99 174.83-34.57Q175.40-35.14 176.41-35.14L176.41-35.14Q177.61-35.14 178.44-34.32Q179.27-33.49 179.27-32.02L179.27-32.02Q179.27-30.87 178.76-29.85Q178.25-28.84 177.06-28.11Q175.86-27.37 173.84-27.00L173.84-27.00Z M199.59 11.04L199.59 11.04Q198.63 11.04 197.82 10.60Q197.02 10.17 196.51 8.90Q196.00 7.64 196.00 5.11L196.00 5.11Q196.00 4.05 196.10 2.60Q196.19 1.15 196.28-0.78Q196.37-2.71 196.46-5.08Q196.56-7.45 196.56-10.35L196.56-10.35L196.56-24.66L200.88-24.66L200.88-9.20Q200.88-6.07 201.32-4.09Q201.75-2.12 202.77-1.17Q203.78-0.23 205.43-0.23L205.43-0.23Q207.23-0.23 208.49-1.26Q209.76-2.30 210.40-4.44Q211.05-6.58 211.05-9.94L211.05-9.94L211.05-24.66L215.37-24.66L215.37-4.46Q215.37-2.25 216.01-1.36Q216.66-0.46 218.27-0.46L218.27-0.46L218.41-0.46L218.41 0L215.92 0Q213.71 0 212.54-1.22Q211.37-2.44 211.09-4.97L211.09-4.97L211.00-4.97Q210.31-2.16 208.79-0.85Q207.27 0.46 204.47 0.46L204.47 0.46Q202.54 0.46 200.99-0.18Q199.45-0.83 198.42-2.14Q197.38-3.45 196.92-5.47L196.92-5.47Q196.92-2.76 197.11-0.74Q197.29 1.29 197.73 2.71Q198.17 4.14 198.86 5.04Q199.55 5.93 200.56 6.42Q201.57 6.90 202.95 7.04L202.95 7.04Q202.95 8.74 202.26 9.89Q201.57 11.04 199.59 11.04Z M228.38 11.04L228.38 11.04Q227.42 11.04 226.61 10.60Q225.81 10.17 225.30 8.90Q224.79 7.64 224.79 5.11L224.79 5.11Q224.79 4.05 224.89 2.60Q224.98 1.15 225.07-0.78Q225.16-2.71 225.25-5.08Q225.35-7.45 225.35-10.35L225.35-10.35L225.35-24.66L229.67-24.66L229.67-9.20Q229.67-6.07 230.11-4.09Q230.54-2.12 231.56-1.17Q232.57-0.23 234.22-0.23L234.22-0.23Q236.02-0.23 237.28-1.26Q238.55-2.30 239.19-4.44Q239.84-6.58 239.84-9.94L239.84-9.94L239.84-24.66L244.16-24.66L244.16-4.46Q244.16-2.25 244.80-1.36Q245.45-0.46 247.06-0.46L247.06-0.46L247.20-0.46L247.20 0L244.71 0Q242.50 0 241.33-1.22Q240.16-2.44 239.88-4.97L239.88-4.97L239.79-4.97Q239.10-2.16 237.58-0.85Q236.06 0.46 233.26 0.46L233.26 0.46Q231.33 0.46 229.78-0.18Q228.24-0.83 227.21-2.14Q226.17-3.45 225.71-5.47L225.71-5.47Q225.71-2.76 225.90-0.74Q226.08 1.29 226.52 2.71Q226.96 4.14 227.65 5.04Q228.34 5.93 229.35 6.42Q230.36 6.90 231.74 7.04L231.74 7.04Q231.74 8.74 231.05 9.89Q230.36 11.04 228.38 11.04Z M261.22-27.88L261.22-28.34Q261.68-29.39 262.21-30.89Q262.74-32.38 263.22-33.92Q263.70-35.47 263.98-36.62L263.98-36.62L267.43-36.62L267.43-36.06Q266.97-35.10 265.96-33.58Q264.95-32.06 263.80-30.52Q262.65-28.98 261.68-27.88L261.68-27.88L261.22-27.88ZM261.91 0.46L261.91 0.46Q257.59 0.46 254.85-1.43Q252.11-3.31 252.11-6.53L252.11-6.53Q252.11-9.11 254.09-10.83Q256.07-12.56 260.35-13.02L260.35-13.02L260.35-13.11Q257.82-13.29 256.16-14.01Q254.50-14.72 253.70-15.96Q252.89-17.20 252.89-18.86L252.89-18.86Q252.89-21.67 255.40-23.37Q257.91-25.07 262.37-25.07L262.37-25.07Q264.95-25.07 266.67-24.45Q268.40-23.83 269.25-22.86Q270.10-21.90 270.10-20.75L270.10-20.75Q270.10-19.78 269.71-19.18Q269.32-18.58 268.51-18.29Q267.71-17.99 266.46-17.99L266.46-17.99Q266.46-20.24 265.96-21.71Q265.45-23.18 264.46-23.90Q263.47-24.61 261.91-24.61L261.91-24.61Q259.52-24.61 258.39-23.14Q257.26-21.67 257.26-18.58L257.26-18.58Q257.26-16.28 258.30-15.02Q259.33-13.75 261.45-13.39L261.45-13.39Q262.23-13.62 263.20-13.80Q264.16-13.98 264.99-13.98L264.99-13.98Q265.77-13.98 266.28-13.80Q266.79-13.62 266.79-13.11L266.79-13.11Q266.79-12.60 266.33-12.40Q265.87-12.19 265.08-12.19L265.08-12.19Q264.26-12.19 263.24-12.37Q262.23-12.56 261.22-12.79L261.22-12.79Q259.66-12.42 258.62-11.62Q257.59-10.81 257.08-9.54Q256.57-8.28 256.57-6.49L256.57-6.49Q256.57-4.28 257.22-2.85Q257.86-1.43 259.22-0.71Q260.58 0 262.60 0L262.60 0Q265.31 0 267.13-1.29Q268.95-2.58 269.91-5.66L269.91-5.66Q270.33-5.52 270.63-5.11Q270.93-4.69 270.93-4.09L270.93-4.09Q270.93-2.99 269.89-1.93Q268.86-0.87 266.85-0.21Q264.85 0.46 261.91 0.46Z M284.17 0.46L284.17 0.46Q281.50 0.46 279.54-0.83Q277.59-2.12 276.53-4.71Q275.47-7.31 275.47-11.22L275.47-11.22Q275.47-14.26 276.39-16.97Q277.31-19.69 278.97-21.80Q280.63-23.92 282.79-25.12L282.79-25.12L283.11-24.79Q281.82-23.37 280.88-20.36Q279.94-17.34 279.94-11.82L279.94-11.82Q279.94-7.96 280.44-5.34Q280.95-2.71 282.05-1.40Q283.16-0.09 284.86-0.09L284.86-0.09Q286.19-0.09 287.16-0.83Q288.12-1.56 288.72-3.06Q289.32-4.55 289.55-6.72L289.55-6.72Q289.32-7.91 289.07-9.08Q288.81-10.26 288.65-11.41Q288.49-12.56 288.49-13.62L288.49-13.62Q288.49-15.55 289.11-16.38Q289.73-17.20 290.61-17.20L290.61-17.20Q291.53-17.20 292.13-16.38Q292.72-15.55 292.72-13.62L292.72-13.62Q292.72-12.56 292.54-11.41Q292.36-10.26 292.13-9.08Q291.90-7.91 291.67-6.72L291.67-6.72Q291.90-4.60 292.52-3.13Q293.14-1.66 294.10-0.87Q295.07-0.09 296.36-0.09L296.36-0.09Q298.11-0.09 299.19-1.40Q300.27-2.71 300.77-5.34Q301.28-7.96 301.28-11.82L301.28-11.82Q301.28-17.34 300.36-20.36Q299.44-23.37 298.11-24.79L298.11-24.79L298.43-25.12Q300.59-23.92 302.25-21.80Q303.90-19.69 304.82-16.97Q305.74-14.26 305.74-11.22L305.74-11.22Q305.74-7.31 304.68-4.71Q303.63-2.12 301.67-0.83Q299.72 0.46 297.05 0.46L297.05 0.46Q294.61 0.46 293.07-0.85Q291.53-2.16 290.65-4.28L290.65-4.28Q289.96-2.25 288.26-0.90Q286.56 0.46 284.17 0.46Z M322.34 0L319.49 0Q318.57-3.59 317.67-6.97Q316.78-10.35 315.90-13.25Q315.03-16.15 314.13-18.35Q313.23-20.56 312.34-21.78Q311.44-23 310.52-23L310.52-23Q310.24-23 309.83-22.88Q309.42-22.77 309.00-22.49L309.00-22.49L308.77-22.86Q309.69-23.64 310.89-24.22Q312.08-24.79 313.37-24.79L313.37-24.79Q314.61-24.79 315.56-24.10Q316.50-23.41 317.33-21.83Q318.16-20.24 318.98-17.55Q319.81-14.86 320.85-10.92Q321.88-6.99 323.31-1.56L323.31-1.56Q324.69-3.04 325.88-4.95Q327.08-6.85 327.95-8.99Q328.83-11.13 329.31-13.32Q329.79-15.50 329.79-17.48L329.79-17.48Q329.79-19.14 329.47-20.17Q329.15-21.21 328.55-21.73Q327.95-22.26 327.13-22.36L327.13-22.36Q327.13-23.78 327.84-24.45Q328.55-25.12 329.70-25.12L329.70-25.12Q330.94-25.12 331.63-24.45Q332.32-23.78 332.60-22.75Q332.88-21.71 332.88-20.56L332.88-20.56Q332.88-18.12 331.93-15.23Q330.99-12.33 329.45-9.45Q327.91-6.58 326.04-4.09Q324.18-1.61 322.34 0L322.34 0Z"/></g>
      
      <g opacity="0.95">
        <line x1="444" y1="117.24" x2="490" y2="117.24"
          stroke="#C5A059" stroke-width="1.2" stroke-linecap="round"
          stroke-dasharray="46" stroke-dashoffset="0">
          <animate attributeName="stroke-dashoffset" from="46" to="0" dur="1.1s" begin="0s" fill="freeze" calcMode="spline" keySplines="0.22 1 0.36 1" keyTimes="0;1" values="46;0"/>
        </line>
        <line x1="526" y1="117.24" x2="572" y2="117.24"
          stroke="#C5A059" stroke-width="1.2" stroke-linecap="round"
          stroke-dasharray="46" stroke-dashoffset="0">
          <animate attributeName="stroke-dashoffset" from="46" to="0" dur="1.1s" begin="0s" fill="freeze" calcMode="spline" keySplines="0.22 1 0.36 1" keyTimes="0;1" values="46;0"/>
        </line>
        <g transform="translate(509 117.24) scale(1 1)" opacity="1"><path d="M7 0C5 -5.6 -0.6 -7.2 -3.9 -5C-6.6 -3.1 -6.5 -0.9 -3.4 0C-6.5 0.9 -6.6 3.1 -3.9 5C-0.6 7.2 5 5.6 7 0Z" fill="#8B1E1E"/><path d="M-3.4 0C-6.2 -0.3 -7.9 -1.4 -9.1 -3.3" fill="none" stroke="#8B1E1E" stroke-width="1.2" stroke-linecap="round"/></g>
      </g>
      <g fill="#5D4E42"><path transform="translate(255.26 160.36)" d="M5.42 0.21L5.42 0.21Q4.39 0.21 3.57-0.01Q2.75-0.23 2.17-0.62Q1.60-1.01 1.30-1.53Q1.01-2.06 1.01-2.69L1.01-2.69Q1.01-3.17 1.19-3.50Q1.36-3.82 1.70-3.99Q2.04-4.16 2.52-4.16L2.52-4.16Q2.54-2.79 2.87-1.86Q3.19-0.92 3.86-0.46Q4.54 0 5.57 0L5.57 0Q6.91 0 7.74-0.79Q8.57-1.58 8.57-3.11L8.57-3.11Q8.57-4.05 8.22-4.64Q7.88-5.23 7.11-5.70Q6.34-6.17 5.10-6.74L5.10-6.74Q4.45-7.06 3.77-7.42Q3.09-7.79 2.51-8.31Q1.93-8.82 1.59-9.57Q1.24-10.31 1.24-11.34L1.24-11.34Q1.24-12.60 1.79-13.46Q2.33-14.32 3.33-14.76Q4.33-15.20 5.67-15.20L5.67-15.20Q6.91-15.20 7.82-14.87Q8.74-14.53 9.25-13.99Q9.77-13.44 9.77-12.79L9.77-12.79Q9.77-12.18 9.30-11.83Q8.84-11.49 8.11-11.49L8.11-11.49Q8.11-13.23 7.54-14.11Q6.97-14.99 5.65-14.99L5.65-14.99Q4.85-14.99 4.24-14.67Q3.63-14.34 3.31-13.70Q2.98-13.06 2.98-12.10L2.98-12.10Q2.98-11.07 3.36-10.44Q3.74-9.81 4.50-9.36Q5.27-8.90 6.43-8.36L6.43-8.36Q7.48-7.88 8.37-7.35Q9.26-6.83 9.81-6.03Q10.35-5.23 10.35-3.93L10.35-3.93Q10.35-2.65 9.78-1.72Q9.20-0.80 8.10-0.29Q6.99 0.21 5.42 0.21Z M17.65 0.21L17.65 0.21Q15.38 0.21 14.08-1.24Q12.78-2.69 12.78-5.65L12.78-5.65Q12.78-8.59 14.03-10.03Q15.28-11.47 17.71-11.47L17.71-11.47Q19.98-11.47 21.28-10.03Q22.59-8.59 22.59-5.65L22.59-5.65Q22.59-2.69 21.34-1.24Q20.09 0.21 17.65 0.21ZM17.69 0L17.69 0Q18.72 0 19.35-0.57Q19.98-1.13 20.27-2.37Q20.55-3.61 20.55-5.65L20.55-5.65Q20.55-7.67 20.27-8.90Q19.98-10.14 19.35-10.70Q18.72-11.26 17.67-11.26L17.67-11.26Q16.64-11.26 16.01-10.70Q15.38-10.14 15.10-8.90Q14.82-7.67 14.82-5.65L14.82-5.65Q14.82-3.61 15.10-2.37Q15.38-1.13 16.02-0.57Q16.66 0 17.69 0Z M30.18 0L24.53 0L24.53-0.21L24.70-0.21Q25.33-0.21 25.71-0.38Q26.08-0.55 26.25-0.90Q26.42-1.26 26.42-1.83L26.42-1.83L26.42-9.41Q26.42-10.00 26.25-10.35Q26.08-10.71 25.71-10.88Q25.33-11.05 24.70-11.05L24.70-11.05L24.63-11.05L24.63-11.26L28.37-11.26L28.37-9.26L28.41-9.26Q28.71-10.19 29.20-10.66Q29.70-11.13 30.30-11.30Q30.91-11.47 31.54-11.47L31.54-11.47Q32.66-11.47 33.55-10.93Q34.44-10.40 34.86-8.90L34.86-8.90L34.90-8.90Q35.18-10.04 35.67-10.58Q36.16-11.13 36.77-11.30Q37.38-11.47 37.97-11.47L37.97-11.47Q39.78-11.47 40.65-10.43Q41.52-9.39 41.52-7.29L41.52-7.29L41.52-1.93Q41.52-1.30 41.69-0.92Q41.85-0.55 42.24-0.38Q42.63-0.21 43.24-0.21L43.24-0.21L43.30-0.21L43.30 0L39.54 0L39.54-7.71Q39.54-9.45 39.06-10.25Q38.58-11.05 37.51-11.05L37.51-11.05Q36.71-11.05 36.14-10.64Q35.58-10.23 35.29-9.45Q35.01-8.67 35.01-7.56L35.01-7.56L35.01-1.93Q35.01-1.30 35.18-0.92Q35.34-0.55 35.73-0.38Q36.12-0.21 36.73-0.21L36.73-0.21L36.79-0.21L36.79 0L33.03 0L33.03-7.71Q33.03-9.45 32.54-10.25Q32.05-11.05 30.93-11.05L30.93-11.05Q30.09-11.05 29.53-10.63Q28.96-10.21 28.68-9.37Q28.39-8.53 28.39-7.27L28.39-7.27L28.39-1.93Q28.39-1.30 28.56-0.92Q28.73-0.55 29.12-0.38Q29.51-0.21 30.12-0.21L30.12-0.21L30.18-0.21L30.18 0Z M50.12 0.21L50.12 0.21Q47.77 0.21 46.45-1.30Q45.14-2.81 45.14-5.54L45.14-5.54Q45.14-8.48 46.36-9.98Q47.58-11.47 49.80-11.47L49.80-11.47Q51.84-11.47 53.01-10.21Q54.17-8.95 54.17-6.45L54.17-6.45L54.17-5.94L47.18-5.94Q47.20-3.80 47.49-2.50Q47.79-1.20 48.45-0.60Q49.11 0 50.18 0L50.18 0Q50.98 0 51.60-0.29Q52.22-0.59 52.64-1.17Q53.06-1.74 53.21-2.58L53.21-2.58Q53.46-2.54 53.58-2.33Q53.71-2.12 53.71-1.89L53.71-1.89Q53.71-1.47 53.31-0.98Q52.91-0.48 52.12-0.14Q51.34 0.21 50.12 0.21ZM47.18-6.15L52.05-6.15Q52.05-8.00 51.82-9.11Q51.59-10.23 51.08-10.74Q50.58-11.26 49.76-11.26L49.76-11.26Q48.90-11.26 48.35-10.74Q47.81-10.23 47.54-9.11Q47.26-8.00 47.18-6.15L47.18-6.15Z M61.45 0.21L61.45 0.21Q59.18 0.21 57.88-1.24Q56.58-2.69 56.58-5.65L56.58-5.65Q56.58-8.59 57.83-10.03Q59.08-11.47 61.51-11.47L61.51-11.47Q63.78-11.47 65.08-10.03Q66.38-8.59 66.38-5.65L66.38-5.65Q66.38-2.69 65.13-1.24Q63.88 0.21 61.45 0.21ZM61.49 0L61.49 0Q62.52 0 63.15-0.57Q63.78-1.13 64.06-2.37Q64.35-3.61 64.35-5.65L64.35-5.65Q64.35-7.67 64.06-8.90Q63.78-10.14 63.15-10.70Q62.52-11.26 61.47-11.26L61.47-11.26Q60.44-11.26 59.81-10.70Q59.18-10.14 58.90-8.90Q58.61-7.67 58.61-5.65L58.61-5.65Q58.61-3.61 58.90-2.37Q59.18-1.13 59.82-0.57Q60.46 0 61.49 0Z M73.97 0L68.33 0L68.33-0.21L68.49-0.21Q69.14-0.21 69.52-0.39Q69.90-0.57 70.06-0.99Q70.22-1.41 70.22-2.14L70.22-2.14L70.22-9.16Q70.22-9.87 70.06-10.28Q69.90-10.69 69.54-10.87Q69.19-11.05 68.54-11.05L68.54-11.05L68.43-11.05L68.43-11.26L72.17-11.26L72.17-9.28L72.21-9.28Q72.50-10.27 73.03-10.73Q73.56-11.19 74.17-11.33Q74.79-11.47 75.32-11.47L75.32-11.47Q77.19-11.47 78.10-10.49Q79.02-9.51 79.02-7.35L79.02-7.35L79.02-2.14Q79.02-1.41 79.16-0.99Q79.31-0.57 79.66-0.39Q80.00-0.21 80.59-0.21L80.59-0.21L80.69-0.21L80.69 0L77.04 0L77.04-8.06Q77.04-9.43 76.54-10.29Q76.03-11.15 74.79-11.15L74.79-11.15Q73.81-11.15 73.24-10.63Q72.67-10.10 72.43-9.27Q72.19-8.44 72.19-7.54L72.19-7.54L72.19-2.14Q72.19-1.41 72.35-0.99Q72.50-0.57 72.87-0.39Q73.24-0.21 73.87-0.21L73.87-0.21L73.97-0.21L73.97 0Z M87.62 0.21L87.62 0.21Q85.26 0.21 83.95-1.30Q82.64-2.81 82.64-5.54L82.64-5.54Q82.64-8.48 83.86-9.98Q85.07-11.47 87.30-11.47L87.30-11.47Q89.34-11.47 90.50-10.21Q91.67-8.95 91.67-6.45L91.67-6.45L91.67-5.94L84.68-5.94Q84.70-3.80 84.99-2.50Q85.28-1.20 85.95-0.60Q86.61 0 87.68 0L87.68 0Q88.48 0 89.10-0.29Q89.72-0.59 90.14-1.17Q90.56-1.74 90.70-2.58L90.70-2.58Q90.95-2.54 91.08-2.33Q91.21-2.12 91.21-1.89L91.21-1.89Q91.21-1.47 90.81-0.98Q90.41-0.48 89.62-0.14Q88.83 0.21 87.62 0.21ZM84.68-6.15L89.55-6.15Q89.55-8.00 89.32-9.11Q89.09-10.23 88.58-10.74Q88.08-11.26 87.26-11.26L87.26-11.26Q86.40-11.26 85.85-10.74Q85.31-10.23 85.03-9.11Q84.76-8.00 84.68-6.15L84.68-6.15Z M93.55 3.23L93.55 3.02Q94.20 2.81 94.69 2.52Q95.19 2.23 95.47 1.83Q95.75 1.43 95.75 0.90L95.75 0.90Q95.75 0.46 95.57 0.22Q95.40-0.02 95.14-0.16Q94.89-0.29 94.63-0.42Q94.37-0.55 94.19-0.78Q94.01-1.01 94.01-1.43L94.01-1.43Q94.01-2.06 94.40-2.38Q94.79-2.71 95.38-2.71L95.38-2.71Q96.03-2.71 96.51-2.26Q96.99-1.81 96.99-0.76L96.99-0.76Q96.99 0.46 96.18 1.59Q95.38 2.71 93.55 3.23L93.55 3.23Z M110.20 0L104.09 0L104.09-0.21L104.36-0.21Q104.93-0.21 105.32-0.38Q105.71-0.55 105.90-0.88Q106.09-1.22 106.09-1.72L106.09-1.72L106.09-13.36Q106.09-13.84 105.90-14.15Q105.71-14.47 105.32-14.63Q104.93-14.78 104.36-14.78L104.36-14.78L104.09-14.78L104.09-14.99L110.20-14.99L110.20-14.78L109.93-14.78Q109.36-14.78 108.97-14.62Q108.59-14.45 108.40-14.11Q108.21-13.78 108.21-13.27L108.21-13.27L108.21-1.72Q108.21-1.22 108.40-0.88Q108.59-0.55 108.97-0.38Q109.36-0.21 109.93-0.21L109.93-0.21L110.20-0.21L110.20 0Z M120.62 0.21L120.62 0.21Q119.57 0.21 118.77-0.04Q117.97-0.29 117.52-0.79Q117.07-1.28 117.07-2.02L117.07-2.02Q117.07-2.58 117.30-2.90Q117.53-3.21 117.84-3.34Q118.14-3.47 118.39-3.47L118.39-3.47Q118.39-2.33 118.60-1.56Q118.81-0.80 119.32-0.40Q119.82 0 120.66 0L120.66 0Q121.77 0 122.42-0.58Q123.08-1.16 123.08-2.29L123.08-2.29Q123.08-3.02 122.82-3.45Q122.57-3.89 121.99-4.22Q121.42-4.56 120.39-5.00L120.39-5.00Q119.19-5.52 118.50-6.02Q117.81-6.51 117.51-7.10Q117.22-7.69 117.22-8.48L117.22-8.48Q117.22-9.91 118.22-10.68Q119.23-11.45 121.02-11.45L121.02-11.45Q122.03-11.45 122.75-11.18Q123.47-10.92 123.85-10.48Q124.23-10.04 124.23-9.51L124.23-9.51Q124.23-8.95 123.84-8.60Q123.45-8.25 122.72-8.25L122.72-8.25Q122.72-9.87 122.28-10.55Q121.84-11.24 120.91-11.24L120.91-11.24Q120.20-11.24 119.73-11.00Q119.25-10.77 119.01-10.33Q118.77-9.89 118.77-9.22L118.77-9.22Q118.77-8.48 119.06-8.04Q119.36-7.60 119.98-7.29Q120.60-6.97 121.52-6.57L121.52-6.57Q122.72-6.09 123.41-5.60Q124.11-5.10 124.39-4.50Q124.67-3.91 124.67-3.09L124.67-3.09Q124.67-1.45 123.58-0.62Q122.49 0.21 120.62 0.21Z M130.31 0.21L130.31 0.21Q128.72 0.21 127.78-0.62Q126.85-1.45 126.85-2.90L126.85-2.90Q126.85-4.52 128.03-5.31Q129.22-6.11 131.63-6.20L131.63-6.20L133.38-6.26L133.38-7.83Q133.38-9.01 133.25-9.77Q133.13-10.52 132.70-10.89Q132.28-11.26 131.42-11.26L131.42-11.26Q130.21-11.26 129.86-10.50Q129.51-9.74 129.51-8.13L129.51-8.13Q128.63-8.13 128.18-8.42Q127.73-8.71 127.73-9.39L127.73-9.39Q127.73-10.14 128.24-10.59Q128.76-11.05 129.62-11.26Q130.48-11.47 131.51-11.47L131.51-11.47Q133.44-11.47 134.40-10.65Q135.35-9.83 135.35-7.83L135.35-7.83L135.35-1.55Q135.35-1.05 135.48-0.76Q135.60-0.46 135.90-0.34Q136.19-0.21 136.65-0.21L136.65-0.21L136.72-0.21L136.72 0L133.54 0L133.54-2.21L133.50-2.21Q133.29-1.36 132.83-0.83Q132.37-0.29 131.73-0.04Q131.09 0.21 130.31 0.21ZM130.73-0.08L130.73-0.08Q131.51-0.08 132.11-0.48Q132.70-0.88 133.04-1.55Q133.38-2.23 133.38-3.00L133.38-3.00L133.38-6.03L132.03-5.96Q130.25-5.88 129.57-5.15Q128.88-4.41 128.88-2.67L128.88-2.67Q128.88-1.83 129.08-1.25Q129.28-0.67 129.70-0.38Q130.12-0.08 130.73-0.08Z M138.62 5.04L138.62 4.83Q140.11 4.83 141.01 4.61Q141.91 4.39 142.45 3.92Q142.98 3.44 143.35 2.70Q143.72 1.95 144.12 0.92L144.12 0.92L139.52-9.89Q139.33-10.35 139.15-10.59Q138.97-10.84 138.78-10.94Q138.60-11.05 138.32-11.05L138.32-11.05L137.90-11.05L137.90-11.26L142.94-11.26L142.94-11.05L142.88-11.05Q142.29-11.05 141.95-10.87Q141.60-10.69 141.60-10.23L141.60-10.23Q141.60-10.04 141.66-9.80Q141.72-9.55 141.85-9.26L141.85-9.26L143.66-4.87Q143.82-4.49 143.99-4.05Q144.16-3.61 144.33-3.15Q144.50-2.69 144.64-2.27Q144.79-1.85 144.92-1.49L144.92-1.49Q145.19-2.31 145.44-3.06Q145.69-3.80 145.86-4.33L145.86-4.33L147.39-9.13Q147.50-9.43 147.54-9.66Q147.58-9.89 147.58-10.08L147.58-10.08Q147.58-10.56 147.26-10.80Q146.93-11.05 146.20-11.05L146.20-11.05L145.32-11.05L145.32-11.26L149.68-11.26L149.68-11.05L149.52-11.05Q149.01-11.05 148.69-10.92Q148.36-10.79 148.15-10.44Q147.94-10.08 147.71-9.41L147.71-9.41L144.64 0.08Q144.16 1.60 143.70 2.56Q143.24 3.53 142.63 4.07Q142.02 4.62 141.11 4.83Q140.19 5.04 138.81 5.04L138.81 5.04L138.62 5.04Z M150.51 3.23L150.51 3.02Q151.16 2.81 151.66 2.52Q152.15 2.23 152.44 1.83Q152.72 1.43 152.72 0.90L152.72 0.90Q152.72 0.46 152.54 0.22Q152.36-0.02 152.11-0.16Q151.86-0.29 151.60-0.42Q151.33-0.55 151.15-0.78Q150.98-1.01 150.98-1.43L150.98-1.43Q150.98-2.06 151.36-2.38Q151.75-2.71 152.34-2.71L152.34-2.71Q152.99-2.71 153.47-2.26Q153.96-1.81 153.96-0.76L153.96-0.76Q153.96 0.46 153.15 1.59Q152.34 2.71 150.51 3.23L150.51 3.23Z M164.65 0L161.75-9.93Q161.64-10.35 161.47-10.59Q161.29-10.84 161.06-10.94Q160.83-11.05 160.51-11.05L160.51-11.05L160.28-11.05L160.28-11.26L165.47-11.26L165.47-11.05L165.00-11.05Q164.29-11.05 164.01-10.87Q163.72-10.69 163.72-10.27L163.72-10.27Q163.72-10.08 163.78-9.83Q163.83-9.58 163.91-9.26L163.91-9.26L165.34-4.05Q165.49-3.53 165.62-3.00Q165.76-2.48 165.91-1.96Q166.05-1.45 166.20-0.92L166.20-0.92L166.24-0.92Q166.39-1.47 166.52-2.00Q166.64-2.52 166.78-3.05Q166.92-3.57 167.06-4.12L167.06-4.12L168.91-11.19L170.25-11.19L172.63-4.01Q172.77-3.59 172.91-3.18Q173.05-2.77 173.18-2.37Q173.32-1.97 173.46-1.56Q173.59-1.16 173.72-0.74L173.72-0.74L173.76-0.74Q173.91-1.26 174.03-1.79Q174.16-2.31 174.30-2.83Q174.43-3.36 174.56-3.89L174.56-3.89L175.90-9.13Q175.99-9.47 176.04-9.73Q176.09-10.00 176.09-10.21L176.09-10.21Q176.09-10.69 175.76-10.87Q175.42-11.05 174.58-11.05L174.58-11.05L173.85-11.05L173.85-11.26L178.34-11.26L178.34-11.05L177.79-11.05Q177.39-11.05 177.09-10.90Q176.79-10.75 176.58-10.40Q176.37-10.04 176.20-9.41L176.20-9.41L173.78 0L172.12 0L168.83-9.98L166.22 0L164.65 0Z M185.01 0L179.04 0L179.04-0.21L179.32-0.21Q179.95-0.21 180.32-0.38Q180.70-0.55 180.87-0.90Q181.04-1.26 181.04-1.83L181.04-1.83L181.04-9.41Q181.04-10.00 180.87-10.35Q180.70-10.71 180.32-10.88Q179.95-11.05 179.32-11.05L179.32-11.05L179.25-11.05L179.25-11.26L183.01-11.26L183.01-1.93Q183.01-1.30 183.18-0.92Q183.35-0.55 183.74-0.38Q184.13-0.21 184.73-0.21L184.73-0.21L185.01-0.21L185.01 0ZM181.92-13.27L181.92-13.27Q181.52-13.27 181.26-13.53Q181.00-13.80 181.00-14.45L181.00-14.45Q181.00-15.12 181.26-15.37Q181.52-15.62 181.92-15.62L181.92-15.62Q182.30-15.62 182.57-15.37Q182.84-15.12 182.84-14.45L182.84-14.45Q182.84-13.80 182.57-13.53Q182.30-13.27 181.92-13.27Z M191.72 0L185.75 0L185.75-0.21L186.03-0.21Q186.66-0.21 187.03-0.38Q187.41-0.55 187.58-0.90Q187.75-1.26 187.75-1.83L187.75-1.83L187.75-14.11Q187.75-14.70 187.58-15.06Q187.41-15.41 187.03-15.58Q186.66-15.75 186.03-15.75L186.03-15.75L185.75-15.75L185.75-15.96L189.72-15.96L189.72-1.93Q189.72-1.30 189.89-0.92Q190.06-0.55 190.44-0.38Q190.81-0.21 191.44-0.21L191.44-0.21L191.72-0.21L191.72 0Z M198.43 0L192.46 0L192.46-0.21L192.74-0.21Q193.37-0.21 193.74-0.38Q194.12-0.55 194.29-0.90Q194.46-1.26 194.46-1.83L194.46-1.83L194.46-14.11Q194.46-14.70 194.29-15.06Q194.12-15.41 193.74-15.58Q193.37-15.75 192.74-15.75L192.74-15.75L192.46-15.75L192.46-15.96L196.43-15.96L196.43-1.93Q196.43-1.30 196.60-0.92Q196.77-0.55 197.15-0.38Q197.52-0.21 198.15-0.21L198.15-0.21L198.43-0.21L198.43 0Z M210.27 0L204.31 0L204.31-0.21L204.58-0.21Q205.21-0.21 205.59-0.38Q205.97-0.55 206.14-0.90Q206.30-1.26 206.30-1.83L206.30-1.83L206.30-9.41Q206.30-10.00 206.14-10.35Q205.97-10.71 205.59-10.88Q205.21-11.05 204.58-11.05L204.58-11.05L204.52-11.05L204.52-11.26L208.26-11.26L208.26-9.16L208.30-9.16Q208.45-9.70 208.74-10.23Q209.03-10.75 209.63-11.11Q210.23-11.47 211.24-11.47L211.24-11.47Q212.29-11.47 212.85-11.06Q213.40-10.65 213.40-9.91L213.40-9.91Q213.40-9.28 212.95-8.86Q212.50-8.44 211.45-8.44L211.45-8.44Q211.45-9.74 211.01-10.24Q210.57-10.73 210.02-10.73L210.02-10.73Q209.41-10.73 209.06-10.30Q208.70-9.87 208.53-9.19Q208.36-8.51 208.32-7.78Q208.28-7.06 208.28-6.45L208.28-6.45L208.28-1.93Q208.28-1.30 208.45-0.92Q208.61-0.55 209.00-0.38Q209.39-0.21 210-0.21L210-0.21L210.27-0.21L210.27 0Z M220.05 0.21L220.05 0.21Q217.70 0.21 216.38-1.30Q215.07-2.81 215.07-5.54L215.07-5.54Q215.07-8.48 216.29-9.98Q217.51-11.47 219.73-11.47L219.73-11.47Q221.77-11.47 222.94-10.21Q224.10-8.95 224.10-6.45L224.10-6.45L224.10-5.94L217.11-5.94Q217.13-3.80 217.42-2.50Q217.72-1.20 218.38-0.60Q219.04 0 220.11 0L220.11 0Q220.91 0 221.53-0.29Q222.15-0.59 222.57-1.17Q222.99-1.74 223.14-2.58L223.14-2.58Q223.39-2.54 223.51-2.33Q223.64-2.12 223.64-1.89L223.64-1.89Q223.64-1.47 223.24-0.98Q222.84-0.48 222.05-0.14Q221.27 0.21 220.05 0.21ZM217.11-6.15L221.98-6.15Q221.98-8.00 221.75-9.11Q221.52-10.23 221.02-10.74Q220.51-11.26 219.69-11.26L219.69-11.26Q218.83-11.26 218.28-10.74Q217.74-10.23 217.47-9.11Q217.19-8.00 217.11-6.15L217.11-6.15Z M231.59 0L225.94 0L225.94-0.21L226.11-0.21Q226.74-0.21 227.12-0.38Q227.49-0.55 227.66-0.90Q227.83-1.26 227.83-1.83L227.83-1.83L227.83-9.41Q227.83-10.00 227.66-10.35Q227.49-10.71 227.12-10.88Q226.74-11.05 226.11-11.05L226.11-11.05L226.05-11.05L226.05-11.26L229.78-11.26L229.78-9.26L229.83-9.26Q230.12-10.19 230.61-10.66Q231.11-11.13 231.72-11.30Q232.32-11.47 232.95-11.47L232.95-11.47Q234.07-11.47 234.96-10.93Q235.85-10.40 236.27-8.90L236.27-8.90L236.31-8.90Q236.59-10.04 237.08-10.58Q237.57-11.13 238.18-11.30Q238.79-11.47 239.38-11.47L239.38-11.47Q241.19-11.47 242.06-10.43Q242.93-9.39 242.93-7.29L242.93-7.29L242.93-1.93Q242.93-1.30 243.10-0.92Q243.27-0.55 243.65-0.38Q244.04-0.21 244.65-0.21L244.65-0.21L244.71-0.21L244.71 0L240.96 0L240.96-7.71Q240.96-9.45 240.47-10.25Q239.99-11.05 238.92-11.05L238.92-11.05Q238.12-11.05 237.55-10.64Q236.99-10.23 236.70-9.45Q236.42-8.67 236.42-7.56L236.42-7.56L236.42-1.93Q236.42-1.30 236.59-0.92Q236.75-0.55 237.14-0.38Q237.53-0.21 238.14-0.21L238.14-0.21L238.20-0.21L238.20 0L234.44 0L234.44-7.71Q234.44-9.45 233.95-10.25Q233.46-11.05 232.34-11.05L232.34-11.05Q231.50-11.05 230.94-10.63Q230.37-10.21 230.09-9.37Q229.80-8.53 229.80-7.27L229.80-7.27L229.80-1.93Q229.80-1.30 229.97-0.92Q230.14-0.55 230.53-0.38Q230.92-0.21 231.53-0.21L231.53-0.21L231.59-0.21L231.59 0Z M251.53 0.21L251.53 0.21Q249.18 0.21 247.86-1.30Q246.55-2.81 246.55-5.54L246.55-5.54Q246.55-8.48 247.77-9.98Q248.99-11.47 251.21-11.47L251.21-11.47Q253.25-11.47 254.42-10.21Q255.58-8.95 255.58-6.45L255.58-6.45L255.58-5.94L248.59-5.94Q248.61-3.80 248.90-2.50Q249.20-1.20 249.86-0.60Q250.52 0 251.59 0L251.59 0Q252.39 0 253.01-0.29Q253.63-0.59 254.05-1.17Q254.47-1.74 254.62-2.58L254.62-2.58Q254.87-2.54 254.99-2.33Q255.12-2.12 255.12-1.89L255.12-1.89Q255.12-1.47 254.72-0.98Q254.32-0.48 253.53-0.14Q252.75 0.21 251.53 0.21ZM248.59-6.15L253.46-6.15Q253.46-8.00 253.23-9.11Q253.00-10.23 252.50-10.74Q251.99-11.26 251.17-11.26L251.17-11.26Q250.31-11.26 249.76-10.74Q249.22-10.23 248.95-9.11Q248.67-8.00 248.59-6.15L248.59-6.15Z M263.07 0L257.42 0L257.42-0.21L257.59-0.21Q258.22-0.21 258.60-0.38Q258.97-0.55 259.14-0.90Q259.31-1.26 259.31-1.83L259.31-1.83L259.31-9.41Q259.31-10.00 259.14-10.35Q258.97-10.71 258.60-10.88Q258.22-11.05 257.59-11.05L257.59-11.05L257.52-11.05L257.52-11.26L261.26-11.26L261.26-9.26L261.31-9.26Q261.60-10.19 262.09-10.66Q262.59-11.13 263.19-11.30Q263.80-11.47 264.43-11.47L264.43-11.47Q265.55-11.47 266.44-10.93Q267.33-10.40 267.75-8.90L267.75-8.90L267.79-8.90Q268.07-10.04 268.56-10.58Q269.05-11.13 269.66-11.30Q270.27-11.47 270.86-11.47L270.86-11.47Q272.67-11.47 273.54-10.43Q274.41-9.39 274.41-7.29L274.41-7.29L274.41-1.93Q274.41-1.30 274.58-0.92Q274.75-0.55 275.13-0.38Q275.52-0.21 276.13-0.21L276.13-0.21L276.19-0.21L276.19 0L272.44 0L272.44-7.71Q272.44-9.45 271.95-10.25Q271.47-11.05 270.40-11.05L270.40-11.05Q269.60-11.05 269.03-10.64Q268.47-10.23 268.18-9.45Q267.90-8.67 267.90-7.56L267.90-7.56L267.90-1.93Q267.90-1.30 268.07-0.92Q268.24-0.55 268.62-0.38Q269.01-0.21 269.62-0.21L269.62-0.21L269.68-0.21L269.68 0L265.93 0L265.93-7.71Q265.93-9.45 265.43-10.25Q264.94-11.05 263.82-11.05L263.82-11.05Q262.99-11.05 262.42-10.63Q261.85-10.21 261.57-9.37Q261.28-8.53 261.28-7.27L261.28-7.27L261.28-1.93Q261.28-1.30 261.45-0.92Q261.62-0.55 262.01-0.38Q262.40-0.21 263.01-0.21L263.01-0.21L263.07-0.21L263.07 0Z M284.39 0.21L284.39 0.21Q283.03 0.21 282.23-0.57Q281.43-1.34 281.14-2.96L281.14-2.96L281.10-2.96L281.10 0L277.25 0L277.25-0.21L277.42-0.21Q278.05-0.21 278.43-0.38Q278.81-0.55 278.98-0.90Q279.14-1.26 279.14-1.83L279.14-1.83L279.14-14.11Q279.14-14.70 278.98-15.06Q278.81-15.41 278.43-15.58Q278.05-15.75 277.42-15.75L277.42-15.75L277.36-15.75L277.36-15.96L281.12-15.96L281.12-12.10Q281.12-11.55 281.12-10.51Q281.12-9.47 281.08-8.34L281.08-8.34L281.12-8.34Q281.41-9.93 282.22-10.70Q283.03-11.47 284.44-11.47L284.44-11.47Q286.50-11.47 287.56-10.00Q288.62-8.53 288.62-5.65L288.62-5.65Q288.62-3.74 288.13-2.43Q287.65-1.11 286.72-0.45Q285.78 0.21 284.39 0.21ZM284.04-0.11L284.04-0.11Q284.96-0.11 285.52-0.66Q286.07-1.22 286.33-2.45Q286.58-3.68 286.58-5.67L286.58-5.67Q286.58-7.64 286.33-8.85Q286.07-10.06 285.51-10.61Q284.94-11.15 284.02-11.15L284.02-11.15Q282.48-11.15 281.80-9.77Q281.12-8.38 281.12-5.65L281.12-5.65Q281.12-2.83 281.84-1.47Q282.57-0.11 284.04-0.11Z M296.10 0.21L296.10 0.21Q293.75 0.21 292.44-1.30Q291.13-2.81 291.13-5.54L291.13-5.54Q291.13-8.48 292.34-9.98Q293.56-11.47 295.79-11.47L295.79-11.47Q297.82-11.47 298.99-10.21Q300.16-8.95 300.16-6.45L300.16-6.45L300.16-5.94L293.16-5.94Q293.18-3.80 293.48-2.50Q293.77-1.20 294.43-0.60Q295.10 0 296.17 0L296.17 0Q296.96 0 297.58-0.29Q298.20-0.59 298.62-1.17Q299.04-1.74 299.19-2.58L299.19-2.58Q299.44-2.54 299.57-2.33Q299.69-2.12 299.69-1.89L299.69-1.89Q299.69-1.47 299.30-0.98Q298.90-0.48 298.11-0.14Q297.32 0.21 296.10 0.21ZM293.16-6.15L298.04-6.15Q298.04-8.00 297.80-9.11Q297.57-10.23 297.07-10.74Q296.56-11.26 295.75-11.26L295.75-11.26Q294.88-11.26 294.34-10.74Q293.79-10.23 293.52-9.11Q293.25-8.00 293.16-6.15L293.16-6.15Z M307.85 0L301.89 0L301.89-0.21L302.16-0.21Q302.79-0.21 303.17-0.38Q303.55-0.55 303.72-0.90Q303.88-1.26 303.88-1.83L303.88-1.83L303.88-9.41Q303.88-10.00 303.72-10.35Q303.55-10.71 303.17-10.88Q302.79-11.05 302.16-11.05L302.16-11.05L302.10-11.05L302.10-11.26L305.84-11.26L305.84-9.16L305.88-9.16Q306.03-9.70 306.32-10.23Q306.61-10.75 307.21-11.11Q307.81-11.47 308.82-11.47L308.82-11.47Q309.87-11.47 310.43-11.06Q310.98-10.65 310.98-9.91L310.98-9.91Q310.98-9.28 310.53-8.86Q310.08-8.44 309.03-8.44L309.03-8.44Q309.03-9.74 308.59-10.24Q308.15-10.73 307.60-10.73L307.60-10.73Q306.99-10.73 306.63-10.30Q306.28-9.87 306.11-9.19Q305.94-8.51 305.90-7.78Q305.86-7.06 305.86-6.45L305.86-6.45L305.86-1.93Q305.86-1.30 306.03-0.92Q306.19-0.55 306.58-0.38Q306.97-0.21 307.58-0.21L307.58-0.21L307.85-0.21L307.85 0Z M322.37 0.21L322.37 0.21Q320.52 0.21 319.60-0.77Q318.69-1.74 318.69-3.91L318.69-3.91L318.69-9.16Q318.69-9.87 318.53-10.28Q318.38-10.69 318.00-10.87Q317.62-11.05 316.97-11.05L316.97-11.05L316.91-11.05L316.91-11.26L320.66-11.26L320.66-3.80Q320.66-2.46 320.85-1.65Q321.04-0.84 321.49-0.46Q321.95-0.08 322.70-0.08L322.70-0.08Q323.65-0.08 324.27-0.58Q324.89-1.07 325.20-2.03Q325.52-2.98 325.52-4.33L325.52-4.33L325.52-9.16Q325.52-9.87 325.36-10.28Q325.20-10.69 324.82-10.87Q324.44-11.05 323.79-11.05L323.79-11.05L323.73-11.05L323.73-11.26L327.49-11.26L327.49-2.08Q327.49-1.36 327.65-0.96Q327.80-0.55 328.18-0.38Q328.56-0.21 329.21-0.21L329.21-0.21L329.27-0.21L329.27 0L325.66 0L325.66-2.88L325.62-2.88Q325.45-1.81 325.08-1.19Q324.72-0.57 324.24-0.27Q323.77 0.02 323.28 0.12Q322.79 0.21 322.37 0.21Z M334.45 0.21L334.45 0.21Q333.40 0.21 332.60-0.04Q331.81-0.29 331.35-0.79Q330.90-1.28 330.90-2.02L330.90-2.02Q330.90-2.58 331.13-2.90Q331.36-3.21 331.67-3.34Q331.97-3.47 332.23-3.47L332.23-3.47Q332.23-2.33 332.44-1.56Q332.65-0.80 333.15-0.40Q333.65 0 334.49 0L334.49 0Q335.61 0 336.26-0.58Q336.91-1.16 336.91-2.29L336.91-2.29Q336.91-3.02 336.66-3.45Q336.40-3.89 335.83-4.22Q335.25-4.56 334.22-5.00L334.22-5.00Q333.02-5.52 332.33-6.02Q331.64-6.51 331.34-7.10Q331.05-7.69 331.05-8.48L331.05-8.48Q331.05-9.91 332.06-10.68Q333.07-11.45 334.85-11.45L334.85-11.45Q335.86-11.45 336.58-11.18Q337.31-10.92 337.69-10.48Q338.06-10.04 338.06-9.51L338.06-9.51Q338.06-8.95 337.67-8.60Q337.29-8.25 336.55-8.25L336.55-8.25Q336.55-9.87 336.11-10.55Q335.67-11.24 334.75-11.24L334.75-11.24Q334.03-11.24 333.56-11.00Q333.09-10.77 332.84-10.33Q332.60-9.89 332.60-9.22L332.60-9.22Q332.60-8.48 332.90-8.04Q333.19-7.60 333.81-7.29Q334.43-6.97 335.35-6.57L335.35-6.57Q336.55-6.09 337.24-5.60Q337.94-5.10 338.22-4.50Q338.50-3.91 338.50-3.09L338.50-3.09Q338.50-1.45 337.41-0.62Q336.32 0.21 334.45 0.21Z M351.00 0L345.04 0L345.04-0.21L345.31-0.21Q345.94-0.21 346.32-0.38Q346.70-0.55 346.86-0.90Q347.03-1.26 347.03-1.83L347.03-1.83L347.03-9.41Q347.03-10.00 346.86-10.35Q346.70-10.71 346.32-10.88Q345.94-11.05 345.31-11.05L345.31-11.05L345.25-11.05L345.25-11.26L349.01-11.26L349.01-1.93Q349.01-1.30 349.17-0.92Q349.34-0.55 349.73-0.38Q350.12-0.21 350.73-0.21L350.73-0.21L351.00-0.21L351.00 0ZM347.91-13.27L347.91-13.27Q347.51-13.27 347.25-13.53Q346.99-13.80 346.99-14.45L346.99-14.45Q346.99-15.12 347.25-15.37Q347.51-15.62 347.91-15.62L347.91-15.62Q348.29-15.62 348.56-15.37Q348.84-15.12 348.84-14.45L348.84-14.45Q348.84-13.80 348.56-13.53Q348.29-13.27 347.91-13.27Z M357.71 0L352.06 0L352.06-0.21L352.23-0.21Q352.88-0.21 353.26-0.39Q353.64-0.57 353.79-0.99Q353.95-1.41 353.95-2.14L353.95-2.14L353.95-9.16Q353.95-9.87 353.79-10.28Q353.64-10.69 353.28-10.87Q352.92-11.05 352.27-11.05L352.27-11.05L352.17-11.05L352.17-11.26L355.90-11.26L355.90-9.28L355.95-9.28Q356.24-10.27 356.77-10.73Q357.29-11.19 357.91-11.33Q358.53-11.47 359.05-11.47L359.05-11.47Q360.92-11.47 361.84-10.49Q362.75-9.51 362.75-7.35L362.75-7.35L362.75-2.14Q362.75-1.41 362.90-0.99Q363.04-0.57 363.39-0.39Q363.74-0.21 364.33-0.21L364.33-0.21L364.43-0.21L364.43 0L360.78 0L360.78-8.06Q360.78-9.43 360.27-10.29Q359.77-11.15 358.53-11.15L358.53-11.15Q357.54-11.15 356.98-10.63Q356.41-10.10 356.17-9.27Q355.93-8.44 355.93-7.54L355.93-7.54L355.93-2.14Q355.93-1.41 356.08-0.99Q356.24-0.57 356.61-0.39Q356.98-0.21 357.61-0.21L357.61-0.21L357.71-0.21L357.71 0Z M375.18 0.21L375.18 0.21Q373.59 0.21 372.86-0.51Q372.14-1.24 372.14-3.05L372.14-3.05L372.14-11.05L370.54-11.05L370.54-11.26Q371.30-11.26 371.85-11.39Q372.41-11.53 372.81-11.82L372.81-11.82Q373.23-12.12 373.49-12.62Q373.76-13.13 373.90-13.84L373.90-13.84L374.11-13.84L374.11-11.26L377.05-11.26L377.05-11.05L374.11-11.05L374.11-2.27Q374.11-1.18 374.53-0.63Q374.95-0.08 375.77-0.08L375.77-0.08Q376.07-0.08 376.38-0.15Q376.70-0.21 377.05-0.34L377.05-0.34L377.05-0.13Q376.78 0 376.23 0.11Q375.69 0.21 375.18 0.21Z M384.18 0L378.22 0L378.22-0.21L378.49-0.21Q379.12-0.21 379.50-0.38Q379.88-0.55 380.05-0.90Q380.21-1.26 380.21-1.83L380.21-1.83L380.21-9.41Q380.21-10.00 380.05-10.35Q379.88-10.71 379.50-10.88Q379.12-11.05 378.49-11.05L378.49-11.05L378.43-11.05L378.43-11.26L382.19-11.26L382.19-1.93Q382.19-1.30 382.36-0.92Q382.52-0.55 382.91-0.38Q383.30-0.21 383.91-0.21L383.91-0.21L384.18-0.21L384.18 0ZM381.10-13.27L381.10-13.27Q380.70-13.27 380.43-13.53Q380.17-13.80 380.17-14.45L380.17-14.45Q380.17-15.12 380.43-15.37Q380.70-15.62 381.10-15.62L381.10-15.62Q381.47-15.62 381.75-15.37Q382.02-15.12 382.02-14.45L382.02-14.45Q382.02-13.80 381.75-13.53Q381.47-13.27 381.10-13.27Z M390.89 0L385.24 0L385.24-0.21L385.41-0.21Q386.04-0.21 386.42-0.38Q386.80-0.55 386.97-0.90Q387.13-1.26 387.13-1.83L387.13-1.83L387.13-9.41Q387.13-10.00 386.97-10.35Q386.80-10.71 386.42-10.88Q386.04-11.05 385.41-11.05L385.41-11.05L385.35-11.05L385.35-11.26L389.09-11.26L389.09-9.26L389.13-9.26Q389.42-10.19 389.92-10.66Q390.41-11.13 391.02-11.30Q391.63-11.47 392.26-11.47L392.26-11.47Q393.37-11.47 394.26-10.93Q395.16-10.40 395.58-8.90L395.58-8.90L395.62-8.90Q395.89-10.04 396.38-10.58Q396.88-11.13 397.49-11.30Q398.10-11.47 398.68-11.47L398.68-11.47Q400.49-11.47 401.36-10.43Q402.23-9.39 402.23-7.29L402.23-7.29L402.23-1.93Q402.23-1.30 402.40-0.92Q402.57-0.55 402.96-0.38Q403.35-0.21 403.95-0.21L403.95-0.21L404.02-0.21L404.02 0L400.26 0L400.26-7.71Q400.26-9.45 399.78-10.25Q399.29-11.05 398.22-11.05L398.22-11.05Q397.42-11.05 396.86-10.64Q396.29-10.23 396.01-9.45Q395.72-8.67 395.72-7.56L395.72-7.56L395.72-1.93Q395.72-1.30 395.89-0.92Q396.06-0.55 396.45-0.38Q396.84-0.21 397.44-0.21L397.44-0.21L397.51-0.21L397.51 0L393.75 0L393.75-7.71Q393.75-9.45 393.25-10.25Q392.76-11.05 391.65-11.05L391.65-11.05Q390.81-11.05 390.24-10.63Q389.67-10.21 389.39-9.37Q389.11-8.53 389.11-7.27L389.11-7.27L389.11-1.93Q389.11-1.30 389.28-0.92Q389.44-0.55 389.83-0.38Q390.22-0.21 390.83-0.21L390.83-0.21L390.89-0.21L390.89 0Z M410.83 0.21L410.83 0.21Q408.48 0.21 407.17-1.30Q405.86-2.81 405.86-5.54L405.86-5.54Q405.86-8.48 407.07-9.98Q408.29-11.47 410.52-11.47L410.52-11.47Q412.55-11.47 413.72-10.21Q414.89-8.95 414.89-6.45L414.89-6.45L414.89-5.94L407.89-5.94Q407.91-3.80 408.21-2.50Q408.50-1.20 409.16-0.60Q409.82 0 410.90 0L410.90 0Q411.69 0 412.31-0.29Q412.93-0.59 413.35-1.17Q413.77-1.74 413.92-2.58L413.92-2.58Q414.17-2.54 414.30-2.33Q414.42-2.12 414.42-1.89L414.42-1.89Q414.42-1.47 414.02-0.98Q413.63-0.48 412.84-0.14Q412.05 0.21 410.83 0.21ZM407.89-6.15L412.76-6.15Q412.76-8.00 412.53-9.11Q412.30-10.23 411.80-10.74Q411.29-11.26 410.48-11.26L410.48-11.26Q409.61-11.26 409.07-10.74Q408.52-10.23 408.25-9.11Q407.98-8.00 407.89-6.15L407.89-6.15Z M426.10 0.21L426.10 0.21Q424.50 0.21 423.78-0.51Q423.06-1.24 423.06-3.05L423.06-3.05L423.06-11.05L421.46-11.05L421.46-11.26Q422.22-11.26 422.77-11.39Q423.33-11.53 423.73-11.82L423.73-11.82Q424.15-12.12 424.41-12.62Q424.67-13.13 424.82-13.84L424.82-13.84L425.03-13.84L425.03-11.26L427.97-11.26L427.97-11.05L425.03-11.05L425.03-2.27Q425.03-1.18 425.45-0.63Q425.87-0.08 426.69-0.08L426.69-0.08Q426.98-0.08 427.30-0.15Q427.61-0.21 427.97-0.34L427.97-0.34L427.97-0.13Q427.70 0 427.15 0.11Q426.60 0.21 426.10 0.21Z M434.68 0.21L434.68 0.21Q432.41 0.21 431.11-1.24Q429.81-2.69 429.81-5.65L429.81-5.65Q429.81-8.59 431.06-10.03Q432.31-11.47 434.74-11.47L434.74-11.47Q437.01-11.47 438.31-10.03Q439.61-8.59 439.61-5.65L439.61-5.65Q439.61-2.69 438.36-1.24Q437.12 0.21 434.68 0.21ZM434.72 0L434.72 0Q435.75 0 436.38-0.57Q437.01-1.13 437.29-2.37Q437.58-3.61 437.58-5.65L437.58-5.65Q437.58-7.67 437.29-8.90Q437.01-10.14 436.38-10.70Q435.75-11.26 434.70-11.26L434.70-11.26Q433.67-11.26 433.04-10.70Q432.41-10.14 432.13-8.90Q431.84-7.67 431.84-5.65L431.84-5.65Q431.84-3.61 432.13-2.37Q432.41-1.13 433.05-0.57Q433.69 0 434.72 0Z M451.88 0.21L451.88 0.21Q450.45 0.21 449.36-0.37Q448.27-0.95 447.66-2.25Q447.05-3.55 447.05-5.67L447.05-5.67Q447.05-7.83 447.67-9.10Q448.29-10.37 449.34-10.92Q450.39-11.47 451.71-11.47L451.71-11.47Q452.59-11.47 453.44-11.24Q454.29-11.00 454.84-10.53Q455.39-10.06 455.39-9.28L455.39-9.28Q455.39-8.82 455.17-8.54Q454.95-8.25 454.54-8.13Q454.13-8.00 453.52-8.00L453.52-8.00Q453.52-9.11 453.36-9.84Q453.20-10.56 452.80-10.91Q452.40-11.26 451.67-11.26L451.67-11.26Q450.91-11.26 450.33-10.78Q449.74-10.31 449.41-9.10Q449.09-7.90 449.09-5.65L449.09-5.65Q449.09-3.59 449.40-2.34Q449.72-1.09 450.41-0.55Q451.10 0 452.19 0L452.19 0Q452.89 0 453.44-0.23Q454.00-0.46 454.41-1.04Q454.82-1.62 455.05-2.63L455.05-2.63Q455.26-2.58 455.38-2.42Q455.49-2.25 455.49-1.95L455.49-1.95Q455.49-1.45 455.09-0.96Q454.69-0.46 453.90-0.13Q453.10 0.21 451.88 0.21Z M462.45 0.21L462.45 0.21Q460.19 0.21 458.88-1.24Q457.58-2.69 457.58-5.65L457.58-5.65Q457.58-8.59 458.83-10.03Q460.08-11.47 462.52-11.47L462.52-11.47Q464.78-11.47 466.09-10.03Q467.39-8.59 467.39-5.65L467.39-5.65Q467.39-2.69 466.14-1.24Q464.89 0.21 462.45 0.21ZM462.50 0L462.50 0Q463.52 0 464.15-0.57Q464.78-1.13 465.07-2.37Q465.35-3.61 465.35-5.65L465.35-5.65Q465.35-7.67 465.07-8.90Q464.78-10.14 464.15-10.70Q463.52-11.26 462.47-11.26L462.47-11.26Q461.45-11.26 460.82-10.70Q460.19-10.14 459.90-8.90Q459.62-7.67 459.62-5.65L459.62-5.65Q459.62-3.61 459.90-2.37Q460.19-1.13 460.83-0.57Q461.47 0 462.50 0Z M474.98 0L469.33 0L469.33-0.21L469.50-0.21Q470.13-0.21 470.51-0.38Q470.89-0.55 471.05-0.90Q471.22-1.26 471.22-1.83L471.22-1.83L471.22-9.41Q471.22-10.00 471.05-10.35Q470.89-10.71 470.51-10.88Q470.13-11.05 469.50-11.05L469.50-11.05L469.44-11.05L469.44-11.26L473.17-11.26L473.17-9.26L473.22-9.26Q473.51-10.19 474.00-10.66Q474.50-11.13 475.11-11.30Q475.72-11.47 476.35-11.47L476.35-11.47Q477.46-11.47 478.35-10.93Q479.24-10.40 479.66-8.90L479.66-8.90L479.71-8.90Q479.98-10.04 480.47-10.58Q480.97-11.13 481.57-11.30Q482.18-11.47 482.77-11.47L482.77-11.47Q484.58-11.47 485.45-10.43Q486.32-9.39 486.32-7.29L486.32-7.29L486.32-1.93Q486.32-1.30 486.49-0.92Q486.66-0.55 487.04-0.38Q487.43-0.21 488.04-0.21L488.04-0.21L488.11-0.21L488.11 0L484.35 0L484.35-7.71Q484.35-9.45 483.86-10.25Q483.38-11.05 482.31-11.05L482.31-11.05Q481.51-11.05 480.94-10.64Q480.38-10.23 480.09-9.45Q479.81-8.67 479.81-7.56L479.81-7.56L479.81-1.93Q479.81-1.30 479.98-0.92Q480.15-0.55 480.53-0.38Q480.92-0.21 481.53-0.21L481.53-0.21L481.60-0.21L481.60 0L477.84 0L477.84-7.71Q477.84-9.45 477.34-10.25Q476.85-11.05 475.74-11.05L475.74-11.05Q474.90-11.05 474.33-10.63Q473.76-10.21 473.48-9.37Q473.20-8.53 473.20-7.27L473.20-7.27L473.20-1.93Q473.20-1.30 473.36-0.92Q473.53-0.55 473.92-0.38Q474.31-0.21 474.92-0.21L474.92-0.21L474.98-0.21L474.98 0Z M494.92 0.21L494.92 0.21Q492.57 0.21 491.26-1.30Q489.94-2.81 489.94-5.54L489.94-5.54Q489.94-8.48 491.16-9.98Q492.38-11.47 494.61-11.47L494.61-11.47Q496.64-11.47 497.81-10.21Q498.97-8.95 498.97-6.45L498.97-6.45L498.97-5.94L491.98-5.94Q492.00-3.80 492.30-2.50Q492.59-1.20 493.25-0.60Q493.91 0 494.98 0L494.98 0Q495.78 0 496.40-0.29Q497.02-0.59 497.44-1.17Q497.86-1.74 498.01-2.58L498.01-2.58Q498.26-2.54 498.39-2.33Q498.51-2.12 498.51-1.89L498.51-1.89Q498.51-1.47 498.11-0.98Q497.71-0.48 496.93-0.14Q496.14 0.21 494.92 0.21ZM491.98-6.15L496.85-6.15Q496.85-8.00 496.62-9.11Q496.39-10.23 495.89-10.74Q495.38-11.26 494.56-11.26L494.56-11.26Q493.70-11.26 493.16-10.74Q492.61-10.23 492.34-9.11Q492.06-8.00 491.98-6.15L491.98-6.15Z M502.85 0.15L502.85 0.15Q502.28 0.15 502.00-0.21Q501.71-0.57 501.71-1.28L501.71-1.28Q501.71-2.00 502.00-2.35Q502.28-2.71 502.85-2.71L502.85-2.71Q503.42-2.71 503.70-2.35Q503.98-2.00 503.98-1.28L503.98-1.28Q503.98-0.57 503.70-0.21Q503.42 0.15 502.85 0.15Z"/></g>
    </g>
  </g>

  <g fill="#5E4722" stroke="#5E4722" stroke-width="0.2" opacity="1"><animate attributeName="opacity" from="0" to="1" dur="1.2s" begin="0s" fill="freeze"/><path transform="translate(660.19 266)" d="M3.61 0.14L3.61 0.14Q2.93 0.14 2.38-0.01Q1.83-0.15 1.45-0.41Q1.06-0.67 0.87-1.02Q0.67-1.37 0.67-1.79L0.67-1.79Q0.67-2.11 0.79-2.33Q0.91-2.55 1.13-2.66Q1.36-2.77 1.68-2.77L1.68-2.77Q1.69-1.86 1.91-1.24Q2.13-0.62 2.58-0.31Q3.02 0 3.71 0L3.71 0Q4.61 0 5.16-0.53Q5.71-1.05 5.71-2.07L5.71-2.07Q5.71-2.70 5.48-3.09Q5.25-3.49 4.74-3.80Q4.23-4.12 3.40-4.49L3.40-4.49Q2.97-4.70 2.51-4.95Q2.06-5.19 1.67-5.54Q1.29-5.88 1.06-6.38Q0.83-6.87 0.83-7.56L0.83-7.56Q0.83-8.40 1.19-8.97Q1.55-9.55 2.22-9.84Q2.88-10.14 3.78-10.14L3.78-10.14Q4.61-10.14 5.21-9.91Q5.82-9.69 6.17-9.32Q6.51-8.96 6.51-8.53L6.51-8.53Q6.51-8.12 6.20-7.89Q5.89-7.66 5.40-7.66L5.40-7.66Q5.40-8.82 5.03-9.41Q4.65-10.00 3.77-10.00L3.77-10.00Q3.23-10.00 2.83-9.78Q2.42-9.56 2.21-9.13Q1.99-8.71 1.99-8.06L1.99-8.06Q1.99-7.38 2.24-6.96Q2.49-6.54 3.00-6.24Q3.51-5.94 4.28-5.57L4.28-5.57Q4.98-5.25 5.58-4.90Q6.17-4.55 6.54-4.02Q6.90-3.49 6.90-2.62L6.90-2.62Q6.90-1.76 6.52-1.15Q6.13-0.53 5.40-0.20Q4.66 0.14 3.61 0.14Z M11.83 0.14L11.83 0.14Q10.76 0.14 10.14-0.41Q9.52-0.97 9.52-1.93L9.52-1.93Q9.52-3.01 10.31-3.54Q11.10-4.07 12.71-4.13L12.71-4.13L13.87-4.17L13.87-5.22Q13.87-6.01 13.79-6.51Q13.70-7.01 13.42-7.26Q13.14-7.50 12.57-7.50L12.57-7.50Q11.76-7.50 11.53-7Q11.29-6.50 11.29-5.42L11.29-5.42Q10.71-5.42 10.41-5.61Q10.10-5.81 10.10-6.26L10.10-6.26Q10.10-6.76 10.45-7.06Q10.79-7.36 11.36-7.50Q11.94-7.64 12.62-7.64L12.62-7.64Q13.91-7.64 14.55-7.10Q15.19-6.55 15.19-5.22L15.19-5.22L15.19-1.04Q15.19-0.70 15.27-0.50Q15.35-0.31 15.55-0.22Q15.75-0.14 16.05-0.14L16.05-0.14L16.10-0.14L16.10 0L13.98 0L13.98-1.47L13.95-1.47Q13.81-0.91 13.51-0.55Q13.20-0.20 12.77-0.03Q12.34 0.14 11.83 0.14ZM12.11-0.06L12.11-0.06Q12.62-0.06 13.02-0.32Q13.42-0.59 13.65-1.04Q13.87-1.48 13.87-2.00L13.87-2.00L13.87-4.02L12.97-3.98Q11.78-3.92 11.33-3.43Q10.87-2.94 10.87-1.78L10.87-1.78Q10.87-1.22 11.01-0.83Q11.14-0.45 11.42-0.25Q11.70-0.06 12.11-0.06Z M21.92 3.36L18.15 3.36L18.15 3.22L18.26 3.22Q18.68 3.22 18.93 3.11Q19.19 3.00 19.30 2.76Q19.41 2.52 19.41 2.14L19.41 2.14L19.41-6.27Q19.41-6.66 19.30-6.90Q19.19-7.14 18.93-7.25Q18.68-7.36 18.26-7.36L18.26-7.36L18.08-7.36L18.08-7.50L20.70-7.50L20.70-5.56L20.73-5.56Q20.92-6.62 21.46-7.13Q22.00-7.64 22.94-7.64L22.94-7.64Q24.31-7.64 25.02-6.66Q25.72-5.68 25.72-3.77L25.72-3.77Q25.72-1.85 25.00-0.85Q24.28 0.14 22.91 0.14L22.91 0.14Q22.00 0.14 21.47-0.38Q20.94-0.90 20.74-1.97L20.74-1.97L20.71-1.97Q20.73-1.62 20.73-1.27Q20.73-0.92 20.73-0.57L20.73-0.57L20.73 2.07Q20.73 2.48 20.84 2.74Q20.95 3.00 21.20 3.11Q21.45 3.22 21.87 3.22L21.87 3.22L21.92 3.22L21.92 3.36ZM22.67-0.07L22.67-0.07Q23.29-0.07 23.66-0.44Q24.03-0.81 24.20-1.63Q24.37-2.45 24.37-3.78L24.37-3.78Q24.37-5.10 24.20-5.90Q24.03-6.71 23.65-7.07Q23.27-7.43 22.66-7.43L22.66-7.43Q21.99-7.43 21.56-7.02Q21.13-6.61 20.93-5.80Q20.73-4.98 20.73-3.77L20.73-3.77Q20.73-2.52 20.94-1.69Q21.15-0.87 21.58-0.47Q22.01-0.07 22.67-0.07Z M31.71 3.36L27.95 3.36L27.95 3.22L28.06 3.22Q28.48 3.22 28.73 3.11Q28.98 3.00 29.09 2.76Q29.21 2.52 29.21 2.14L29.21 2.14L29.21-6.27Q29.21-6.66 29.09-6.90Q28.98-7.14 28.73-7.25Q28.48-7.36 28.06-7.36L28.06-7.36L27.88-7.36L27.88-7.50L30.49-7.50L30.49-5.56L30.52-5.56Q30.72-6.62 31.26-7.13Q31.80-7.64 32.73-7.64L32.73-7.64Q34.11-7.64 34.81-6.66Q35.52-5.68 35.52-3.77L35.52-3.77Q35.52-1.85 34.80-0.85Q34.08 0.14 32.71 0.14L32.71 0.14Q31.80 0.14 31.26-0.38Q30.73-0.90 30.54-1.97L30.54-1.97L30.51-1.97Q30.52-1.62 30.52-1.27Q30.52-0.92 30.52-0.57L30.52-0.57L30.52 2.07Q30.52 2.48 30.63 2.74Q30.75 3.00 31.00 3.11Q31.25 3.22 31.67 3.22L31.67 3.22L31.71 3.22L31.71 3.36ZM32.47-0.07L32.47-0.07Q33.08-0.07 33.46-0.44Q33.83-0.81 33.99-1.63Q34.16-2.45 34.16-3.78L34.16-3.78Q34.16-5.10 33.99-5.90Q33.83-6.71 33.45-7.07Q33.07-7.43 32.45-7.43L32.45-7.43Q31.78-7.43 31.36-7.02Q30.93-6.61 30.73-5.80Q30.52-4.98 30.52-3.77L30.52-3.77Q30.52-2.52 30.73-1.69Q30.94-0.87 31.38-0.47Q31.81-0.07 32.47-0.07Z M41.51 0L37.74 0L37.74-0.14L37.85-0.14Q38.29-0.14 38.54-0.26Q38.79-0.38 38.90-0.66Q39.00-0.94 39.00-1.43L39.00-1.43L39.00-9.24Q39.00-9.72 38.90-9.99Q38.79-10.26 38.55-10.38Q38.32-10.50 37.88-10.50L37.88-10.50L37.81-10.50L37.81-10.64L40.32-10.64L40.32-7.81Q40.32-7.55 40.32-7.27Q40.32-7 40.32-6.73Q40.32-6.47 40.30-6.19L40.30-6.19L40.33-6.19Q40.53-6.85 40.88-7.15Q41.23-7.46 41.64-7.55Q42.05-7.64 42.40-7.64L42.40-7.64Q43.65-7.64 44.26-6.99Q44.87-6.34 44.87-4.90L44.87-4.90L44.87-1.43Q44.87-0.94 44.97-0.66Q45.06-0.38 45.30-0.26Q45.53-0.14 45.92-0.14L45.92-0.14L45.99-0.14L45.99 0L43.55 0L43.55-5.38Q43.55-6.29 43.22-6.86Q42.88-7.43 42.05-7.43L42.05-7.43Q41.40-7.43 41.02-7.08Q40.64-6.73 40.48-6.18Q40.32-5.63 40.32-5.03L40.32-5.03L40.32-1.43Q40.32-0.94 40.42-0.66Q40.53-0.38 40.77-0.26Q41.02-0.14 41.44-0.14L41.44-0.14L41.51-0.14L41.51 0Z M51.60 0.14L51.60 0.14Q50.09 0.14 49.22-0.83Q48.35-1.79 48.35-3.77L48.35-3.77Q48.35-5.73 49.18-6.69Q50.02-7.64 51.64-7.64L51.64-7.64Q53.15-7.64 54.02-6.69Q54.89-5.73 54.89-3.77L54.89-3.77Q54.89-1.79 54.05-0.83Q53.22 0.14 51.60 0.14ZM51.63 0L51.63 0Q52.31 0 52.73-0.38Q53.15-0.76 53.34-1.58Q53.53-2.41 53.53-3.77L53.53-3.77Q53.53-5.11 53.34-5.94Q53.15-6.76 52.73-7.13Q52.31-7.50 51.61-7.50L51.61-7.50Q50.93-7.50 50.51-7.13Q50.09-6.76 49.90-5.94Q49.71-5.11 49.71-3.77L49.71-3.77Q49.71-2.41 49.90-1.58Q50.09-0.76 50.51-0.38Q50.94 0 51.63 0Z M57.28 2.16L57.28 2.02Q57.71 1.88 58.04 1.68Q58.37 1.48 58.56 1.22Q58.75 0.95 58.75 0.60L58.75 0.60Q58.75 0.31 58.63 0.15Q58.51-0.01 58.34-0.10Q58.17-0.20 58.00-0.28Q57.82-0.36 57.70-0.52Q57.59-0.67 57.59-0.95L57.59-0.95Q57.59-1.37 57.84-1.59Q58.10-1.81 58.50-1.81L58.50-1.81Q58.93-1.81 59.25-1.51Q59.57-1.20 59.57-0.50L59.57-0.50Q59.57 0.31 59.03 1.06Q58.50 1.81 57.28 2.16L57.28 2.16Z M70.61 0L66.29 0L66.29-0.14L66.47-0.14Q66.89-0.14 67.14-0.25Q67.39-0.36 67.50-0.60Q67.62-0.84 67.62-1.22L67.62-1.22L67.62-7.36L66.34-7.36L66.34-7.50L67.62-7.50L67.62-8.20Q67.62-9.45 68.27-10.12Q68.93-10.78 70.26-10.78L70.26-10.78Q70.86-10.78 71.26-10.65Q71.65-10.53 71.85-10.31Q72.05-10.09 72.05-9.80L72.05-9.80Q72.05-9.55 71.91-9.37Q71.76-9.20 71.50-9.11Q71.24-9.02 70.91-9.02L70.91-9.02Q70.91-9.91 70.70-10.28Q70.50-10.64 70.00-10.64L70.00-10.64Q69.41-10.64 69.17-10.13Q68.93-9.62 68.93-8.33L68.93-8.33L68.93-7.50L70.91-7.50L70.91-7.36L68.93-7.36L68.93-1.29Q68.93-0.87 69.04-0.62Q69.16-0.36 69.42-0.25Q69.67-0.14 70.08-0.14L70.08-0.14L70.61-0.14L70.61 0Z M76.57 0L72.60 0L72.60-0.14L72.78-0.14Q73.20-0.14 73.45-0.25Q73.70-0.36 73.81-0.60Q73.93-0.84 73.93-1.22L73.93-1.22L73.93-6.27Q73.93-6.66 73.81-6.90Q73.70-7.14 73.45-7.25Q73.20-7.36 72.78-7.36L72.78-7.36L72.74-7.36L72.74-7.50L75.23-7.50L75.23-6.10L75.26-6.10Q75.35-6.47 75.55-6.82Q75.75-7.17 76.14-7.41Q76.54-7.64 77.22-7.64L77.22-7.64Q77.92-7.64 78.29-7.37Q78.66-7.10 78.66-6.61L78.66-6.61Q78.66-6.19 78.36-5.91Q78.06-5.63 77.36-5.63L77.36-5.63Q77.36-6.50 77.06-6.83Q76.77-7.15 76.40-7.15L76.40-7.15Q76.00-7.15 75.76-6.87Q75.52-6.58 75.41-6.13Q75.30-5.67 75.27-5.19Q75.24-4.70 75.24-4.30L75.24-4.30L75.24-1.29Q75.24-0.87 75.35-0.62Q75.47-0.36 75.72-0.25Q75.98-0.14 76.39-0.14L76.39-0.14L76.57-0.14L76.57 0Z M81.82 0.10L81.82 0.10Q81.44 0.10 81.25-0.14Q81.06-0.38 81.06-0.85L81.06-0.85Q81.06-1.33 81.25-1.57Q81.44-1.81 81.82-1.81L81.82-1.81Q82.20-1.81 82.38-1.57Q82.57-1.33 82.57-0.85L82.57-0.85Q82.57-0.38 82.38-0.14Q82.20 0.10 81.82 0.10Z M95.80 0L90.46 0L90.46-0.14L91.40-0.14Q91.78-0.14 92.04-0.25Q92.30-0.36 92.42-0.59Q92.55-0.81 92.55-1.15L92.55-1.15L92.55-9.13Q91.97-8.41 91.64-8.06Q91.30-7.71 91.10-7.60Q90.90-7.49 90.70-7.49L90.70-7.49Q90.36-7.49 90.20-7.70Q90.04-7.91 90.04-8.25L90.04-8.25Q90.62-8.26 91.03-8.35Q91.44-8.44 91.76-8.64Q92.09-8.85 92.41-9.18L92.41-9.18L93.23-10.05L93.96-10.05L93.96-1.15Q93.96-0.81 94.09-0.59Q94.21-0.36 94.47-0.25Q94.73-0.14 95.11-0.14L95.11-0.14L95.80-0.14L95.80 0Z M105.37 0L101.15 0L101.15-0.14L101.55-0.14Q101.92-0.14 102.18-0.25Q102.44-0.36 102.57-0.59Q102.69-0.81 102.69-1.15L102.69-1.15L102.69-2.74L98.38-2.74L98.38-3.32L102.71-10.00L104.04-10.00L104.04-3.53L105.77-3.53L105.77-2.74L104.04-2.74L104.04-1.15Q104.04-0.81 104.16-0.59Q104.29-0.36 104.55-0.25Q104.81-0.14 105.19-0.14L105.19-0.14L105.37-0.14L105.37 0ZM101.55-7.95L98.68-3.53L102.69-3.53L102.69-6.12Q102.69-6.43 102.69-6.91Q102.69-7.39 102.69-7.93Q102.69-8.47 102.70-8.97Q102.71-9.46 102.72-9.79L102.72-9.79Q102.61-9.60 102.46-9.37Q102.32-9.14 102.15-8.90Q101.99-8.65 101.84-8.41Q101.69-8.16 101.55-7.95L101.55-7.95Z M110.88 0L109.83 0L113.92-8.86L109.55-8.86Q108.82-8.86 108.52-8.59Q108.22-8.32 108.15-7.60L108.15-7.60L108.14-7.45L108.00-7.45L108.08-9.98L114.32-9.98L114.32-9.58L110.88 0Z M124.94 0L121.74-9.10Q121.64-9.39 121.51-9.55Q121.39-9.72 121.20-9.79Q121.02-9.86 120.73-9.86L120.73-9.86L120.55-9.86L120.55-10.00L124.40-10.00L124.40-9.86L124.06-9.86Q123.61-9.86 123.40-9.74Q123.19-9.62 123.19-9.32L123.19-9.32Q123.19-9.24 123.21-9.13Q123.22-9.03 123.25-8.92Q123.29-8.81 123.33-8.67L123.33-8.67L125.07-3.67Q125.19-3.32 125.30-3.00Q125.40-2.67 125.50-2.37Q125.60-2.06 125.68-1.78Q125.75-1.50 125.82-1.23L125.82-1.23Q125.94-1.60 126.06-2.01Q126.19-2.42 126.33-2.85Q126.47-3.28 126.59-3.67L126.59-3.67L128.19-8.55Q128.25-8.71 128.27-8.83Q128.30-8.95 128.32-9.06Q128.34-9.17 128.34-9.25L128.34-9.25Q128.34-9.59 128.12-9.72Q127.90-9.86 127.41-9.86L127.41-9.86L126.58-9.86L126.58-10.00L130.00-10.00L130.00-9.86L129.49-9.86Q129.23-9.86 129.04-9.76Q128.86-9.66 128.72-9.42Q128.58-9.18 128.44-8.78L128.44-8.78L125.54 0L124.94 0Z M135.21 0.14L135.21 0.14Q133.70 0.14 132.83-0.83Q131.97-1.79 131.97-3.77L131.97-3.77Q131.97-5.73 132.80-6.69Q133.63-7.64 135.26-7.64L135.26-7.64Q136.77-7.64 137.64-6.69Q138.50-5.73 138.50-3.77L138.50-3.77Q138.50-1.79 137.67-0.83Q136.84 0.14 135.21 0.14ZM135.24 0L135.24 0Q135.93 0 136.35-0.38Q136.77-0.76 136.96-1.58Q137.15-2.41 137.15-3.77L137.15-3.77Q137.15-5.11 136.96-5.94Q136.77-6.76 136.35-7.13Q135.93-7.50 135.23-7.50L135.23-7.50Q134.54-7.50 134.12-7.13Q133.70-6.76 133.51-5.94Q133.32-5.11 133.32-3.77L133.32-3.77Q133.32-2.41 133.51-1.58Q133.70-0.76 134.13-0.38Q134.56 0 135.24 0Z M144.77 0L140.80 0L140.80-0.14L140.98-0.14Q141.40-0.14 141.65-0.25Q141.90-0.36 142.01-0.60Q142.13-0.84 142.13-1.22L142.13-1.22L142.13-6.27Q142.13-6.66 142.01-6.90Q141.90-7.14 141.65-7.25Q141.40-7.36 140.98-7.36L140.98-7.36L140.94-7.36L140.94-7.50L143.44-7.50L143.44-1.29Q143.44-0.87 143.55-0.62Q143.67-0.36 143.92-0.25Q144.18-0.14 144.59-0.14L144.59-0.14L144.77-0.14L144.77 0ZM142.71-8.85L142.71-8.85Q142.45-8.85 142.27-9.02Q142.10-9.20 142.10-9.63L142.10-9.63Q142.10-10.08 142.27-10.25Q142.45-10.42 142.71-10.42L142.71-10.42Q142.97-10.42 143.15-10.25Q143.33-10.08 143.33-9.63L143.33-9.63Q143.33-9.20 143.15-9.02Q142.97-8.85 142.71-8.85Z M149.39 3.36L149.39 3.36Q147.93 3.36 147.20 2.83Q146.48 2.31 146.48 1.44L146.48 1.44Q146.48 0.95 146.70 0.59Q146.92 0.24 147.39 0.03Q147.85-0.18 148.55-0.18L148.55-0.18Q148.00-0.35 147.73-0.73Q147.46-1.11 147.46-1.53L147.46-1.53Q147.46-1.93 147.73-2.30Q148.00-2.67 148.58-2.87L148.58-2.87Q147.90-3.11 147.50-3.66Q147.11-4.21 147.11-5.05L147.11-5.05Q147.11-6.26 147.76-6.95Q148.42-7.64 149.74-7.64L149.74-7.64Q150.23-7.64 150.62-7.53Q151.01-7.41 151.32-7.18L151.32-7.18Q151.53-7.41 151.88-7.67Q152.23-7.94 152.71-7.94L152.71-7.94Q153.11-7.94 153.31-7.72Q153.52-7.50 153.52-7.20L153.52-7.20Q153.52-6.92 153.34-6.73Q153.17-6.55 152.78-6.55L152.78-6.55Q152.78-7 152.63-7.21Q152.48-7.42 152.16-7.42L152.16-7.42Q151.98-7.42 151.82-7.36Q151.67-7.29 151.43-7.10L151.43-7.10Q151.84-6.76 152.05-6.24Q152.26-5.73 152.26-5.10L152.26-5.10Q152.26-4.06 151.63-3.37Q151.01-2.69 149.74-2.69L149.74-2.69Q149.47-2.69 149.23-2.72Q148.98-2.76 148.76-2.81L148.76-2.81Q148.42-2.67 148.30-2.48Q148.17-2.28 148.17-2.04L148.17-2.04Q148.17-1.68 148.43-1.51Q148.69-1.34 149.21-1.34L149.21-1.34L150.79-1.34Q152.03-1.34 152.57-0.76Q153.10-0.17 153.10 0.74L153.10 0.74Q153.10 1.95 152.19 2.65Q151.29 3.36 149.39 3.36ZM149.50 3.22L149.50 3.22Q150.83 3.22 151.46 2.74Q152.09 2.25 152.09 1.32L152.09 1.32Q152.09 0.59 151.70 0.24Q151.32-0.10 150.52-0.10L150.52-0.10L149.01-0.10Q148.63-0.10 148.29 0.04Q147.95 0.18 147.73 0.53Q147.51 0.88 147.51 1.50L147.51 1.50Q147.51 2.07 147.75 2.46Q147.99 2.84 148.43 3.03Q148.87 3.22 149.50 3.22ZM149.70-2.83L149.70-2.83Q150.16-2.83 150.43-3.07Q150.70-3.30 150.82-3.81Q150.94-4.31 150.94-5.10L150.94-5.10Q150.94-5.92 150.82-6.45Q150.69-6.99 150.42-7.25Q150.14-7.50 149.68-7.50L149.68-7.50Q149.23-7.50 148.95-7.23Q148.67-6.96 148.55-6.43Q148.42-5.89 148.42-5.08L148.42-5.08Q148.42-4.31 148.55-3.81Q148.69-3.30 148.97-3.07Q149.25-2.83 149.70-2.83Z M158.25 0.14L158.25 0.14Q157.18 0.14 156.70-0.34Q156.22-0.83 156.22-2.03L156.22-2.03L156.22-7.36L155.15-7.36L155.15-7.50Q155.66-7.50 156.03-7.59Q156.40-7.69 156.66-7.88L156.66-7.88Q156.94-8.08 157.12-8.41Q157.29-8.75 157.39-9.23L157.39-9.23L157.53-9.23L157.53-7.50L159.49-7.50L159.49-7.36L157.53-7.36L157.53-1.51Q157.53-0.78 157.81-0.42Q158.09-0.06 158.64-0.06L158.64-0.06Q158.83-0.06 159.04-0.10Q159.25-0.14 159.49-0.22L159.49-0.22L159.49-0.08Q159.31 0 158.95 0.07Q158.58 0.14 158.25 0.14Z"/></g>
</svg>