<svg xmlns="http://www.w3.org/2000/svg" width="860" height="300" viewBox="0 0 860 300" role="img" aria-label="Vivere militare est.. To live is to keep up the fight. (Seneca, Letters 96.5)">
  <defs>
    <linearGradient id="parch" x1="0" y1="0" x2="0" y2="1">
      <stop offset="0" stop-color="#FEFCF8"/>
      <stop offset="1" stop-color="#F1ECE2"/>
    </linearGradient>
    <radialGradient id="glow" cx="0.5" cy="0.14" r="0.9">
      <stop offset="0" stop-color="#C5A059" stop-opacity="0.14"/>
      <stop offset="0.5" stop-color="#C5A059" stop-opacity="0"/>
    </radialGradient>
    <filter id="grain"><feTurbulence type="fractalNoise" baseFrequency="0.9" numOctaves="2" stitchTiles="stitch" result="n"/><feColorMatrix in="n" type="matrix" values="0 0 0 0 0  0 0 0 0 0  0 0 0 0 0  0 0 0 0.035 0"/></filter>
    <filter id="lift" x="-8%" y="-8%" width="116%" height="124%"><feDropShadow dx="0" dy="3" stdDeviation="7" flood-color="#3A2A18" flood-opacity="0.20"/></filter>
  </defs>

  <g filter="url(#lift)">
    <rect x="6" y="5" width="848" height="286" rx="15" fill="url(#parch)" stroke="#EAE3D6" stroke-width="1"/>
  </g>
  <rect x="6" y="5" width="848" height="286" rx="15" fill="url(#glow)"/>
  <rect x="6" y="5" width="848" height="286" rx="15" fill="#000" filter="url(#grain)" opacity="0.5" clip-path="inset(0 round 15px)"/>
  <rect x="16" y="16" width="828" height="264" rx="9" fill="none" stroke="#C5A059" stroke-width="1" opacity="0.55"/>
  <path d="M26 23.4L28.6 26L26 28.6L23.4 26Z" fill="#C5A059" opacity="0.7"/><path d="M834 23.4L836.6 26L834 28.6L831.4 26Z" fill="#C5A059" opacity="0.7"/><path d="M26 271.4L28.6 274L26 276.6L23.4 274Z" fill="#C5A059" opacity="0.7"/><path d="M834 271.4L836.6 274L834 276.6L831.4 274Z" fill="#C5A059" opacity="0.7"/>

  <g fill="#5E4722" stroke="#5E4722" stroke-width="0.2"><path transform="translate(46 60)" d="M3.87 0.15L3.87 0.15Q3.13 0.15 2.55-0.01Q1.96-0.16 1.55-0.44Q1.14-0.72 0.93-1.09Q0.72-1.47 0.72-1.92L0.72-1.92Q0.72-2.27 0.85-2.50Q0.97-2.73 1.21-2.85Q1.45-2.97 1.80-2.97L1.80-2.97Q1.81-1.99 2.05-1.33Q2.28-0.66 2.76-0.33Q3.24 0 3.97 0L3.97 0Q4.93 0 5.53-0.56Q6.12-1.13 6.12-2.22L6.12-2.22Q6.12-2.90 5.87-3.31Q5.63-3.73 5.08-4.07Q4.53-4.41 3.65-4.81L3.65-4.81Q3.18-5.04 2.69-5.30Q2.21-5.56 1.79-5.93Q1.38-6.30 1.13-6.83Q0.89-7.36 0.89-8.10L0.89-8.10Q0.89-9 1.27-9.62Q1.67-10.23 2.38-10.54Q3.09-10.86 4.05-10.86L4.05-10.86Q4.93-10.86 5.59-10.62Q6.24-10.38 6.61-9.99Q6.97-9.60 6.97-9.13L6.97-9.13Q6.97-8.70 6.64-8.45Q6.31-8.21 5.79-8.21L5.79-8.21Q5.79-9.45 5.38-10.08Q4.98-10.71 4.04-10.71L4.04-10.71Q3.46-10.71 3.03-10.48Q2.59-10.24 2.36-9.79Q2.13-9.33 2.13-8.64L2.13-8.64Q2.13-7.90 2.40-7.46Q2.67-7.00 3.22-6.68Q3.76-6.36 4.59-5.97L4.59-5.97Q5.34-5.63 5.98-5.25Q6.61-4.88 7.00-4.30Q7.39-3.73 7.39-2.80L7.39-2.80Q7.39-1.89 6.98-1.23Q6.57-0.57 5.78-0.21Q5.00 0.15 3.87 0.15Z M20.17 0L12.13 0L12.13-0.15L12.33-0.15Q12.73-0.15 13.01-0.27Q13.29-0.39 13.42-0.63Q13.55-0.87 13.55-1.23L13.55-1.23L13.55-9.54Q13.55-9.88 13.42-10.11Q13.29-10.33 13.01-10.45Q12.73-10.56 12.33-10.56L12.33-10.56L12.13-10.56L12.13-10.71L19.68-10.71L19.77-8.08L19.62-8.08L19.59-8.58Q19.54-9.33 19.33-9.76Q19.12-10.20 18.68-10.38Q18.23-10.56 17.47-10.56L17.47-10.56L15.07-10.56L15.07-5.68L18.84-5.68L18.84-5.54L15.07-5.54L15.07-0.15L17.84-0.15Q18.66-0.15 19.13-0.33Q19.62-0.51 19.83-0.94Q20.05-1.38 20.09-2.13L20.09-2.13L20.13-2.63L20.27-2.63L20.17 0Z M28.34 0L24.88 0L24.88-0.15L25.31-0.15Q25.71-0.15 25.99-0.27Q26.27-0.39 26.41-0.63Q26.54-0.87 26.54-1.23L26.54-1.23L26.54-9.54Q26.54-9.88 26.41-10.11Q26.27-10.33 25.99-10.45Q25.71-10.56 25.31-10.56L25.31-10.56L24.88-10.56L24.88-10.71L27.80-10.71L33.52-2.15L33.52-9.48Q33.52-9.84 33.38-10.08Q33.24-10.32 32.98-10.44Q32.70-10.56 32.28-10.56L32.28-10.56L31.86-10.56L31.86-10.71L35.33-10.71L35.33-10.56L34.89-10.56Q34.49-10.56 34.22-10.44Q33.95-10.32 33.81-10.08Q33.66-9.84 33.66-9.48L33.66-9.48L33.66 0L33.22 0L26.69-9.78L26.69-1.23Q26.69-0.87 26.82-0.63Q26.96-0.39 27.24-0.27Q27.52-0.15 27.92-0.15L27.92-0.15L28.34-0.15L28.34 0Z M45.91 0L41.55 0L41.55-0.15L41.74-0.15Q42.15-0.15 42.43-0.27Q42.70-0.39 42.84-0.63Q42.98-0.87 42.98-1.23L42.98-1.23L42.98-10.56L41.74-10.56Q40.99-10.56 40.55-10.38Q40.09-10.20 39.88-9.76Q39.67-9.33 39.63-8.58L39.63-8.58L39.60-8.08L39.45-8.08L39.54-10.71L47.95-10.71L48.05-8.08L47.89-8.08L47.86-8.58Q47.82-9.33 47.61-9.76Q47.40-10.20 46.96-10.38Q46.52-10.56 45.75-10.56L45.75-10.56L44.49-10.56L44.49-1.23Q44.49-0.87 44.63-0.63Q44.76-0.39 45.04-0.27Q45.31-0.15 45.72-0.15L45.72-0.15L45.91-0.15L45.91 0Z M60.35 0L52.31 0L52.31-0.15L52.51-0.15Q52.91-0.15 53.19-0.27Q53.47-0.39 53.60-0.63Q53.74-0.87 53.74-1.23L53.74-1.23L53.74-9.54Q53.74-9.88 53.60-10.11Q53.47-10.33 53.19-10.45Q52.91-10.56 52.51-10.56L52.51-10.56L52.31-10.56L52.31-10.71L59.86-10.71L59.95-8.08L59.80-8.08L59.77-8.58Q59.72-9.33 59.52-9.76Q59.30-10.20 58.86-10.38Q58.42-10.56 57.66-10.56L57.66-10.56L55.25-10.56L55.25-5.68L59.02-5.68L59.02-5.54L55.25-5.54L55.25-0.15L58.03-0.15Q58.84-0.15 59.32-0.33Q59.80-0.51 60.02-0.94Q60.23-1.38 60.28-2.13L60.28-2.13L60.31-2.63L60.46-2.63L60.35 0Z M68.52 0L65.06 0L65.06-0.15L65.49-0.15Q65.90-0.15 66.18-0.27Q66.45-0.39 66.59-0.63Q66.72-0.87 66.72-1.23L66.72-1.23L66.72-9.54Q66.72-9.88 66.59-10.11Q66.45-10.33 66.18-10.45Q65.90-10.56 65.49-10.56L65.49-10.56L65.06-10.56L65.06-10.71L67.98-10.71L73.70-2.15L73.70-9.48Q73.70-9.84 73.56-10.08Q73.43-10.32 73.16-10.44Q72.89-10.56 72.47-10.56L72.47-10.56L72.05-10.56L72.05-10.71L75.52-10.71L75.52-10.56L75.08-10.56Q74.67-10.56 74.41-10.44Q74.13-10.32 73.99-10.08Q73.85-9.84 73.85-9.48L73.85-9.48L73.85 0L73.40 0L66.88-9.78L66.88-1.23Q66.88-0.87 67.01-0.63Q67.14-0.39 67.42-0.27Q67.70-0.15 68.10-0.15L68.10-0.15L68.52-0.15L68.52 0Z M86.10 0L81.73 0L81.73-0.15L81.93-0.15Q82.33-0.15 82.61-0.27Q82.89-0.39 83.02-0.63Q83.16-0.87 83.16-1.23L83.16-1.23L83.16-10.56L81.93-10.56Q81.18-10.56 80.73-10.38Q80.28-10.20 80.07-9.76Q79.86-9.33 79.81-8.58L79.81-8.58L79.78-8.08L79.63-8.08L79.72-10.71L88.14-10.71L88.23-8.08L88.08-8.08L88.05-8.58Q88.00-9.33 87.79-9.76Q87.58-10.20 87.14-10.38Q86.70-10.56 85.93-10.56L85.93-10.56L84.67-10.56L84.67-1.23Q84.67-0.87 84.81-0.63Q84.94-0.39 85.22-0.27Q85.50-0.15 85.90-0.15L85.90-0.15L86.10-0.15L86.10 0Z M96.86 0L92.50 0L92.50-0.15L92.69-0.15Q93.10-0.15 93.38-0.27Q93.65-0.39 93.79-0.63Q93.92-0.87 93.92-1.23L93.92-1.23L93.92-9.54Q93.92-9.88 93.79-10.11Q93.65-10.33 93.38-10.45Q93.10-10.56 92.69-10.56L92.69-10.56L92.50-10.56L92.50-10.71L96.86-10.71L96.86-10.56L96.67-10.56Q96.26-10.56 95.99-10.44Q95.71-10.32 95.57-10.08Q95.44-9.84 95.44-9.48L95.44-9.48L95.44-1.23Q95.44-0.87 95.57-0.63Q95.71-0.39 95.99-0.27Q96.26-0.15 96.67-0.15L96.67-0.15L96.86-0.15L96.86 0Z M104.49 0L100.83 0L100.83-0.15L101.27-0.15Q101.60-0.15 101.82-0.26Q102.05-0.36 102.21-0.61Q102.38-0.87 102.53-1.32L102.53-1.32L105.80-10.71L106.56-10.71L110.33-0.94Q110.45-0.65 110.57-0.47Q110.69-0.30 110.85-0.22Q111.00-0.15 111.21-0.15L111.21-0.15L111.41-0.15L111.41 0L107.28 0L107.28-0.15L107.63-0.15Q108.20-0.15 108.45-0.28Q108.71-0.42 108.71-0.77L108.71-0.77Q108.71-0.85 108.69-0.95Q108.68-1.05 108.66-1.17Q108.63-1.29 108.57-1.43L108.57-1.43L107.66-3.88L103.59-3.88L102.77-1.53Q102.72-1.41 102.69-1.29Q102.66-1.17 102.65-1.07Q102.63-0.97 102.63-0.89L102.63-0.89Q102.63-0.48 102.99-0.32Q103.35-0.15 104.15-0.15L104.15-0.15L104.49-0.15L104.49 0ZM104.75-7.21L103.64-4.04L107.60-4.04L106.50-6.96Q106.31-7.47 106.14-7.93Q105.98-8.40 105.84-8.83Q105.69-9.25 105.57-9.66L105.57-9.66Q105.47-9.33 105.38-9.05Q105.29-8.78 105.20-8.50Q105.11-8.23 105.00-7.93Q104.88-7.62 104.75-7.21L104.75-7.21Z M133.52 0L128.93 0L128.93-0.15L129.12-0.15Q129.53-0.15 129.81-0.27Q130.08-0.39 130.22-0.63Q130.35-0.87 130.35-1.23L130.35-1.23L130.35-9.54Q130.35-9.88 130.22-10.11Q130.08-10.33 129.81-10.45Q129.53-10.56 129.12-10.56L129.12-10.56L128.93-10.56L128.93-10.71L133.52-10.71Q135.06-10.71 136.16-10.09Q137.25-9.46 137.83-8.27Q138.41-7.08 138.41-5.37L138.41-5.37Q138.41-3.73 137.86-2.53Q137.31-1.32 136.23-0.66Q135.15 0 133.52 0L133.52 0ZM131.87-0.15L133.17-0.15Q134.43-0.15 135.22-0.69Q136.01-1.23 136.38-2.38Q136.74-3.54 136.74-5.37L136.74-5.37Q136.74-7.18 136.38-8.33Q136.01-9.48 135.22-10.02Q134.43-10.56 133.19-10.56L133.19-10.56L131.87-10.56L131.87-0.15Z M147.60 0L143.23 0L143.23-0.15L143.43-0.15Q143.83-0.15 144.11-0.27Q144.39-0.39 144.53-0.63Q144.66-0.87 144.66-1.23L144.66-1.23L144.66-9.54Q144.66-9.88 144.53-10.11Q144.39-10.33 144.11-10.45Q143.83-10.56 143.43-10.56L143.43-10.56L143.23-10.56L143.23-10.71L147.60-10.71L147.60-10.56L147.41-10.56Q147-10.56 146.72-10.44Q146.44-10.32 146.31-10.08Q146.17-9.84 146.17-9.48L146.17-9.48L146.17-1.23Q146.17-0.87 146.31-0.63Q146.44-0.39 146.72-0.27Q147-0.15 147.41-0.15L147.41-0.15L147.60-0.15L147.60 0Z M160.18 0L152.14 0L152.14-0.15L152.33-0.15Q152.74-0.15 153.02-0.27Q153.29-0.39 153.43-0.63Q153.56-0.87 153.56-1.23L153.56-1.23L153.56-9.54Q153.56-9.88 153.43-10.11Q153.29-10.33 153.02-10.45Q152.74-10.56 152.33-10.56L152.33-10.56L152.14-10.56L152.14-10.71L159.69-10.71L159.78-8.08L159.63-8.08L159.59-8.58Q159.55-9.33 159.34-9.76Q159.13-10.20 158.69-10.38Q158.25-10.56 157.48-10.56L157.48-10.56L155.08-10.56L155.08-5.68L158.84-5.68L158.84-5.54L155.08-5.54L155.08-0.15L157.85-0.15Q158.66-0.15 159.14-0.33Q159.63-0.51 159.84-0.94Q160.06-1.38 160.10-2.13L160.10-2.13L160.13-2.63L160.28-2.63L160.18 0Z M169.25 0L164.88 0L164.88-0.15L165.08-0.15Q165.48-0.15 165.76-0.27Q166.04-0.39 166.18-0.63Q166.31-0.87 166.31-1.23L166.31-1.23L166.31-9.54Q166.31-9.88 166.18-10.11Q166.04-10.33 165.76-10.45Q165.48-10.56 165.08-10.56L165.08-10.56L164.88-10.56L164.88-10.71L169.25-10.71L169.25-10.56L169.06-10.56Q168.65-10.56 168.37-10.44Q168.09-10.32 167.96-10.08Q167.82-9.84 167.82-9.48L167.82-9.48L167.82-1.23Q167.82-0.87 167.96-0.63Q168.09-0.39 168.37-0.27Q168.65-0.15 169.06-0.15L169.06-0.15L169.25-0.15L169.25 0Z"/></g>
  <g fill="#5D5147"><path transform="translate(761.85 60)" d="M6.44 0L1.30 0L1.30-0.14L2.20-0.14Q2.56-0.14 2.81-0.24Q3.06-0.35 3.19-0.57Q3.31-0.78 3.31-1.11L3.31-1.11L3.31-8.80Q2.75-8.11 2.43-7.78Q2.11-7.44 1.91-7.33Q1.71-7.22 1.53-7.22L1.53-7.22Q1.20-7.22 1.05-7.42Q0.89-7.63 0.89-7.95L0.89-7.95Q1.44-7.96 1.84-8.05Q2.24-8.14 2.55-8.34Q2.86-8.53 3.17-8.86L3.17-8.86L3.97-9.69L4.67-9.69L4.67-1.11Q4.67-0.78 4.79-0.57Q4.91-0.35 5.16-0.24Q5.41-0.14 5.78-0.14L5.78-0.14L6.44-0.14L6.44 0Z M16.03 0L10.23 0L10.23-0.99L12.19-3.10Q12.87-3.83 13.30-4.39Q13.73-4.95 13.97-5.44Q14.22-5.93 14.31-6.39Q14.41-6.86 14.41-7.38L14.41-7.38Q14.41-8.19 14.26-8.69Q14.11-9.19 13.80-9.42Q13.49-9.64 12.99-9.64L12.99-9.64Q12.46-9.64 12.15-9.38Q11.83-9.13 11.69-8.57Q11.54-8.01 11.54-7.09L11.54-7.09Q11.22-7.09 10.96-7.17Q10.69-7.25 10.54-7.45Q10.38-7.65 10.38-8.02L10.38-8.02Q10.38-8.52 10.69-8.92Q11.00-9.31 11.59-9.54Q12.18-9.77 13.00-9.77L13.00-9.77Q13.89-9.77 14.51-9.49Q15.14-9.21 15.45-8.69Q15.77-8.18 15.77-7.47L15.77-7.47Q15.77-7.05 15.63-6.62Q15.49-6.20 15.11-5.68Q14.73-5.16 14.05-4.45Q13.37-3.74 12.29-2.74L12.29-2.74L10.49-1.08L14.74-1.08Q15.39-1.08 15.65-1.31Q15.91-1.54 15.96-2.16L15.96-2.16L15.97-2.34L16.11-2.34L16.03 0Z M24.59 1.63L24.45 1.63L27.56-10.26L27.69-10.26L24.59 1.63Z M41.54 0L35.74 0L35.74-0.99L37.70-3.10Q38.38-3.83 38.81-4.39Q39.24-4.95 39.48-5.44Q39.73-5.93 39.82-6.39Q39.92-6.86 39.92-7.38L39.92-7.38Q39.92-8.19 39.77-8.69Q39.62-9.19 39.31-9.42Q39.00-9.64 38.50-9.64L38.50-9.64Q37.97-9.64 37.65-9.38Q37.34-9.13 37.20-8.57Q37.05-8.01 37.05-7.09L37.05-7.09Q36.73-7.09 36.47-7.17Q36.20-7.25 36.05-7.45Q35.89-7.65 35.89-8.02L35.89-8.02Q35.89-8.52 36.20-8.92Q36.51-9.31 37.10-9.54Q37.69-9.77 38.51-9.77L38.51-9.77Q39.40-9.77 40.02-9.49Q40.64-9.21 40.96-8.69Q41.28-8.18 41.28-7.47L41.28-7.47Q41.28-7.05 41.14-6.62Q41.00-6.20 40.62-5.68Q40.24-5.16 39.56-4.45Q38.88-3.74 37.80-2.74L37.80-2.74L36.00-1.08L40.25-1.08Q40.90-1.08 41.16-1.31Q41.41-1.54 41.47-2.16L41.47-2.16L41.48-2.34L41.62-2.34L41.54 0Z M47.96 0.15L47.96 0.15Q47.07 0.15 46.53-0.06Q45.98-0.27 45.73-0.60Q45.48-0.93 45.48-1.27L45.48-1.27Q45.48-1.58 45.69-1.80Q45.90-2.02 46.33-2.02L46.33-2.02Q46.33-1.32 46.53-0.87Q46.74-0.42 47.13-0.21Q47.52 0 48.07 0L48.07 0Q48.67 0 49.04-0.30Q49.42-0.59 49.60-1.23Q49.77-1.86 49.77-2.86L49.77-2.86Q49.77-3.86 49.57-4.46Q49.37-5.05 48.94-5.32Q48.50-5.59 47.80-5.59L47.80-5.59Q47.29-5.59 46.93-5.45Q46.57-5.32 46.33-5.12Q46.09-4.93 45.90-4.74L45.90-4.74L45.74-4.79L46.16-9.63L50.66-9.63L50.73-7.59L50.60-7.59L50.58-7.74Q50.56-8.05 50.45-8.22Q50.35-8.40 50.16-8.47Q49.96-8.55 49.64-8.55L49.64-8.55L46.20-8.55L45.87-4.89Q46.28-5.35 46.85-5.57Q47.42-5.79 48.10-5.79L48.10-5.79Q48.92-5.79 49.62-5.49Q50.31-5.20 50.74-4.56Q51.18-3.93 51.18-2.92L51.18-2.92Q51.18-2.27 50.99-1.71Q50.81-1.15 50.43-0.74Q50.04-0.32 49.43-0.09Q48.81 0.15 47.96 0.15Z"/></g>

  <g opacity="1">
    <animate attributeName="opacity" from="0" to="1" dur="0.85s" begin="0s" fill="freeze"/>
    <animateTransform attributeName="transform" type="translate" from="0 10" to="0 0" dur="0.95s" begin="0s" fill="freeze" calcMode="spline" keySplines="0.22 1 0.36 1" keyTimes="0;1" values="0 10;0 0"/>
    <g transform="translate(0 109.87)">
      <g fill="#1A1919"><path transform="translate(225.35 32.4)" d="M14.13 0L3.82-29.25Q3.51-30.20 3.10-30.71Q2.70-31.23 2.11-31.45Q1.53-31.68 0.58-31.68L0.58-31.68L0-31.68L0-32.13L12.38-32.13L12.38-31.68L11.29-31.68Q9.86-31.68 9.18-31.30Q8.50-30.91 8.50-29.97L8.50-29.97Q8.50-29.70 8.55-29.36Q8.59-29.02 8.71-28.66Q8.82-28.30 8.96-27.86L8.96-27.86L14.54-11.79Q14.94-10.66 15.28-9.63Q15.62-8.59 15.93-7.60Q16.25-6.61 16.49-5.71Q16.74-4.81 16.96-3.96L16.96-3.96Q17.32-5.13 17.73-6.46Q18.13-7.79 18.59-9.16Q19.04-10.53 19.44-11.79L19.44-11.79L24.57-27.49Q24.75-27.99 24.84-28.37Q24.93-28.75 25.00-29.11Q25.06-29.47 25.06-29.74L25.06-29.74Q25.06-30.82 24.34-31.25Q23.63-31.68 22.05-31.68L22.05-31.68L19.39-31.68L19.39-32.13L30.38-32.13L30.38-31.68L28.75-31.68Q27.90-31.68 27.31-31.36Q26.73-31.05 26.28-30.29Q25.83-29.52 25.38-28.21L25.38-28.21L16.06 0L14.13 0Z M44.49 0L31.71 0L31.71-0.45L32.30-0.45Q33.65-0.45 34.45-0.81Q35.27-1.17 35.63-1.93Q35.98-2.70 35.98-3.92L35.98-3.92L35.98-20.16Q35.98-21.42 35.63-22.18Q35.27-22.95 34.45-23.31Q33.65-23.67 32.30-23.67L32.30-23.67L32.16-23.67L32.16-24.12L40.22-24.12L40.22-4.14Q40.22-2.79 40.58-1.98Q40.94-1.17 41.77-0.81Q42.60-0.45 43.91-0.45L43.91-0.45L44.49-0.45L44.49 0ZM37.88-28.44L37.88-28.44Q37.02-28.44 36.46-29.00Q35.90-29.56 35.90-30.96L35.90-30.96Q35.90-32.40 36.46-32.94Q37.02-33.48 37.88-33.48L37.88-33.48Q38.69-33.48 39.27-32.94Q39.86-32.40 39.86-30.96L39.86-30.96Q39.86-29.56 39.27-29.00Q38.69-28.44 37.88-28.44Z M56.13 0L48.39-21.29Q48.08-22.18 47.69-22.70Q47.31-23.22 46.81-23.45Q46.32-23.67 45.55-23.67L45.55-23.67L45.55-24.12L56.80-24.12L56.80-23.67L55.73-23.67Q54.28-23.67 53.59-23.29Q52.89-22.90 52.89-21.96L52.89-21.96Q52.89-21.55 53.02-21.04Q53.16-20.52 53.38-19.84L53.38-19.84L56.94-9.90Q57.52-8.28 57.95-7.04Q58.38-5.80 58.81-4.57Q59.23-3.33 59.77-1.62L59.77-1.62Q60.05-2.48 60.27-3.19Q60.49-3.92 60.77-4.68Q61.03-5.44 61.39-6.43L61.39-6.43L65.94-19.57Q66.16-20.29 66.30-20.84Q66.44-21.38 66.44-21.82L66.44-21.82Q66.44-22.86 65.65-23.27Q64.86-23.67 63.15-23.67L63.15-23.67L61.66-23.67L61.66-24.12L71.30-24.12L71.30-23.67L70.03-23.67Q69.18-23.67 68.57-23.36Q67.97-23.04 67.52-22.27Q67.06-21.51 66.61-20.16L66.61-20.16L59.69 0L56.13 0Z M84.87 0.45L84.87 0.45Q79.83 0.45 77.02-2.79Q74.20-6.03 74.20-11.88L74.20-11.88Q74.20-18.18 76.81-21.38Q79.42-24.57 84.20-24.57L84.20-24.57Q88.56-24.57 91.06-21.87Q93.56-19.17 93.56-13.81L93.56-13.81L93.56-12.73L78.57-12.73Q78.62-8.14 79.25-5.35Q79.88-2.56 81.29-1.28Q82.71 0 85.01 0L85.01 0Q86.72 0 88.04-0.63Q89.37-1.26 90.27-2.50Q91.17-3.73 91.48-5.54L91.48-5.54Q92.03-5.44 92.30-5.00Q92.56-4.54 92.56-4.05L92.56-4.05Q92.56-3.15 91.71-2.09Q90.86-1.03 89.17-0.29Q87.48 0.45 84.87 0.45ZM78.57-13.18L89.01-13.18Q89.01-17.14 88.52-19.53Q88.02-21.91 86.94-23.02Q85.86-24.12 84.11-24.12L84.11-24.12Q82.26-24.12 81.09-23.02Q79.92-21.91 79.34-19.53Q78.75-17.14 78.57-13.18L78.57-13.18Z M109.92 0L97.14 0L97.14-0.45L97.73-0.45Q99.08-0.45 99.89-0.81Q100.70-1.17 101.06-1.93Q101.42-2.70 101.42-3.92L101.42-3.92L101.42-20.16Q101.42-21.42 101.06-22.18Q100.70-22.95 99.89-23.31Q99.08-23.67 97.73-23.67L97.73-23.67L97.59-23.67L97.59-24.12L105.60-24.12L105.60-19.62L105.69-19.62Q106.01-20.79 106.64-21.91Q107.27-23.04 108.55-23.80Q109.83-24.57 111.99-24.57L111.99-24.57Q114.24-24.57 115.43-23.69Q116.63-22.81 116.63-21.24L116.63-21.24Q116.63-19.89 115.66-18.99Q114.69-18.09 112.44-18.09L112.44-18.09Q112.44-20.88 111.50-21.94Q110.55-22.99 109.38-22.99L109.38-22.99Q108.08-22.99 107.31-22.07Q106.55-21.15 106.19-19.69Q105.83-18.22 105.73-16.67Q105.65-15.12 105.65-13.81L105.65-13.81L105.65-4.14Q105.65-2.79 106.01-1.98Q106.37-1.17 107.20-0.81Q108.03-0.45 109.34-0.45L109.34-0.45L109.92-0.45L109.92 0Z M130.74 0.45L130.74 0.45Q125.70 0.45 122.89-2.79Q120.08-6.03 120.08-11.88L120.08-11.88Q120.08-18.18 122.69-21.38Q125.30-24.57 130.06-24.57L130.06-24.57Q134.43-24.57 136.93-21.87Q139.43-19.17 139.43-13.81L139.43-13.81L139.43-12.73L124.44-12.73Q124.49-8.14 125.12-5.35Q125.75-2.56 127.16-1.28Q128.58 0 130.88 0L130.88 0Q132.59 0 133.91-0.63Q135.24-1.26 136.14-2.50Q137.04-3.73 137.36-5.54L137.36-5.54Q137.90-5.44 138.17-5.00Q138.44-4.54 138.44-4.05L138.44-4.05Q138.44-3.15 137.58-2.09Q136.73-1.03 135.04-0.29Q133.35 0.45 130.74 0.45ZM124.44-13.18L134.88-13.18Q134.88-17.14 134.39-19.53Q133.89-21.91 132.81-23.02Q131.73-24.12 129.98-24.12L129.98-24.12Q128.13-24.12 126.96-23.02Q125.79-21.91 125.21-19.53Q124.62-17.14 124.44-13.18L124.44-13.18Z M165.77 0L153.66 0L153.66-0.45L154.02-0.45Q155.37-0.45 156.18-0.81Q156.99-1.17 157.35-1.93Q157.71-2.70 157.71-3.92L157.71-3.92L157.71-20.16Q157.71-21.42 157.35-22.18Q156.99-22.95 156.18-23.31Q155.37-23.67 154.02-23.67L154.02-23.67L153.89-23.67L153.89-24.12L161.90-24.12L161.90-19.84L161.99-19.84Q162.62-21.82 163.67-22.84Q164.73-23.85 166.04-24.21Q167.34-24.57 168.69-24.57L168.69-24.57Q171.08-24.57 172.99-23.42Q174.90-22.27 175.80-19.08L175.80-19.08L175.89-19.08Q176.48-21.51 177.53-22.68Q178.59-23.85 179.90-24.21Q181.20-24.57 182.46-24.57L182.46-24.57Q186.33-24.57 188.20-22.34Q190.07-20.11 190.07-15.62L190.07-15.62L190.07-4.14Q190.07-2.79 190.43-1.98Q190.79-1.17 191.62-0.81Q192.45-0.45 193.76-0.45L193.76-0.45L193.89-0.45L193.89 0L185.84 0L185.84-16.52Q185.84-20.25 184.80-21.96Q183.77-23.67 181.47-23.67L181.47-23.67Q179.76-23.67 178.55-22.79Q177.33-21.91 176.72-20.25Q176.12-18.59 176.12-16.20L176.12-16.20L176.12-4.14Q176.12-2.79 176.48-1.98Q176.84-1.17 177.67-0.81Q178.50-0.45 179.81-0.45L179.81-0.45L179.94-0.45L179.94 0L171.89 0L171.89-16.52Q171.89-20.25 170.83-21.96Q169.77-23.67 167.39-23.67L167.39-23.67Q165.59-23.67 164.37-22.77Q163.16-21.87 162.55-20.07Q161.94-18.27 161.94-15.57L161.94-15.57L161.94-4.14Q161.94-2.79 162.30-1.98Q162.66-1.17 163.49-0.81Q164.33-0.45 165.63-0.45L165.63-0.45L165.77-0.45L165.77 0Z M209.04 0L196.26 0L196.26-0.45L196.85-0.45Q198.20-0.45 199.01-0.81Q199.82-1.17 200.18-1.93Q200.54-2.70 200.54-3.92L200.54-3.92L200.54-20.16Q200.54-21.42 200.18-22.18Q199.82-22.95 199.01-23.31Q198.20-23.67 196.85-23.67L196.85-23.67L196.71-23.67L196.71-24.12L204.77-24.12L204.77-4.14Q204.77-2.79 205.13-1.98Q205.49-1.17 206.32-0.81Q207.15-0.45 208.46-0.45L208.46-0.45L209.04-0.45L209.04 0ZM202.43-28.44L202.43-28.44Q201.57-28.44 201.01-29.00Q200.45-29.56 200.45-30.96L200.45-30.96Q200.45-32.40 201.01-32.94Q201.57-33.48 202.43-33.48L202.43-33.48Q203.24-33.48 203.82-32.94Q204.41-32.40 204.41-30.96L204.41-30.96Q204.41-29.56 203.82-29.00Q203.24-28.44 202.43-28.44Z M223.29 0L210.51 0L210.51-0.45L211.09-0.45Q212.45-0.45 213.26-0.81Q214.06-1.17 214.43-1.93Q214.79-2.70 214.79-3.92L214.79-3.92L214.79-30.24Q214.79-31.50 214.43-32.27Q214.06-33.03 213.26-33.39Q212.45-33.75 211.09-33.75L211.09-33.75L210.51-33.75L210.51-34.20L219.02-34.20L219.02-4.14Q219.02-2.79 219.38-1.98Q219.74-1.17 220.55-0.81Q221.36-0.45 222.71-0.45L222.71-0.45L223.29-0.45L223.29 0Z M237.99 0L225.21 0L225.21-0.45L225.80-0.45Q227.15-0.45 227.96-0.81Q228.77-1.17 229.13-1.93Q229.49-2.70 229.49-3.92L229.49-3.92L229.49-20.16Q229.49-21.42 229.13-22.18Q228.77-22.95 227.96-23.31Q227.15-23.67 225.80-23.67L225.80-23.67L225.66-23.67L225.66-24.12L233.72-24.12L233.72-4.14Q233.72-2.79 234.08-1.98Q234.44-1.17 235.27-0.81Q236.10-0.45 237.41-0.45L237.41-0.45L237.99-0.45L237.99 0ZM231.38-28.44L231.38-28.44Q230.52-28.44 229.96-29.00Q229.40-29.56 229.40-30.96L229.40-30.96Q229.40-32.40 229.96-32.94Q230.52-33.48 231.38-33.48L231.38-33.48Q232.19-33.48 232.77-32.94Q233.36-32.40 233.36-30.96L233.36-30.96Q233.36-29.56 232.77-29.00Q232.19-28.44 231.38-28.44Z M249.68 0.45L249.68 0.45Q246.25 0.45 244.70-1.10Q243.15-2.65 243.15-6.52L243.15-6.52L243.15-23.67L239.73-23.67L239.73-24.12Q241.35-24.12 242.54-24.41Q243.74-24.70 244.59-25.33L244.59-25.33Q245.49-25.96 246.05-27.04Q246.62-28.13 246.93-29.65L246.93-29.65L247.38-29.65L247.38-24.12L253.68-24.12L253.68-23.67L247.38-23.67L247.38-4.86Q247.38-2.52 248.28-1.35Q249.18-0.18 250.94-0.18L250.94-0.18Q251.56-0.18 252.24-0.32Q252.91-0.45 253.68-0.72L253.68-0.72L253.68-0.27Q253.09 0 251.93 0.22Q250.75 0.45 249.68 0.45Z M264.69 0.45L264.69 0.45Q261.27 0.45 259.27-1.33Q257.26-3.10 257.26-6.21L257.26-6.21Q257.26-9.67 259.81-11.38Q262.35-13.09 267.52-13.28L267.52-13.28L271.26-13.41L271.26-16.79Q271.26-19.30 270.99-20.93Q270.72-22.54 269.82-23.33Q268.92-24.12 267.07-24.12L267.07-24.12Q264.46-24.12 263.72-22.50Q262.98-20.88 262.98-17.41L262.98-17.41Q261.09-17.41 260.12-18.04Q259.15-18.68 259.15-20.11L259.15-20.11Q259.15-21.73 260.26-22.70Q261.36-23.67 263.20-24.12Q265.05-24.57 267.25-24.57L267.25-24.57Q271.39-24.57 273.44-22.81Q275.49-21.06 275.49-16.79L275.49-16.79L275.49-3.33Q275.49-2.25 275.76-1.62Q276.03-0.99 276.66-0.72Q277.29-0.45 278.28-0.45L278.28-0.45L278.41-0.45L278.41 0L271.62 0L271.62-4.72L271.53-4.72Q271.08-2.92 270.09-1.78Q269.10-0.63 267.73-0.09Q266.35 0.45 264.69 0.45ZM265.59-0.18L265.59-0.18Q267.25-0.18 268.54-1.03Q269.82-1.89 270.54-3.33Q271.26-4.77 271.26-6.43L271.26-6.43L271.26-12.91L268.38-12.78Q264.56-12.60 263.09-11.03Q261.63-9.45 261.63-5.71L261.63-5.71Q261.63-3.92 262.06-2.68Q262.49-1.44 263.38-0.81Q264.28-0.18 265.59-0.18Z M294.46 0L281.69 0L281.69-0.45L282.27-0.45Q283.62-0.45 284.43-0.81Q285.24-1.17 285.60-1.93Q285.96-2.70 285.96-3.92L285.96-3.92L285.96-20.16Q285.96-21.42 285.60-22.18Q285.24-22.95 284.43-23.31Q283.62-23.67 282.27-23.67L282.27-23.67L282.13-23.67L282.13-24.12L290.14-24.12L290.14-19.62L290.23-19.62Q290.55-20.79 291.18-21.91Q291.81-23.04 293.09-23.80Q294.38-24.57 296.53-24.57L296.53-24.57Q298.78-24.57 299.98-23.69Q301.17-22.81 301.17-21.24L301.17-21.24Q301.17-19.89 300.20-18.99Q299.23-18.09 296.98-18.09L296.98-18.09Q296.98-20.88 296.04-21.94Q295.09-22.99 293.92-22.99L293.92-22.99Q292.62-22.99 291.85-22.07Q291.09-21.15 290.73-19.69Q290.37-18.22 290.28-16.67Q290.19-15.12 290.19-13.81L290.19-13.81L290.19-4.14Q290.19-2.79 290.55-1.98Q290.91-1.17 291.74-0.81Q292.57-0.45 293.88-0.45L293.88-0.45L294.46-0.45L294.46 0Z M315.28 0.45L315.28 0.45Q310.25 0.45 307.43-2.79Q304.62-6.03 304.62-11.88L304.62-11.88Q304.62-18.18 307.23-21.38Q309.84-24.57 314.61-24.57L314.61-24.57Q318.97-24.57 321.47-21.87Q323.97-19.17 323.97-13.81L323.97-13.81L323.97-12.73L308.98-12.73Q309.03-8.14 309.66-5.35Q310.29-2.56 311.71-1.28Q313.13 0 315.42 0L315.42 0Q317.13 0 318.46-0.63Q319.78-1.26 320.69-2.50Q321.58-3.73 321.90-5.54L321.90-5.54Q322.44-5.44 322.71-5.00Q322.98-4.54 322.98-4.05L322.98-4.05Q322.98-3.15 322.13-2.09Q321.27-1.03 319.58-0.29Q317.89 0.45 315.28 0.45ZM308.98-13.18L319.42-13.18Q319.42-17.14 318.93-19.53Q318.44-21.91 317.35-23.02Q316.27-24.12 314.52-24.12L314.52-24.12Q312.67-24.12 311.50-23.02Q310.33-21.91 309.75-19.53Q309.16-17.14 308.98-13.18L308.98-13.18Z M350.08 0.45L350.08 0.45Q345.05 0.45 342.23-2.79Q339.42-6.03 339.42-11.88L339.42-11.88Q339.42-18.18 342.03-21.38Q344.64-24.57 349.41-24.57L349.41-24.57Q353.77-24.57 356.27-21.87Q358.77-19.17 358.77-13.81L358.77-13.81L358.77-12.73L343.78-12.73Q343.83-8.14 344.46-5.35Q345.09-2.56 346.51-1.28Q347.93 0 350.22 0L350.22 0Q351.93 0 353.26-0.63Q354.58-1.26 355.49-2.50Q356.38-3.73 356.70-5.54L356.70-5.54Q357.24-5.44 357.51-5.00Q357.78-4.54 357.78-4.05L357.78-4.05Q357.78-3.15 356.93-2.09Q356.07-1.03 354.38-0.29Q352.69 0.45 350.08 0.45ZM343.78-13.18L354.23-13.18Q354.23-17.14 353.73-19.53Q353.24-21.91 352.15-23.02Q351.07-24.12 349.32-24.12L349.32-24.12Q347.47-24.12 346.31-23.02Q345.13-21.91 344.55-19.53Q343.96-17.14 343.78-13.18L343.78-13.18Z M370.95 0.45L370.95 0.45Q368.70 0.45 366.99-0.09Q365.28-0.63 364.31-1.69Q363.34-2.75 363.34-4.32L363.34-4.32Q363.34-5.54 363.84-6.21Q364.33-6.88 364.99-7.15Q365.64-7.42 366.18-7.42L366.18-7.42Q366.18-5.00 366.63-3.35Q367.08-1.71 368.16-0.85Q369.24 0 371.04 0L371.04 0Q373.43 0 374.82-1.24Q376.21-2.48 376.21-4.91L376.21-4.91Q376.21-6.48 375.68-7.40Q375.13-8.32 373.90-9.04Q372.66-9.76 370.45-10.71L370.45-10.71Q367.89-11.83 366.40-12.89Q364.92-13.95 364.29-15.21Q363.66-16.47 363.66-18.18L363.66-18.18Q363.66-21.24 365.82-22.88Q367.98-24.52 371.81-24.52L371.81-24.52Q373.96-24.52 375.52-23.96Q377.07-23.40 377.88-22.45Q378.69-21.51 378.69-20.38L378.69-20.38Q378.69-19.17 377.86-18.43Q377.02-17.68 375.45-17.68L375.45-17.68Q375.45-21.15 374.50-22.61Q373.56-24.07 371.58-24.07L371.58-24.07Q370.05-24.07 369.04-23.58Q368.02-23.09 367.51-22.14Q366.99-21.20 366.99-19.75L366.99-19.75Q366.99-18.18 367.62-17.23Q368.25-16.29 369.58-15.62Q370.90-14.94 372.88-14.08L372.88-14.08Q375.45-13.05 376.94-11.99Q378.42-10.93 379.03-9.65Q379.63-8.37 379.63-6.61L379.63-6.61Q379.63-3.10 377.30-1.33Q374.95 0.45 370.95 0.45Z M392.71 0.45L392.71 0.45Q389.29 0.45 387.74-1.10Q386.19-2.65 386.19-6.52L386.19-6.52L386.19-23.67L382.77-23.67L382.77-24.12Q384.39-24.12 385.58-24.41Q386.77-24.70 387.63-25.33L387.63-25.33Q388.53-25.96 389.09-27.04Q389.65-28.13 389.97-29.65L389.97-29.65L390.42-29.65L390.42-24.12L396.72-24.12L396.72-23.67L390.42-23.67L390.42-4.86Q390.42-2.52 391.32-1.35Q392.22-0.18 393.97-0.18L393.97-0.18Q394.60-0.18 395.28-0.32Q395.95-0.45 396.72-0.72L396.72-0.72L396.72-0.27Q396.13 0 394.96 0.22Q393.79 0.45 392.71 0.45Z M403.68 0.32L403.68 0.32Q402.46 0.32 401.86-0.45Q401.25-1.21 401.25-2.75L401.25-2.75Q401.25-4.27 401.86-5.04Q402.46-5.80 403.68-5.80L403.68-5.80Q404.89-5.80 405.50-5.04Q406.11-4.27 406.11-2.75L406.11-2.75Q406.11-1.21 405.50-0.45Q404.89 0.32 403.68 0.32Z"/></g>
      
      <g opacity="0.9">
        <line x1="384" y1="65.1" x2="476" y2="65.1"
          stroke="#C5A059" stroke-width="1.4" stroke-linecap="round"
          stroke-dasharray="92" stroke-dashoffset="0">
          <animate attributeName="stroke-dashoffset" from="92" to="0" dur="1.1s" begin="0s" fill="freeze" calcMode="spline" keySplines="0.22 1 0.36 1" keyTimes="0;1" values="92;0"/>
        </line>
        <path d="M430 61.7L433.4 65.1L430 68.5L426.6 65.1Z" fill="#8B1E1E" opacity="1"/>
      </g>
      <g fill="#5D4E42"><path transform="translate(276.44 110.94)" d="M9.92 0L3.52 0L3.52-0.22L3.81-0.22Q4.40-0.22 4.81-0.40Q5.21-0.57 5.41-0.92Q5.61-1.28 5.61-1.80L5.61-1.80L5.61-15.49L3.81-15.49Q2.71-15.49 2.05-15.22Q1.39-14.96 1.08-14.32Q0.77-13.68 0.70-12.58L0.70-12.58L0.66-11.86L0.44-11.86L0.57-15.71L12.91-15.71L13.05-11.86L12.83-11.86L12.78-12.58Q12.72-13.68 12.41-14.32Q12.10-14.96 11.45-15.22Q10.80-15.49 9.68-15.49L9.68-15.49L7.83-15.49L7.83-1.80Q7.83-1.28 8.03-0.92Q8.23-0.57 8.63-0.40Q9.04-0.22 9.64-0.22L9.64-0.22L9.92-0.22L9.92 0Z M20 0.22L20 0.22Q17.62 0.22 16.26-1.30Q14.90-2.82 14.90-5.92L14.90-5.92Q14.90-9.00 16.20-10.50Q17.51-12.01 20.07-12.01L20.07-12.01Q22.44-12.01 23.81-10.50Q25.17-9.00 25.17-5.92L25.17-5.92Q25.17-2.82 23.86-1.30Q22.55 0.22 20 0.22ZM20.04 0L20.04 0Q21.12 0 21.78-0.59Q22.44-1.19 22.74-2.49Q23.04-3.78 23.04-5.92L23.04-5.92Q23.04-8.03 22.74-9.33Q22.44-10.63 21.78-11.21Q21.12-11.79 20.02-11.79L20.02-11.79Q18.94-11.79 18.28-11.21Q17.62-10.63 17.33-9.33Q17.03-8.03 17.03-5.92L17.03-5.92Q17.03-3.78 17.33-2.49Q17.62-1.19 18.29-0.59Q18.97 0 20.04 0Z M38.26 0L32.02 0L32.02-0.22L32.30-0.22Q32.96-0.22 33.36-0.40Q33.75-0.57 33.93-0.95Q34.11-1.32 34.11-1.91L34.11-1.91L34.11-14.78Q34.11-15.40 33.93-15.77Q33.75-16.15 33.36-16.32Q32.96-16.50 32.30-16.50L32.30-16.50L32.02-16.50L32.02-16.72L36.17-16.72L36.17-2.02Q36.17-1.36 36.35-0.97Q36.53-0.57 36.92-0.40Q37.32-0.22 37.98-0.22L37.98-0.22L38.26-0.22L38.26 0Z M45.50 0L39.26 0L39.26-0.22L39.54-0.22Q40.20-0.22 40.60-0.40Q40.99-0.57 41.17-0.95Q41.35-1.32 41.35-1.91L41.35-1.91L41.35-9.86Q41.35-10.47 41.17-10.85Q40.99-11.22 40.60-11.40Q40.20-11.57 39.54-11.57L39.54-11.57L39.48-11.57L39.48-11.79L43.41-11.79L43.41-2.02Q43.41-1.36 43.59-0.97Q43.77-0.57 44.17-0.40Q44.58-0.22 45.22-0.22L45.22-0.22L45.50-0.22L45.50 0ZM42.27-13.90L42.27-13.90Q41.85-13.90 41.58-14.18Q41.30-14.45 41.30-15.14L41.30-15.14Q41.30-15.84 41.58-16.10Q41.85-16.37 42.27-16.37L42.27-16.37Q42.67-16.37 42.95-16.10Q43.24-15.84 43.24-15.14L43.24-15.14Q43.24-14.45 42.95-14.18Q42.67-13.90 42.27-13.90Z M51.25 0L47.46-10.41Q47.31-10.85 47.12-11.10Q46.94-11.35 46.69-11.46Q46.45-11.57 46.08-11.57L46.08-11.57L46.08-11.79L51.58-11.79L51.58-11.57L51.05-11.57Q50.35-11.57 50.01-11.38Q49.66-11.20 49.66-10.74L49.66-10.74Q49.66-10.54 49.73-10.29Q49.80-10.03 49.91-9.70L49.91-9.70L51.64-4.84Q51.93-4.05 52.14-3.44Q52.35-2.84 52.56-2.23Q52.77-1.63 53.03-0.79L53.03-0.79Q53.16-1.21 53.27-1.56Q53.38-1.91 53.51-2.29Q53.65-2.66 53.82-3.15L53.82-3.15L56.04-9.57Q56.15-9.92 56.22-10.19Q56.29-10.45 56.29-10.67L56.29-10.67Q56.29-11.18 55.90-11.37Q55.52-11.57 54.68-11.57L54.68-11.57L53.95-11.57L53.95-11.79L58.66-11.79L58.66-11.57L58.05-11.57Q57.63-11.57 57.33-11.42Q57.03-11.26 56.81-10.89Q56.59-10.52 56.37-9.86L56.37-9.86L52.99 0L51.25 0Z M65.35 0.22L65.35 0.22Q62.89 0.22 61.51-1.36Q60.14-2.95 60.14-5.81L60.14-5.81Q60.14-8.89 61.41-10.45Q62.69-12.01 65.02-12.01L65.02-12.01Q67.16-12.01 68.38-10.69Q69.60-9.37 69.60-6.75L69.60-6.75L69.60-6.23L62.27-6.23Q62.29-3.98 62.60-2.62Q62.91-1.25 63.60-0.63Q64.30 0 65.42 0L65.42 0Q66.25 0 66.90-0.31Q67.55-0.62 67.99-1.22Q68.43-1.83 68.59-2.71L68.59-2.71Q68.85-2.66 68.98-2.44Q69.11-2.22 69.11-1.98L69.11-1.98Q69.11-1.54 68.70-1.02Q68.28-0.51 67.45-0.14Q66.63 0.22 65.35 0.22ZM62.27-6.45L67.38-6.45Q67.38-8.38 67.13-9.55Q66.89-10.71 66.36-11.25Q65.84-11.79 64.98-11.79L64.98-11.79Q64.08-11.79 63.50-11.25Q62.93-10.71 62.65-9.55Q62.36-8.38 62.27-6.45L62.27-6.45Z M82.80 0L76.55 0L76.55-0.22L76.84-0.22Q77.50-0.22 77.90-0.40Q78.29-0.57 78.47-0.95Q78.64-1.32 78.64-1.91L78.64-1.91L78.64-9.86Q78.64-10.47 78.47-10.85Q78.29-11.22 77.90-11.40Q77.50-11.57 76.84-11.57L76.84-11.57L76.77-11.57L76.77-11.79L80.71-11.79L80.71-2.02Q80.71-1.36 80.89-0.97Q81.06-0.57 81.47-0.40Q81.88-0.22 82.52-0.22L82.52-0.22L82.80-0.22L82.80 0ZM79.57-13.90L79.57-13.90Q79.15-13.90 78.88-14.18Q78.60-14.45 78.60-15.14L78.60-15.14Q78.60-15.84 78.88-16.10Q79.15-16.37 79.57-16.37L79.57-16.37Q79.96-16.37 80.25-16.10Q80.54-15.84 80.54-15.14L80.54-15.14Q80.54-14.45 80.25-14.18Q79.96-13.90 79.57-13.90Z M88.00 0.22L88.00 0.22Q86.90 0.22 86.06-0.04Q85.22-0.31 84.75-0.82Q84.28-1.34 84.28-2.11L84.28-2.11Q84.28-2.71 84.52-3.04Q84.76-3.37 85.08-3.50Q85.40-3.63 85.66-3.63L85.66-3.63Q85.66-2.44 85.88-1.64Q86.10-0.84 86.63-0.42Q87.16 0 88.04 0L88.04 0Q89.21 0 89.89-0.60Q90.57-1.21 90.57-2.40L90.57-2.40Q90.57-3.17 90.31-3.62Q90.04-4.07 89.44-4.42Q88.83-4.77 87.75-5.24L87.75-5.24Q86.50-5.79 85.77-6.30Q85.05-6.82 84.74-7.44Q84.43-8.05 84.43-8.89L84.43-8.89Q84.43-10.38 85.49-11.19Q86.54-11.99 88.41-11.99L88.41-11.99Q89.47-11.99 90.23-11.71Q90.99-11.44 91.38-10.98Q91.78-10.52 91.78-9.97L91.78-9.97Q91.78-9.37 91.37-9.01Q90.97-8.65 90.20-8.65L90.20-8.65Q90.20-10.34 89.73-11.05Q89.27-11.77 88.30-11.77L88.30-11.77Q87.56-11.77 87.06-11.53Q86.57-11.29 86.31-10.82Q86.06-10.36 86.06-9.66L86.06-9.66Q86.06-8.89 86.37-8.43Q86.68-7.96 87.33-7.63Q87.97-7.30 88.94-6.89L88.94-6.89Q90.20-6.38 90.92-5.86Q91.65-5.35 91.94-4.72Q92.24-4.09 92.24-3.23L92.24-3.23Q92.24-1.52 91.10-0.65Q89.95 0.22 88.00 0.22Z M103.84 0.22L103.84 0.22Q102.17 0.22 101.41-0.54Q100.65-1.30 100.65-3.19L100.65-3.19L100.65-11.57L98.98-11.57L98.98-11.79Q99.77-11.79 100.35-11.93Q100.94-12.08 101.35-12.39L101.35-12.39Q101.79-12.69 102.07-13.22Q102.34-13.75 102.50-14.50L102.50-14.50L102.72-14.50L102.72-11.79L105.80-11.79L105.80-11.57L102.72-11.57L102.72-2.38Q102.72-1.23 103.16-0.66Q103.60-0.09 104.46-0.09L104.46-0.09Q104.76-0.09 105.09-0.15Q105.42-0.22 105.80-0.35L105.80-0.35L105.80-0.13Q105.51 0 104.94 0.11Q104.37 0.22 103.84 0.22Z M112.82 0.22L112.82 0.22Q110.44 0.22 109.08-1.30Q107.71-2.82 107.71-5.92L107.71-5.92Q107.71-9.00 109.02-10.50Q110.33-12.01 112.88-12.01L112.88-12.01Q115.26-12.01 116.62-10.50Q117.99-9.00 117.99-5.92L117.99-5.92Q117.99-2.82 116.68-1.30Q115.37 0.22 112.82 0.22ZM112.86 0L112.86 0Q113.94 0 114.60-0.59Q115.26-1.19 115.56-2.49Q115.85-3.78 115.85-5.92L115.85-5.92Q115.85-8.03 115.56-9.33Q115.26-10.63 114.60-11.21Q113.94-11.79 112.84-11.79L112.84-11.79Q111.76-11.79 111.10-11.21Q110.44-10.63 110.15-9.33Q109.85-8.03 109.85-5.92L109.85-5.92Q109.85-3.78 110.15-2.49Q110.44-1.19 111.11-0.59Q111.78 0 112.86 0Z M130.86 0L124.94 0L124.94-0.22L125.12-0.22Q125.78-0.22 126.18-0.40Q126.57-0.57 126.75-0.95Q126.92-1.32 126.92-1.91L126.92-1.91L126.92-14.78Q126.92-15.40 126.75-15.77Q126.57-16.15 126.18-16.32Q125.78-16.50 125.12-16.50L125.12-16.50L125.05-16.50L125.05-16.72L128.99-16.72L128.99-7.61Q128.99-7.17 128.99-6.74Q128.99-6.31 128.98-5.87Q128.97-5.43 128.95-4.99L128.95-4.99L132.69-9.17Q133.04-9.57 133.28-9.89Q133.52-10.21 133.65-10.46Q133.77-10.71 133.77-10.89L133.77-10.89Q133.77-11.26 133.28-11.42Q132.80-11.57 131.79-11.57L131.79-11.57L131.79-11.79L136.65-11.79L136.65-11.57Q136.10-11.57 135.67-11.46Q135.24-11.35 134.72-10.93Q134.21-10.52 133.35-9.57L133.35-9.57L131.63-7.63L135.02-2.42Q135.70-1.39 136.11-0.92Q136.52-0.46 136.80-0.34Q137.09-0.22 137.37-0.22L137.37-0.22L137.44-0.22L137.44 0L136.47 0Q135.81 0 135.32-0.09Q134.82-0.18 134.44-0.36Q134.05-0.55 133.73-0.87Q133.41-1.19 133.11-1.67L133.11-1.67L130.29-6.12L128.99-4.66L128.99-2.02Q128.99-1.36 129.17-0.97Q129.34-0.57 129.74-0.40Q130.14-0.22 130.80-0.22L130.80-0.22L130.86-0.22L130.86 0Z M144.04 0.22L144.04 0.22Q141.58 0.22 140.20-1.36Q138.83-2.95 138.83-5.81L138.83-5.81Q138.83-8.89 140.10-10.45Q141.38-12.01 143.71-12.01L143.71-12.01Q145.85-12.01 147.07-10.69Q148.29-9.37 148.29-6.75L148.29-6.75L148.29-6.23L140.96-6.23Q140.98-3.98 141.29-2.62Q141.60-1.25 142.29-0.63Q142.99 0 144.11 0L144.11 0Q144.94 0 145.59-0.31Q146.24-0.62 146.68-1.22Q147.12-1.83 147.28-2.71L147.28-2.71Q147.54-2.66 147.67-2.44Q147.80-2.22 147.80-1.98L147.80-1.98Q147.80-1.54 147.39-1.02Q146.97-0.51 146.14-0.14Q145.32 0.22 144.04 0.22ZM140.96-6.45L146.07-6.45Q146.07-8.38 145.82-9.55Q145.58-10.71 145.05-11.25Q144.53-11.79 143.67-11.79L143.67-11.79Q142.77-11.79 142.19-11.25Q141.62-10.71 141.34-9.55Q141.05-8.38 140.96-6.45L140.96-6.45Z M156.01 0.22L156.01 0.22Q153.55 0.22 152.17-1.36Q150.80-2.95 150.80-5.81L150.80-5.81Q150.80-8.89 152.07-10.45Q153.35-12.01 155.68-12.01L155.68-12.01Q157.82-12.01 159.04-10.69Q160.26-9.37 160.26-6.75L160.26-6.75L160.26-6.23L152.93-6.23Q152.95-3.98 153.26-2.62Q153.57-1.25 154.26-0.63Q154.96 0 156.08 0L156.08 0Q156.91 0 157.56-0.31Q158.21-0.62 158.65-1.22Q159.09-1.83 159.25-2.71L159.25-2.71Q159.51-2.66 159.64-2.44Q159.77-2.22 159.77-1.98L159.77-1.98Q159.77-1.54 159.36-1.02Q158.94-0.51 158.11-0.14Q157.29 0.22 156.01 0.22ZM152.93-6.45L158.04-6.45Q158.04-8.38 157.79-9.55Q157.55-10.71 157.02-11.25Q156.50-11.79 155.64-11.79L155.64-11.79Q154.74-11.79 154.16-11.25Q153.59-10.71 153.31-9.55Q153.02-8.38 152.93-6.45L152.93-6.45Z M167.87 5.28L161.95 5.28L161.95 5.06L162.13 5.06Q162.79 5.06 163.19 4.88Q163.58 4.71 163.76 4.33Q163.93 3.96 163.93 3.37L163.93 3.37L163.93-9.86Q163.93-10.47 163.76-10.85Q163.58-11.22 163.19-11.40Q162.79-11.57 162.13-11.57L162.13-11.57L161.84-11.57L161.84-11.79L165.96-11.79L165.96-8.73L166.00-8.73Q166.31-10.41 167.16-11.21Q168.00-12.01 169.48-12.01L169.48-12.01Q171.63-12.01 172.75-10.47Q173.86-8.93 173.86-5.92L173.86-5.92Q173.86-2.90 172.72-1.34Q171.59 0.22 169.43 0.22L169.43 0.22Q168.00 0.22 167.17-0.59Q166.33-1.41 166.02-3.10L166.02-3.10L165.98-3.10Q166.00-2.55 166.00-2.00Q166.00-1.45 166.00-0.90L166.00-0.90L166.00 3.26Q166.00 3.89 166.18 4.30Q166.35 4.71 166.75 4.88Q167.15 5.06 167.81 5.06L167.81 5.06L167.87 5.06L167.87 5.28ZM169.06-0.11L169.06-0.11Q170.03-0.11 170.61-0.69Q171.19-1.28 171.46-2.56Q171.72-3.85 171.72-5.94L171.72-5.94Q171.72-8.01 171.46-9.27Q171.19-10.54 170.60-11.11Q170.01-11.68 169.04-11.68L169.04-11.68Q167.98-11.68 167.31-11.03Q166.64-10.38 166.32-9.11Q166.00-7.83 166.00-5.92L166.00-5.92Q166.00-3.96 166.33-2.66Q166.66-1.36 167.34-0.74Q168.03-0.11 169.06-0.11Z M186.64 0.22L186.64 0.22Q184.71 0.22 183.75-0.80Q182.79-1.83 182.79-4.09L182.79-4.09L182.79-9.59Q182.79-10.34 182.63-10.77Q182.46-11.20 182.07-11.38Q181.67-11.57 180.99-11.57L180.99-11.57L180.92-11.57L180.92-11.79L184.86-11.79L184.86-3.98Q184.86-2.57 185.06-1.73Q185.26-0.88 185.73-0.48Q186.20-0.09 186.99-0.09L186.99-0.09Q187.98-0.09 188.63-0.60Q189.28-1.12 189.61-2.12Q189.94-3.12 189.94-4.53L189.94-4.53L189.94-9.59Q189.94-10.34 189.78-10.77Q189.61-11.20 189.22-11.38Q188.82-11.57 188.14-11.57L188.14-11.57L188.07-11.57L188.07-11.79L192.01-11.79L192.01-2.18Q192.01-1.43 192.17-1.00Q192.34-0.57 192.74-0.40Q193.13-0.22 193.81-0.22L193.81-0.22L193.88-0.22L193.88 0L190.10 0L190.10-3.01L190.05-3.01Q189.88-1.89 189.49-1.24Q189.11-0.59 188.61-0.29Q188.12 0.02 187.60 0.12Q187.08 0.22 186.64 0.22Z M200.90 5.28L194.98 5.28L194.98 5.06L195.16 5.06Q195.82 5.06 196.21 4.88Q196.61 4.71 196.79 4.33Q196.96 3.96 196.96 3.37L196.96 3.37L196.96-9.86Q196.96-10.47 196.79-10.85Q196.61-11.22 196.21-11.40Q195.82-11.57 195.16-11.57L195.16-11.57L194.87-11.57L194.87-11.79L198.99-11.79L198.99-8.73L199.03-8.73Q199.34-10.41 200.18-11.21Q201.03-12.01 202.51-12.01L202.51-12.01Q204.66-12.01 205.77-10.47Q206.88-8.93 206.88-5.92L206.88-5.92Q206.88-2.90 205.75-1.34Q204.62 0.22 202.46 0.22L202.46 0.22Q201.03 0.22 200.20-0.59Q199.36-1.41 199.05-3.10L199.05-3.10L199.01-3.10Q199.03-2.55 199.03-2.00Q199.03-1.45 199.03-0.90L199.03-0.90L199.03 3.26Q199.03 3.89 199.21 4.30Q199.38 4.71 199.78 4.88Q200.17 5.06 200.83 5.06L200.83 5.06L200.90 5.06L200.90 5.28ZM202.09-0.11L202.09-0.11Q203.06-0.11 203.64-0.69Q204.22-1.28 204.49-2.56Q204.75-3.85 204.75-5.94L204.75-5.94Q204.75-8.01 204.49-9.27Q204.22-10.54 203.63-11.11Q203.03-11.68 202.07-11.68L202.07-11.68Q201.01-11.68 200.34-11.03Q199.67-10.38 199.35-9.11Q199.03-7.83 199.03-5.92L199.03-5.92Q199.03-3.96 199.36-2.66Q199.69-1.36 200.37-0.74Q201.05-0.11 202.09-0.11Z M218.72 0.22L218.72 0.22Q217.05 0.22 216.29-0.54Q215.53-1.30 215.53-3.19L215.53-3.19L215.53-11.57L213.86-11.57L213.86-11.79Q214.65-11.79 215.24-11.93Q215.82-12.08 216.24-12.39L216.24-12.39Q216.68-12.69 216.95-13.22Q217.23-13.75 217.38-14.50L217.38-14.50L217.60-14.50L217.60-11.79L220.68-11.79L220.68-11.57L217.60-11.57L217.60-2.38Q217.60-1.23 218.04-0.66Q218.48-0.09 219.34-0.09L219.34-0.09Q219.65-0.09 219.98-0.15Q220.31-0.22 220.68-0.35L220.68-0.35L220.68-0.13Q220.40 0 219.82 0.11Q219.25 0.22 218.72 0.22Z M227.70 0L221.78 0L221.78-0.22L221.96-0.22Q222.64-0.22 223.04-0.41Q223.43-0.59 223.60-1.03Q223.76-1.47 223.76-2.24L223.76-2.24L223.76-14.52Q223.76-15.27 223.60-15.70Q223.43-16.13 223.06-16.31Q222.69-16.50 222.00-16.50L222.00-16.50L221.89-16.50L221.89-16.72L225.83-16.72L225.83-12.28Q225.83-11.86 225.83-11.43Q225.83-11 225.83-10.58Q225.83-10.16 225.81-9.72L225.81-9.72L225.85-9.72Q226.16-10.76 226.71-11.24Q227.26-11.73 227.91-11.87Q228.56-12.01 229.11-12.01L229.11-12.01Q231.07-12.01 232.02-10.99Q232.98-9.97 232.98-7.70L232.98-7.70L232.98-2.24Q232.98-1.47 233.14-1.03Q233.29-0.59 233.65-0.41Q234.02-0.22 234.63-0.22L234.63-0.22L234.74-0.22L234.74 0L230.91 0L230.91-8.45Q230.91-9.88 230.39-10.78Q229.86-11.68 228.56-11.68L228.56-11.68Q227.53-11.68 226.93-11.13Q226.34-10.58 226.08-9.71Q225.83-8.84 225.83-7.90L225.83-7.90L225.83-2.24Q225.83-1.47 226.00-1.03Q226.16-0.59 226.55-0.41Q226.93-0.22 227.59-0.22L227.59-0.22L227.70-0.22L227.70 0Z M241.98 0.22L241.98 0.22Q239.52 0.22 238.14-1.36Q236.77-2.95 236.77-5.81L236.77-5.81Q236.77-8.89 238.04-10.45Q239.32-12.01 241.65-12.01L241.65-12.01Q243.79-12.01 245.01-10.69Q246.23-9.37 246.23-6.75L246.23-6.75L246.23-6.23L238.90-6.23Q238.92-3.98 239.23-2.62Q239.54-1.25 240.23-0.63Q240.93 0 242.05 0L242.05 0Q242.88 0 243.53-0.31Q244.18-0.62 244.62-1.22Q245.06-1.83 245.22-2.71L245.22-2.71Q245.48-2.66 245.61-2.44Q245.74-2.22 245.74-1.98L245.74-1.98Q245.74-1.54 245.33-1.02Q244.91-0.51 244.08-0.14Q243.26 0.22 241.98 0.22ZM238.90-6.45L244.01-6.45Q244.01-8.38 243.76-9.55Q243.52-10.71 242.99-11.25Q242.47-11.79 241.61-11.79L241.61-11.79Q240.71-11.79 240.13-11.25Q239.56-10.71 239.28-9.55Q238.99-8.38 238.90-6.45L238.90-6.45Z M259.63 0L253.27 0L253.27-0.22L253.56-0.22Q254.06-0.22 254.47-0.33Q254.88-0.44 255.12-0.78Q255.36-1.12 255.36-1.80L255.36-1.80L255.36-11.57L253.36-11.57L253.36-11.79L255.36-11.79L255.36-12.45Q255.36-13.82 255.92-14.85Q256.48-15.88 257.65-16.47Q258.82-17.05 260.62-17.05L260.62-17.05Q261.65-17.05 262.42-16.92Q263.19-16.79 263.70-16.54Q264.21-16.30 264.47-15.97Q264.73-15.64 264.73-15.22L264.73-15.22Q264.73-14.59 264.18-14.18Q263.63-13.77 262.73-13.77L262.73-13.77Q262.73-14.61 262.51-15.29Q262.29-15.97 261.75-16.39Q261.21-16.81 260.25-16.81L260.25-16.81Q259.12-16.81 258.51-16.26Q257.89-15.71 257.66-14.73Q257.43-13.75 257.43-12.43L257.43-12.43L257.43-11.79L264.89-11.79L264.89-1.80Q264.89-1.12 265.13-0.78Q265.37-0.44 265.79-0.33Q266.21-0.22 266.69-0.22L266.69-0.22L266.98-0.22L266.98 0L260.95 0L260.95-0.22L261.02-0.22Q261.50-0.22 261.91-0.32Q262.31-0.42 262.57-0.74Q262.82-1.06 262.82-1.69L262.82-1.69L262.82-11.57L257.43-11.57L257.43-1.80Q257.43-1.12 257.67-0.78Q257.91-0.44 258.33-0.33Q258.75-0.22 259.23-0.22L259.23-0.22L259.63-0.22L259.63 0Z M272.55 5.28L272.55 5.28Q270.26 5.28 269.11 4.46Q267.97 3.63 267.97 2.27L267.97 2.27Q267.97 1.50 268.32 0.93Q268.67 0.37 269.40 0.04Q270.13-0.29 271.23-0.29L271.23-0.29Q270.37-0.55 269.94-1.14Q269.51-1.74 269.51-2.40L269.51-2.40Q269.51-3.04 269.94-3.62Q270.37-4.20 271.27-4.51L271.27-4.51Q270.21-4.88 269.59-5.75Q268.96-6.62 268.96-7.94L268.96-7.94Q268.96-9.83 269.99-10.92Q271.03-12.01 273.10-12.01L273.10-12.01Q273.87-12.01 274.48-11.82Q275.10-11.64 275.58-11.29L275.58-11.29Q275.91-11.64 276.46-12.06Q277.01-12.47 277.76-12.47L277.76-12.47Q278.40-12.47 278.72-12.13Q279.04-11.79 279.04-11.31L279.04-11.31Q279.04-10.87 278.76-10.58Q278.49-10.30 277.87-10.30L277.87-10.30Q277.87-11 277.64-11.33Q277.41-11.66 276.90-11.66L276.90-11.66Q276.62-11.66 276.37-11.56Q276.13-11.46 275.76-11.15L275.76-11.15Q276.40-10.63 276.73-9.81Q277.06-9.00 277.06-8.01L277.06-8.01Q277.06-6.38 276.08-5.30Q275.10-4.22 273.10-4.22L273.10-4.22Q272.68-4.22 272.29-4.28Q271.91-4.33 271.56-4.42L271.56-4.42Q271.03-4.20 270.83-3.89Q270.63-3.59 270.63-3.21L270.63-3.21Q270.63-2.64 271.04-2.38Q271.45-2.11 272.26-2.11L272.26-2.11L274.75-2.11Q276.70-2.11 277.54-1.19Q278.38-0.26 278.38 1.17L278.38 1.17Q278.38 3.06 276.96 4.17Q275.54 5.28 272.55 5.28ZM272.72 5.06L272.72 5.06Q274.81 5.06 275.80 4.30Q276.79 3.54 276.79 2.07L276.79 2.07Q276.79 0.92 276.19 0.38Q275.58-0.15 274.33-0.15L274.33-0.15L271.95-0.15Q271.36-0.15 270.82 0.07Q270.28 0.29 269.94 0.84Q269.60 1.39 269.60 2.35L269.60 2.35Q269.60 3.26 269.97 3.86Q270.35 4.47 271.04 4.76Q271.73 5.06 272.72 5.06ZM273.03-4.44L273.03-4.44Q273.76-4.44 274.18-4.82Q274.61-5.19 274.80-5.98Q274.99-6.78 274.99-8.01L274.99-8.01Q274.99-9.31 274.79-10.14Q274.59-10.98 274.16-11.38Q273.73-11.79 273.01-11.79L273.01-11.79Q272.30-11.79 271.86-11.36Q271.42-10.93 271.23-10.10Q271.03-9.26 271.03-7.99L271.03-7.99Q271.03-6.78 271.24-5.98Q271.45-5.19 271.89-4.82Q272.33-4.44 273.03-4.44Z M285.81 0L279.90 0L279.90-0.22L280.07-0.22Q280.75-0.22 281.15-0.41Q281.55-0.59 281.71-1.03Q281.88-1.47 281.88-2.24L281.88-2.24L281.88-14.52Q281.88-15.27 281.71-15.70Q281.55-16.13 281.17-16.31Q280.80-16.50 280.12-16.50L280.12-16.50L280.01-16.50L280.01-16.72L283.94-16.72L283.94-12.28Q283.94-11.86 283.94-11.43Q283.94-11 283.94-10.58Q283.94-10.16 283.92-9.72L283.92-9.72L283.97-9.72Q284.27-10.76 284.82-11.24Q285.37-11.73 286.02-11.87Q286.67-12.01 287.22-12.01L287.22-12.01Q289.18-12.01 290.14-10.99Q291.09-9.97 291.09-7.70L291.09-7.70L291.09-2.24Q291.09-1.47 291.25-1.03Q291.40-0.59 291.76-0.41Q292.13-0.22 292.74-0.22L292.74-0.22L292.85-0.22L292.85 0L289.03 0L289.03-8.45Q289.03-9.88 288.50-10.78Q287.97-11.68 286.67-11.68L286.67-11.68Q285.64-11.68 285.04-11.13Q284.45-10.58 284.20-9.71Q283.94-8.84 283.94-7.90L283.94-7.90L283.94-2.24Q283.94-1.47 284.11-1.03Q284.27-0.59 284.66-0.41Q285.04-0.22 285.70-0.22L285.70-0.22L285.81-0.22L285.81 0Z M298.95 0.22L298.95 0.22Q297.28 0.22 296.52-0.54Q295.76-1.30 295.76-3.19L295.76-3.19L295.76-11.57L294.09-11.57L294.09-11.79Q294.88-11.79 295.46-11.93Q296.05-12.08 296.46-12.39L296.46-12.39Q296.90-12.69 297.18-13.22Q297.45-13.75 297.61-14.50L297.61-14.50L297.83-14.50L297.83-11.79L300.91-11.79L300.91-11.57L297.83-11.57L297.83-2.38Q297.83-1.23 298.27-0.66Q298.71-0.09 299.57-0.09L299.57-0.09Q299.87-0.09 300.20-0.15Q300.53-0.22 300.91-0.35L300.91-0.35L300.91-0.13Q300.62 0 300.05 0.11Q299.48 0.22 298.95 0.22Z M304.36 0.15L304.36 0.15Q303.77 0.15 303.47-0.22Q303.18-0.59 303.18-1.34L303.18-1.34Q303.18-2.09 303.47-2.46Q303.77-2.84 304.36-2.84L304.36-2.84Q304.96-2.84 305.25-2.46Q305.55-2.09 305.55-1.34L305.55-1.34Q305.55-0.59 305.25-0.22Q304.96 0.15 304.36 0.15Z"/></g>
    </g>
  </g>

  <g fill="#5E4722" stroke="#5E4722" stroke-width="0.2" opacity="1"><animate attributeName="opacity" from="0" to="1" dur="1.2s" begin="0s" fill="freeze"/><path transform="translate(643.04 262)" d="M4.13 0.16L4.13 0.16Q3.34 0.16 2.72-0.01Q2.10-0.18 1.66-0.47Q1.22-0.77 0.99-1.17Q0.77-1.57 0.77-2.05L0.77-2.05Q0.77-2.42 0.90-2.66Q1.04-2.91 1.30-3.04Q1.55-3.17 1.92-3.17L1.92-3.17Q1.94-2.13 2.18-1.42Q2.43-0.70 2.94-0.35Q3.46 0 4.24 0L4.24 0Q5.26 0 5.90-0.60Q6.53-1.20 6.53-2.37L6.53-2.37Q6.53-3.09 6.26-3.54Q6-3.98 5.42-4.34Q4.83-4.70 3.89-5.14L3.89-5.14Q3.39-5.38 2.87-5.66Q2.35-5.94 1.91-6.33Q1.47-6.72 1.21-7.29Q0.94-7.86 0.94-8.64L0.94-8.64Q0.94-9.60 1.36-10.26Q1.78-10.91 2.54-11.25Q3.30-11.58 4.32-11.58L4.32-11.58Q5.26-11.58 5.96-11.33Q6.66-11.07 7.05-10.66Q7.44-10.24 7.44-9.74L7.44-9.74Q7.44-9.28 7.09-9.02Q6.74-8.75 6.18-8.75L6.18-8.75Q6.18-10.08 5.74-10.75Q5.31-11.42 4.30-11.42L4.30-11.42Q3.70-11.42 3.23-11.18Q2.77-10.93 2.52-10.44Q2.27-9.95 2.27-9.22L2.27-9.22Q2.27-8.43 2.56-7.95Q2.85-7.47 3.43-7.13Q4.02-6.78 4.90-6.37L4.90-6.37Q5.70-6 6.38-5.60Q7.06-5.20 7.47-4.59Q7.89-3.98 7.89-2.99L7.89-2.99Q7.89-2.02 7.45-1.31Q7.01-0.61 6.17-0.22Q5.33 0.16 4.13 0.16Z M14.58 0.16L14.58 0.16Q12.78 0.16 11.78-0.99Q10.78-2.14 10.78-4.22L10.78-4.22Q10.78-6.46 11.71-7.60Q12.64-8.74 14.34-8.74L14.34-8.74Q15.89-8.74 16.78-7.78Q17.66-6.82 17.66-4.91L17.66-4.91L17.66-4.53L12.34-4.53Q12.35-2.90 12.58-1.90Q12.80-0.91 13.30-0.46Q13.81 0 14.62 0L14.62 0Q15.23 0 15.70-0.22Q16.18-0.45 16.50-0.89Q16.82-1.33 16.93-1.97L16.93-1.97Q17.12-1.94 17.22-1.78Q17.31-1.62 17.31-1.44L17.31-1.44Q17.31-1.12 17.01-0.74Q16.70-0.37 16.10-0.10Q15.50 0.16 14.58 0.16ZM12.34-4.69L16.05-4.69Q16.05-6.10 15.87-6.94Q15.70-7.79 15.31-8.18Q14.93-8.58 14.30-8.58L14.30-8.58Q13.65-8.58 13.23-8.18Q12.82-7.79 12.61-6.94Q12.40-6.10 12.34-4.69L12.34-4.69Z M24.42 0L20.11 0L20.11-0.16L20.24-0.16Q20.74-0.16 21.02-0.30Q21.31-0.43 21.43-0.75Q21.55-1.07 21.55-1.63L21.55-1.63L21.55-6.98Q21.55-7.52 21.43-7.83Q21.31-8.14 21.04-8.28Q20.77-8.42 20.27-8.42L20.27-8.42L20.19-8.42L20.19-8.58L23.04-8.58L23.04-7.07L23.07-7.07Q23.30-7.82 23.70-8.18Q24.10-8.53 24.57-8.63Q25.04-8.74 25.44-8.74L25.44-8.74Q26.86-8.74 27.56-7.99Q28.26-7.25 28.26-5.60L28.26-5.60L28.26-1.63Q28.26-1.07 28.37-0.75Q28.48-0.43 28.74-0.30Q29.01-0.16 29.46-0.16L29.46-0.16L29.54-0.16L29.54 0L26.75 0L26.75-6.14Q26.75-7.18 26.37-7.84Q25.98-8.50 25.04-8.50L25.04-8.50Q24.29-8.50 23.86-8.10Q23.42-7.70 23.24-7.06Q23.06-6.43 23.06-5.74L23.06-5.74L23.06-1.63Q23.06-1.07 23.18-0.75Q23.30-0.43 23.58-0.30Q23.86-0.16 24.34-0.16L24.34-0.16L24.42-0.16L24.42 0Z M35.86 0.16L35.86 0.16Q34.06 0.16 33.06-0.99Q32.06-2.14 32.06-4.22L32.06-4.22Q32.06-6.46 32.99-7.60Q33.92-8.74 35.62-8.74L35.62-8.74Q37.17-8.74 38.06-7.78Q38.94-6.82 38.94-4.91L38.94-4.91L38.94-4.53L33.62-4.53Q33.63-2.90 33.86-1.90Q34.08-0.91 34.58-0.46Q35.09 0 35.90 0L35.90 0Q36.51 0 36.98-0.22Q37.46-0.45 37.78-0.89Q38.10-1.33 38.21-1.97L38.21-1.97Q38.40-1.94 38.50-1.78Q38.59-1.62 38.59-1.44L38.59-1.44Q38.59-1.12 38.29-0.74Q37.98-0.37 37.38-0.10Q36.78 0.16 35.86 0.16ZM33.62-4.69L37.33-4.69Q37.33-6.10 37.15-6.94Q36.98-7.79 36.59-8.18Q36.21-8.58 35.58-8.58L35.58-8.58Q34.93-8.58 34.51-8.18Q34.10-7.79 33.89-6.94Q33.68-6.10 33.62-4.69L33.62-4.69Z M45.50 0.16L45.50 0.16Q44.42 0.16 43.58-0.28Q42.75-0.72 42.29-1.71Q41.82-2.70 41.82-4.32L41.82-4.32Q41.82-5.97 42.30-6.94Q42.77-7.90 43.57-8.32Q44.37-8.74 45.38-8.74L45.38-8.74Q46.05-8.74 46.70-8.56Q47.34-8.38 47.76-8.02Q48.18-7.66 48.18-7.07L48.18-7.07Q48.18-6.72 48.01-6.50Q47.84-6.29 47.53-6.19Q47.22-6.10 46.75-6.10L46.75-6.10Q46.75-6.94 46.63-7.50Q46.51-8.05 46.21-8.31Q45.90-8.58 45.34-8.58L45.34-8.58Q44.77-8.58 44.32-8.22Q43.87-7.86 43.62-6.94Q43.38-6.02 43.38-4.30L43.38-4.30Q43.38-2.74 43.62-1.78Q43.86-0.83 44.38-0.42Q44.91 0 45.74 0L45.74 0Q46.27 0 46.70-0.18Q47.12-0.35 47.43-0.79Q47.74-1.23 47.92-2L47.92-2Q48.08-1.97 48.17-1.84Q48.26-1.71 48.26-1.49L48.26-1.49Q48.26-1.10 47.95-0.73Q47.65-0.35 47.04-0.10Q46.43 0.16 45.50 0.16Z M53.46 0.16L53.46 0.16Q52.24 0.16 51.53-0.47Q50.82-1.10 50.82-2.21L50.82-2.21Q50.82-3.44 51.72-4.05Q52.62-4.66 54.46-4.72L54.46-4.72L55.79-4.77L55.79-5.97Q55.79-6.86 55.70-7.44Q55.60-8.02 55.28-8.30Q54.96-8.58 54.30-8.58L54.30-8.58Q53.38-8.58 53.11-8Q52.85-7.42 52.85-6.19L52.85-6.19Q52.18-6.19 51.83-6.42Q51.49-6.64 51.49-7.15L51.49-7.15Q51.49-7.73 51.88-8.07Q52.27-8.42 52.93-8.58Q53.58-8.74 54.37-8.74L54.37-8.74Q55.84-8.74 56.57-8.11Q57.30-7.49 57.30-5.97L57.30-5.97L57.30-1.18Q57.30-0.80 57.39-0.58Q57.49-0.35 57.71-0.26Q57.94-0.16 58.29-0.16L58.29-0.16L58.34-0.16L58.34 0L55.92 0L55.92-1.68L55.89-1.68Q55.73-1.04 55.38-0.63Q55.02-0.22 54.54-0.03Q54.05 0.16 53.46 0.16ZM53.78-0.06L53.78-0.06Q54.37-0.06 54.82-0.37Q55.28-0.67 55.54-1.18Q55.79-1.70 55.79-2.29L55.79-2.29L55.79-4.59L54.77-4.54Q53.41-4.48 52.89-3.92Q52.37-3.36 52.37-2.03L52.37-2.03Q52.37-1.39 52.52-0.95Q52.67-0.51 52.99-0.29Q53.31-0.06 53.78-0.06Z M60.70 2.46L60.70 2.30Q61.20 2.14 61.58 1.92Q61.95 1.70 62.17 1.39Q62.38 1.09 62.38 0.69L62.38 0.69Q62.38 0.35 62.25 0.17Q62.11-0.02 61.92-0.12Q61.73-0.22 61.53-0.32Q61.33-0.42 61.19-0.59Q61.06-0.77 61.06-1.09L61.06-1.09Q61.06-1.57 61.35-1.82Q61.65-2.06 62.10-2.06L62.10-2.06Q62.59-2.06 62.96-1.72Q63.33-1.38 63.33-0.58L63.33-0.58Q63.33 0.35 62.71 1.21Q62.10 2.06 60.70 2.46L60.70 2.46Z M79.41 0L70.83 0L70.83-0.16L71.04-0.16Q71.47-0.16 71.77-0.29Q72.06-0.42 72.21-0.67Q72.35-0.93 72.35-1.31L72.35-1.31L72.35-10.18Q72.35-10.54 72.21-10.78Q72.06-11.02 71.77-11.14Q71.47-11.26 71.04-11.26L71.04-11.26L70.83-11.26L70.83-11.42L75.49-11.42L75.49-11.26L75.28-11.26Q74.85-11.26 74.55-11.14Q74.26-11.01 74.11-10.75Q73.97-10.50 73.97-10.11L73.97-10.11L73.97-0.16L76.93-0.16Q77.78-0.16 78.28-0.41Q78.78-0.66 79.02-1.26Q79.26-1.87 79.33-2.91L79.33-2.91L79.36-3.44L79.52-3.44L79.41 0Z M86.06 0.16L86.06 0.16Q84.27 0.16 83.27-0.99Q82.27-2.14 82.27-4.22L82.27-4.22Q82.27-6.46 83.20-7.60Q84.13-8.74 85.82-8.74L85.82-8.74Q87.38-8.74 88.26-7.78Q89.15-6.82 89.15-4.91L89.15-4.91L89.15-4.53L83.82-4.53Q83.84-2.90 84.06-1.90Q84.29-0.91 84.79-0.46Q85.30 0 86.11 0L86.11 0Q86.72 0 87.19-0.22Q87.66-0.45 87.98-0.89Q88.30-1.33 88.42-1.97L88.42-1.97Q88.61-1.94 88.70-1.78Q88.80-1.62 88.80-1.44L88.80-1.44Q88.80-1.12 88.50-0.74Q88.19-0.37 87.59-0.10Q86.99 0.16 86.06 0.16ZM83.82-4.69L87.54-4.69Q87.54-6.10 87.36-6.94Q87.18-7.79 86.80-8.18Q86.42-8.58 85.79-8.58L85.79-8.58Q85.14-8.58 84.72-8.18Q84.30-7.79 84.10-6.94Q83.89-6.10 83.82-4.69L83.82-4.69Z M94.99 0.16L94.99 0.16Q93.78 0.16 93.22-0.39Q92.67-0.94 92.67-2.32L92.67-2.32L92.67-8.42L91.46-8.42L91.46-8.58Q92.03-8.58 92.46-8.68Q92.88-8.78 93.18-9.01L93.18-9.01Q93.50-9.23 93.70-9.62Q93.90-10 94.02-10.54L94.02-10.54L94.18-10.54L94.18-8.58L96.42-8.58L96.42-8.42L94.18-8.42L94.18-1.73Q94.18-0.90 94.50-0.48Q94.82-0.06 95.44-0.06L95.44-0.06Q95.66-0.06 95.90-0.11Q96.14-0.16 96.42-0.26L96.42-0.26L96.42-0.10Q96.21 0 95.79 0.08Q95.38 0.16 94.99 0.16Z M101.82 0.16L101.82 0.16Q100.61 0.16 100.06-0.39Q99.50-0.94 99.50-2.32L99.50-2.32L99.50-8.42L98.29-8.42L98.29-8.58Q98.86-8.58 99.29-8.68Q99.71-8.78 100.02-9.01L100.02-9.01Q100.34-9.23 100.54-9.62Q100.74-10 100.85-10.54L100.85-10.54L101.01-10.54L101.01-8.58L103.25-8.58L103.25-8.42L101.01-8.42L101.01-1.73Q101.01-0.90 101.33-0.48Q101.65-0.06 102.27-0.06L102.27-0.06Q102.50-0.06 102.74-0.11Q102.98-0.16 103.25-0.26L103.25-0.26L103.25-0.10Q103.04 0 102.62 0.08Q102.21 0.16 101.82 0.16Z M109.49 0.16L109.49 0.16Q107.70 0.16 106.70-0.99Q105.70-2.14 105.70-4.22L105.70-4.22Q105.70-6.46 106.62-7.60Q107.55-8.74 109.25-8.74L109.25-8.74Q110.80-8.74 111.69-7.78Q112.58-6.82 112.58-4.91L112.58-4.91L112.58-4.53L107.25-4.53Q107.26-2.90 107.49-1.90Q107.71-0.91 108.22-0.46Q108.72 0 109.54 0L109.54 0Q110.14 0 110.62-0.22Q111.09-0.45 111.41-0.89Q111.73-1.33 111.84-1.97L111.84-1.97Q112.03-1.94 112.13-1.78Q112.22-1.62 112.22-1.44L112.22-1.44Q112.22-1.12 111.92-0.74Q111.62-0.37 111.02-0.10Q110.42 0.16 109.49 0.16ZM107.25-4.69L110.96-4.69Q110.96-6.10 110.78-6.94Q110.61-7.79 110.22-8.18Q109.84-8.58 109.22-8.58L109.22-8.58Q108.56-8.58 108.14-8.18Q107.73-7.79 107.52-6.94Q107.31-6.10 107.25-4.69L107.25-4.69Z M119.49 0L114.94 0L114.94-0.16L115.15-0.16Q115.63-0.16 115.92-0.29Q116.21-0.42 116.34-0.69Q116.46-0.96 116.46-1.39L116.46-1.39L116.46-7.17Q116.46-7.62 116.34-7.89Q116.21-8.16 115.92-8.29Q115.63-8.42 115.15-8.42L115.15-8.42L115.10-8.42L115.10-8.58L117.95-8.58L117.95-6.98L117.98-6.98Q118.10-7.39 118.32-7.79Q118.54-8.19 119-8.46Q119.46-8.74 120.22-8.74L120.22-8.74Q121.02-8.74 121.45-8.42Q121.87-8.11 121.87-7.55L121.87-7.55Q121.87-7.07 121.53-6.75Q121.18-6.43 120.38-6.43L120.38-6.43Q120.38-7.42 120.05-7.80Q119.71-8.18 119.30-8.18L119.30-8.18Q118.83-8.18 118.56-7.85Q118.29-7.52 118.16-7Q118.03-6.48 118-5.93Q117.97-5.38 117.97-4.91L117.97-4.91L117.97-1.47Q117.97-0.99 118.10-0.70Q118.22-0.42 118.52-0.29Q118.82-0.16 119.28-0.16L119.28-0.16L119.49-0.16L119.49 0Z M126.74 0.16L126.74 0.16Q125.94 0.16 125.33-0.03Q124.72-0.22 124.38-0.60Q124.03-0.98 124.03-1.54L124.03-1.54Q124.03-1.97 124.21-2.21Q124.38-2.45 124.62-2.54Q124.85-2.64 125.04-2.64L125.04-2.64Q125.04-1.78 125.20-1.19Q125.36-0.61 125.74-0.30Q126.13 0 126.77 0L126.77 0Q127.62 0 128.11-0.44Q128.61-0.88 128.61-1.74L128.61-1.74Q128.61-2.30 128.42-2.63Q128.22-2.96 127.78-3.22Q127.34-3.47 126.56-3.81L126.56-3.81Q125.65-4.21 125.12-4.58Q124.59-4.96 124.37-5.41Q124.14-5.86 124.14-6.46L124.14-6.46Q124.14-7.55 124.91-8.14Q125.68-8.72 127.04-8.72L127.04-8.72Q127.81-8.72 128.36-8.52Q128.91-8.32 129.20-7.98Q129.49-7.65 129.49-7.25L129.49-7.25Q129.49-6.82 129.19-6.55Q128.90-6.29 128.34-6.29L128.34-6.29Q128.34-7.52 128-8.04Q127.66-8.56 126.96-8.56L126.96-8.56Q126.42-8.56 126.06-8.38Q125.70-8.21 125.51-7.87Q125.33-7.54 125.33-7.02L125.33-7.02Q125.33-6.46 125.55-6.13Q125.78-5.79 126.25-5.55Q126.72-5.31 127.42-5.01L127.42-5.01Q128.34-4.64 128.86-4.26Q129.39-3.89 129.61-3.43Q129.82-2.98 129.82-2.35L129.82-2.35Q129.82-1.10 128.99-0.47Q128.16 0.16 126.74 0.16Z M140.26 0.18L140.26 0.18Q139.46 0.18 138.92-0.03Q138.38-0.24 138.11-0.56Q137.84-0.88 137.84-1.23L137.84-1.23Q137.84-1.50 138.01-1.70Q138.18-1.90 138.48-1.97L138.48-1.97Q138.64-0.90 139.12-0.44Q139.60 0.02 140.38 0.02L140.38 0.02Q141.28 0.02 141.79-0.54Q142.30-1.09 142.55-2.30Q142.80-3.50 142.85-5.49L142.85-5.49Q142.62-5.22 142.28-4.96Q141.94-4.70 141.47-4.55Q141.01-4.40 140.40-4.40L140.40-4.40Q139.52-4.40 138.83-4.79Q138.14-5.18 137.74-5.94Q137.34-6.69 137.34-7.76L137.34-7.76Q137.34-8.91 137.75-9.78Q138.16-10.64 138.93-11.11Q139.70-11.58 140.77-11.58L140.77-11.58Q141.86-11.58 142.70-11.02Q143.54-10.46 144.02-9.28Q144.50-8.10 144.50-6.21L144.50-6.21Q144.50-4.94 144.30-3.80Q144.10-2.66 143.62-1.76Q143.14-0.86 142.32-0.34Q141.50 0.18 140.26 0.18ZM140.77-4.67L140.77-4.67Q141.33-4.67 141.74-4.86Q142.16-5.06 142.44-5.32Q142.72-5.58 142.86-5.78L142.86-5.78Q142.85-7.30 142.74-8.38Q142.62-9.46 142.38-10.13Q142.14-10.80 141.76-11.11Q141.38-11.42 140.80-11.42L140.80-11.42Q140.19-11.42 139.78-11.06Q139.38-10.70 139.18-9.91Q138.99-9.12 138.99-7.81L138.99-7.81Q138.99-6.69 139.18-5.99Q139.36-5.30 139.75-4.98Q140.14-4.67 140.77-4.67Z M151.36 0.16L151.36 0.16Q150.30 0.16 149.46-0.44Q148.62-1.04 148.14-2.34Q147.65-3.65 147.65-5.76L147.65-5.76Q147.65-6.90 147.90-7.94Q148.16-8.99 148.67-9.82Q149.18-10.64 149.98-11.11Q150.77-11.58 151.82-11.58L151.82-11.58Q152.72-11.58 153.30-11.34Q153.89-11.10 154.18-10.72Q154.46-10.34 154.46-9.90L154.46-9.90Q154.46-9.46 154.15-9.20Q153.84-8.94 153.23-8.94L153.23-8.94Q153.23-9.78 153.10-10.32Q152.96-10.86 152.65-11.14Q152.34-11.42 151.82-11.42L151.82-11.42Q151.02-11.42 150.48-10.86Q149.94-10.30 149.64-9.13Q149.34-7.95 149.28-6.08L149.28-6.08Q149.55-6.32 149.89-6.51Q150.22-6.70 150.65-6.82Q151.07-6.94 151.58-6.94L151.58-6.94Q153.06-6.94 153.93-6.07Q154.80-5.20 154.80-3.66L154.80-3.66Q154.80-2.54 154.39-1.68Q153.98-0.82 153.22-0.33Q152.45 0.16 151.36 0.16ZM151.41 0L151.41 0Q152.05 0 152.43-0.35Q152.82-0.70 152.99-1.47Q153.17-2.24 153.17-3.50L153.17-3.50Q153.17-4.67 152.98-5.38Q152.78-6.08 152.37-6.41Q151.95-6.74 151.26-6.74L151.26-6.74Q150.85-6.74 150.48-6.60Q150.11-6.46 149.81-6.26Q149.50-6.06 149.28-5.86L149.28-5.86Q149.30-4.27 149.42-3.16Q149.54-2.05 149.79-1.34Q150.05-0.64 150.45-0.32Q150.85 0 151.41 0Z M158.82 0.11L158.82 0.11Q158.38 0.11 158.17-0.16Q157.95-0.43 157.95-0.98L157.95-0.98Q157.95-1.52 158.17-1.79Q158.38-2.06 158.82-2.06L158.82-2.06Q159.25-2.06 159.46-1.79Q159.68-1.52 159.68-0.98L159.68-0.98Q159.68-0.43 159.46-0.16Q159.25 0.11 158.82 0.11Z M166.00 0.18L166.00 0.18Q164.94 0.18 164.30-0.07Q163.65-0.32 163.35-0.71Q163.06-1.10 163.06-1.50L163.06-1.50Q163.06-1.87 163.30-2.14Q163.55-2.40 164.06-2.40L164.06-2.40Q164.06-1.57 164.30-1.03Q164.54-0.50 165.01-0.25Q165.47 0 166.13 0L166.13 0Q166.83 0 167.28-0.35Q167.73-0.70 167.94-1.46Q168.14-2.21 168.14-3.39L168.14-3.39Q168.14-4.58 167.90-5.28Q167.66-5.98 167.15-6.30Q166.64-6.62 165.81-6.62L165.81-6.62Q165.20-6.62 164.78-6.46Q164.35-6.30 164.06-6.07Q163.78-5.84 163.55-5.62L163.55-5.62L163.36-5.68L163.86-11.41L169.20-11.41L169.28-8.99L169.12-8.99L169.10-9.17Q169.07-9.54 168.95-9.74Q168.83-9.95 168.60-10.04Q168.37-10.13 167.98-10.13L167.98-10.13L163.90-10.13L163.52-5.79Q164.00-6.34 164.68-6.60Q165.36-6.86 166.16-6.86L166.16-6.86Q167.14-6.86 167.96-6.51Q168.78-6.16 169.30-5.41Q169.81-4.66 169.81-3.46L169.81-3.46Q169.81-2.69 169.59-2.02Q169.38-1.36 168.92-0.87Q168.46-0.38 167.74-0.10Q167.01 0.18 166.00 0.18Z"/></g>
</svg>