<svg xmlns="http://www.w3.org/2000/svg" width="860" height="300" viewBox="0 0 860 300" role="img" aria-label="Possunt quia posse videntur.. They can because they believe they can. (Virgil, Aeneid 5.231)">
  <defs>
    <linearGradient id="parch" x1="0" y1="0" x2="0" y2="1">
      <stop offset="0" stop-color="#FEFCF8"/>
      <stop offset="1" stop-color="#F1ECE2"/>
    </linearGradient>
    <radialGradient id="glow" cx="0.5" cy="0.14" r="0.9">
      <stop offset="0" stop-color="#C5A059" stop-opacity="0.14"/>
      <stop offset="0.5" stop-color="#C5A059" stop-opacity="0"/>
    </radialGradient>
    <filter id="grain"><feTurbulence type="fractalNoise" baseFrequency="0.9" numOctaves="2" stitchTiles="stitch" result="n"/><feColorMatrix in="n" type="matrix" values="0 0 0 0 0  0 0 0 0 0  0 0 0 0 0  0 0 0 0.035 0"/></filter>
    <filter id="lift" x="-8%" y="-8%" width="116%" height="124%"><feDropShadow dx="0" dy="3" stdDeviation="7" flood-color="#3A2A18" flood-opacity="0.20"/></filter>
  </defs>

  <g filter="url(#lift)">
    <rect x="6" y="5" width="848" height="286" rx="15" fill="url(#parch)" stroke="#EAE3D6" stroke-width="1"/>
  </g>
  <rect x="6" y="5" width="848" height="286" rx="15" fill="url(#glow)"/>
  <rect x="6" y="5" width="848" height="286" rx="15" fill="#000" filter="url(#grain)" opacity="0.5" clip-path="inset(0 round 15px)"/>
  <rect x="16" y="16" width="828" height="264" rx="9" fill="none" stroke="#C5A059" stroke-width="1" opacity="0.55"/>
  <path d="M26 23.4L28.6 26L26 28.6L23.4 26Z" fill="#C5A059" opacity="0.7"/><path d="M834 23.4L836.6 26L834 28.6L831.4 26Z" fill="#C5A059" opacity="0.7"/><path d="M26 271.4L28.6 274L26 276.6L23.4 274Z" fill="#C5A059" opacity="0.7"/><path d="M834 271.4L836.6 274L834 276.6L831.4 274Z" fill="#C5A059" opacity="0.7"/>

  <g fill="#816A3A" opacity="0.92"><path transform="translate(46 60)" d="M3.48 0.14L3.48 0.14Q2.82 0.14 2.29-0.01Q1.77-0.15 1.40-0.40Q1.03-0.65 0.84-0.99Q0.65-1.32 0.65-1.73L0.65-1.73Q0.65-2.04 0.76-2.25Q0.88-2.46 1.09-2.56Q1.31-2.67 1.62-2.67L1.62-2.67Q1.63-1.80 1.84-1.19Q2.05-0.59 2.48-0.30Q2.92 0 3.58 0L3.58 0Q4.44 0 4.97-0.51Q5.51-1.01 5.51-2.00L5.51-2.00Q5.51-2.61 5.29-2.98Q5.06-3.36 4.57-3.67Q4.08-3.97 3.28-4.33L3.28-4.33Q2.86-4.54 2.42-4.77Q1.98-5.01 1.61-5.34Q1.24-5.67 1.02-6.15Q0.80-6.63 0.80-7.29L0.80-7.29Q0.80-8.10 1.15-8.65Q1.50-9.21 2.14-9.49Q2.78-9.77 3.65-9.77L3.65-9.77Q4.44-9.77 5.03-9.56Q5.62-9.34 5.95-8.99Q6.28-8.64 6.28-8.22L6.28-8.22Q6.28-7.83 5.98-7.61Q5.68-7.38 5.21-7.38L5.21-7.38Q5.21-8.51 4.85-9.07Q4.48-9.64 3.63-9.64L3.63-9.64Q3.12-9.64 2.73-9.43Q2.34-9.22 2.13-8.81Q1.92-8.40 1.92-7.78L1.92-7.78Q1.92-7.11 2.16-6.71Q2.40-6.30 2.90-6.01Q3.39-5.72 4.13-5.37L4.13-5.37Q4.81-5.06 5.38-4.72Q5.95-4.39 6.30-3.87Q6.66-3.36 6.66-2.52L6.66-2.52Q6.66-1.70 6.28-1.11Q5.91-0.51 5.20-0.19Q4.50 0.14 3.48 0.14Z M18.49 0L11.26 0L11.26-0.14L11.43-0.14Q11.80-0.14 12.05-0.24Q12.30-0.35 12.42-0.57Q12.54-0.78 12.54-1.11L12.54-1.11L12.54-8.59Q12.54-8.90 12.42-9.10Q12.30-9.30 12.05-9.40Q11.80-9.50 11.43-9.50L11.43-9.50L11.26-9.50L11.26-9.64L18.05-9.64L18.13-7.28L17.99-7.28L17.97-7.72Q17.93-8.40 17.74-8.79Q17.55-9.18 17.15-9.34Q16.75-9.50 16.06-9.50L16.06-9.50L13.90-9.50L13.90-5.12L17.29-5.12L17.29-4.98L13.90-4.98L13.90-0.14L16.40-0.14Q17.13-0.14 17.56-0.30Q17.99-0.46 18.19-0.85Q18.38-1.24 18.43-1.92L18.43-1.92L18.45-2.36L18.59-2.36L18.49 0Z M26.19 0L23.07 0L23.07-0.14L23.46-0.14Q23.82-0.14 24.07-0.24Q24.32-0.35 24.44-0.57Q24.57-0.78 24.57-1.11L24.57-1.11L24.57-8.59Q24.57-8.90 24.44-9.10Q24.32-9.30 24.07-9.40Q23.82-9.50 23.46-9.50L23.46-9.50L23.07-9.50L23.07-9.64L25.70-9.64L30.84-1.93L30.84-8.53Q30.84-8.86 30.72-9.07Q30.60-9.29 30.36-9.40Q30.11-9.50 29.74-9.50L29.74-9.50L29.36-9.50L29.36-9.64L32.48-9.64L32.48-9.50L32.09-9.50Q31.72-9.50 31.48-9.40Q31.23-9.29 31.11-9.07Q30.98-8.86 30.98-8.53L30.98-8.53L30.98 0L30.57 0L24.70-8.80L24.70-1.11Q24.70-0.78 24.82-0.57Q24.94-0.35 25.19-0.24Q25.44-0.14 25.81-0.14L25.81-0.14L26.19-0.14L26.19 0Z M42.34 0L38.42 0L38.42-0.14L38.59-0.14Q38.96-0.14 39.20-0.24Q39.45-0.35 39.58-0.57Q39.70-0.78 39.70-1.11L39.70-1.11L39.70-9.50L38.59-9.50Q37.92-9.50 37.51-9.34Q37.11-9.18 36.92-8.79Q36.73-8.40 36.69-7.72L36.69-7.72L36.66-7.28L36.53-7.28L36.61-9.64L44.18-9.64L44.26-7.28L44.13-7.28L44.10-7.72Q44.06-8.40 43.87-8.79Q43.68-9.18 43.28-9.34Q42.88-9.50 42.20-9.50L42.20-9.50L41.06-9.50L41.06-1.11Q41.06-0.78 41.18-0.57Q41.30-0.35 41.55-0.24Q41.80-0.14 42.17-0.14L42.17-0.14L42.34-0.14L42.34 0Z M55.68 0L48.44 0L48.44-0.14L48.62-0.14Q48.98-0.14 49.23-0.24Q49.48-0.35 49.60-0.57Q49.73-0.78 49.73-1.11L49.73-1.11L49.73-8.59Q49.73-8.90 49.60-9.10Q49.48-9.30 49.23-9.40Q48.98-9.50 48.62-9.50L48.62-9.50L48.44-9.50L48.44-9.64L55.23-9.64L55.32-7.28L55.18-7.28L55.15-7.72Q55.11-8.40 54.92-8.79Q54.73-9.18 54.34-9.34Q53.94-9.50 53.25-9.50L53.25-9.50L51.09-9.50L51.09-5.12L54.48-5.12L54.48-4.98L51.09-4.98L51.09-0.14L53.59-0.14Q54.32-0.14 54.75-0.30Q55.18-0.46 55.38-0.85Q55.57-1.24 55.61-1.92L55.61-1.92L55.64-2.36L55.77-2.36L55.68 0Z M63.37 0L60.25 0L60.25-0.14L60.65-0.14Q61.01-0.14 61.26-0.24Q61.51-0.35 61.63-0.57Q61.75-0.78 61.75-1.11L61.75-1.11L61.75-8.59Q61.75-8.90 61.63-9.10Q61.51-9.30 61.26-9.40Q61.01-9.50 60.65-9.50L60.65-9.50L60.25-9.50L60.25-9.64L62.89-9.64L68.03-1.93L68.03-8.53Q68.03-8.86 67.91-9.07Q67.79-9.29 67.54-9.40Q67.30-9.50 66.92-9.50L66.92-9.50L66.55-9.50L66.55-9.64L69.66-9.64L69.66-9.50L69.27-9.50Q68.91-9.50 68.66-9.40Q68.42-9.29 68.29-9.07Q68.16-8.86 68.16-8.53L68.16-8.53L68.16 0L67.76 0L61.89-8.80L61.89-1.11Q61.89-0.78 62.01-0.57Q62.13-0.35 62.38-0.24Q62.63-0.14 62.99-0.14L62.99-0.14L63.37-0.14L63.37 0Z M79.53 0L75.60 0L75.60-0.14L75.78-0.14Q76.14-0.14 76.39-0.24Q76.64-0.35 76.76-0.57Q76.88-0.78 76.88-1.11L76.88-1.11L76.88-9.50L75.78-9.50Q75.10-9.50 74.70-9.34Q74.29-9.18 74.10-8.79Q73.91-8.40 73.87-7.72L73.87-7.72L73.85-7.28L73.71-7.28L73.79-9.64L81.37-9.64L81.45-7.28L81.31-7.28L81.29-7.72Q81.24-8.40 81.06-8.79Q80.87-9.18 80.47-9.34Q80.07-9.50 79.38-9.50L79.38-9.50L78.25-9.50L78.25-1.11Q78.25-0.78 78.37-0.57Q78.49-0.35 78.74-0.24Q78.99-0.14 79.35-0.14L79.35-0.14L79.53-0.14L79.53 0Z M89.56 0L85.63 0L85.63-0.14L85.81-0.14Q86.17-0.14 86.42-0.24Q86.67-0.35 86.79-0.57Q86.91-0.78 86.91-1.11L86.91-1.11L86.91-8.59Q86.91-8.90 86.79-9.10Q86.67-9.30 86.42-9.40Q86.17-9.50 85.81-9.50L85.81-9.50L85.63-9.50L85.63-9.64L89.56-9.64L89.56-9.50L89.38-9.50Q89.02-9.50 88.77-9.40Q88.52-9.29 88.40-9.07Q88.28-8.86 88.28-8.53L88.28-8.53L88.28-1.11Q88.28-0.78 88.40-0.57Q88.52-0.35 88.77-0.24Q89.02-0.14 89.38-0.14L89.38-0.14L89.56-0.14L89.56 0Z M96.77 0L93.47 0L93.47-0.14L93.86-0.14Q94.16-0.14 94.36-0.23Q94.57-0.32 94.71-0.55Q94.86-0.78 95.00-1.19L95.00-1.19L97.94-9.64L98.63-9.64L102.02-0.85Q102.13-0.58 102.23-0.43Q102.34-0.27 102.48-0.20Q102.62-0.14 102.81-0.14L102.81-0.14L102.99-0.14L102.99 0L99.28 0L99.28-0.14L99.59-0.14Q100.10-0.14 100.33-0.26Q100.56-0.38 100.56-0.69L100.56-0.69Q100.56-0.77 100.55-0.86Q100.53-0.94 100.51-1.05Q100.49-1.16 100.44-1.28L100.44-1.28L99.61-3.50L95.96-3.50L95.21-1.38Q95.17-1.27 95.15-1.16Q95.12-1.05 95.11-0.97Q95.09-0.88 95.09-0.80L95.09-0.80Q95.09-0.43 95.42-0.28Q95.74-0.14 96.46-0.14L96.46-0.14L96.77-0.14L96.77 0ZM97.00-6.49L96.00-3.63L99.56-3.63L98.57-6.26Q98.40-6.72 98.25-7.14Q98.10-7.56 97.97-7.94Q97.85-8.33 97.74-8.69L97.74-8.69Q97.64-8.40 97.56-8.15Q97.48-7.90 97.40-7.65Q97.32-7.41 97.22-7.13Q97.12-6.86 97.00-6.49L97.00-6.49Z M123.91 0L119.78 0L119.78-0.14L119.95-0.14Q120.32-0.14 120.57-0.24Q120.82-0.35 120.94-0.57Q121.06-0.78 121.06-1.11L121.06-1.11L121.06-8.59Q121.06-8.90 120.94-9.10Q120.82-9.30 120.57-9.40Q120.32-9.50 119.95-9.50L119.95-9.50L119.78-9.50L119.78-9.64L123.91-9.64Q125.30-9.64 126.28-9.08Q127.27-8.52 127.79-7.45Q128.31-6.37 128.31-4.83L128.31-4.83Q128.31-3.36 127.82-2.27Q127.32-1.19 126.35-0.59Q125.38 0 123.91 0L123.91 0ZM122.42-0.14L123.60-0.14Q124.73-0.14 125.44-0.62Q126.15-1.11 126.48-2.15Q126.81-3.19 126.81-4.83L126.81-4.83Q126.81-6.47 126.48-7.50Q126.15-8.53 125.44-9.02Q124.73-9.50 123.61-9.50L123.61-9.50L122.42-9.50L122.42-0.14Z M136.92 0L132.99 0L132.99-0.14L133.17-0.14Q133.53-0.14 133.78-0.24Q134.03-0.35 134.15-0.57Q134.27-0.78 134.27-1.11L134.27-1.11L134.27-8.59Q134.27-8.90 134.15-9.10Q134.03-9.30 133.78-9.40Q133.53-9.50 133.17-9.50L133.17-9.50L132.99-9.50L132.99-9.64L136.92-9.64L136.92-9.50L136.74-9.50Q136.38-9.50 136.13-9.40Q135.88-9.29 135.76-9.07Q135.64-8.86 135.64-8.53L135.64-8.53L135.64-1.11Q135.64-0.78 135.76-0.57Q135.88-0.35 136.13-0.24Q136.38-0.14 136.74-0.14L136.74-0.14L136.92-0.14L136.92 0Z M148.58 0L141.35 0L141.35-0.14L141.52-0.14Q141.89-0.14 142.14-0.24Q142.39-0.35 142.51-0.57Q142.63-0.78 142.63-1.11L142.63-1.11L142.63-8.59Q142.63-8.90 142.51-9.10Q142.39-9.30 142.14-9.40Q141.89-9.50 141.52-9.50L141.52-9.50L141.35-9.50L141.35-9.64L148.14-9.64L148.22-7.28L148.08-7.28L148.06-7.72Q148.01-8.40 147.83-8.79Q147.64-9.18 147.24-9.34Q146.84-9.50 146.15-9.50L146.15-9.50L143.99-9.50L143.99-5.12L147.38-5.12L147.38-4.98L143.99-4.98L143.99-0.14L146.49-0.14Q147.22-0.14 147.65-0.30Q148.08-0.46 148.28-0.85Q148.47-1.24 148.51-1.92L148.51-1.92L148.54-2.36L148.68-2.36L148.58 0Z M157.08 0L153.16 0L153.16-0.14L153.33-0.14Q153.70-0.14 153.95-0.24Q154.20-0.35 154.32-0.57Q154.44-0.78 154.44-1.11L154.44-1.11L154.44-8.59Q154.44-8.90 154.32-9.10Q154.20-9.30 153.95-9.40Q153.70-9.50 153.33-9.50L153.33-9.50L153.16-9.50L153.16-9.64L157.08-9.64L157.08-9.50L156.91-9.50Q156.54-9.50 156.30-9.40Q156.05-9.29 155.92-9.07Q155.80-8.86 155.80-8.53L155.80-8.53L155.80-1.11Q155.80-0.78 155.92-0.57Q156.05-0.35 156.30-0.24Q156.54-0.14 156.91-0.14L156.91-0.14L157.08-0.14L157.08 0Z"/></g>
  <g fill="#776B61" opacity="0.7"><path transform="translate(764.83 60)" d="M5.96 0L1.20 0L1.20-0.13L2.04-0.13Q2.38-0.13 2.61-0.23Q2.84-0.33 2.95-0.53Q3.06-0.73 3.06-1.03L3.06-1.03L3.06-8.15Q2.55-7.51 2.25-7.20Q1.95-6.89 1.77-6.79Q1.59-6.69 1.41-6.69L1.41-6.69Q1.11-6.69 0.97-6.88Q0.83-7.06 0.83-7.36L0.83-7.36Q1.34-7.38 1.71-7.46Q2.08-7.54 2.36-7.72Q2.65-7.90 2.94-8.20L2.94-8.20L3.68-8.97L4.33-8.97L4.33-1.03Q4.33-0.73 4.44-0.53Q4.55-0.33 4.78-0.23Q5.01-0.13 5.35-0.13L5.35-0.13L5.96-0.13L5.96 0Z M12.65 0.13L12.65 0.13Q11.83 0.13 11.17-0.34Q10.51-0.81 10.13-1.83Q9.75-2.85 9.75-4.50L9.75-4.50Q9.75-5.39 9.95-6.21Q10.15-7.03 10.55-7.67Q10.95-8.31 11.57-8.68Q12.19-9.05 13.01-9.05L13.01-9.05Q13.71-9.05 14.17-8.86Q14.63-8.68 14.85-8.38Q15.08-8.08 15.08-7.74L15.08-7.74Q15.08-7.39 14.83-7.19Q14.59-6.99 14.11-6.99L14.11-6.99Q14.11-7.64 14.01-8.06Q13.90-8.49 13.66-8.71Q13.41-8.93 13.01-8.93L13.01-8.93Q12.39-8.93 11.96-8.49Q11.54-8.05 11.31-7.13Q11.08-6.21 11.03-4.75L11.03-4.75Q11.24-4.94 11.50-5.09Q11.76-5.24 12.09-5.33Q12.43-5.43 12.83-5.43L12.83-5.43Q13.98-5.43 14.66-4.74Q15.34-4.06 15.34-2.86L15.34-2.86Q15.34-1.99 15.02-1.31Q14.70-0.64 14.10-0.26Q13.50 0.13 12.65 0.13ZM12.69 0L12.69 0Q13.19 0 13.49-0.28Q13.79-0.55 13.93-1.15Q14.06-1.75 14.06-2.74L14.06-2.74Q14.06-3.65 13.91-4.20Q13.76-4.75 13.44-5.01Q13.11-5.26 12.58-5.26L12.58-5.26Q12.25-5.26 11.96-5.16Q11.68-5.05 11.44-4.89Q11.20-4.74 11.03-4.58L11.03-4.58Q11.04-3.34 11.13-2.47Q11.23-1.60 11.43-1.05Q11.63-0.50 11.94-0.25Q12.25 0 12.69 0Z M23.21 1.51L23.09 1.51L25.96-9.50L26.09-9.50L23.21 1.51Z M39.20 0L33.84 0L33.84-0.91L35.65-2.88Q36.28-3.55 36.68-4.07Q37.08-4.59 37.30-5.04Q37.53-5.49 37.61-5.92Q37.70-6.35 37.70-6.84L37.70-6.84Q37.70-7.59 37.56-8.05Q37.43-8.51 37.14-8.72Q36.85-8.93 36.39-8.93L36.39-8.93Q35.90-8.93 35.61-8.69Q35.31-8.45 35.18-7.93Q35.05-7.41 35.05-6.56L35.05-6.56Q34.75-6.56 34.51-6.64Q34.26-6.71 34.12-6.90Q33.98-7.09 33.98-7.43L33.98-7.43Q33.98-7.89 34.26-8.26Q34.55-8.63 35.09-8.84Q35.64-9.05 36.40-9.05L36.40-9.05Q37.23-9.05 37.80-8.79Q38.38-8.53 38.67-8.05Q38.96-7.58 38.96-6.91L38.96-6.91Q38.96-6.53 38.83-6.13Q38.70-5.74 38.35-5.26Q38-4.78 37.37-4.12Q36.74-3.46 35.74-2.54L35.74-2.54L34.08-1L38.01-1Q38.61-1 38.85-1.21Q39.09-1.43 39.14-2L39.14-2L39.15-2.16L39.28-2.16L39.20 0Z M45.30 0.14L45.30 0.14Q44.48 0.14 43.97-0.06Q43.46-0.25 43.23-0.56Q43-0.86 43-1.18L43-1.18Q43-1.46 43.19-1.67Q43.39-1.88 43.79-1.88L43.79-1.88Q43.79-1.23 43.98-0.81Q44.16-0.39 44.52-0.19Q44.89 0 45.40 0L45.40 0Q45.95 0 46.30-0.28Q46.65-0.55 46.81-1.14Q46.98-1.73 46.98-2.65L46.98-2.65Q46.98-3.58 46.79-4.13Q46.60-4.67 46.20-4.93Q45.80-5.18 45.15-5.18L45.15-5.18Q44.67-5.18 44.34-5.05Q44.01-4.93 43.79-4.74Q43.56-4.56 43.39-4.39L43.39-4.39L43.24-4.44L43.63-8.91L47.80-8.91L47.86-7.03L47.74-7.03L47.73-7.16Q47.70-7.45 47.61-7.61Q47.51-7.78 47.33-7.84Q47.15-7.91 46.85-7.91L46.85-7.91L43.66-7.91L43.36-4.53Q43.74-4.95 44.27-5.16Q44.80-5.36 45.42-5.36L45.42-5.36Q46.19-5.36 46.83-5.09Q47.48-4.81 47.88-4.23Q48.27-3.64 48.27-2.70L48.27-2.70Q48.27-2.10 48.11-1.58Q47.94-1.06 47.58-0.68Q47.23-0.30 46.66-0.08Q46.09 0.14 45.30 0.14Z"/></g>

  <g opacity="1">
    <animate attributeName="opacity" from="0" to="1" dur="0.85s" begin="0s" fill="freeze"/>
    <animateTransform attributeName="transform" type="translate" from="0 10" to="0 0" dur="0.95s" begin="0s" fill="freeze" calcMode="spline" keySplines="0.22 1 0.36 1" keyTimes="0;1" values="0 10;0 0"/>
    <g transform="translate(0 109.87)">
      <g fill="#1A1919"><path transform="translate(121.05 32.4)" d="M14.80 0L1.71 0L1.71-0.45L2.29-0.45Q3.51-0.45 4.34-0.81Q5.17-1.17 5.58-1.89Q5.98-2.61 5.98-3.69L5.98-3.69L5.98-28.62Q5.98-29.65 5.58-30.33Q5.17-31.00 4.34-31.34Q3.51-31.68 2.29-31.68L2.29-31.68L1.71-31.68L1.71-32.13L14.35-32.13Q20.02-32.13 22.72-29.63Q25.43-27.13 25.43-22.72L25.43-22.72Q25.43-20.70 24.79-18.88Q24.16-17.05 22.75-15.62Q21.33-14.17 19.01-13.34Q16.70-12.51 13.37-12.51L13.37-12.51L10.53-12.51L10.53-3.69Q10.53-2.61 10.93-1.89Q11.34-1.17 12.17-0.81Q13.00-0.45 14.22-0.45L14.22-0.45L14.80-0.45L14.80 0ZM10.53-12.96L12.91-12.96Q14.98-12.96 16.43-13.50Q17.86-14.04 18.79-15.19Q19.71-16.34 20.14-18.16Q20.56-19.98 20.56-22.54L20.56-22.54Q20.56-25.83 19.87-27.83Q19.17-29.83 17.64-30.76Q16.11-31.68 13.59-31.68L13.59-31.68L10.53-31.68L10.53-12.96Z M40.39 0.45L40.39 0.45Q35.53 0.45 32.74-2.65Q29.96-5.76 29.96-12.11L29.96-12.11Q29.96-18.40 32.63-21.49Q35.31-24.57 40.53-24.57L40.53-24.57Q45.39-24.57 48.18-21.49Q50.97-18.40 50.97-12.11L50.97-12.11Q50.97-5.76 48.29-2.65Q45.61 0.45 40.39 0.45ZM40.48 0L40.48 0Q42.69 0 44.04-1.21Q45.39-2.43 46.00-5.08Q46.61-7.74 46.61-12.11L46.61-12.11Q46.61-16.43 46.00-19.08Q45.39-21.73 44.04-22.93Q42.69-24.12 40.44-24.12L40.44-24.12Q38.23-24.12 36.88-22.93Q35.53-21.73 34.93-19.08Q34.32-16.43 34.32-12.11L34.32-12.11Q34.32-7.74 34.93-5.08Q35.53-2.43 36.91-1.21Q38.28 0 40.48 0Z M63.38 0.45L63.38 0.45Q61.13 0.45 59.42-0.09Q57.71-0.63 56.74-1.69Q55.77-2.75 55.77-4.32L55.77-4.32Q55.77-5.54 56.27-6.21Q56.76-6.88 57.41-7.15Q58.07-7.42 58.61-7.42L58.61-7.42Q58.61-5.00 59.06-3.35Q59.51-1.71 60.59-0.85Q61.67 0 63.47 0L63.47 0Q65.85 0 67.25-1.24Q68.64-2.48 68.64-4.91L68.64-4.91Q68.64-6.48 68.10-7.40Q67.56-8.32 66.32-9.04Q65.09-9.76 62.88-10.71L62.88-10.71Q60.32-11.83 58.83-12.89Q57.35-13.95 56.72-15.21Q56.09-16.47 56.09-18.18L56.09-18.18Q56.09-21.24 58.25-22.88Q60.41-24.52 64.23-24.52L64.23-24.52Q66.39-24.52 67.94-23.96Q69.50-23.40 70.31-22.45Q71.12-21.51 71.12-20.38L71.12-20.38Q71.12-19.17 70.28-18.43Q69.45-17.68 67.88-17.68L67.88-17.68Q67.88-21.15 66.93-22.61Q65.98-24.07 64.01-24.07L64.01-24.07Q62.48-24.07 61.46-23.58Q60.45-23.09 59.93-22.14Q59.42-21.20 59.42-19.75L59.42-19.75Q59.42-18.18 60.05-17.23Q60.68-16.29 62.00-15.62Q63.33-14.94 65.31-14.08L65.31-14.08Q67.88-13.05 69.36-11.99Q70.84-10.93 71.45-9.65Q72.06-8.37 72.06-6.61L72.06-6.61Q72.06-3.10 69.72-1.33Q67.38 0.45 63.38 0.45Z M83.97 0.45L83.97 0.45Q81.72 0.45 80.01-0.09Q78.30-0.63 77.33-1.69Q76.37-2.75 76.37-4.32L76.37-4.32Q76.37-5.54 76.86-6.21Q77.36-6.88 78.01-7.15Q78.66-7.42 79.20-7.42L79.20-7.42Q79.20-5.00 79.65-3.35Q80.10-1.71 81.18-0.85Q82.26 0 84.06 0L84.06 0Q86.45 0 87.84-1.24Q89.23-2.48 89.23-4.91L89.23-4.91Q89.23-6.48 88.70-7.40Q88.16-8.32 86.92-9.04Q85.68-9.76 83.48-10.71L83.48-10.71Q80.91-11.83 79.42-12.89Q77.94-13.95 77.31-15.21Q76.68-16.47 76.68-18.18L76.68-18.18Q76.68-21.24 78.84-22.88Q81-24.52 84.83-24.52L84.83-24.52Q86.98-24.52 88.54-23.96Q90.09-23.40 90.90-22.45Q91.71-21.51 91.71-20.38L91.71-20.38Q91.71-19.17 90.88-18.43Q90.05-17.68 88.47-17.68L88.47-17.68Q88.47-21.15 87.53-22.61Q86.58-24.07 84.60-24.07L84.60-24.07Q83.07-24.07 82.06-23.58Q81.05-23.09 80.53-22.14Q80.01-21.20 80.01-19.75L80.01-19.75Q80.01-18.18 80.64-17.23Q81.27-16.29 82.60-15.62Q83.92-14.94 85.91-14.08L85.91-14.08Q88.47-13.05 89.95-11.99Q91.44-10.93 92.05-9.65Q92.66-8.37 92.66-6.61L92.66-6.61Q92.66-3.10 90.31-1.33Q87.98 0.45 83.97 0.45Z M107.67 0.45L107.67 0.45Q103.71 0.45 101.75-1.64Q99.80-3.73 99.80-8.37L99.80-8.37L99.80-19.62Q99.80-21.15 99.46-22.03Q99.12-22.90 98.31-23.29Q97.50-23.67 96.11-23.67L96.11-23.67L95.97-23.67L95.97-24.12L104.03-24.12L104.03-8.14Q104.03-5.26 104.43-3.53Q104.84-1.80 105.80-0.99Q106.77-0.18 108.39-0.18L108.39-0.18Q110.42-0.18 111.74-1.24Q113.07-2.29 113.75-4.34Q114.42-6.39 114.42-9.27L114.42-9.27L114.42-19.62Q114.42-21.15 114.08-22.03Q113.75-22.90 112.94-23.29Q112.13-23.67 110.73-23.67L110.73-23.67L110.59-23.67L110.59-24.12L118.65-24.12L118.65-4.46Q118.65-2.92 118.99-2.05Q119.33-1.17 120.14-0.81Q120.94-0.45 122.34-0.45L122.34-0.45L122.47-0.45L122.47 0L114.73 0L114.73-6.17L114.65-6.17Q114.28-3.87 113.50-2.54Q112.71-1.21 111.70-0.58Q110.69 0.04 109.63 0.25Q108.57 0.45 107.67 0.45Z M137.18 0L125.07 0L125.07-0.45L125.43-0.45Q126.83-0.45 127.64-0.83Q128.44-1.21 128.78-2.11Q129.12-3.01 129.12-4.59L129.12-4.59L129.12-19.62Q129.12-21.15 128.78-22.03Q128.44-22.90 127.68-23.29Q126.92-23.67 125.52-23.67L125.52-23.67L125.30-23.67L125.30-24.12L133.31-24.12L133.31-19.89L133.40-19.89Q134.03-22.00 135.15-22.99Q136.28-23.98 137.60-24.28Q138.93-24.57 140.06-24.57L140.06-24.57Q144.06-24.57 146.02-22.48Q147.97-20.38 147.97-15.75L147.97-15.75L147.97-4.59Q147.97-3.01 148.29-2.11Q148.60-1.21 149.35-0.83Q150.09-0.45 151.35-0.45L151.35-0.45L151.57-0.45L151.57 0L143.75 0L143.75-17.28Q143.75-20.20 142.66-22.05Q141.59-23.89 138.93-23.89L138.93-23.89Q136.81-23.89 135.60-22.77Q134.38-21.64 133.87-19.87Q133.35-18.09 133.35-16.16L133.35-16.16L133.35-4.59Q133.35-3.01 133.69-2.11Q134.03-1.21 134.81-0.83Q135.60-0.45 136.95-0.45L136.95-0.45L137.18-0.45L137.18 0Z M163.94 0.45L163.94 0.45Q160.51 0.45 158.96-1.10Q157.41-2.65 157.41-6.52L157.41-6.52L157.41-23.67L153.99-23.67L153.99-24.12Q155.61-24.12 156.80-24.41Q158.00-24.70 158.85-25.33L158.85-25.33Q159.75-25.96 160.31-27.04Q160.88-28.13 161.19-29.65L161.19-29.65L161.64-29.65L161.64-24.12L167.94-24.12L167.94-23.67L161.64-23.67L161.64-4.86Q161.64-2.52 162.54-1.35Q163.44-0.18 165.19-0.18L165.19-0.18Q165.82-0.18 166.50-0.32Q167.17-0.45 167.94-0.72L167.94-0.72L167.94-0.27Q167.35 0 166.19 0.22Q165.01 0.45 163.94 0.45Z M206.52 10.80L193.06 10.80L193.06 10.35L194.55 10.35Q195.90 10.35 196.71 9.99Q197.52 9.63 197.88 8.87Q198.24 8.10 198.24 6.88L198.24 6.88L198.24-1.80Q198.24-2.56 198.26-3.33Q198.28-4.09 198.28-4.84Q198.28-5.58 198.28-6.34L198.28-6.34L198.19-6.34Q197.79-4.05 196.89-2.54Q195.99-1.03 194.59-0.29Q193.20 0.45 191.22 0.45L191.22 0.45Q186.81 0.45 184.49-2.75Q182.17-5.94 182.17-12.11L182.17-12.11Q182.17-16.25 183.19-19.01Q184.20-21.78 186.20-23.18Q188.20-24.57 191.13-24.57L191.13-24.57Q194.19-24.57 195.92-22.93Q197.65-21.29 198.24-17.86L198.24-17.86L198.33-17.86L198.33-24.12L206.29-24.12L206.29-23.67L206.16-23.67Q204.85-23.67 204.02-23.31Q203.19-22.95 202.83-22.18Q202.47-21.42 202.47-20.16L202.47-20.16L202.47 6.66Q202.47 7.96 202.83 8.80Q203.19 9.63 204.02 9.99Q204.85 10.35 206.16 10.35L206.16 10.35L206.52 10.35L206.52 10.80ZM191.98-0.22L191.98-0.22Q194.10-0.22 195.49-1.51Q196.89-2.79 197.56-5.44Q198.24-8.10 198.24-12.11L198.24-12.11Q198.24-17.95 196.78-20.93Q195.31-23.89 192.03-23.89L192.03-23.89Q190.05-23.89 188.83-22.72Q187.62-21.55 187.08-18.97Q186.54-16.38 186.54-12.15L186.54-12.15Q186.54-7.88 187.08-5.24Q187.62-2.61 188.83-1.42Q190.05-0.22 191.98-0.22Z M220.37 0.45L220.37 0.45Q216.41 0.45 214.45-1.64Q212.49-3.73 212.49-8.37L212.49-8.37L212.49-19.62Q212.49-21.15 212.15-22.03Q211.81-22.90 211.00-23.29Q210.19-23.67 208.80-23.67L208.80-23.67L208.66-23.67L208.66-24.12L216.72-24.12L216.72-8.14Q216.72-5.26 217.13-3.53Q217.53-1.80 218.50-0.99Q219.47-0.18 221.09-0.18L221.09-0.18Q223.11-0.18 224.44-1.24Q225.76-2.29 226.44-4.34Q227.12-6.39 227.12-9.27L227.12-9.27L227.12-19.62Q227.12-21.15 226.78-22.03Q226.44-22.90 225.63-23.29Q224.82-23.67 223.42-23.67L223.42-23.67L223.29-23.67L223.29-24.12L231.34-24.12L231.34-4.46Q231.34-2.92 231.68-2.05Q232.02-1.17 232.83-0.81Q233.64-0.45 235.03-0.45L235.03-0.45L235.17-0.45L235.17 0L227.43 0L227.43-6.17L227.34-6.17Q226.98-3.87 226.19-2.54Q225.41-1.21 224.39-0.58Q223.38 0.04 222.32 0.25Q221.26 0.45 220.37 0.45Z M250.32 0L237.54 0L237.54-0.45L238.13-0.45Q239.47-0.45 240.28-0.81Q241.09-1.17 241.45-1.93Q241.81-2.70 241.81-3.92L241.81-3.92L241.81-20.16Q241.81-21.42 241.45-22.18Q241.09-22.95 240.28-23.31Q239.47-23.67 238.13-23.67L238.13-23.67L237.99-23.67L237.99-24.12L246.04-24.12L246.04-4.14Q246.04-2.79 246.41-1.98Q246.76-1.17 247.60-0.81Q248.43-0.45 249.73-0.45L249.73-0.45L250.32-0.45L250.32 0ZM243.70-28.44L243.70-28.44Q242.85-28.44 242.29-29.00Q241.72-29.56 241.72-30.96L241.72-30.96Q241.72-32.40 242.29-32.94Q242.85-33.48 243.70-33.48L243.70-33.48Q244.51-33.48 245.10-32.94Q245.69-32.40 245.69-30.96L245.69-30.96Q245.69-29.56 245.10-29.00Q244.51-28.44 243.70-28.44Z M260.88 0.45L260.88 0.45Q257.46 0.45 255.46-1.33Q253.45-3.10 253.45-6.21L253.45-6.21Q253.45-9.67 256.00-11.38Q258.54-13.09 263.71-13.28L263.71-13.28L267.45-13.41L267.45-16.79Q267.45-19.30 267.18-20.93Q266.91-22.54 266.01-23.33Q265.11-24.12 263.26-24.12L263.26-24.12Q260.65-24.12 259.91-22.50Q259.17-20.88 259.17-17.41L259.17-17.41Q257.28-17.41 256.31-18.04Q255.34-18.68 255.34-20.11L255.34-20.11Q255.34-21.73 256.45-22.70Q257.55-23.67 259.39-24.12Q261.24-24.57 263.44-24.57L263.44-24.57Q267.58-24.57 269.63-22.81Q271.68-21.06 271.68-16.79L271.68-16.79L271.68-3.33Q271.68-2.25 271.95-1.62Q272.22-0.99 272.85-0.72Q273.48-0.45 274.47-0.45L274.47-0.45L274.60-0.45L274.60 0L267.81 0L267.81-4.72L267.72-4.72Q267.27-2.92 266.28-1.78Q265.29-0.63 263.92-0.09Q262.54 0.45 260.88 0.45ZM261.78-0.18L261.78-0.18Q263.44-0.18 264.73-1.03Q266.01-1.89 266.73-3.33Q267.45-4.77 267.45-6.43L267.45-6.43L267.45-12.91L264.57-12.78Q260.75-12.60 259.28-11.03Q257.82-9.45 257.82-5.71L257.82-5.71Q257.82-3.92 258.25-2.68Q258.68-1.44 259.57-0.81Q260.47-0.18 261.78-0.18Z M300.18 10.80L288.07 10.80L288.07 10.35L288.44 10.35Q289.78 10.35 290.59 9.99Q291.40 9.63 291.76 8.87Q292.13 8.10 292.13 6.88L292.13 6.88L292.13-20.16Q292.13-21.42 291.76-22.18Q291.40-22.95 290.59-23.31Q289.78-23.67 288.44-23.67L288.44-23.67L287.85-23.67L287.85-24.12L296.26-24.12L296.26-17.86L296.35-17.86Q296.99-21.29 298.72-22.93Q300.45-24.57 303.46-24.57L303.46-24.57Q307.88-24.57 310.15-21.42Q312.42-18.27 312.42-12.11L312.42-12.11Q312.42-5.94 310.10-2.75Q307.78 0.45 303.38 0.45L303.38 0.45Q300.45 0.45 298.74-1.21Q297.03-2.88 296.40-6.34L296.40-6.34L296.31-6.34Q296.35-5.22 296.35-4.09Q296.35-2.97 296.35-1.84L296.35-1.84L296.35 6.66Q296.35 7.96 296.71 8.80Q297.07 9.63 297.88 9.99Q298.69 10.35 300.04 10.35L300.04 10.35L300.18 10.35L300.18 10.80ZM302.61-0.22L302.61-0.22Q304.59-0.22 305.78-1.42Q306.97-2.61 307.51-5.24Q308.06-7.88 308.06-12.15L308.06-12.15Q308.06-16.38 307.51-18.97Q306.97-21.55 305.76-22.72Q304.54-23.89 302.56-23.89L302.56-23.89Q300.40-23.89 299.03-22.57Q297.66-21.24 297.01-18.63Q296.35-16.02 296.35-12.11L296.35-12.11Q296.35-8.10 297.03-5.44Q297.70-2.79 299.10-1.51Q300.50-0.22 302.61-0.22Z M328.11 0.45L328.11 0.45Q323.25 0.45 320.46-2.65Q317.67-5.76 317.67-12.11L317.67-12.11Q317.67-18.40 320.35-21.49Q323.02-24.57 328.25-24.57L328.25-24.57Q333.11-24.57 335.89-21.49Q338.69-18.40 338.69-12.11L338.69-12.11Q338.69-5.76 336.01-2.65Q333.33 0.45 328.11 0.45ZM328.20 0L328.20 0Q330.40 0 331.75-1.21Q333.11-2.43 333.71-5.08Q334.32-7.74 334.32-12.11L334.32-12.11Q334.32-16.43 333.71-19.08Q333.11-21.73 331.75-22.93Q330.40-24.12 328.15-24.12L328.15-24.12Q325.95-24.12 324.60-22.93Q323.25-21.73 322.64-19.08Q322.03-16.43 322.03-12.11L322.03-12.11Q322.03-7.74 322.64-5.08Q323.25-2.43 324.62-1.21Q326.00 0 328.20 0Z M351.09 0.45L351.09 0.45Q348.84 0.45 347.13-0.09Q345.42-0.63 344.45-1.69Q343.48-2.75 343.48-4.32L343.48-4.32Q343.48-5.54 343.98-6.21Q344.47-6.88 345.13-7.15Q345.78-7.42 346.32-7.42L346.32-7.42Q346.32-5.00 346.77-3.35Q347.22-1.71 348.30-0.85Q349.38 0 351.18 0L351.18 0Q353.56 0 354.96-1.24Q356.35-2.48 356.35-4.91L356.35-4.91Q356.35-6.48 355.81-7.40Q355.27-8.32 354.04-9.04Q352.80-9.76 350.59-10.71L350.59-10.71Q348.03-11.83 346.54-12.89Q345.06-13.95 344.43-15.21Q343.80-16.47 343.80-18.18L343.80-18.18Q343.80-21.24 345.96-22.88Q348.12-24.52 351.94-24.52L351.94-24.52Q354.10-24.52 355.66-23.96Q357.21-23.40 358.02-22.45Q358.83-21.51 358.83-20.38L358.83-20.38Q358.83-19.17 358.00-18.43Q357.16-17.68 355.59-17.68L355.59-17.68Q355.59-21.15 354.64-22.61Q353.70-24.07 351.72-24.07L351.72-24.07Q350.19-24.07 349.18-23.58Q348.16-23.09 347.65-22.14Q347.13-21.20 347.13-19.75L347.13-19.75Q347.13-18.18 347.76-17.23Q348.39-16.29 349.72-15.62Q351.04-14.94 353.02-14.08L353.02-14.08Q355.59-13.05 357.07-11.99Q358.56-10.93 359.17-9.65Q359.77-8.37 359.77-6.61L359.77-6.61Q359.77-3.10 357.44-1.33Q355.09 0.45 351.09 0.45Z M371.68 0.45L371.68 0.45Q369.43 0.45 367.72-0.09Q366.01-0.63 365.05-1.69Q364.08-2.75 364.08-4.32L364.08-4.32Q364.08-5.54 364.57-6.21Q365.07-6.88 365.72-7.15Q366.37-7.42 366.91-7.42L366.91-7.42Q366.91-5.00 367.36-3.35Q367.81-1.71 368.89-0.85Q369.97 0 371.77 0L371.77 0Q374.16 0 375.55-1.24Q376.95-2.48 376.95-4.91L376.95-4.91Q376.95-6.48 376.41-7.40Q375.87-8.32 374.63-9.04Q373.39-9.76 371.19-10.71L371.19-10.71Q368.62-11.83 367.14-12.89Q365.65-13.95 365.02-15.21Q364.39-16.47 364.39-18.18L364.39-18.18Q364.39-21.24 366.55-22.88Q368.71-24.52 372.54-24.52L372.54-24.52Q374.70-24.52 376.25-23.96Q377.80-23.40 378.61-22.45Q379.42-21.51 379.42-20.38L379.42-20.38Q379.42-19.17 378.59-18.43Q377.76-17.68 376.18-17.68L376.18-17.68Q376.18-21.15 375.24-22.61Q374.29-24.07 372.31-24.07L372.31-24.07Q370.78-24.07 369.77-23.58Q368.76-23.09 368.24-22.14Q367.72-21.20 367.72-19.75L367.72-19.75Q367.72-18.18 368.35-17.23Q368.98-16.29 370.31-15.62Q371.64-14.94 373.62-14.08L373.62-14.08Q376.18-13.05 377.67-11.99Q379.15-10.93 379.76-9.65Q380.37-8.37 380.37-6.61L380.37-6.61Q380.37-3.10 378.03-1.33Q375.69 0.45 371.68 0.45Z M395.79 0.45L395.79 0.45Q390.75 0.45 387.94-2.79Q385.13-6.03 385.13-11.88L385.13-11.88Q385.13-18.18 387.73-21.38Q390.34-24.57 395.11-24.57L395.11-24.57Q399.48-24.57 401.98-21.87Q404.47-19.17 404.47-13.81L404.47-13.81L404.47-12.73L389.49-12.73Q389.53-8.14 390.16-5.35Q390.79-2.56 392.21-1.28Q393.63 0 395.92 0L395.92 0Q397.63 0 398.96-0.63Q400.29-1.26 401.19-2.50Q402.09-3.73 402.40-5.54L402.40-5.54Q402.94-5.44 403.21-5.00Q403.48-4.54 403.48-4.05L403.48-4.05Q403.48-3.15 402.63-2.09Q401.77-1.03 400.09-0.29Q398.40 0.45 395.79 0.45ZM389.49-13.18L399.93-13.18Q399.93-17.14 399.44-19.53Q398.94-21.91 397.86-23.02Q396.78-24.12 395.02-24.12L395.02-24.12Q393.18-24.12 392.01-23.02Q390.84-21.91 390.25-19.53Q389.67-17.14 389.49-13.18L389.49-13.18Z M428.20 0L420.46-21.29Q420.15-22.18 419.77-22.70Q419.38-23.22 418.89-23.45Q418.39-23.67 417.63-23.67L417.63-23.67L417.63-24.12L428.88-24.12L428.88-23.67L427.80-23.67Q426.36-23.67 425.66-23.29Q424.96-22.90 424.96-21.96L424.96-21.96Q424.96-21.55 425.10-21.04Q425.24-20.52 425.46-19.84L425.46-19.84L429.01-9.90Q429.60-8.28 430.03-7.04Q430.45-5.80 430.88-4.57Q431.31-3.33 431.85-1.62L431.85-1.62Q432.12-2.48 432.34-3.19Q432.57-3.92 432.84-4.68Q433.11-5.44 433.47-6.43L433.47-6.43L438.01-19.57Q438.24-20.29 438.38-20.84Q438.51-21.38 438.51-21.82L438.51-21.82Q438.51-22.86 437.72-23.27Q436.94-23.67 435.22-23.67L435.22-23.67L433.74-23.67L433.74-24.12L443.37-24.12L443.37-23.67L442.11-23.67Q441.25-23.67 440.65-23.36Q440.04-23.04 439.59-22.27Q439.14-21.51 438.69-20.16L438.69-20.16L431.76 0L428.20 0Z M457.62 0L444.84 0L444.84-0.45L445.43-0.45Q446.78-0.45 447.58-0.81Q448.39-1.17 448.75-1.93Q449.12-2.70 449.12-3.92L449.12-3.92L449.12-20.16Q449.12-21.42 448.75-22.18Q448.39-22.95 447.58-23.31Q446.78-23.67 445.43-23.67L445.43-23.67L445.29-23.67L445.29-24.12L453.35-24.12L453.35-4.14Q453.35-2.79 453.70-1.98Q454.06-1.17 454.90-0.81Q455.73-0.45 457.04-0.45L457.04-0.45L457.62-0.45L457.62 0ZM451.00-28.44L451.00-28.44Q450.15-28.44 449.59-29.00Q449.03-29.56 449.03-30.96L449.03-30.96Q449.03-32.40 449.59-32.94Q450.15-33.48 451.00-33.48L451.00-33.48Q451.81-33.48 452.40-32.94Q452.99-32.40 452.99-30.96L452.99-30.96Q452.99-29.56 452.40-29.00Q451.81-28.44 451.00-28.44Z M470.02 0.45L470.02 0.45Q467.10 0.45 465.07-0.97Q463.05-2.38 462.01-5.20Q460.98-8.01 460.98-12.11L460.98-12.11Q460.98-16.25 461.99-19.01Q463.00-21.78 465.01-23.18Q467.01-24.57 469.94-24.57L469.94-24.57Q473.00-24.57 474.73-22.93Q476.46-21.29 477.05-17.86L477.05-17.86L477.13-17.86Q477.09-19.48 477.07-21.04Q477.05-22.59 477.05-23.87Q477.05-25.15 477.05-25.92L477.05-25.92L477.05-30.24Q477.05-31.50 476.69-32.27Q476.32-33.03 475.51-33.39Q474.70-33.75 473.36-33.75L473.36-33.75L473.22-33.75L473.22-34.20L481.27-34.20L481.27-3.92Q481.27-2.70 481.63-1.93Q482.00-1.17 482.83-0.81Q483.66-0.45 484.96-0.45L484.96-0.45L485.32-0.45L485.32 0L477.09 0L477.09-6.34L477-6.34Q476.42-2.88 474.68-1.21Q472.95 0.45 470.02 0.45ZM470.79-0.22L470.79-0.22Q473.99-0.22 475.51-3.15Q477.05-6.08 477.05-12.11L477.05-12.11Q477.05-16.02 476.39-18.63Q475.74-21.24 474.39-22.57Q473.04-23.89 470.83-23.89L470.83-23.89Q468.86-23.89 467.64-22.72Q466.43-21.55 465.88-18.97Q465.34-16.38 465.34-12.15L465.34-12.15Q465.34-7.88 465.88-5.24Q466.43-2.61 467.64-1.42Q468.86-0.22 470.79-0.22Z M499.57 0.45L499.57 0.45Q494.54 0.45 491.72-2.79Q488.91-6.03 488.91-11.88L488.91-11.88Q488.91-18.18 491.52-21.38Q494.13-24.57 498.90-24.57L498.90-24.57Q503.26-24.57 505.76-21.87Q508.26-19.17 508.26-13.81L508.26-13.81L508.26-12.73L493.27-12.73Q493.32-8.14 493.95-5.35Q494.58-2.56 496.00-1.28Q497.42 0 499.71 0L499.71 0Q501.42 0 502.75-0.63Q504.07-1.26 504.98-2.50Q505.88-3.73 506.19-5.54L506.19-5.54Q506.73-5.44 507-5.00Q507.27-4.54 507.27-4.05L507.27-4.05Q507.27-3.15 506.42-2.09Q505.56-1.03 503.87-0.29Q502.19 0.45 499.57 0.45ZM493.27-13.18L503.72-13.18Q503.72-17.14 503.22-19.53Q502.73-21.91 501.64-23.02Q500.56-24.12 498.81-24.12L498.81-24.12Q496.96-24.12 495.80-23.02Q494.63-21.91 494.04-19.53Q493.45-17.14 493.27-13.18L493.27-13.18Z M524.17 0L512.07 0L512.07-0.45L512.43-0.45Q513.83-0.45 514.63-0.83Q515.45-1.21 515.78-2.11Q516.12-3.01 516.12-4.59L516.12-4.59L516.12-19.62Q516.12-21.15 515.78-22.03Q515.45-22.90 514.68-23.29Q513.91-23.67 512.52-23.67L512.52-23.67L512.29-23.67L512.29-24.12L520.30-24.12L520.30-19.89L520.39-19.89Q521.02-22.00 522.15-22.99Q523.27-23.98 524.60-24.28Q525.93-24.57 527.05-24.57L527.05-24.57Q531.06-24.57 533.02-22.48Q534.98-20.38 534.98-15.75L534.98-15.75L534.98-4.59Q534.98-3.01 535.29-2.11Q535.61-1.21 536.35-0.83Q537.09-0.45 538.35-0.45L538.35-0.45L538.58-0.45L538.58 0L530.75 0L530.75-17.28Q530.75-20.20 529.66-22.05Q528.59-23.89 525.93-23.89L525.93-23.89Q523.82-23.89 522.60-22.77Q521.38-21.64 520.87-19.87Q520.35-18.09 520.35-16.16L520.35-16.16L520.35-4.59Q520.35-3.01 520.69-2.11Q521.02-1.21 521.81-0.83Q522.60-0.45 523.95-0.45L523.95-0.45L524.17-0.45L524.17 0Z M550.93 0.45L550.93 0.45Q547.51 0.45 545.96-1.10Q544.41-2.65 544.41-6.52L544.41-6.52L544.41-23.67L540.99-23.67L540.99-24.12Q542.61-24.12 543.80-24.41Q545.00-24.70 545.85-25.33L545.85-25.33Q546.75-25.96 547.31-27.04Q547.88-28.13 548.19-29.65L548.19-29.65L548.64-29.65L548.64-24.12L554.94-24.12L554.94-23.67L548.64-23.67L548.64-4.86Q548.64-2.52 549.54-1.35Q550.44-0.18 552.19-0.18L552.19-0.18Q552.83-0.18 553.50-0.32Q554.17-0.45 554.94-0.72L554.94-0.72L554.94-0.27Q554.36 0 553.18 0.22Q552.01 0.45 550.93 0.45Z M569.01 0.45L569.01 0.45Q565.05 0.45 563.09-1.64Q561.13-3.73 561.13-8.37L561.13-8.37L561.13-19.62Q561.13-21.15 560.80-22.03Q560.46-22.90 559.65-23.29Q558.84-23.67 557.44-23.67L557.44-23.67L557.31-23.67L557.31-24.12L565.37-24.12L565.37-8.14Q565.37-5.26 565.77-3.53Q566.17-1.80 567.14-0.99Q568.11-0.18 569.73-0.18L569.73-0.18Q571.75-0.18 573.08-1.24Q574.41-2.29 575.08-4.34Q575.76-6.39 575.76-9.27L575.76-9.27L575.76-19.62Q575.76-21.15 575.42-22.03Q575.08-22.90 574.27-23.29Q573.46-23.67 572.07-23.67L572.07-23.67L571.93-23.67L571.93-24.12L579.99-24.12L579.99-4.46Q579.99-2.92 580.33-2.05Q580.66-1.17 581.48-0.81Q582.28-0.45 583.68-0.45L583.68-0.45L583.81-0.45L583.81 0L576.07 0L576.07-6.17L575.99-6.17Q575.63-3.87 574.84-2.54Q574.05-1.21 573.04-0.58Q572.02 0.04 570.97 0.25Q569.91 0.45 569.01 0.45Z M598.97 0L586.18 0L586.18-0.45L586.77-0.45Q588.12-0.45 588.93-0.81Q589.74-1.17 590.10-1.93Q590.46-2.70 590.46-3.92L590.46-3.92L590.46-20.16Q590.46-21.42 590.10-22.18Q589.74-22.95 588.93-23.31Q588.12-23.67 586.77-23.67L586.77-23.67L586.63-23.67L586.63-24.12L594.64-24.12L594.64-19.62L594.74-19.62Q595.05-20.79 595.68-21.91Q596.31-23.04 597.59-23.80Q598.88-24.57 601.03-24.57L601.03-24.57Q603.28-24.57 604.48-23.69Q605.67-22.81 605.67-21.24L605.67-21.24Q605.67-19.89 604.70-18.99Q603.74-18.09 601.49-18.09L601.49-18.09Q601.49-20.88 600.54-21.94Q599.60-22.99 598.42-22.99L598.42-22.99Q597.12-22.99 596.36-22.07Q595.59-21.15 595.23-19.69Q594.87-18.22 594.78-16.67Q594.69-15.12 594.69-13.81L594.69-13.81L594.69-4.14Q594.69-2.79 595.05-1.98Q595.41-1.17 596.24-0.81Q597.07-0.45 598.38-0.45L598.38-0.45L598.97-0.45L598.97 0Z M612.27 0.32L612.27 0.32Q611.05 0.32 610.45-0.45Q609.84-1.21 609.84-2.75L609.84-2.75Q609.84-4.27 610.45-5.04Q611.05-5.80 612.27-5.80L612.27-5.80Q613.49-5.80 614.09-5.04Q614.70-4.27 614.70-2.75L614.70-2.75Q614.70-1.21 614.09-0.45Q613.49 0.32 612.27 0.32Z"/></g>
      
      <g opacity="0.9">
        <line x1="384" y1="65.1" x2="476" y2="65.1"
          stroke="#C5A059" stroke-width="1.4" stroke-linecap="round"
          stroke-dasharray="92" stroke-dashoffset="0">
          <animate attributeName="stroke-dashoffset" from="92" to="0" dur="1.1s" begin="0s" fill="freeze" calcMode="spline" keySplines="0.22 1 0.36 1" keyTimes="0;1" values="92;0"/>
        </line>
        <path d="M430 61.7L433.4 65.1L430 68.5L426.6 65.1Z" fill="#8B1E1E" opacity="1"/>
      </g>
      <g fill="#5D4E42"><path transform="translate(219.68 110.94)" d="M9.92 0L3.52 0L3.52-0.22L3.81-0.22Q4.40-0.22 4.81-0.40Q5.21-0.57 5.41-0.92Q5.61-1.28 5.61-1.80L5.61-1.80L5.61-15.49L3.81-15.49Q2.71-15.49 2.05-15.22Q1.39-14.96 1.08-14.32Q0.77-13.68 0.70-12.58L0.70-12.58L0.66-11.86L0.44-11.86L0.57-15.71L12.91-15.71L13.05-11.86L12.83-11.86L12.78-12.58Q12.72-13.68 12.41-14.32Q12.10-14.96 11.45-15.22Q10.80-15.49 9.68-15.49L9.68-15.49L7.83-15.49L7.83-1.80Q7.83-1.28 8.03-0.92Q8.23-0.57 8.63-0.40Q9.04-0.22 9.64-0.22L9.64-0.22L9.92-0.22L9.92 0Z M20 0L14.08 0L14.08-0.22L14.26-0.22Q14.94-0.22 15.34-0.41Q15.73-0.59 15.90-1.03Q16.06-1.47 16.06-2.24L16.06-2.24L16.06-14.52Q16.06-15.27 15.90-15.70Q15.73-16.13 15.36-16.31Q14.98-16.50 14.30-16.50L14.30-16.50L14.19-16.50L14.19-16.72L18.13-16.72L18.13-12.28Q18.13-11.86 18.13-11.43Q18.13-11 18.13-10.58Q18.13-10.16 18.11-9.72L18.11-9.72L18.15-9.72Q18.46-10.76 19.01-11.24Q19.56-11.73 20.21-11.87Q20.86-12.01 21.41-12.01L21.41-12.01Q23.37-12.01 24.32-10.99Q25.28-9.97 25.28-7.70L25.28-7.70L25.28-2.24Q25.28-1.47 25.43-1.03Q25.59-0.59 25.95-0.41Q26.31-0.22 26.93-0.22L26.93-0.22L27.04-0.22L27.04 0L23.21 0L23.21-8.45Q23.21-9.88 22.68-10.78Q22.16-11.68 20.86-11.68L20.86-11.68Q19.82-11.68 19.23-11.13Q18.64-10.58 18.38-9.71Q18.13-8.84 18.13-7.90L18.13-7.90L18.13-2.24Q18.13-1.47 18.29-1.03Q18.46-0.59 18.84-0.41Q19.23-0.22 19.89-0.22L19.89-0.22L20-0.22L20 0Z M34.28 0.22L34.28 0.22Q31.82 0.22 30.44-1.36Q29.07-2.95 29.07-5.81L29.07-5.81Q29.07-8.89 30.34-10.45Q31.62-12.01 33.95-12.01L33.95-12.01Q36.08-12.01 37.30-10.69Q38.53-9.37 38.53-6.75L38.53-6.75L38.53-6.23L31.20-6.23Q31.22-3.98 31.53-2.62Q31.84-1.25 32.53-0.63Q33.22 0 34.35 0L34.35 0Q35.18 0 35.83-0.31Q36.48-0.62 36.92-1.22Q37.36-1.83 37.51-2.71L37.51-2.71Q37.78-2.66 37.91-2.44Q38.04-2.22 38.04-1.98L38.04-1.98Q38.04-1.54 37.62-1.02Q37.21-0.51 36.38-0.14Q35.56 0.22 34.28 0.22ZM31.20-6.45L36.30-6.45Q36.30-8.38 36.06-9.55Q35.82-10.71 35.29-11.25Q34.76-11.79 33.91-11.79L33.91-11.79Q33.00-11.79 32.43-11.25Q31.86-10.71 31.57-9.55Q31.29-8.38 31.20-6.45L31.20-6.45Z M40.66 5.28L40.66 5.06Q42.22 5.06 43.17 4.83Q44.12 4.60 44.68 4.10Q45.24 3.61 45.62 2.83Q46.01 2.05 46.43 0.97L46.43 0.97L41.61-10.36Q41.41-10.85 41.22-11.10Q41.04-11.35 40.84-11.46Q40.64-11.57 40.35-11.57L40.35-11.57L39.91-11.57L39.91-11.79L45.19-11.79L45.19-11.57L45.13-11.57Q44.51-11.57 44.15-11.38Q43.79-11.20 43.79-10.71L43.79-10.71Q43.79-10.52 43.85-10.26Q43.92-10.01 44.05-9.70L44.05-9.70L45.94-5.10Q46.12-4.71 46.29-4.25Q46.47-3.78 46.65-3.30Q46.82-2.82 46.98-2.38Q47.13-1.94 47.26-1.56L47.26-1.56Q47.55-2.42 47.81-3.20Q48.08-3.98 48.25-4.53L48.25-4.53L49.86-9.57Q49.97-9.88 50.01-10.12Q50.06-10.36 50.06-10.56L50.06-10.56Q50.06-11.07 49.71-11.32Q49.37-11.57 48.60-11.57L48.60-11.57L47.68-11.57L47.68-11.79L52.26-11.79L52.26-11.57L52.08-11.57Q51.55-11.57 51.21-11.44Q50.87-11.31 50.65-10.93Q50.43-10.56 50.19-9.86L50.19-9.86L46.98 0.09Q46.47 1.67 45.99 2.68Q45.50 3.70 44.86 4.27Q44.23 4.84 43.27 5.06Q42.31 5.28 40.86 5.28L40.86 5.28L40.66 5.28Z M63.88 0.22L63.88 0.22Q62.38 0.22 61.24-0.38Q60.09-0.99 59.45-2.35Q58.82-3.72 58.82-5.94L58.82-5.94Q58.82-8.21 59.46-9.54Q60.11-10.87 61.21-11.44Q62.31-12.01 63.70-12.01L63.70-12.01Q64.62-12.01 65.51-11.77Q66.41-11.53 66.98-11.03Q67.55-10.54 67.55-9.72L67.55-9.72Q67.55-9.24 67.32-8.94Q67.09-8.65 66.66-8.51Q66.23-8.38 65.59-8.38L65.59-8.38Q65.59-9.55 65.43-10.31Q65.26-11.07 64.84-11.43Q64.43-11.79 63.66-11.79L63.66-11.79Q62.86-11.79 62.25-11.30Q61.63-10.80 61.29-9.54Q60.95-8.27 60.95-5.92L60.95-5.92Q60.95-3.76 61.28-2.45Q61.61-1.14 62.34-0.57Q63.06 0 64.21 0L64.21 0Q64.93 0 65.51-0.24Q66.10-0.48 66.53-1.09Q66.96-1.69 67.20-2.75L67.20-2.75Q67.42-2.71 67.54-2.53Q67.66-2.35 67.66-2.05L67.66-2.05Q67.66-1.52 67.24-1.00Q66.82-0.48 65.99-0.13Q65.15 0.22 63.88 0.22Z M73.36 0.22L73.36 0.22Q71.69 0.22 70.71-0.65Q69.73-1.52 69.73-3.04L69.73-3.04Q69.73-4.73 70.97-5.57Q72.22-6.40 74.75-6.49L74.75-6.49L76.57-6.56L76.57-8.21Q76.57-9.44 76.44-10.23Q76.31-11.02 75.87-11.41Q75.43-11.79 74.53-11.79L74.53-11.79Q73.25-11.79 72.89-11Q72.52-10.21 72.52-8.51L72.52-8.51Q71.60-8.51 71.13-8.82Q70.65-9.13 70.65-9.83L70.65-9.83Q70.65-10.63 71.19-11.10Q71.73-11.57 72.63-11.79Q73.54-12.01 74.61-12.01L74.61-12.01Q76.64-12.01 77.64-11.15Q78.64-10.30 78.64-8.21L78.64-8.21L78.64-1.63Q78.64-1.10 78.77-0.79Q78.90-0.48 79.21-0.35Q79.52-0.22 80.00-0.22L80.00-0.22L80.07-0.22L80.07 0L76.75 0L76.75-2.31L76.70-2.31Q76.48-1.43 76.00-0.87Q75.52-0.31 74.84-0.04Q74.17 0.22 73.36 0.22ZM73.80-0.09L73.80-0.09Q74.61-0.09 75.24-0.51Q75.87-0.92 76.22-1.63Q76.57-2.33 76.57-3.15L76.57-3.15L76.57-6.31L75.16-6.25Q73.29-6.16 72.58-5.39Q71.86-4.62 71.86-2.79L71.86-2.79Q71.86-1.91 72.07-1.31Q72.28-0.70 72.72-0.40Q73.16-0.09 73.80-0.09Z M87.75 0L81.83 0L81.83-0.22L82.01-0.22Q82.69-0.22 83.09-0.41Q83.48-0.59 83.65-1.03Q83.81-1.47 83.81-2.24L83.81-2.24L83.81-9.59Q83.81-10.34 83.65-10.77Q83.48-11.20 83.11-11.38Q82.73-11.57 82.05-11.57L82.05-11.57L81.94-11.57L81.94-11.79L85.86-11.79L85.86-9.72L85.90-9.72Q86.21-10.76 86.76-11.24Q87.31-11.73 87.96-11.87Q88.61-12.01 89.16-12.01L89.16-12.01Q91.12-12.01 92.07-10.99Q93.03-9.97 93.03-7.70L93.03-7.70L93.03-2.24Q93.03-1.47 93.18-1.03Q93.34-0.59 93.70-0.41Q94.06-0.22 94.68-0.22L94.68-0.22L94.79-0.22L94.79 0L90.96 0L90.96-8.45Q90.96-9.88 90.43-10.78Q89.91-11.68 88.61-11.68L88.61-11.68Q87.57-11.68 86.98-11.13Q86.39-10.58 86.13-9.71Q85.88-8.84 85.88-7.90L85.88-7.90L85.88-2.24Q85.88-1.47 86.04-1.03Q86.21-0.59 86.59-0.41Q86.98-0.22 87.64-0.22L87.64-0.22L87.75-0.22L87.75 0Z M108.63 0.22L108.63 0.22Q107.20 0.22 106.37-0.59Q105.53-1.41 105.22-3.10L105.22-3.10L105.18-3.10L105.18 0L101.15 0L101.15-0.22L101.33-0.22Q101.99-0.22 102.38-0.40Q102.78-0.57 102.96-0.95Q103.13-1.32 103.13-1.91L103.13-1.91L103.13-14.78Q103.13-15.40 102.96-15.77Q102.78-16.15 102.38-16.32Q101.99-16.50 101.33-16.50L101.33-16.50L101.26-16.50L101.26-16.72L105.20-16.72L105.20-12.67Q105.20-12.10 105.20-11.01Q105.20-9.92 105.16-8.73L105.16-8.73L105.20-8.73Q105.51-10.41 106.35-11.21Q107.20-12.01 108.68-12.01L108.68-12.01Q110.83-12.01 111.94-10.47Q113.05-8.93 113.05-5.92L113.05-5.92Q113.05-3.92 112.55-2.54Q112.04-1.17 111.06-0.47Q110.08 0.22 108.63 0.22ZM108.26-0.11L108.26-0.11Q109.23-0.11 109.81-0.69Q110.39-1.28 110.66-2.56Q110.92-3.85 110.92-5.94L110.92-5.94Q110.92-8.01 110.66-9.27Q110.39-10.54 109.80-11.11Q109.20-11.68 108.24-11.68L108.24-11.68Q106.63-11.68 105.91-10.23Q105.20-8.78 105.20-5.92L105.20-5.92Q105.20-2.97 105.96-1.54Q106.72-0.11 108.26-0.11Z M120.89 0.22L120.89 0.22Q118.42 0.22 117.05-1.36Q115.67-2.95 115.67-5.81L115.67-5.81Q115.67-8.89 116.95-10.45Q118.23-12.01 120.56-12.01L120.56-12.01Q122.69-12.01 123.91-10.69Q125.13-9.37 125.13-6.75L125.13-6.75L125.13-6.23L117.81-6.23Q117.83-3.98 118.14-2.62Q118.45-1.25 119.14-0.63Q119.83 0 120.95 0L120.95 0Q121.79 0 122.44-0.31Q123.09-0.62 123.53-1.22Q123.97-1.83 124.12-2.71L124.12-2.71Q124.39-2.66 124.52-2.44Q124.65-2.22 124.65-1.98L124.65-1.98Q124.65-1.54 124.23-1.02Q123.81-0.51 122.99-0.14Q122.16 0.22 120.89 0.22ZM117.81-6.45L122.91-6.45Q122.91-8.38 122.67-9.55Q122.43-10.71 121.90-11.25Q121.37-11.79 120.51-11.79L120.51-11.79Q119.61-11.79 119.04-11.25Q118.47-10.71 118.18-9.55Q117.90-8.38 117.81-6.45L117.81-6.45Z M132.70 0.22L132.70 0.22Q131.21 0.22 130.06-0.38Q128.92-0.99 128.28-2.35Q127.64-3.72 127.64-5.94L127.64-5.94Q127.64-8.21 128.29-9.54Q128.94-10.87 130.04-11.44Q131.14-12.01 132.53-12.01L132.53-12.01Q133.45-12.01 134.34-11.77Q135.23-11.53 135.81-11.03Q136.38-10.54 136.38-9.72L136.38-9.72Q136.38-9.24 136.15-8.94Q135.92-8.65 135.49-8.51Q135.06-8.38 134.42-8.38L134.42-8.38Q134.42-9.55 134.25-10.31Q134.09-11.07 133.67-11.43Q133.25-11.79 132.48-11.79L132.48-11.79Q131.69-11.79 131.08-11.30Q130.46-10.80 130.12-9.54Q129.78-8.27 129.78-5.92L129.78-5.92Q129.78-3.76 130.11-2.45Q130.44-1.14 131.16-0.57Q131.89 0 133.03 0L133.03 0Q133.76 0 134.34-0.24Q134.93-0.48 135.35-1.09Q135.78-1.69 136.03-2.75L136.03-2.75Q136.25-2.71 136.37-2.53Q136.49-2.35 136.49-2.05L136.49-2.05Q136.49-1.52 136.07-1.00Q135.65-0.48 134.82-0.13Q133.98 0.22 132.70 0.22Z M142.19 0.22L142.19 0.22Q140.52 0.22 139.54-0.65Q138.56-1.52 138.56-3.04L138.56-3.04Q138.56-4.73 139.80-5.57Q141.04-6.40 143.57-6.49L143.57-6.49L145.40-6.56L145.40-8.21Q145.40-9.44 145.27-10.23Q145.14-11.02 144.70-11.41Q144.26-11.79 143.35-11.79L143.35-11.79Q142.08-11.79 141.71-11Q141.35-10.21 141.35-8.51L141.35-8.51Q140.43-8.51 139.95-8.82Q139.48-9.13 139.48-9.83L139.48-9.83Q139.48-10.63 140.02-11.10Q140.56-11.57 141.46-11.79Q142.36-12.01 143.44-12.01L143.44-12.01Q145.47-12.01 146.47-11.15Q147.47-10.30 147.47-8.21L147.47-8.21L147.47-1.63Q147.47-1.10 147.60-0.79Q147.73-0.48 148.04-0.35Q148.35-0.22 148.83-0.22L148.83-0.22L148.90-0.22L148.90 0L145.58 0L145.58-2.31L145.53-2.31Q145.31-1.43 144.83-0.87Q144.34-0.31 143.67-0.04Q143.00 0.22 142.19 0.22ZM142.63-0.09L142.63-0.09Q143.44-0.09 144.07-0.51Q144.70-0.92 145.05-1.63Q145.40-2.33 145.40-3.15L145.40-3.15L145.40-6.31L143.99-6.25Q142.12-6.16 141.41-5.39Q140.69-4.62 140.69-2.79L140.69-2.79Q140.69-1.91 140.90-1.31Q141.11-0.70 141.55-0.40Q141.99-0.09 142.63-0.09Z M156.27 0.22L156.27 0.22Q154.33 0.22 153.38-0.80Q152.42-1.83 152.42-4.09L152.42-4.09L152.42-9.59Q152.42-10.34 152.25-10.77Q152.09-11.20 151.69-11.38Q151.30-11.57 150.62-11.57L150.62-11.57L150.55-11.57L150.55-11.79L154.49-11.79L154.49-3.98Q154.49-2.57 154.69-1.73Q154.88-0.88 155.36-0.48Q155.83-0.09 156.62-0.09L156.62-0.09Q157.61-0.09 158.26-0.60Q158.91-1.12 159.24-2.12Q159.57-3.12 159.57-4.53L159.57-4.53L159.57-9.59Q159.57-10.34 159.40-10.77Q159.24-11.20 158.84-11.38Q158.45-11.57 157.77-11.57L157.77-11.57L157.70-11.57L157.70-11.79L161.64-11.79L161.64-2.18Q161.64-1.43 161.80-1.00Q161.97-0.57 162.36-0.40Q162.76-0.22 163.44-0.22L163.44-0.22L163.51-0.22L163.51 0L159.72 0L159.72-3.01L159.68-3.01Q159.50-1.89 159.12-1.24Q158.73-0.59 158.24-0.29Q157.74 0.02 157.23 0.12Q156.71 0.22 156.27 0.22Z M168.92 0.22L168.92 0.22Q167.82 0.22 166.99-0.04Q166.15-0.31 165.68-0.82Q165.20-1.34 165.20-2.11L165.20-2.11Q165.20-2.71 165.45-3.04Q165.69-3.37 166.01-3.50Q166.33-3.63 166.59-3.63L166.59-3.63Q166.59-2.44 166.81-1.64Q167.03-0.84 167.56-0.42Q168.09 0 168.97 0L168.97 0Q170.13 0 170.81-0.60Q171.50-1.21 171.50-2.40L171.50-2.40Q171.50-3.17 171.23-3.62Q170.97-4.07 170.36-4.42Q169.76-4.77 168.68-5.24L168.68-5.24Q167.43-5.79 166.70-6.30Q165.97-6.82 165.67-7.44Q165.36-8.05 165.36-8.89L165.36-8.89Q165.36-10.38 166.41-11.19Q167.47-11.99 169.34-11.99L169.34-11.99Q170.40-11.99 171.15-11.71Q171.91-11.44 172.31-10.98Q172.71-10.52 172.71-9.97L172.71-9.97Q172.71-9.37 172.30-9.01Q171.89-8.65 171.12-8.65L171.12-8.65Q171.12-10.34 170.66-11.05Q170.20-11.77 169.23-11.77L169.23-11.77Q168.48-11.77 167.99-11.53Q167.49-11.29 167.24-10.82Q166.99-10.36 166.99-9.66L166.99-9.66Q166.99-8.89 167.29-8.43Q167.60-7.96 168.25-7.63Q168.90-7.30 169.87-6.89L169.87-6.89Q171.12-6.38 171.85-5.86Q172.57-5.35 172.87-4.72Q173.17-4.09 173.17-3.23L173.17-3.23Q173.17-1.52 172.02-0.65Q170.88 0.22 168.92 0.22Z M180.76 0.22L180.76 0.22Q178.30 0.22 176.92-1.36Q175.55-2.95 175.55-5.81L175.55-5.81Q175.55-8.89 176.82-10.45Q178.10-12.01 180.43-12.01L180.43-12.01Q182.56-12.01 183.78-10.69Q185.01-9.37 185.01-6.75L185.01-6.75L185.01-6.23L177.68-6.23Q177.70-3.98 178.01-2.62Q178.32-1.25 179.01-0.63Q179.70 0 180.83 0L180.83 0Q181.66 0 182.31-0.31Q182.96-0.62 183.40-1.22Q183.84-1.83 183.99-2.71L183.99-2.71Q184.26-2.66 184.39-2.44Q184.52-2.22 184.52-1.98L184.52-1.98Q184.52-1.54 184.10-1.02Q183.69-0.51 182.86-0.14Q182.04 0.22 180.76 0.22ZM177.68-6.45L182.78-6.45Q182.78-8.38 182.54-9.55Q182.30-10.71 181.77-11.25Q181.24-11.79 180.39-11.79L180.39-11.79Q179.48-11.79 178.91-11.25Q178.34-10.71 178.05-9.55Q177.77-8.38 177.68-6.45L177.68-6.45Z M196.74 0.22L196.74 0.22Q195.06 0.22 194.30-0.54Q193.55-1.30 193.55-3.19L193.55-3.19L193.55-11.57L191.87-11.57L191.87-11.79Q192.67-11.79 193.25-11.93Q193.83-12.08 194.25-12.39L194.25-12.39Q194.69-12.69 194.96-13.22Q195.24-13.75 195.39-14.50L195.39-14.50L195.61-14.50L195.61-11.79L198.69-11.79L198.69-11.57L195.61-11.57L195.61-2.38Q195.61-1.23 196.05-0.66Q196.49-0.09 197.35-0.09L197.35-0.09Q197.66-0.09 197.99-0.15Q198.32-0.22 198.69-0.35L198.69-0.35L198.69-0.13Q198.41 0 197.84 0.11Q197.26 0.22 196.74 0.22Z M205.71 0L199.80 0L199.80-0.22L199.97-0.22Q200.65-0.22 201.05-0.41Q201.45-0.59 201.61-1.03Q201.78-1.47 201.78-2.24L201.78-2.24L201.78-14.52Q201.78-15.27 201.61-15.70Q201.45-16.13 201.07-16.31Q200.70-16.50 200.02-16.50L200.02-16.50L199.91-16.50L199.91-16.72L203.84-16.72L203.84-12.28Q203.84-11.86 203.84-11.43Q203.84-11 203.84-10.58Q203.84-10.16 203.82-9.72L203.82-9.72L203.87-9.72Q204.17-10.76 204.72-11.24Q205.27-11.73 205.92-11.87Q206.57-12.01 207.12-12.01L207.12-12.01Q209.08-12.01 210.04-10.99Q210.99-9.97 210.99-7.70L210.99-7.70L210.99-2.24Q210.99-1.47 211.15-1.03Q211.30-0.59 211.66-0.41Q212.03-0.22 212.64-0.22L212.64-0.22L212.75-0.22L212.75 0L208.93 0L208.93-8.45Q208.93-9.88 208.40-10.78Q207.87-11.68 206.57-11.68L206.57-11.68Q205.54-11.68 204.94-11.13Q204.35-10.58 204.10-9.71Q203.84-8.84 203.84-7.90L203.84-7.90L203.84-2.24Q203.84-1.47 204.01-1.03Q204.17-0.59 204.56-0.41Q204.94-0.22 205.60-0.22L205.60-0.22L205.71-0.22L205.71 0Z M219.99 0.22L219.99 0.22Q217.53 0.22 216.15-1.36Q214.78-2.95 214.78-5.81L214.78-5.81Q214.78-8.89 216.06-10.45Q217.33-12.01 219.66-12.01L219.66-12.01Q221.80-12.01 223.02-10.69Q224.24-9.37 224.24-6.75L224.24-6.75L224.24-6.23L216.91-6.23Q216.94-3.98 217.24-2.62Q217.55-1.25 218.24-0.63Q218.94 0 220.06 0L220.06 0Q220.90 0 221.54-0.31Q222.19-0.62 222.63-1.22Q223.07-1.83 223.23-2.71L223.23-2.71Q223.49-2.66 223.62-2.44Q223.76-2.22 223.76-1.98L223.76-1.98Q223.76-1.54 223.34-1.02Q222.92-0.51 222.09-0.14Q221.27 0.22 219.99 0.22ZM216.91-6.45L222.02-6.45Q222.02-8.38 221.78-9.55Q221.53-10.71 221.01-11.25Q220.48-11.79 219.62-11.79L219.62-11.79Q218.72-11.79 218.15-11.25Q217.57-10.71 217.29-9.55Q217.00-8.38 216.91-6.45L216.91-6.45Z M226.38 5.28L226.38 5.06Q227.94 5.06 228.88 4.83Q229.83 4.60 230.39 4.10Q230.95 3.61 231.34 2.83Q231.72 2.05 232.14 0.97L232.14 0.97L227.32-10.36Q227.12-10.85 226.94-11.10Q226.75-11.35 226.55-11.46Q226.35-11.57 226.07-11.57L226.07-11.57L225.63-11.57L225.63-11.79L230.91-11.79L230.91-11.57L230.84-11.57Q230.23-11.57 229.86-11.38Q229.50-11.20 229.50-10.71L229.50-10.71Q229.50-10.52 229.57-10.26Q229.63-10.01 229.76-9.70L229.76-9.70L231.66-5.10Q231.83-4.71 232.01-4.25Q232.18-3.78 232.36-3.30Q232.54-2.82 232.69-2.38Q232.84-1.94 232.98-1.56L232.98-1.56Q233.26-2.42 233.53-3.20Q233.79-3.98 233.97-4.53L233.97-4.53L235.57-9.57Q235.68-9.88 235.73-10.12Q235.77-10.36 235.77-10.56L235.77-10.56Q235.77-11.07 235.43-11.32Q235.09-11.57 234.32-11.57L234.32-11.57L233.39-11.57L233.39-11.79L237.97-11.79L237.97-11.57L237.79-11.57Q237.27-11.57 236.92-11.44Q236.58-11.31 236.36-10.93Q236.14-10.56 235.90-9.86L235.90-9.86L232.69 0.09Q232.18 1.67 231.70 2.68Q231.22 3.70 230.58 4.27Q229.94 4.84 228.98 5.06Q228.03 5.28 226.57 5.28L226.57 5.28L226.38 5.28Z M251.20 0.22L251.20 0.22Q249.77 0.22 248.93-0.59Q248.09-1.41 247.79-3.10L247.79-3.10L247.74-3.10L247.74 0L243.72 0L243.72-0.22L243.89-0.22Q244.55-0.22 244.95-0.40Q245.34-0.57 245.52-0.95Q245.70-1.32 245.70-1.91L245.70-1.91L245.70-14.78Q245.70-15.40 245.52-15.77Q245.34-16.15 244.95-16.32Q244.55-16.50 243.89-16.50L243.89-16.50L243.83-16.50L243.83-16.72L247.76-16.72L247.76-12.67Q247.76-12.10 247.76-11.01Q247.76-9.92 247.72-8.73L247.72-8.73L247.76-8.73Q248.07-10.41 248.92-11.21Q249.77-12.01 251.24-12.01L251.24-12.01Q253.40-12.01 254.51-10.47Q255.62-8.93 255.62-5.92L255.62-5.92Q255.62-3.92 255.11-2.54Q254.61-1.17 253.63-0.47Q252.65 0.22 251.20 0.22ZM250.82-0.11L250.82-0.11Q251.79-0.11 252.37-0.69Q252.96-1.28 253.22-2.56Q253.48-3.85 253.48-5.94L253.48-5.94Q253.48-8.01 253.22-9.27Q252.96-10.54 252.36-11.11Q251.77-11.68 250.80-11.68L250.80-11.68Q249.19-11.68 248.48-10.23Q247.76-8.78 247.76-5.92L247.76-5.92Q247.76-2.97 248.52-1.54Q249.28-0.11 250.82-0.11Z M263.45 0.22L263.45 0.22Q260.99 0.22 259.61-1.36Q258.24-2.95 258.24-5.81L258.24-5.81Q258.24-8.89 259.51-10.45Q260.79-12.01 263.12-12.01L263.12-12.01Q265.26-12.01 266.48-10.69Q267.70-9.37 267.70-6.75L267.70-6.75L267.70-6.23L260.37-6.23Q260.39-3.98 260.70-2.62Q261.01-1.25 261.70-0.63Q262.40 0 263.52 0L263.52 0Q264.35 0 265.00-0.31Q265.65-0.62 266.09-1.22Q266.53-1.83 266.69-2.71L266.69-2.71Q266.95-2.66 267.08-2.44Q267.21-2.22 267.21-1.98L267.21-1.98Q267.21-1.54 266.80-1.02Q266.38-0.51 265.55-0.14Q264.73 0.22 263.45 0.22ZM260.37-6.45L265.48-6.45Q265.48-8.38 265.23-9.55Q264.99-10.71 264.46-11.25Q263.94-11.79 263.08-11.79L263.08-11.79Q262.18-11.79 261.60-11.25Q261.03-10.71 260.75-9.55Q260.46-8.38 260.37-6.45L260.37-6.45Z M275.53 0L269.28 0L269.28-0.22L269.57-0.22Q270.23-0.22 270.63-0.40Q271.02-0.57 271.20-0.95Q271.37-1.32 271.37-1.91L271.37-1.91L271.37-14.78Q271.37-15.40 271.20-15.77Q271.02-16.15 270.63-16.32Q270.23-16.50 269.57-16.50L269.57-16.50L269.28-16.50L269.28-16.72L273.44-16.72L273.44-2.02Q273.44-1.36 273.62-0.97Q273.79-0.57 274.19-0.40Q274.59-0.22 275.25-0.22L275.25-0.22L275.53-0.22L275.53 0Z M282.77 0L276.52 0L276.52-0.22L276.81-0.22Q277.47-0.22 277.87-0.40Q278.26-0.57 278.44-0.95Q278.61-1.32 278.61-1.91L278.61-1.91L278.61-9.86Q278.61-10.47 278.44-10.85Q278.26-11.22 277.87-11.40Q277.47-11.57 276.81-11.57L276.81-11.57L276.74-11.57L276.74-11.79L280.68-11.79L280.68-2.02Q280.68-1.36 280.86-0.97Q281.03-0.57 281.44-0.40Q281.85-0.22 282.49-0.22L282.49-0.22L282.77-0.22L282.77 0ZM279.54-13.90L279.54-13.90Q279.12-13.90 278.84-14.18Q278.57-14.45 278.57-15.14L278.57-15.14Q278.57-15.84 278.84-16.10Q279.12-16.37 279.54-16.37L279.54-16.37Q279.93-16.37 280.22-16.10Q280.51-15.84 280.51-15.14L280.51-15.14Q280.51-14.45 280.22-14.18Q279.93-13.90 279.54-13.90Z M289.68 0.22L289.68 0.22Q287.22 0.22 285.84-1.36Q284.47-2.95 284.47-5.81L284.47-5.81Q284.47-8.89 285.74-10.45Q287.02-12.01 289.35-12.01L289.35-12.01Q291.49-12.01 292.71-10.69Q293.93-9.37 293.93-6.75L293.93-6.75L293.93-6.23L286.60-6.23Q286.62-3.98 286.93-2.62Q287.24-1.25 287.93-0.63Q288.63 0 289.75 0L289.75 0Q290.58 0 291.23-0.31Q291.88-0.62 292.32-1.22Q292.76-1.83 292.92-2.71L292.92-2.71Q293.18-2.66 293.31-2.44Q293.44-2.22 293.44-1.98L293.44-1.98Q293.44-1.54 293.03-1.02Q292.61-0.51 291.78-0.14Q290.96 0.22 289.68 0.22ZM286.60-6.45L291.71-6.45Q291.71-8.38 291.46-9.55Q291.22-10.71 290.69-11.25Q290.17-11.79 289.31-11.79L289.31-11.79Q288.41-11.79 287.83-11.25Q287.26-10.71 286.98-9.55Q286.69-8.38 286.60-6.45L286.60-6.45Z M300.49 0L296.70-10.41Q296.55-10.85 296.36-11.10Q296.17-11.35 295.93-11.46Q295.69-11.57 295.32-11.57L295.32-11.57L295.32-11.79L300.82-11.79L300.82-11.57L300.29-11.57Q299.58-11.57 299.24-11.38Q298.90-11.20 298.90-10.74L298.90-10.74Q298.90-10.54 298.97-10.29Q299.03-10.03 299.14-9.70L299.14-9.70L300.88-4.84Q301.17-4.05 301.38-3.44Q301.59-2.84 301.79-2.23Q302.00-1.63 302.27-0.79L302.27-0.79Q302.40-1.21 302.51-1.56Q302.62-1.91 302.75-2.29Q302.88-2.66 303.06-3.15L303.06-3.15L305.28-9.57Q305.39-9.92 305.46-10.19Q305.52-10.45 305.52-10.67L305.52-10.67Q305.52-11.18 305.14-11.37Q304.75-11.57 303.92-11.57L303.92-11.57L303.19-11.57L303.19-11.79L307.90-11.79L307.90-11.57L307.28-11.57Q306.87-11.57 306.57-11.42Q306.27-11.26 306.05-10.89Q305.83-10.52 305.61-9.86L305.61-9.86L302.22 0L300.49 0Z M314.59 0.22L314.59 0.22Q312.13 0.22 310.75-1.36Q309.38-2.95 309.38-5.81L309.38-5.81Q309.38-8.89 310.65-10.45Q311.93-12.01 314.26-12.01L314.26-12.01Q316.39-12.01 317.61-10.69Q318.84-9.37 318.84-6.75L318.84-6.75L318.84-6.23L311.51-6.23Q311.53-3.98 311.84-2.62Q312.15-1.25 312.84-0.63Q313.53 0 314.66 0L314.66 0Q315.49 0 316.14-0.31Q316.79-0.62 317.23-1.22Q317.67-1.83 317.82-2.71L317.82-2.71Q318.09-2.66 318.22-2.44Q318.35-2.22 318.35-1.98L318.35-1.98Q318.35-1.54 317.93-1.02Q317.52-0.51 316.69-0.14Q315.87 0.22 314.59 0.22ZM311.51-6.45L316.61-6.45Q316.61-8.38 316.37-9.55Q316.13-10.71 315.60-11.25Q315.07-11.79 314.22-11.79L314.22-11.79Q313.31-11.79 312.74-11.25Q312.17-10.71 311.88-9.55Q311.60-8.38 311.51-6.45L311.51-6.45Z M330.57 0.22L330.57 0.22Q328.89 0.22 328.13-0.54Q327.38-1.30 327.38-3.19L327.38-3.19L327.38-11.57L325.70-11.57L325.70-11.79Q326.50-11.79 327.08-11.93Q327.66-12.08 328.08-12.39L328.08-12.39Q328.52-12.69 328.79-13.22Q329.07-13.75 329.22-14.50L329.22-14.50L329.44-14.50L329.44-11.79L332.52-11.79L332.52-11.57L329.44-11.57L329.44-2.38Q329.44-1.23 329.88-0.66Q330.32-0.09 331.18-0.09L331.18-0.09Q331.49-0.09 331.82-0.15Q332.15-0.22 332.52-0.35L332.52-0.35L332.52-0.13Q332.24 0 331.67 0.11Q331.09 0.22 330.57 0.22Z M339.54 0L333.63 0L333.63-0.22L333.80-0.22Q334.48-0.22 334.88-0.41Q335.28-0.59 335.44-1.03Q335.61-1.47 335.61-2.24L335.61-2.24L335.61-14.52Q335.61-15.27 335.44-15.70Q335.28-16.13 334.90-16.31Q334.53-16.50 333.85-16.50L333.85-16.50L333.74-16.50L333.74-16.72L337.67-16.72L337.67-12.28Q337.67-11.86 337.67-11.43Q337.67-11 337.67-10.58Q337.67-10.16 337.65-9.72L337.65-9.72L337.70-9.72Q338.00-10.76 338.55-11.24Q339.10-11.73 339.75-11.87Q340.40-12.01 340.95-12.01L340.95-12.01Q342.91-12.01 343.87-10.99Q344.82-9.97 344.82-7.70L344.82-7.70L344.82-2.24Q344.82-1.47 344.98-1.03Q345.13-0.59 345.49-0.41Q345.86-0.22 346.47-0.22L346.47-0.22L346.58-0.22L346.58 0L342.76 0L342.76-8.45Q342.76-9.88 342.23-10.78Q341.70-11.68 340.40-11.68L340.40-11.68Q339.37-11.68 338.77-11.13Q338.18-10.58 337.93-9.71Q337.67-8.84 337.67-7.90L337.67-7.90L337.67-2.24Q337.67-1.47 337.84-1.03Q338.00-0.59 338.39-0.41Q338.77-0.22 339.43-0.22L339.43-0.22L339.54-0.22L339.54 0Z M353.82 0.22L353.82 0.22Q351.36 0.22 349.98-1.36Q348.61-2.95 348.61-5.81L348.61-5.81Q348.61-8.89 349.89-10.45Q351.16-12.01 353.49-12.01L353.49-12.01Q355.63-12.01 356.85-10.69Q358.07-9.37 358.07-6.75L358.07-6.75L358.07-6.23L350.74-6.23Q350.77-3.98 351.07-2.62Q351.38-1.25 352.07-0.63Q352.77 0 353.89 0L353.89 0Q354.73 0 355.38-0.31Q356.02-0.62 356.46-1.22Q356.90-1.83 357.06-2.71L357.06-2.71Q357.32-2.66 357.45-2.44Q357.59-2.22 357.59-1.98L357.59-1.98Q357.59-1.54 357.17-1.02Q356.75-0.51 355.92-0.14Q355.10 0.22 353.82 0.22ZM350.74-6.45L355.85-6.45Q355.85-8.38 355.61-9.55Q355.36-10.71 354.84-11.25Q354.31-11.79 353.45-11.79L353.45-11.79Q352.55-11.79 351.98-11.25Q351.40-10.71 351.12-9.55Q350.83-8.38 350.74-6.45L350.74-6.45Z M360.21 5.28L360.21 5.06Q361.77 5.06 362.71 4.83Q363.66 4.60 364.22 4.10Q364.78 3.61 365.17 2.83Q365.55 2.05 365.97 0.97L365.97 0.97L361.15-10.36Q360.95-10.85 360.77-11.10Q360.58-11.35 360.38-11.46Q360.18-11.57 359.90-11.57L359.90-11.57L359.46-11.57L359.46-11.79L364.74-11.79L364.74-11.57L364.67-11.57Q364.06-11.57 363.69-11.38Q363.33-11.20 363.33-10.71L363.33-10.71Q363.33-10.52 363.40-10.26Q363.46-10.01 363.59-9.70L363.59-9.70L365.49-5.10Q365.66-4.71 365.84-4.25Q366.01-3.78 366.19-3.30Q366.37-2.82 366.52-2.38Q366.67-1.94 366.81-1.56L366.81-1.56Q367.09-2.42 367.36-3.20Q367.62-3.98 367.80-4.53L367.80-4.53L369.40-9.57Q369.51-9.88 369.56-10.12Q369.60-10.36 369.60-10.56L369.60-10.56Q369.60-11.07 369.26-11.32Q368.92-11.57 368.15-11.57L368.15-11.57L367.22-11.57L367.22-11.79L371.80-11.79L371.80-11.57L371.62-11.57Q371.10-11.57 370.75-11.44Q370.41-11.31 370.19-10.93Q369.97-10.56 369.73-9.86L369.73-9.86L366.52 0.09Q366.01 1.67 365.53 2.68Q365.05 3.70 364.41 4.27Q363.77 4.84 362.81 5.06Q361.86 5.28 360.40 5.28L360.40 5.28L360.21 5.28Z M383.42 0.22L383.42 0.22Q381.92 0.22 380.78-0.38Q379.64-0.99 379.00-2.35Q378.36-3.72 378.36-5.94L378.36-5.94Q378.36-8.21 379.01-9.54Q379.66-10.87 380.76-11.44Q381.86-12.01 383.24-12.01L383.24-12.01Q384.17-12.01 385.06-11.77Q385.95-11.53 386.52-11.03Q387.09-10.54 387.09-9.72L387.09-9.72Q387.09-9.24 386.86-8.94Q386.63-8.65 386.20-8.51Q385.77-8.38 385.14-8.38L385.14-8.38Q385.14-9.55 384.97-10.31Q384.81-11.07 384.39-11.43Q383.97-11.79 383.20-11.79L383.20-11.79Q382.41-11.79 381.79-11.30Q381.18-10.80 380.83-9.54Q380.49-8.27 380.49-5.92L380.49-5.92Q380.49-3.76 380.82-2.45Q381.15-1.14 381.88-0.57Q382.61 0 383.75 0L383.75 0Q384.48 0 385.06-0.24Q385.64-0.48 386.07-1.09Q386.50-1.69 386.74-2.75L386.74-2.75Q386.96-2.71 387.08-2.53Q387.20-2.35 387.20-2.05L387.20-2.05Q387.20-1.52 386.79-1.00Q386.37-0.48 385.53-0.13Q384.70 0.22 383.42 0.22Z M392.90 0.22L392.90 0.22Q391.23 0.22 390.25-0.65Q389.27-1.52 389.27-3.04L389.27-3.04Q389.27-4.73 390.52-5.57Q391.76-6.40 394.29-6.49L394.29-6.49L396.12-6.56L396.12-8.21Q396.12-9.44 395.98-10.23Q395.85-11.02 395.41-11.41Q394.97-11.79 394.07-11.79L394.07-11.79Q392.79-11.79 392.43-11Q392.07-10.21 392.07-8.51L392.07-8.51Q391.14-8.51 390.67-8.82Q390.20-9.13 390.20-9.83L390.20-9.83Q390.20-10.63 390.74-11.10Q391.28-11.57 392.18-11.79Q393.08-12.01 394.16-12.01L394.16-12.01Q396.18-12.01 397.18-11.15Q398.18-10.30 398.18-8.21L398.18-8.21L398.18-1.63Q398.18-1.10 398.32-0.79Q398.45-0.48 398.76-0.35Q399.06-0.22 399.55-0.22L399.55-0.22L399.61-0.22L399.61 0L396.29 0L396.29-2.31L396.25-2.31Q396.03-1.43 395.54-0.87Q395.06-0.31 394.39-0.04Q393.72 0.22 392.90 0.22ZM393.34-0.09L393.34-0.09Q394.16-0.09 394.78-0.51Q395.41-0.92 395.76-1.63Q396.12-2.33 396.12-3.15L396.12-3.15L396.12-6.31L394.71-6.25Q392.84-6.16 392.12-5.39Q391.41-4.62 391.41-2.79L391.41-2.79Q391.41-1.91 391.62-1.31Q391.83-0.70 392.27-0.40Q392.71-0.09 393.34-0.09Z M407.29 0L401.38 0L401.38-0.22L401.55-0.22Q402.23-0.22 402.63-0.41Q403.03-0.59 403.19-1.03Q403.36-1.47 403.36-2.24L403.36-2.24L403.36-9.59Q403.36-10.34 403.19-10.77Q403.03-11.20 402.65-11.38Q402.28-11.57 401.60-11.57L401.60-11.57L401.49-11.57L401.49-11.79L405.40-11.79L405.40-9.72L405.45-9.72Q405.75-10.76 406.30-11.24Q406.85-11.73 407.50-11.87Q408.15-12.01 408.70-12.01L408.70-12.01Q410.66-12.01 411.62-10.99Q412.57-9.97 412.57-7.70L412.57-7.70L412.57-2.24Q412.57-1.47 412.73-1.03Q412.88-0.59 413.25-0.41Q413.61-0.22 414.22-0.22L414.22-0.22L414.33-0.22L414.33 0L410.51 0L410.51-8.45Q410.51-9.88 409.98-10.78Q409.45-11.68 408.15-11.68L408.15-11.68Q407.12-11.68 406.52-11.13Q405.93-10.58 405.68-9.71Q405.42-8.84 405.42-7.90L405.42-7.90L405.42-2.24Q405.42-1.47 405.59-1.03Q405.75-0.59 406.14-0.41Q406.52-0.22 407.18-0.22L407.18-0.22L407.29-0.22L407.29 0Z M417.90 0.15L417.90 0.15Q417.31 0.15 417.01-0.22Q416.71-0.59 416.71-1.34L416.71-1.34Q416.71-2.09 417.01-2.46Q417.31-2.84 417.90-2.84L417.90-2.84Q418.49-2.84 418.79-2.46Q419.09-2.09 419.09-1.34L419.09-1.34Q419.09-0.59 418.79-0.22Q418.49 0.15 417.90 0.15Z"/></g>
    </g>
  </g>

  <g fill="#816A3A" opacity="0.9"><animate attributeName="opacity" from="0" to="0.9" dur="1.2s" begin="0s" fill="freeze"/><path transform="translate(658.18 262)" d="M4.55 0L1.23-9.43Q1.13-9.73 1.00-9.90Q0.87-10.06 0.68-10.14Q0.49-10.21 0.19-10.21L0.19-10.21L0-10.21L0-10.35L3.99-10.35L3.99-10.21L3.64-10.21Q3.18-10.21 2.96-10.08Q2.74-9.96 2.74-9.66L2.74-9.66Q2.74-9.57 2.76-9.46Q2.77-9.35 2.81-9.24Q2.84-9.12 2.89-8.98L2.89-8.98L4.68-3.80Q4.81-3.44 4.92-3.10Q5.03-2.77 5.13-2.45Q5.23-2.13 5.31-1.84Q5.39-1.55 5.47-1.28L5.47-1.28Q5.58-1.65 5.71-2.08Q5.84-2.51 5.99-2.95Q6.13-3.39 6.26-3.80L6.26-3.80L7.92-8.86Q7.98-9.02 8.00-9.14Q8.03-9.27 8.05-9.38Q8.08-9.50 8.08-9.58L8.08-9.58Q8.08-9.93 7.84-10.07Q7.61-10.21 7.11-10.21L7.11-10.21L6.25-10.21L6.25-10.35L9.79-10.35L9.79-10.21L9.27-10.21Q8.99-10.21 8.80-10.11Q8.61-10.01 8.47-9.76Q8.32-9.51 8.18-9.09L8.18-9.09L5.18 0L4.55 0Z M15.44 0L11.32 0L11.32-0.15L11.51-0.15Q11.94-0.15 12.21-0.26Q12.47-0.38 12.58-0.62Q12.70-0.87 12.70-1.26L12.70-1.26L12.70-6.50Q12.70-6.90 12.58-7.15Q12.47-7.40 12.21-7.51Q11.94-7.63 11.51-7.63L11.51-7.63L11.47-7.63L11.47-7.77L14.06-7.77L14.06-1.33Q14.06-0.90 14.18-0.64Q14.29-0.38 14.56-0.26Q14.83-0.15 15.25-0.15L15.25-0.15L15.44-0.15L15.44 0ZM13.31-9.16L13.31-9.16Q13.03-9.16 12.85-9.35Q12.67-9.53 12.67-9.98L12.67-9.98Q12.67-10.44 12.85-10.61Q13.03-10.79 13.31-10.79L13.31-10.79Q13.57-10.79 13.76-10.61Q13.95-10.44 13.95-9.98L13.95-9.98Q13.95-9.53 13.76-9.35Q13.57-9.16 13.31-9.16Z M21.28 0L17.16 0L17.16-0.15L17.35-0.15Q17.78-0.15 18.05-0.26Q18.31-0.38 18.42-0.62Q18.54-0.87 18.54-1.26L18.54-1.26L18.54-6.50Q18.54-6.90 18.42-7.15Q18.31-7.40 18.05-7.51Q17.78-7.63 17.35-7.63L17.35-7.63L17.31-7.63L17.31-7.77L19.89-7.77L19.89-6.32L19.92-6.32Q20.02-6.70 20.22-7.06Q20.42-7.42 20.84-7.67Q21.25-7.92 21.95-7.92L21.95-7.92Q22.67-7.92 23.06-7.63Q23.44-7.35 23.44-6.84L23.44-6.84Q23.44-6.41 23.13-6.12Q22.82-5.83 22.09-5.83L22.09-5.83Q22.09-6.73 21.79-7.07Q21.48-7.41 21.11-7.41L21.11-7.41Q20.68-7.41 20.44-7.11Q20.19-6.82 20.08-6.34Q19.96-5.87 19.93-5.37Q19.90-4.87 19.90-4.45L19.90-4.45L19.90-1.33Q19.90-0.90 20.02-0.64Q20.13-0.38 20.40-0.26Q20.67-0.15 21.09-0.15L21.09-0.15L21.28-0.15L21.28 0Z M28.21 3.48L28.21 3.48Q26.70 3.48 25.94 2.94Q25.19 2.39 25.19 1.49L25.19 1.49Q25.19 0.99 25.42 0.62Q25.65 0.25 26.13 0.03Q26.61-0.19 27.34-0.19L27.34-0.19Q26.77-0.36 26.49-0.75Q26.21-1.15 26.21-1.58L26.21-1.58Q26.21-2.00 26.49-2.39Q26.77-2.77 27.37-2.97L27.37-2.97Q26.67-3.22 26.26-3.79Q25.84-4.36 25.84-5.23L25.84-5.23Q25.84-6.48 26.52-7.20Q27.21-7.92 28.57-7.92L28.57-7.92Q29.08-7.92 29.48-7.79Q29.89-7.67 30.21-7.44L30.21-7.44Q30.43-7.67 30.79-7.95Q31.15-8.22 31.64-8.22L31.64-8.22Q32.06-8.22 32.27-8.00Q32.48-7.77 32.48-7.45L32.48-7.45Q32.48-7.16 32.30-6.97Q32.12-6.79 31.72-6.79L31.72-6.79Q31.72-7.25 31.56-7.47Q31.41-7.69 31.08-7.69L31.08-7.69Q30.89-7.69 30.73-7.62Q30.57-7.55 30.32-7.35L30.32-7.35Q30.74-7.00 30.96-6.47Q31.18-5.93 31.18-5.28L31.18-5.28Q31.18-4.21 30.53-3.49Q29.89-2.78 28.57-2.78L28.57-2.78Q28.29-2.78 28.04-2.82Q27.79-2.86 27.55-2.91L27.55-2.91Q27.21-2.77 27.08-2.57Q26.95-2.36 26.95-2.12L26.95-2.12Q26.95-1.74 27.21-1.57Q27.48-1.39 28.02-1.39L28.02-1.39L29.66-1.39Q30.95-1.39 31.50-0.78Q32.05-0.17 32.05 0.77L32.05 0.77Q32.05 2.02 31.11 2.75Q30.18 3.48 28.21 3.48ZM28.32 3.33L28.32 3.33Q29.70 3.33 30.35 2.83Q31.00 2.33 31.00 1.36L31.00 1.36Q31.00 0.61 30.61 0.25Q30.21-0.10 29.38-0.10L29.38-0.10L27.81-0.10Q27.42-0.10 27.07 0.04Q26.71 0.19 26.49 0.55Q26.26 0.91 26.26 1.55L26.26 1.55Q26.26 2.15 26.51 2.54Q26.76 2.94 27.21 3.14Q27.67 3.33 28.32 3.33ZM28.53-2.93L28.53-2.93Q29.00-2.93 29.29-3.18Q29.57-3.42 29.69-3.94Q29.82-4.47 29.82-5.28L29.82-5.28Q29.82-6.13 29.69-6.68Q29.55-7.24 29.27-7.50Q28.99-7.77 28.51-7.77L28.51-7.77Q28.05-7.77 27.76-7.49Q27.47-7.21 27.34-6.66Q27.21-6.10 27.21-5.26L27.21-5.26Q27.21-4.47 27.34-3.94Q27.48-3.42 27.77-3.18Q28.06-2.93 28.53-2.93Z M38.31 0L34.19 0L34.19-0.15L34.38-0.15Q34.81-0.15 35.08-0.26Q35.34-0.38 35.45-0.62Q35.57-0.87 35.57-1.26L35.57-1.26L35.57-6.50Q35.57-6.90 35.45-7.15Q35.34-7.40 35.08-7.51Q34.81-7.63 34.38-7.63L34.38-7.63L34.34-7.63L34.34-7.77L36.93-7.77L36.93-1.33Q36.93-0.90 37.05-0.64Q37.16-0.38 37.43-0.26Q37.70-0.15 38.12-0.15L38.12-0.15L38.31-0.15L38.31 0ZM36.18-9.16L36.18-9.16Q35.90-9.16 35.72-9.35Q35.54-9.53 35.54-9.98L35.54-9.98Q35.54-10.44 35.72-10.61Q35.90-10.79 36.18-10.79L36.18-10.79Q36.44-10.79 36.63-10.61Q36.82-10.44 36.82-9.98L36.82-9.98Q36.82-9.53 36.63-9.35Q36.44-9.16 36.18-9.16Z M44.00 0L39.89 0L39.89-0.15L40.08-0.15Q40.51-0.15 40.77-0.26Q41.03-0.38 41.15-0.62Q41.26-0.87 41.26-1.26L41.26-1.26L41.26-9.74Q41.26-10.15 41.15-10.40Q41.03-10.64 40.77-10.76Q40.51-10.88 40.08-10.88L40.08-10.88L39.89-10.88L39.89-11.02L42.63-11.02L42.63-1.33Q42.63-0.90 42.74-0.64Q42.86-0.38 43.12-0.26Q43.38-0.15 43.82-0.15L43.82-0.15L44.00-0.15L44.00 0Z M45.83 2.23L45.83 2.09Q46.28 1.94 46.62 1.74Q46.96 1.54 47.15 1.26Q47.35 0.99 47.35 0.62L47.35 0.62Q47.35 0.32 47.23 0.15Q47.10-0.01 46.93-0.11Q46.76-0.20 46.57-0.29Q46.39-0.38 46.27-0.54Q46.15-0.70 46.15-0.99L46.15-0.99Q46.15-1.42 46.42-1.65Q46.68-1.87 47.09-1.87L47.09-1.87Q47.54-1.87 47.87-1.56Q48.21-1.25 48.21-0.52L48.21-0.52Q48.21 0.32 47.65 1.09Q47.09 1.87 45.83 2.23L45.83 2.23Z M58.22 0L54.68 0L54.68-0.15L55.10-0.15Q55.42-0.15 55.64-0.25Q55.86-0.35 56.01-0.59Q56.17-0.84 56.32-1.28L56.32-1.28L59.48-10.35L60.22-10.35L63.86-0.91Q63.98-0.62 64.09-0.46Q64.21-0.29 64.36-0.22Q64.51-0.15 64.71-0.15L64.71-0.15L64.90-0.15L64.90 0L60.92 0L60.92-0.15L61.25-0.15Q61.80-0.15 62.05-0.28Q62.29-0.41 62.29-0.74L62.29-0.74Q62.29-0.83 62.28-0.92Q62.26-1.02 62.24-1.13Q62.22-1.25 62.16-1.38L62.16-1.38L61.28-3.76L57.35-3.76L56.55-1.48Q56.51-1.36 56.48-1.25Q56.45-1.13 56.44-1.04Q56.42-0.94 56.42-0.86L56.42-0.86Q56.42-0.46 56.77-0.30Q57.12-0.15 57.89-0.15L57.89-0.15L58.22-0.15L58.22 0ZM58.47-6.97L57.39-3.90L61.22-3.90L60.16-6.73Q59.97-7.22 59.81-7.67Q59.65-8.12 59.52-8.53Q59.38-8.95 59.26-9.34L59.26-9.34Q59.16-9.02 59.07-8.75Q58.99-8.48 58.90-8.22Q58.81-7.96 58.70-7.66Q58.60-7.37 58.47-6.97L58.47-6.97Z M70.34 0.15L70.34 0.15Q68.71 0.15 67.81-0.90Q66.90-1.94 66.90-3.83L66.90-3.83Q66.90-5.86 67.74-6.89Q68.58-7.92 70.12-7.92L70.12-7.92Q71.53-7.92 72.33-7.05Q73.14-6.18 73.14-4.45L73.14-4.45L73.14-4.10L68.31-4.10Q68.32-2.62 68.52-1.73Q68.73-0.83 69.18-0.41Q69.64 0 70.38 0L70.38 0Q70.93 0 71.36-0.20Q71.79-0.41 72.08-0.80Q72.37-1.20 72.47-1.78L72.47-1.78Q72.64-1.75 72.73-1.61Q72.82-1.46 72.82-1.31L72.82-1.31Q72.82-1.02 72.54-0.67Q72.27-0.33 71.72-0.09Q71.18 0.15 70.34 0.15ZM68.31-4.25L71.67-4.25Q71.67-5.52 71.51-6.29Q71.35-7.06 71.00-7.42Q70.66-7.77 70.09-7.77L70.09-7.77Q69.50-7.77 69.12-7.42Q68.74-7.06 68.55-6.29Q68.37-5.52 68.31-4.25L68.31-4.25Z M79.37 0L75.47 0L75.47-0.15L75.58-0.15Q76.03-0.15 76.29-0.27Q76.55-0.39 76.66-0.68Q76.77-0.97 76.77-1.48L76.77-1.48L76.77-6.32Q76.77-6.82 76.66-7.10Q76.55-7.38 76.31-7.50Q76.06-7.63 75.61-7.63L75.61-7.63L75.54-7.63L75.54-7.77L78.12-7.77L78.12-6.41L78.15-6.41Q78.35-7.09 78.71-7.41Q79.08-7.73 79.50-7.82Q79.93-7.92 80.30-7.92L80.30-7.92Q81.59-7.92 82.22-7.24Q82.85-6.57 82.85-5.08L82.85-5.08L82.85-1.48Q82.85-0.97 82.95-0.68Q83.05-0.39 83.29-0.27Q83.53-0.15 83.93-0.15L83.93-0.15L84.01-0.15L84.01 0L81.48 0L81.48-5.57Q81.48-6.51 81.14-7.11Q80.79-7.70 79.93-7.70L79.93-7.70Q79.25-7.70 78.86-7.34Q78.47-6.97 78.30-6.40Q78.13-5.83 78.13-5.21L78.13-5.21L78.13-1.48Q78.13-0.97 78.24-0.68Q78.35-0.39 78.61-0.27Q78.86-0.15 79.29-0.15L79.29-0.15L79.37-0.15L79.37 0Z M89.85 0.15L89.85 0.15Q88.22 0.15 87.32-0.90Q86.41-1.94 86.41-3.83L86.41-3.83Q86.41-5.86 87.25-6.89Q88.09-7.92 89.63-7.92L89.63-7.92Q91.04-7.92 91.84-7.05Q92.65-6.18 92.65-4.45L92.65-4.45L92.65-4.10L87.82-4.10Q87.83-2.62 88.03-1.73Q88.24-0.83 88.69-0.41Q89.15 0 89.89 0L89.89 0Q90.44 0 90.87-0.20Q91.30-0.41 91.59-0.80Q91.88-1.20 91.98-1.78L91.98-1.78Q92.15-1.75 92.24-1.61Q92.33-1.46 92.33-1.31L92.33-1.31Q92.33-1.02 92.05-0.67Q91.78-0.33 91.23-0.09Q90.69 0.15 89.85 0.15ZM87.82-4.25L91.18-4.25Q91.18-5.52 91.02-6.29Q90.86-7.06 90.51-7.42Q90.17-7.77 89.60-7.77L89.60-7.77Q89.01-7.77 88.63-7.42Q88.25-7.06 88.06-6.29Q87.88-5.52 87.82-4.25L87.82-4.25Z M99.02 0L94.90 0L94.90-0.15L95.09-0.15Q95.53-0.15 95.79-0.26Q96.05-0.38 96.17-0.62Q96.28-0.87 96.28-1.26L96.28-1.26L96.28-6.50Q96.28-6.90 96.17-7.15Q96.05-7.40 95.79-7.51Q95.53-7.63 95.09-7.63L95.09-7.63L95.05-7.63L95.05-7.77L97.64-7.77L97.64-1.33Q97.64-0.90 97.76-0.64Q97.88-0.38 98.14-0.26Q98.41-0.15 98.83-0.15L98.83-0.15L99.02-0.15L99.02 0ZM96.89-9.16L96.89-9.16Q96.61-9.16 96.43-9.35Q96.25-9.53 96.25-9.98L96.25-9.98Q96.25-10.44 96.43-10.61Q96.61-10.79 96.89-10.79L96.89-10.79Q97.15-10.79 97.34-10.61Q97.53-10.44 97.53-9.98L97.53-9.98Q97.53-9.53 97.34-9.35Q97.15-9.16 96.89-9.16Z M104.12 0.15L104.12 0.15Q103.18 0.15 102.53-0.31Q101.88-0.77 101.54-1.67Q101.21-2.58 101.21-3.90L101.21-3.90Q101.21-5.23 101.53-6.13Q101.86-7.02 102.51-7.47Q103.15-7.92 104.09-7.92L104.09-7.92Q105.08-7.92 105.64-7.39Q106.20-6.86 106.38-5.76L106.38-5.76L106.41-5.76Q106.40-6.28 106.39-6.78Q106.38-7.28 106.38-7.69Q106.38-8.11 106.38-8.35L106.38-8.35L106.38-9.74Q106.38-10.15 106.27-10.40Q106.15-10.64 105.89-10.76Q105.63-10.88 105.20-10.88L105.20-10.88L105.15-10.88L105.15-11.02L107.75-11.02L107.75-1.26Q107.75-0.87 107.86-0.62Q107.98-0.38 108.25-0.26Q108.52-0.15 108.94-0.15L108.94-0.15L109.05-0.15L109.05 0L106.40 0L106.40-2.04L106.37-2.04Q106.18-0.93 105.62-0.39Q105.06 0.15 104.12 0.15ZM104.37-0.07L104.37-0.07Q105.40-0.07 105.89-1.02Q106.38-1.96 106.38-3.90L106.38-3.90Q106.38-5.16 106.17-6.00Q105.96-6.84 105.53-7.27Q105.09-7.70 104.38-7.70L104.38-7.70Q103.75-7.70 103.35-7.32Q102.96-6.95 102.79-6.11Q102.61-5.28 102.61-3.92L102.61-3.92Q102.61-2.54 102.79-1.69Q102.96-0.84 103.35-0.46Q103.75-0.07 104.37-0.07Z M118.59 0.16L118.59 0.16Q117.63 0.16 117.04-0.07Q116.45-0.29 116.19-0.65Q115.92-1.00 115.92-1.36L115.92-1.36Q115.92-1.70 116.14-1.94Q116.37-2.18 116.83-2.18L116.83-2.18Q116.83-1.42 117.05-0.94Q117.27-0.45 117.69-0.22Q118.11 0 118.70 0L118.70 0Q119.34 0 119.75-0.32Q120.15-0.64 120.34-1.32Q120.53-2.00 120.53-3.07L120.53-3.07Q120.53-4.15 120.31-4.79Q120.09-5.42 119.63-5.71Q119.17-6.00 118.41-6.00L118.41-6.00Q117.86-6.00 117.48-5.86Q117.09-5.71 116.83-5.50Q116.57-5.29 116.37-5.09L116.37-5.09L116.19-5.15L116.64-10.34L121.49-10.34L121.56-8.15L121.41-8.15L121.40-8.31Q121.37-8.64 121.26-8.83Q121.15-9.02 120.94-9.10Q120.73-9.18 120.38-9.18L120.38-9.18L116.69-9.18L116.34-5.25Q116.77-5.74 117.39-5.98Q118.01-6.22 118.73-6.22L118.73-6.22Q119.62-6.22 120.36-5.90Q121.11-5.58 121.57-4.90Q122.04-4.22 122.04-3.13L122.04-3.13Q122.04-2.44 121.84-1.83Q121.65-1.23 121.23-0.79Q120.82-0.35 120.16-0.09Q119.50 0.16 118.59 0.16Z M126.09 0.10L126.09 0.10Q125.70 0.10 125.51-0.15Q125.31-0.39 125.31-0.88L125.31-0.88Q125.31-1.38 125.51-1.62Q125.70-1.87 126.09-1.87L126.09-1.87Q126.49-1.87 126.68-1.62Q126.88-1.38 126.88-0.88L126.88-0.88Q126.88-0.39 126.68-0.15Q126.49 0.10 126.09 0.10Z M136.07 0L129.85 0L129.85-1.06L131.95-3.33Q132.67-4.12 133.14-4.72Q133.60-5.32 133.86-5.84Q134.12-6.37 134.22-6.87Q134.33-7.37 134.33-7.93L134.33-7.93Q134.33-8.80 134.17-9.34Q134.01-9.87 133.67-10.11Q133.34-10.35 132.80-10.35L132.80-10.35Q132.24-10.35 131.90-10.08Q131.56-9.80 131.40-9.20Q131.25-8.60 131.25-7.61L131.25-7.61Q130.90-7.61 130.62-7.70Q130.34-7.79 130.17-8.00Q130.01-8.22 130.01-8.61L130.01-8.61Q130.01-9.15 130.34-9.58Q130.67-10.01 131.30-10.25Q131.93-10.50 132.82-10.50L132.82-10.50Q133.78-10.50 134.44-10.19Q135.11-9.89 135.45-9.34Q135.79-8.79 135.79-8.02L135.79-8.02Q135.79-7.57 135.64-7.11Q135.49-6.66 135.08-6.10Q134.67-5.54 133.94-4.78Q133.21-4.02 132.05-2.94L132.05-2.94L130.12-1.16L134.69-1.16Q135.38-1.16 135.66-1.41Q135.94-1.65 135.99-2.32L135.99-2.32L136.01-2.51L136.15-2.51L136.07 0Z M142.07 0.15L142.07 0.15Q141.18 0.15 140.55-0.08Q139.92-0.30 139.59-0.68Q139.25-1.06 139.25-1.51L139.25-1.51Q139.25-1.91 139.51-2.15Q139.76-2.39 140.17-2.39L140.17-2.39Q140.17-1.58 140.38-1.05Q140.60-0.52 141.03-0.26Q141.46 0 142.09 0L142.09 0Q142.82 0 143.28-0.32Q143.73-0.64 143.95-1.24Q144.17-1.84 144.17-2.68L144.17-2.68Q144.17-3.67 143.89-4.26Q143.60-4.86 143.02-5.13Q142.44-5.39 141.54-5.39L141.54-5.39L141.08-5.39L141.08-5.54L141.54-5.54Q142.33-5.54 142.83-5.83Q143.33-6.12 143.57-6.71Q143.82-7.29 143.82-8.18L143.82-8.18Q143.82-9.31 143.43-9.83Q143.04-10.35 142.28-10.35L142.28-10.35Q141.72-10.35 141.36-10.06Q141.01-9.76 140.84-9.16Q140.67-8.55 140.67-7.61L140.67-7.61Q140.15-7.61 139.79-7.84Q139.43-8.08 139.43-8.67L139.43-8.67Q139.43-9.21 139.76-9.61Q140.09-10.02 140.73-10.26Q141.37-10.50 142.28-10.50L142.28-10.50Q143.68-10.50 144.49-9.89Q145.31-9.28 145.31-8.11L145.31-8.11Q145.31-7.40 144.99-6.86Q144.66-6.32 144.02-5.98Q143.37-5.64 142.41-5.51L142.41-5.51Q143.23-5.47 143.83-5.28Q144.44-5.09 144.86-4.74Q145.27-4.39 145.47-3.91Q145.68-3.42 145.68-2.80L145.68-2.80Q145.68-1.99 145.37-1.42Q145.07-0.86 144.55-0.51Q144.02-0.16 143.39-0.01Q142.75 0.15 142.07 0.15Z M154.63 0L149.11 0L149.11-0.15L150.08-0.15Q150.47-0.15 150.74-0.26Q151.01-0.38 151.14-0.61Q151.27-0.84 151.27-1.19L151.27-1.19L151.27-9.45Q150.68-8.71 150.33-8.35Q149.98-7.99 149.77-7.87Q149.56-7.76 149.36-7.76L149.36-7.76Q149.01-7.76 148.84-7.98Q148.67-8.19 148.67-8.54L148.67-8.54Q149.27-8.55 149.70-8.65Q150.12-8.74 150.46-8.95Q150.79-9.16 151.12-9.51L151.12-9.51L151.98-10.41L152.73-10.41L152.73-1.19Q152.73-0.84 152.86-0.61Q153.00-0.38 153.26-0.26Q153.53-0.15 153.92-0.15L153.92-0.15L154.63-0.15L154.63 0Z"/></g>
</svg>