<svg xmlns="http://www.w3.org/2000/svg" width="860" height="300" viewBox="0 0 860 300" role="img" aria-label="χαλεπὰ τὰ καλά. What is beautiful is hard-won. (Greek proverb, in Plato, Hippias Major 304e and Republic 435c)">
  <defs>
    <linearGradient id="parch" x1="0" y1="0" x2="0" y2="1">
      <stop offset="0" stop-color="#FEFCF8"/>
      <stop offset="1" stop-color="#F1ECE2"/>
    </linearGradient>
    <radialGradient id="glow" cx="0.5" cy="0.14" r="0.9">
      <stop offset="0" stop-color="#C5A059" stop-opacity="0.14"/>
      <stop offset="0.5" stop-color="#C5A059" stop-opacity="0"/>
    </radialGradient>
    <filter id="grain"><feTurbulence type="fractalNoise" baseFrequency="0.9" numOctaves="2" stitchTiles="stitch" result="n"/><feColorMatrix in="n" type="matrix" values="0 0 0 0 0  0 0 0 0 0  0 0 0 0 0  0 0 0 0.035 0"/></filter>
    <filter id="lift" x="-8%" y="-8%" width="116%" height="124%"><feDropShadow dx="0" dy="3" stdDeviation="7" flood-color="#3A2A18" flood-opacity="0.20"/></filter>
  </defs>

  <g filter="url(#lift)">
    <rect x="6" y="5" width="848" height="286" rx="15" fill="url(#parch)" stroke="#EAE3D6" stroke-width="1"/>
  </g>
  <rect x="6" y="5" width="848" height="286" rx="15" fill="url(#glow)"/>
  <rect x="6" y="5" width="848" height="286" rx="15" fill="#000" filter="url(#grain)" opacity="0.5" clip-path="inset(0 round 15px)"/>
  <rect x="16" y="16" width="828" height="264" rx="9" fill="none" stroke="#C5A059" stroke-width="1" opacity="0.55"/>
  <path d="M26 23.4L28.6 26L26 28.6L23.4 26Z" fill="#C5A059" opacity="0.7"/><path d="M834 23.4L836.6 26L834 28.6L831.4 26Z" fill="#C5A059" opacity="0.7"/><path d="M26 271.4L28.6 274L26 276.6L23.4 274Z" fill="#C5A059" opacity="0.7"/><path d="M834 271.4L836.6 274L834 276.6L831.4 274Z" fill="#C5A059" opacity="0.7"/>

  <g fill="#5E4722" stroke="#5E4722" stroke-width="0.2"><path transform="translate(46 60)" d="M3.87 0.15L3.87 0.15Q3.13 0.15 2.55-0.01Q1.96-0.16 1.55-0.44Q1.14-0.72 0.93-1.09Q0.72-1.47 0.72-1.92L0.72-1.92Q0.72-2.27 0.85-2.50Q0.97-2.73 1.21-2.85Q1.45-2.97 1.80-2.97L1.80-2.97Q1.81-1.99 2.05-1.33Q2.28-0.66 2.76-0.33Q3.24 0 3.97 0L3.97 0Q4.93 0 5.53-0.56Q6.12-1.13 6.12-2.22L6.12-2.22Q6.12-2.90 5.87-3.31Q5.63-3.73 5.08-4.07Q4.53-4.41 3.65-4.81L3.65-4.81Q3.18-5.04 2.69-5.30Q2.21-5.56 1.79-5.93Q1.38-6.30 1.13-6.83Q0.89-7.36 0.89-8.10L0.89-8.10Q0.89-9 1.27-9.62Q1.67-10.23 2.38-10.54Q3.09-10.86 4.05-10.86L4.05-10.86Q4.93-10.86 5.59-10.62Q6.24-10.38 6.61-9.99Q6.97-9.60 6.97-9.13L6.97-9.13Q6.97-8.70 6.64-8.45Q6.31-8.21 5.79-8.21L5.79-8.21Q5.79-9.45 5.38-10.08Q4.98-10.71 4.04-10.71L4.04-10.71Q3.46-10.71 3.03-10.48Q2.59-10.24 2.36-9.79Q2.13-9.33 2.13-8.64L2.13-8.64Q2.13-7.90 2.40-7.46Q2.67-7.00 3.22-6.68Q3.76-6.36 4.59-5.97L4.59-5.97Q5.34-5.63 5.98-5.25Q6.61-4.88 7.00-4.30Q7.39-3.73 7.39-2.80L7.39-2.80Q7.39-1.89 6.98-1.23Q6.57-0.57 5.78-0.21Q5.00 0.15 3.87 0.15Z M20.17 0L12.13 0L12.13-0.15L12.33-0.15Q12.73-0.15 13.01-0.27Q13.29-0.39 13.42-0.63Q13.55-0.87 13.55-1.23L13.55-1.23L13.55-9.54Q13.55-9.88 13.42-10.11Q13.29-10.33 13.01-10.45Q12.73-10.56 12.33-10.56L12.33-10.56L12.13-10.56L12.13-10.71L19.68-10.71L19.77-8.08L19.62-8.08L19.59-8.58Q19.54-9.33 19.33-9.76Q19.12-10.20 18.68-10.38Q18.23-10.56 17.47-10.56L17.47-10.56L15.07-10.56L15.07-5.68L18.84-5.68L18.84-5.54L15.07-5.54L15.07-0.15L17.84-0.15Q18.66-0.15 19.13-0.33Q19.62-0.51 19.83-0.94Q20.05-1.38 20.09-2.13L20.09-2.13L20.13-2.63L20.27-2.63L20.17 0Z M28.34 0L24.88 0L24.88-0.15L25.31-0.15Q25.71-0.15 25.99-0.27Q26.27-0.39 26.41-0.63Q26.54-0.87 26.54-1.23L26.54-1.23L26.54-9.54Q26.54-9.88 26.41-10.11Q26.27-10.33 25.99-10.45Q25.71-10.56 25.31-10.56L25.31-10.56L24.88-10.56L24.88-10.71L27.80-10.71L33.52-2.15L33.52-9.48Q33.52-9.84 33.38-10.08Q33.24-10.32 32.98-10.44Q32.70-10.56 32.28-10.56L32.28-10.56L31.86-10.56L31.86-10.71L35.33-10.71L35.33-10.56L34.89-10.56Q34.49-10.56 34.22-10.44Q33.95-10.32 33.81-10.08Q33.66-9.84 33.66-9.48L33.66-9.48L33.66 0L33.22 0L26.69-9.78L26.69-1.23Q26.69-0.87 26.82-0.63Q26.96-0.39 27.24-0.27Q27.52-0.15 27.92-0.15L27.92-0.15L28.34-0.15L28.34 0Z M45.91 0L41.55 0L41.55-0.15L41.74-0.15Q42.15-0.15 42.43-0.27Q42.70-0.39 42.84-0.63Q42.98-0.87 42.98-1.23L42.98-1.23L42.98-10.56L41.74-10.56Q40.99-10.56 40.55-10.38Q40.09-10.20 39.88-9.76Q39.67-9.33 39.63-8.58L39.63-8.58L39.60-8.08L39.45-8.08L39.54-10.71L47.95-10.71L48.05-8.08L47.89-8.08L47.86-8.58Q47.82-9.33 47.61-9.76Q47.40-10.20 46.96-10.38Q46.52-10.56 45.75-10.56L45.75-10.56L44.49-10.56L44.49-1.23Q44.49-0.87 44.63-0.63Q44.76-0.39 45.04-0.27Q45.31-0.15 45.72-0.15L45.72-0.15L45.91-0.15L45.91 0Z M60.35 0L52.31 0L52.31-0.15L52.51-0.15Q52.91-0.15 53.19-0.27Q53.47-0.39 53.60-0.63Q53.74-0.87 53.74-1.23L53.74-1.23L53.74-9.54Q53.74-9.88 53.60-10.11Q53.47-10.33 53.19-10.45Q52.91-10.56 52.51-10.56L52.51-10.56L52.31-10.56L52.31-10.71L59.86-10.71L59.95-8.08L59.80-8.08L59.77-8.58Q59.72-9.33 59.52-9.76Q59.30-10.20 58.86-10.38Q58.42-10.56 57.66-10.56L57.66-10.56L55.25-10.56L55.25-5.68L59.02-5.68L59.02-5.54L55.25-5.54L55.25-0.15L58.03-0.15Q58.84-0.15 59.32-0.33Q59.80-0.51 60.02-0.94Q60.23-1.38 60.28-2.13L60.28-2.13L60.31-2.63L60.46-2.63L60.35 0Z M68.52 0L65.06 0L65.06-0.15L65.49-0.15Q65.90-0.15 66.18-0.27Q66.45-0.39 66.59-0.63Q66.72-0.87 66.72-1.23L66.72-1.23L66.72-9.54Q66.72-9.88 66.59-10.11Q66.45-10.33 66.18-10.45Q65.90-10.56 65.49-10.56L65.49-10.56L65.06-10.56L65.06-10.71L67.98-10.71L73.70-2.15L73.70-9.48Q73.70-9.84 73.56-10.08Q73.43-10.32 73.16-10.44Q72.89-10.56 72.47-10.56L72.47-10.56L72.05-10.56L72.05-10.71L75.52-10.71L75.52-10.56L75.08-10.56Q74.67-10.56 74.41-10.44Q74.13-10.32 73.99-10.08Q73.85-9.84 73.85-9.48L73.85-9.48L73.85 0L73.40 0L66.88-9.78L66.88-1.23Q66.88-0.87 67.01-0.63Q67.14-0.39 67.42-0.27Q67.70-0.15 68.10-0.15L68.10-0.15L68.52-0.15L68.52 0Z M86.10 0L81.73 0L81.73-0.15L81.93-0.15Q82.33-0.15 82.61-0.27Q82.89-0.39 83.02-0.63Q83.16-0.87 83.16-1.23L83.16-1.23L83.16-10.56L81.93-10.56Q81.18-10.56 80.73-10.38Q80.28-10.20 80.07-9.76Q79.86-9.33 79.81-8.58L79.81-8.58L79.78-8.08L79.63-8.08L79.72-10.71L88.14-10.71L88.23-8.08L88.08-8.08L88.05-8.58Q88.00-9.33 87.79-9.76Q87.58-10.20 87.14-10.38Q86.70-10.56 85.93-10.56L85.93-10.56L84.67-10.56L84.67-1.23Q84.67-0.87 84.81-0.63Q84.94-0.39 85.22-0.27Q85.50-0.15 85.90-0.15L85.90-0.15L86.10-0.15L86.10 0Z M96.86 0L92.50 0L92.50-0.15L92.69-0.15Q93.10-0.15 93.38-0.27Q93.65-0.39 93.79-0.63Q93.92-0.87 93.92-1.23L93.92-1.23L93.92-9.54Q93.92-9.88 93.79-10.11Q93.65-10.33 93.38-10.45Q93.10-10.56 92.69-10.56L92.69-10.56L92.50-10.56L92.50-10.71L96.86-10.71L96.86-10.56L96.67-10.56Q96.26-10.56 95.99-10.44Q95.71-10.32 95.57-10.08Q95.44-9.84 95.44-9.48L95.44-9.48L95.44-1.23Q95.44-0.87 95.57-0.63Q95.71-0.39 95.99-0.27Q96.26-0.15 96.67-0.15L96.67-0.15L96.86-0.15L96.86 0Z M104.49 0L100.83 0L100.83-0.15L101.27-0.15Q101.60-0.15 101.82-0.26Q102.05-0.36 102.21-0.61Q102.38-0.87 102.53-1.32L102.53-1.32L105.80-10.71L106.56-10.71L110.33-0.94Q110.45-0.65 110.57-0.47Q110.69-0.30 110.85-0.22Q111.00-0.15 111.21-0.15L111.21-0.15L111.41-0.15L111.41 0L107.28 0L107.28-0.15L107.63-0.15Q108.20-0.15 108.45-0.28Q108.71-0.42 108.71-0.77L108.71-0.77Q108.71-0.85 108.69-0.95Q108.68-1.05 108.66-1.17Q108.63-1.29 108.57-1.43L108.57-1.43L107.66-3.88L103.59-3.88L102.77-1.53Q102.72-1.41 102.69-1.29Q102.66-1.17 102.65-1.07Q102.63-0.97 102.63-0.89L102.63-0.89Q102.63-0.48 102.99-0.32Q103.35-0.15 104.15-0.15L104.15-0.15L104.49-0.15L104.49 0ZM104.75-7.21L103.64-4.04L107.60-4.04L106.50-6.96Q106.31-7.47 106.14-7.93Q105.98-8.40 105.84-8.83Q105.69-9.25 105.57-9.66L105.57-9.66Q105.47-9.33 105.38-9.05Q105.29-8.78 105.20-8.50Q105.11-8.23 105.00-7.93Q104.88-7.62 104.75-7.21L104.75-7.21Z M133.52 0L128.93 0L128.93-0.15L129.12-0.15Q129.53-0.15 129.81-0.27Q130.08-0.39 130.22-0.63Q130.35-0.87 130.35-1.23L130.35-1.23L130.35-9.54Q130.35-9.88 130.22-10.11Q130.08-10.33 129.81-10.45Q129.53-10.56 129.12-10.56L129.12-10.56L128.93-10.56L128.93-10.71L133.52-10.71Q135.06-10.71 136.16-10.09Q137.25-9.46 137.83-8.27Q138.41-7.08 138.41-5.37L138.41-5.37Q138.41-3.73 137.86-2.53Q137.31-1.32 136.23-0.66Q135.15 0 133.52 0L133.52 0ZM131.87-0.15L133.17-0.15Q134.43-0.15 135.22-0.69Q136.01-1.23 136.38-2.38Q136.74-3.54 136.74-5.37L136.74-5.37Q136.74-7.18 136.38-8.33Q136.01-9.48 135.22-10.02Q134.43-10.56 133.19-10.56L133.19-10.56L131.87-10.56L131.87-0.15Z M147.60 0L143.23 0L143.23-0.15L143.43-0.15Q143.83-0.15 144.11-0.27Q144.39-0.39 144.53-0.63Q144.66-0.87 144.66-1.23L144.66-1.23L144.66-9.54Q144.66-9.88 144.53-10.11Q144.39-10.33 144.11-10.45Q143.83-10.56 143.43-10.56L143.43-10.56L143.23-10.56L143.23-10.71L147.60-10.71L147.60-10.56L147.41-10.56Q147-10.56 146.72-10.44Q146.44-10.32 146.31-10.08Q146.17-9.84 146.17-9.48L146.17-9.48L146.17-1.23Q146.17-0.87 146.31-0.63Q146.44-0.39 146.72-0.27Q147-0.15 147.41-0.15L147.41-0.15L147.60-0.15L147.60 0Z M160.18 0L152.14 0L152.14-0.15L152.33-0.15Q152.74-0.15 153.02-0.27Q153.29-0.39 153.43-0.63Q153.56-0.87 153.56-1.23L153.56-1.23L153.56-9.54Q153.56-9.88 153.43-10.11Q153.29-10.33 153.02-10.45Q152.74-10.56 152.33-10.56L152.33-10.56L152.14-10.56L152.14-10.71L159.69-10.71L159.78-8.08L159.63-8.08L159.59-8.58Q159.55-9.33 159.34-9.76Q159.13-10.20 158.69-10.38Q158.25-10.56 157.48-10.56L157.48-10.56L155.08-10.56L155.08-5.68L158.84-5.68L158.84-5.54L155.08-5.54L155.08-0.15L157.85-0.15Q158.66-0.15 159.14-0.33Q159.63-0.51 159.84-0.94Q160.06-1.38 160.10-2.13L160.10-2.13L160.13-2.63L160.28-2.63L160.18 0Z M169.25 0L164.88 0L164.88-0.15L165.08-0.15Q165.48-0.15 165.76-0.27Q166.04-0.39 166.18-0.63Q166.31-0.87 166.31-1.23L166.31-1.23L166.31-9.54Q166.31-9.88 166.18-10.11Q166.04-10.33 165.76-10.45Q165.48-10.56 165.08-10.56L165.08-10.56L164.88-10.56L164.88-10.71L169.25-10.71L169.25-10.56L169.06-10.56Q168.65-10.56 168.37-10.44Q168.09-10.32 167.96-10.08Q167.82-9.84 167.82-9.48L167.82-9.48L167.82-1.23Q167.82-0.87 167.96-0.63Q168.09-0.39 168.37-0.27Q168.65-0.15 169.06-0.15L169.06-0.15L169.25-0.15L169.25 0Z"/></g>
  <g fill="#5D5147"><path transform="translate(761.85 60)" d="M6.48 0L0.69 0L0.69-0.99L2.65-3.10Q3.32-3.83 3.75-4.39Q4.18-4.95 4.43-5.44Q4.67-5.93 4.77-6.39Q4.86-6.86 4.86-7.38L4.86-7.38Q4.86-8.19 4.71-8.69Q4.56-9.19 4.25-9.42Q3.94-9.64 3.44-9.64L3.44-9.64Q2.92-9.64 2.60-9.38Q2.28-9.13 2.14-8.57Q2.00-8.01 2.00-7.09L2.00-7.09Q1.67-7.09 1.41-7.17Q1.15-7.25 0.99-7.45Q0.84-7.65 0.84-8.02L0.84-8.02Q0.84-8.52 1.15-8.92Q1.46-9.31 2.05-9.54Q2.63-9.77 3.46-9.77L3.46-9.77Q4.35-9.77 4.97-9.49Q5.59-9.21 5.91-8.69Q6.22-8.18 6.22-7.47L6.22-7.47Q6.22-7.05 6.08-6.62Q5.94-6.20 5.56-5.68Q5.18-5.16 4.50-4.45Q3.82-3.74 2.74-2.74L2.74-2.74L0.94-1.08L5.20-1.08Q5.85-1.08 6.10-1.31Q6.36-1.54 6.41-2.16L6.41-2.16L6.43-2.34L6.56-2.34L6.48 0Z M13.33 0.14L13.33 0.14Q12.22 0.14 11.52-0.49Q10.82-1.11 10.48-2.23Q10.15-3.35 10.15-4.85L10.15-4.85Q10.15-6.34 10.48-7.45Q10.82-8.56 11.52-9.17Q12.22-9.77 13.34-9.77L13.34-9.77Q14.39-9.77 15.09-9.17Q15.80-8.56 16.14-7.45Q16.49-6.33 16.49-4.83L16.49-4.83Q16.49-3.33 16.13-2.22Q15.78-1.11 15.09-0.49Q14.39 0.14 13.33 0.14ZM13.33 0L13.33 0Q13.81 0 14.15-0.26Q14.49-0.51 14.69-1.07Q14.89-1.63 14.99-2.56Q15.08-3.50 15.08-4.83L15.08-4.83Q15.08-6.17 14.99-7.09Q14.89-8.01 14.69-8.57Q14.49-9.13 14.16-9.38Q13.83-9.64 13.34-9.64L13.34-9.64Q12.84-9.64 12.50-9.38Q12.17-9.13 11.96-8.57Q11.75-8.01 11.65-7.09Q11.56-6.17 11.56-4.83L11.56-4.83Q11.56-3.50 11.65-2.56Q11.75-1.63 11.95-1.07Q12.15-0.51 12.50-0.26Q12.84 0 13.33 0Z M24.59 1.63L24.45 1.63L27.56-10.26L27.69-10.26L24.59 1.63Z M41.54 0L35.74 0L35.74-0.99L37.70-3.10Q38.38-3.83 38.81-4.39Q39.24-4.95 39.48-5.44Q39.73-5.93 39.82-6.39Q39.92-6.86 39.92-7.38L39.92-7.38Q39.92-8.19 39.77-8.69Q39.62-9.19 39.31-9.42Q39.00-9.64 38.50-9.64L38.50-9.64Q37.97-9.64 37.65-9.38Q37.34-9.13 37.20-8.57Q37.05-8.01 37.05-7.09L37.05-7.09Q36.73-7.09 36.47-7.17Q36.20-7.25 36.05-7.45Q35.89-7.65 35.89-8.02L35.89-8.02Q35.89-8.52 36.20-8.92Q36.51-9.31 37.10-9.54Q37.69-9.77 38.51-9.77L38.51-9.77Q39.40-9.77 40.02-9.49Q40.64-9.21 40.96-8.69Q41.28-8.18 41.28-7.47L41.28-7.47Q41.28-7.05 41.14-6.62Q41.00-6.20 40.62-5.68Q40.24-5.16 39.56-4.45Q38.88-3.74 37.80-2.74L37.80-2.74L36.00-1.08L40.25-1.08Q40.90-1.08 41.16-1.31Q41.41-1.54 41.47-2.16L41.47-2.16L41.48-2.34L41.62-2.34L41.54 0Z M47.96 0.15L47.96 0.15Q47.07 0.15 46.53-0.06Q45.98-0.27 45.73-0.60Q45.48-0.93 45.48-1.27L45.48-1.27Q45.48-1.58 45.69-1.80Q45.90-2.02 46.33-2.02L46.33-2.02Q46.33-1.32 46.53-0.87Q46.74-0.42 47.13-0.21Q47.52 0 48.07 0L48.07 0Q48.67 0 49.04-0.30Q49.42-0.59 49.60-1.23Q49.77-1.86 49.77-2.86L49.77-2.86Q49.77-3.86 49.57-4.46Q49.37-5.05 48.94-5.32Q48.50-5.59 47.80-5.59L47.80-5.59Q47.29-5.59 46.93-5.45Q46.57-5.32 46.33-5.12Q46.09-4.93 45.90-4.74L45.90-4.74L45.74-4.79L46.16-9.63L50.66-9.63L50.73-7.59L50.60-7.59L50.58-7.74Q50.56-8.05 50.45-8.22Q50.35-8.40 50.16-8.47Q49.96-8.55 49.64-8.55L49.64-8.55L46.20-8.55L45.87-4.89Q46.28-5.35 46.85-5.57Q47.42-5.79 48.10-5.79L48.10-5.79Q48.92-5.79 49.62-5.49Q50.31-5.20 50.74-4.56Q51.18-3.93 51.18-2.92L51.18-2.92Q51.18-2.27 50.99-1.71Q50.81-1.15 50.43-0.74Q50.04-0.32 49.43-0.09Q48.81 0.15 47.96 0.15Z"/></g>

  <g opacity="1">
    <animate attributeName="opacity" from="0" to="1" dur="0.85s" begin="0s" fill="freeze"/>
    <animateTransform attributeName="transform" type="translate" from="0 10" to="0 0" dur="0.95s" begin="0s" fill="freeze" calcMode="spline" keySplines="0.22 1 0.36 1" keyTimes="0;1" values="0 10;0 0"/>
    <g transform="translate(0 109.09)">
      <g fill="#1A1919"><path transform="translate(254.52 33.84)" d="M4.75 11.28L-0.19 11.28L11.47-10.20L9.16-16.64Q7.99-19.98 6.82-21.29Q5.64-22.61 3.71-22.61L3.71-22.61Q3.06-22.61 2.47-22.47Q1.88-22.32 1.03-22.00L1.03-22.00L0.75-22.18Q1.32-23.97 2.12-24.65Q2.91-25.33 4.18-25.33L4.18-25.33Q5.83-25.33 6.84-24.16Q7.85-22.98 8.88-19.83L8.88-19.83L11.80-10.81L19.18-25.19L23.73-25.19L13.35-6.06L16.36 2.58Q17.16 4.79 17.91 6.11Q18.66 7.43 19.60 7.99Q20.54 8.55 21.81 8.55L21.81 8.55Q22.47 8.55 23.05 8.41Q23.64 8.27 24.49 7.94L24.49 7.94L24.77 8.13Q24.20 9.87 23.41 10.57Q22.61 11.28 21.34 11.28L21.34 11.28Q20.26 11.28 19.43 10.79Q18.61 10.29 17.95 9.07Q17.30 7.85 16.64 5.78L16.64 5.78L13.07-5.45L4.75 11.28Z M37.49 0.47L37.49 0.47Q34.39 0.47 32.25-0.89Q30.11-2.26 29.01-5.15Q27.90-8.04 27.90-12.55L27.90-12.55Q27.90-17.11 29.19-20.00Q30.49-22.89 32.79-24.28Q35.09-25.66 38.19-25.66L38.19-25.66Q40.97-25.66 42.71-24.23Q44.45-22.80 45.34-20.26L45.34-20.26L45.43-20.26Q45.81-21.86 46.47-23.08Q47.12-24.30 47.83-25.19L47.83-25.19L50.32-25.19Q50.04-24.30 49.76-22.68Q49.47-21.06 49.29-19.25Q49.10-17.44 49.10-15.93L49.10-15.93L49.10-4.84Q49.10-2.77 50.08-1.62Q51.07-0.47 52.95-0.47L52.95-0.47L53.33-0.47L53.33 0L49.38 0Q47.83 0 46.87-0.70Q45.90-1.41 45.43-2.51Q44.96-3.62 44.77-4.79L44.77-4.79L44.68-4.79Q43.65-2.49 41.95-1.01Q40.26 0.47 37.49 0.47ZM38.29-0.23L38.29-0.23Q40.12-0.23 41.34-1.15Q42.56-2.07 43.32-3.69Q44.07-5.31 44.37-7.50Q44.68-9.68 44.68-12.22L44.68-12.22L44.68-18.75Q44.12-22.09 42.45-23.62Q40.78-25.14 38.76-25.14L38.76-25.14Q36.60-25.14 35.19-23.90Q33.78-22.65 33.12-19.88Q32.46-17.11 32.46-12.50L32.46-12.50Q32.46-8.04 33.05-5.33Q33.63-2.63 34.93-1.43Q36.22-0.23 38.29-0.23Z M54.91 0L68.77-26.88Q68.30-28.76 67.67-30.03Q67.03-31.30 66.19-32.05Q65.34-32.81 64.29-33.13Q63.23-33.46 62.01-33.46L62.01-33.46Q60.27-33.46 59.26-32.88Q58.25-32.29 57.40-31.21L57.40-31.21Q57.02-31.49 56.81-31.98Q56.60-32.48 56.60-33.09L56.60-33.09Q56.60-34.36 57.66-35.27Q58.72-36.19 61.25-36.19L61.25-36.19Q62.85-36.19 64.05-35.74Q65.25-35.30 66.17-34.26Q67.08-33.23 67.79-31.58Q68.49-29.94 69.10-27.54L69.10-27.54L73.80-9.21Q74.46-6.63 75.24-5.03Q76.01-3.43 77.00-2.70Q77.99-1.97 79.30-1.97L79.30-1.97L79.54-1.97L79.54 0L79.44 0Q77.94 0 76.93-0.82Q75.92-1.65 75.12-3.60Q74.32-5.55 73.38-8.98L73.38-8.98Q73.19-9.68 72.93-10.67Q72.67-11.66 72.37-12.88Q72.06-14.10 71.69-15.53Q71.31-16.97 70.91-18.54Q70.51-20.12 70.09-21.81L70.09-21.81L70.00-21.81Q69.53-20.54 69.08-19.48Q68.63-18.42 68.21-17.44Q67.79-16.45 67.27-15.42L67.27-15.42L59.75 0L54.91 0Z M92.73 0.47L92.73 0.47Q88.31 0.47 85.51-1.46Q82.72-3.38 82.72-6.67L82.72-6.67Q82.72-9.31 84.74-11.07Q86.76-12.83 91.13-13.30L91.13-13.30L91.13-13.39Q88.54-13.58 86.85-14.31Q85.16-15.04 84.34-16.31Q83.52-17.58 83.52-19.27L83.52-19.27Q83.52-22.14 86.08-23.88Q88.64-25.61 93.20-25.61L93.20-25.61Q95.83-25.61 97.59-24.98Q99.35-24.35 100.22-23.36Q101.09-22.37 101.09-21.20L101.09-21.20Q101.09-20.21 100.69-19.60Q100.29-18.99 99.47-18.68Q98.65-18.38 97.38-18.38L97.38-18.38Q97.38-20.68 96.86-22.18Q96.35-23.69 95.34-24.42Q94.33-25.14 92.73-25.14L92.73-25.14Q90.28-25.14 89.13-23.64Q87.98-22.14 87.98-18.99L87.98-18.99Q87.98-16.64 89.04-15.35Q90.09-14.05 92.26-13.68L92.26-13.68Q93.06-13.91 94.04-14.10Q95.03-14.29 95.88-14.29L95.88-14.29Q96.67-14.29 97.19-14.10Q97.71-13.91 97.71-13.39L97.71-13.39Q97.71-12.88 97.24-12.67Q96.77-12.46 95.97-12.46L95.97-12.46Q95.12-12.46 94.09-12.64Q93.06-12.83 92.02-13.07L92.02-13.07Q90.42-12.69 89.37-11.87Q88.31-11.04 87.79-9.75Q87.27-8.46 87.27-6.63L87.27-6.63Q87.27-4.37 87.93-2.91Q88.59-1.46 89.98-0.73Q91.36 0 93.43 0L93.43 0Q96.20 0 98.06-1.32Q99.92-2.63 100.91-5.78L100.91-5.78Q101.33-5.64 101.63-5.22Q101.94-4.79 101.94-4.18L101.94-4.18Q101.94-3.06 100.88-1.97Q99.82-0.89 97.78-0.21Q95.73 0.47 92.73 0.47Z M127.16 0.38L127.16 0.38Q125.00 0.38 123.85-1.01Q122.70-2.40 122.70-5.73L122.70-5.73Q122.70-6.72 122.77-8.04Q122.84-9.35 122.93-10.93Q123.02-12.50 123.17-14.24Q123.31-15.98 123.47-17.77Q123.64-19.55 123.78-21.29L123.78-21.29L114.80-21.29L113.72-7.99Q113.48-5.03 112.80-3.29Q112.12-1.55 110.76-0.78Q109.39 0 107.09 0L107.09 0L106.01 0L106.01-1.97Q107.84-1.97 109.09-2.33Q110.33-2.68 111.16-3.50Q111.98-4.32 112.45-5.71Q112.92-7.10 113.11-9.12L113.11-9.12L114.33-21.29L110.33-21.29Q108.08-21.29 107.14-20.66Q106.20-20.02 105.96-18.33L105.96-18.33L105.49-18.33Q105.49-20.21 106.01-21.76Q106.53-23.31 107.68-24.25Q108.83-25.19 110.71-25.19L110.71-25.19L131.67-25.19L131.67-21.29L126.60-21.29Q126.41-18.71 126.29-15.93Q126.17-13.16 126.10-10.65Q126.03-8.13 126.03-6.20L126.03-6.20Q126.03-3.85 126.36-2.66Q126.69-1.46 127.28-1.03Q127.87-0.61 128.66-0.61L128.66-0.61Q129.32-0.61 129.84-0.78Q130.36-0.94 130.83-1.18L130.83-1.18L130.83-0.70Q130.26-0.23 129.30 0.07Q128.34 0.38 127.16 0.38Z M146.27 0.47L146.27 0.47Q143.17 0.47 141.03-0.89Q138.89-2.26 137.79-5.15Q136.69-8.04 136.69-12.55L136.69-12.55Q136.69-17.11 137.98-20.00Q139.27-22.89 141.57-24.28Q143.88-25.66 146.98-25.66L146.98-25.66Q149.75-25.66 151.49-24.23Q153.23-22.80 154.12-20.26L154.12-20.26L154.22-20.26Q154.59-21.86 155.25-23.08Q155.91-24.30 156.61-25.19L156.61-25.19L159.10-25.19Q158.82-24.30 158.54-22.68Q158.26-21.06 158.07-19.25Q157.88-17.44 157.88-15.93L157.88-15.93L157.88-4.84Q157.88-2.77 158.87-1.62Q159.86-0.47 161.74-0.47L161.74-0.47L162.11-0.47L162.11 0L158.16 0Q156.61 0 155.65-0.70Q154.69-1.41 154.22-2.51Q153.75-3.62 153.56-4.79L153.56-4.79L153.46-4.79Q152.43-2.49 150.74-1.01Q149.05 0.47 146.27 0.47ZM147.07-0.23L147.07-0.23Q148.91-0.23 150.13-1.15Q151.35-2.07 152.10-3.69Q152.85-5.31 153.16-7.50Q153.46-9.68 153.46-12.22L153.46-12.22L153.46-18.75Q152.90-22.09 151.23-23.62Q149.56-25.14 147.54-25.14L147.54-25.14Q145.38-25.14 143.97-23.90Q142.56-22.65 141.90-19.88Q141.24-17.11 141.24-12.50L141.24-12.50Q141.24-8.04 141.83-5.33Q142.42-2.63 143.71-1.43Q145.00-0.23 147.07-0.23ZM148.11-28.48L147.64-28.48Q146.70-29.61 145.50-31.18Q144.30-32.76 143.29-34.31Q142.28-35.86 141.76-36.85L141.76-36.85L141.76-37.41L145.29-37.41Q145.57-36.24 146.06-34.66Q146.56-33.09 147.10-31.56Q147.64-30.03 148.11-28.95L148.11-28.95L148.11-28.48Z M188.87 0.47L188.87 0.47Q185.67 0.47 183.91-1.10Q182.15-2.68 182.15-5.83L182.15-5.83Q182.15-7.71 182.73-10.06Q183.32-12.41 184.45-15.23Q185.58-18.05 187.22-21.29L187.22-21.29L180.55-21.29Q178.15-21.29 177.26-20.45Q176.37-19.60 176.37-17.30L176.37-17.30L175.90-17.30Q175.90-20.16 176.65-21.88Q177.40-23.59 178.79-24.39Q180.17-25.19 181.96-25.19L181.96-25.19L196.72-25.19L196.72-21.29L188.40-21.29Q187.69-18.19 187.22-15.42Q186.75-12.64 186.52-10.39Q186.28-8.13 186.28-6.49L186.28-6.49Q186.28-4.42 186.78-3.01Q187.27-1.60 188.14-0.89Q189.01-0.19 190.18-0.19L190.18-0.19Q190.89-0.19 191.73-0.45Q192.58-0.70 193.47-1.18L193.47-1.18L193.47-0.66Q192.63-0.14 191.41 0.16Q190.18 0.47 188.87 0.47Z M210.28 0.47L210.28 0.47Q207.18 0.47 205.04-0.89Q202.90-2.26 201.80-5.15Q200.69-8.04 200.69-12.55L200.69-12.55Q200.69-17.11 201.99-20.00Q203.28-22.89 205.58-24.28Q207.89-25.66 210.99-25.66L210.99-25.66Q213.76-25.66 215.50-24.23Q217.24-22.80 218.13-20.26L218.13-20.26L218.23-20.26Q218.60-21.86 219.26-23.08Q219.92-24.30 220.62-25.19L220.62-25.19L223.11-25.19Q222.83-24.30 222.55-22.68Q222.27-21.06 222.08-19.25Q221.89-17.44 221.89-15.93L221.89-15.93L221.89-4.84Q221.89-2.77 222.88-1.62Q223.87-0.47 225.75-0.47L225.75-0.47L226.12-0.47L226.12 0L222.17 0Q220.62 0 219.66-0.70Q218.70-1.41 218.23-2.51Q217.76-3.62 217.57-4.79L217.57-4.79L217.47-4.79Q216.44-2.49 214.75-1.01Q213.06 0.47 210.28 0.47ZM211.08-0.23L211.08-0.23Q212.91-0.23 214.14-1.15Q215.36-2.07 216.11-3.69Q216.86-5.31 217.17-7.50Q217.47-9.68 217.47-12.22L217.47-12.22L217.47-18.75Q216.91-22.09 215.24-23.62Q213.57-25.14 211.55-25.14L211.55-25.14Q209.39-25.14 207.98-23.90Q206.57-22.65 205.91-19.88Q205.25-17.11 205.25-12.50L205.25-12.50Q205.25-8.04 205.84-5.33Q206.43-2.63 207.72-1.43Q209.01-0.23 211.08-0.23ZM212.12-28.48L211.65-28.48Q210.71-29.61 209.51-31.18Q208.31-32.76 207.30-34.31Q206.29-35.86 205.77-36.85L205.77-36.85L205.77-37.41L209.30-37.41Q209.58-36.24 210.07-34.66Q210.56-33.09 211.11-31.56Q211.65-30.03 212.12-28.95L212.12-28.95L212.12-28.48Z M243.48 0L243.48-21.53Q243.48-22.94 242.94-23.62Q242.40-24.30 241.53-24.51Q240.66-24.72 239.62-24.72L239.62-24.72L239.25-24.72L239.25-25.19L247.90-25.19L247.90-17.58Q247.90-15.60 247.90-14.24Q247.90-12.88 247.87-11.77Q247.85-10.67 247.80-9.45L247.80-9.45L254.85-19.65Q256.36-21.86 257.53-23.10Q258.71-24.35 259.79-24.89Q260.87-25.43 262.00-25.43L262.00-25.43Q263.64-25.43 264.51-24.56Q265.38-23.69 265.38-22.37L265.38-22.37Q265.38-21.86 265.26-21.36Q265.14-20.87 264.91-20.54L264.91-20.54Q264.20-21.24 263.22-21.67Q262.23-22.09 260.87-22.09L260.87-22.09Q259.32-22.09 258.17-21.43Q257.01-20.77 255.89-19.27L255.89-19.27L253.77-16.45L260.54-5.73Q261.67-3.95 262.44-2.77Q263.22-1.60 263.99-1.03Q264.77-0.47 265.80-0.47L265.80-0.47L265.94-0.47L265.94 0L265.29 0Q263.26 0 261.90-0.12Q260.54-0.23 259.58-0.68Q258.61-1.13 257.81-2.04Q257.01-2.96 256.07-4.56L256.07-4.56L251.14-13.02L247.90-8.79L247.90 0L243.48 0Z M279.56 0.47L279.56 0.47Q276.46 0.47 274.32-0.89Q272.18-2.26 271.07-5.15Q269.97-8.04 269.97-12.55L269.97-12.55Q269.97-17.11 271.26-20.00Q272.55-22.89 274.86-24.28Q277.16-25.66 280.26-25.66L280.26-25.66Q283.04-25.66 284.77-24.23Q286.51-22.80 287.41-20.26L287.41-20.26L287.50-20.26Q287.88-21.86 288.53-23.08Q289.19-24.30 289.90-25.19L289.90-25.19L292.39-25.19Q292.11-24.30 291.82-22.68Q291.54-21.06 291.35-19.25Q291.17-17.44 291.17-15.93L291.17-15.93L291.17-4.84Q291.17-2.77 292.15-1.62Q293.14-0.47 295.02-0.47L295.02-0.47L295.40-0.47L295.40 0L291.45 0Q289.90 0 288.93-0.70Q287.97-1.41 287.50-2.51Q287.03-3.62 286.84-4.79L286.84-4.79L286.75-4.79Q285.71-2.49 284.02-1.01Q282.33 0.47 279.56 0.47ZM280.36-0.23L280.36-0.23Q282.19-0.23 283.41-1.15Q284.63-2.07 285.38-3.69Q286.14-5.31 286.44-7.50Q286.75-9.68 286.75-12.22L286.75-12.22L286.75-18.75Q286.18-22.09 284.52-23.62Q282.85-25.14 280.83-25.14L280.83-25.14Q278.66-25.14 277.25-23.90Q275.84-22.65 275.19-19.88Q274.53-17.11 274.53-12.50L274.53-12.50Q274.53-8.04 275.12-5.33Q275.70-2.63 277.00-1.43Q278.29-0.23 280.36-0.23Z M296.98 0L310.84-26.88Q310.37-28.76 309.74-30.03Q309.10-31.30 308.26-32.05Q307.41-32.81 306.35-33.13Q305.30-33.46 304.07-33.46L304.07-33.46Q302.33-33.46 301.32-32.88Q300.31-32.29 299.47-31.21L299.47-31.21Q299.09-31.49 298.88-31.98Q298.67-32.48 298.67-33.09L298.67-33.09Q298.67-34.36 299.73-35.27Q300.78-36.19 303.32-36.19L303.32-36.19Q304.92-36.19 306.12-35.74Q307.32-35.30 308.23-34.26Q309.15-33.23 309.86-31.58Q310.56-29.94 311.17-27.54L311.17-27.54L315.87-9.21Q316.53-6.63 317.30-5.03Q318.08-3.43 319.07-2.70Q320.05-1.97 321.37-1.97L321.37-1.97L321.61-1.97L321.61 0L321.51 0Q320.01 0 319.00-0.82Q317.99-1.65 317.19-3.60Q316.39-5.55 315.45-8.98L315.45-8.98Q315.26-9.68 315.00-10.67Q314.74-11.66 314.44-12.88Q314.13-14.10 313.76-15.53Q313.38-16.97 312.98-18.54Q312.58-20.12 312.16-21.81L312.16-21.81L312.06-21.81Q311.59-20.54 311.15-19.48Q310.70-18.42 310.28-17.44Q309.86-16.45 309.34-15.42L309.34-15.42L301.82 0L296.98 0Z M334.42 0.47L334.42 0.47Q331.32 0.47 329.18-0.89Q327.04-2.26 325.94-5.15Q324.83-8.04 324.83-12.55L324.83-12.55Q324.83-17.11 326.12-20.00Q327.42-22.89 329.72-24.28Q332.02-25.66 335.12-25.66L335.12-25.66Q337.90-25.66 339.64-24.23Q341.38-22.80 342.27-20.26L342.27-20.26L342.36-20.26Q342.74-21.86 343.40-23.08Q344.05-24.30 344.76-25.19L344.76-25.19L347.25-25.19Q346.97-24.30 346.69-22.68Q346.40-21.06 346.22-19.25Q346.03-17.44 346.03-15.93L346.03-15.93L346.03-4.84Q346.03-2.77 347.01-1.62Q348.00-0.47 349.88-0.47L349.88-0.47L350.26-0.47L350.26 0L346.31 0Q344.76 0 343.80-0.70Q342.83-1.41 342.36-2.51Q341.89-3.62 341.70-4.79L341.70-4.79L341.61-4.79Q340.58-2.49 338.88-1.01Q337.19 0.47 334.42 0.47ZM335.22-0.23L335.22-0.23Q337.05-0.23 338.27-1.15Q339.50-2.07 340.25-3.69Q341.00-5.31 341.30-7.50Q341.61-9.68 341.61-12.22L341.61-12.22L341.61-18.75Q341.05-22.09 339.38-23.62Q337.71-25.14 335.69-25.14L335.69-25.14Q333.53-25.14 332.12-23.90Q330.71-22.65 330.05-19.88Q329.39-17.11 329.39-12.50L329.39-12.50Q329.39-8.04 329.98-5.33Q330.56-2.63 331.86-1.43Q333.15-0.23 335.22-0.23ZM334.79-28.48L334.79-28.95Q335.26-30.03 335.81-31.56Q336.35-33.09 336.84-34.66Q337.33-36.24 337.62-37.41L337.62-37.41L341.14-37.41L341.14-36.85Q340.67-35.86 339.64-34.31Q338.60-32.76 337.43-31.18Q336.25-29.61 335.26-28.48L335.26-28.48L334.79-28.48Z"/></g>
      
      <g opacity="0.9">
        <line x1="384" y1="66.66" x2="476" y2="66.66"
          stroke="#C5A059" stroke-width="1.4" stroke-linecap="round"
          stroke-dasharray="92" stroke-dashoffset="0">
          <animate attributeName="stroke-dashoffset" from="92" to="0" dur="1.1s" begin="0s" fill="freeze" calcMode="spline" keySplines="0.22 1 0.36 1" keyTimes="0;1" values="92;0"/>
        </line>
        <path d="M430 63.26L433.4 66.66L430 70.06L426.6 66.66Z" fill="#8B1E1E" opacity="1"/>
      </g>
      <g fill="#5D4E42"><path transform="translate(269.81 112.5)" d="M6.40 0L2.05-14.32Q1.91-14.76 1.73-15.01Q1.54-15.27 1.24-15.38Q0.95-15.49 0.48-15.49L0.48-15.49L0.20-15.49L0.20-15.71L6.25-15.71L6.25-15.49L5.74-15.49Q5.06-15.49 4.74-15.29Q4.42-15.09 4.42-14.61L4.42-14.61Q4.42-14.48 4.44-14.32Q4.47-14.17 4.51-13.99Q4.55-13.82 4.60-13.62L4.60-13.62L6.95-5.87Q7.15-5.21 7.33-4.54Q7.50-3.87 7.66-3.18Q7.81-2.49 7.94-1.76L7.94-1.76Q8.07-2.40 8.30-3.31Q8.54-4.22 8.80-5.28L8.80-5.28L11.42-15.55L12.34-15.55L15.55-6.03Q15.86-5.13 16.11-4.28Q16.37-3.43 16.57-2.72Q16.76-2.00 16.87-1.50L16.87-1.50Q17.01-2.00 17.08-2.30Q17.16-2.60 17.26-2.97Q17.36-3.34 17.53-4.03L17.53-4.03L19.98-13.27Q20.09-13.64 20.13-13.93Q20.17-14.21 20.17-14.43L20.17-14.43Q20.17-15.03 19.81-15.26Q19.45-15.49 18.68-15.49L18.68-15.49L18.17-15.49L18.17-15.71L22.44-15.71L22.44-15.49L22.02-15.49Q21.56-15.49 21.25-15.33Q20.94-15.18 20.73-14.81Q20.53-14.43 20.35-13.77L20.35-13.77L16.70 0L15.38 0L11.02-13.13L7.77 0L6.40 0Z M29.55 0L23.63 0L23.63-0.22L23.81-0.22Q24.49-0.22 24.88-0.41Q25.28-0.59 25.44-1.03Q25.61-1.47 25.61-2.24L25.61-2.24L25.61-14.52Q25.61-15.27 25.44-15.70Q25.28-16.13 24.91-16.31Q24.53-16.50 23.85-16.50L23.85-16.50L23.74-16.50L23.74-16.72L27.68-16.72L27.68-12.28Q27.68-11.86 27.68-11.43Q27.68-11 27.68-10.58Q27.68-10.16 27.66-9.72L27.66-9.72L27.70-9.72Q28.01-10.76 28.56-11.24Q29.11-11.73 29.76-11.87Q30.41-12.01 30.96-12.01L30.96-12.01Q32.91-12.01 33.87-10.99Q34.83-9.97 34.83-7.70L34.83-7.70L34.83-2.24Q34.83-1.47 34.98-1.03Q35.14-0.59 35.50-0.41Q35.86-0.22 36.48-0.22L36.48-0.22L36.59-0.22L36.59 0L32.76 0L32.76-8.45Q32.76-9.88 32.23-10.78Q31.70-11.68 30.41-11.68L30.41-11.68Q29.37-11.68 28.78-11.13Q28.18-10.58 27.93-9.71Q27.68-8.84 27.68-7.90L27.68-7.90L27.68-2.24Q27.68-1.47 27.84-1.03Q28.01-0.59 28.39-0.41Q28.78-0.22 29.44-0.22L29.44-0.22L29.55-0.22L29.55 0Z M42.13 0.22L42.13 0.22Q40.46 0.22 39.48-0.65Q38.50-1.52 38.50-3.04L38.50-3.04Q38.50-4.73 39.75-5.57Q40.99-6.40 43.52-6.49L43.52-6.49L45.35-6.56L45.35-8.21Q45.35-9.44 45.21-10.23Q45.08-11.02 44.64-11.41Q44.20-11.79 43.30-11.79L43.30-11.79Q42.02-11.79 41.66-11Q41.30-10.21 41.30-8.51L41.30-8.51Q40.37-8.51 39.90-8.82Q39.43-9.13 39.43-9.83L39.43-9.83Q39.43-10.63 39.97-11.10Q40.51-11.57 41.41-11.79Q42.31-12.01 43.39-12.01L43.39-12.01Q45.41-12.01 46.41-11.15Q47.41-10.30 47.41-8.21L47.41-8.21L47.41-1.63Q47.41-1.10 47.55-0.79Q47.68-0.48 47.99-0.35Q48.29-0.22 48.78-0.22L48.78-0.22L48.84-0.22L48.84 0L45.52 0L45.52-2.31L45.48-2.31Q45.26-1.43 44.77-0.87Q44.29-0.31 43.62-0.04Q42.95 0.22 42.13 0.22ZM42.57-0.09L42.57-0.09Q43.39-0.09 44.01-0.51Q44.64-0.92 44.99-1.63Q45.35-2.33 45.35-3.15L45.35-3.15L45.35-6.31L43.94-6.25Q42.07-6.16 41.35-5.39Q40.64-4.62 40.64-2.79L40.64-2.79Q40.64-1.91 40.85-1.31Q41.06-0.70 41.50-0.40Q41.94-0.09 42.57-0.09Z M55.27 0.22L55.27 0.22Q53.60 0.22 52.84-0.54Q52.08-1.30 52.08-3.19L52.08-3.19L52.08-11.57L50.41-11.57L50.41-11.79Q51.20-11.79 51.78-11.93Q52.37-12.08 52.78-12.39L52.78-12.39Q53.22-12.69 53.50-13.22Q53.77-13.75 53.93-14.50L53.93-14.50L54.15-14.50L54.15-11.79L57.23-11.79L57.23-11.57L54.15-11.57L54.15-2.38Q54.15-1.23 54.59-0.66Q55.03-0.09 55.89-0.09L55.89-0.09Q56.19-0.09 56.52-0.15Q56.85-0.22 57.23-0.35L57.23-0.35L57.23-0.13Q56.94 0 56.37 0.11Q55.80 0.22 55.27 0.22Z M69.84 0L63.59 0L63.59-0.22L63.88-0.22Q64.54-0.22 64.93-0.40Q65.33-0.57 65.50-0.95Q65.68-1.32 65.68-1.91L65.68-1.91L65.68-9.86Q65.68-10.47 65.50-10.85Q65.33-11.22 64.93-11.40Q64.54-11.57 63.88-11.57L63.88-11.57L63.81-11.57L63.81-11.79L67.75-11.79L67.75-2.02Q67.75-1.36 67.92-0.97Q68.10-0.57 68.51-0.40Q68.91-0.22 69.55-0.22L69.55-0.22L69.84-0.22L69.84 0ZM66.60-13.90L66.60-13.90Q66.19-13.90 65.91-14.18Q65.64-14.45 65.64-15.14L65.64-15.14Q65.64-15.84 65.91-16.10Q66.19-16.37 66.60-16.37L66.60-16.37Q67-16.37 67.29-16.10Q67.57-15.84 67.57-15.14L67.57-15.14Q67.57-14.45 67.29-14.18Q67-13.90 66.60-13.90Z M75.03 0.22L75.03 0.22Q73.93 0.22 73.10-0.04Q72.26-0.31 71.79-0.82Q71.31-1.34 71.31-2.11L71.31-2.11Q71.31-2.71 71.56-3.04Q71.80-3.37 72.12-3.50Q72.44-3.63 72.70-3.63L72.70-3.63Q72.70-2.44 72.92-1.64Q73.14-0.84 73.67-0.42Q74.20 0 75.08 0L75.08 0Q76.24 0 76.92-0.60Q77.61-1.21 77.61-2.40L77.61-2.40Q77.61-3.17 77.34-3.62Q77.08-4.07 76.47-4.42Q75.87-4.77 74.79-5.24L74.79-5.24Q73.54-5.79 72.81-6.30Q72.08-6.82 71.78-7.44Q71.47-8.05 71.47-8.89L71.47-8.89Q71.47-10.38 72.52-11.19Q73.58-11.99 75.45-11.99L75.45-11.99Q76.51-11.99 77.27-11.71Q78.02-11.44 78.42-10.98Q78.82-10.52 78.82-9.97L78.82-9.97Q78.82-9.37 78.41-9.01Q78.00-8.65 77.23-8.65L77.23-8.65Q77.23-10.34 76.77-11.05Q76.31-11.77 75.34-11.77L75.34-11.77Q74.59-11.77 74.10-11.53Q73.60-11.29 73.35-10.82Q73.10-10.36 73.10-9.66L73.10-9.66Q73.10-8.89 73.40-8.43Q73.71-7.96 74.36-7.63Q75.01-7.30 75.98-6.89L75.98-6.89Q77.23-6.38 77.96-5.86Q78.68-5.35 78.98-4.72Q79.28-4.09 79.28-3.23L79.28-3.23Q79.28-1.52 78.13-0.65Q76.99 0.22 75.03 0.22Z M93.47 0.22L93.47 0.22Q92.04 0.22 91.21-0.59Q90.37-1.41 90.06-3.10L90.06-3.10L90.02-3.10L90.02 0L85.99 0L85.99-0.22L86.17-0.22Q86.83-0.22 87.22-0.40Q87.62-0.57 87.80-0.95Q87.97-1.32 87.97-1.91L87.97-1.91L87.97-14.78Q87.97-15.40 87.80-15.77Q87.62-16.15 87.22-16.32Q86.83-16.50 86.17-16.50L86.17-16.50L86.10-16.50L86.10-16.72L90.04-16.72L90.04-12.67Q90.04-12.10 90.04-11.01Q90.04-9.92 90.00-8.73L90.00-8.73L90.04-8.73Q90.35-10.41 91.20-11.21Q92.04-12.01 93.52-12.01L93.52-12.01Q95.67-12.01 96.78-10.47Q97.89-8.93 97.89-5.92L97.89-5.92Q97.89-3.92 97.39-2.54Q96.88-1.17 95.90-0.47Q94.92 0.22 93.47 0.22ZM93.10-0.11L93.10-0.11Q94.07-0.11 94.65-0.69Q95.23-1.28 95.50-2.56Q95.76-3.85 95.76-5.94L95.76-5.94Q95.76-8.01 95.50-9.27Q95.23-10.54 94.64-11.11Q94.04-11.68 93.08-11.68L93.08-11.68Q91.47-11.68 90.76-10.23Q90.04-8.78 90.04-5.92L90.04-5.92Q90.04-2.97 90.80-1.54Q91.56-0.11 93.10-0.11Z M105.73 0.22L105.73 0.22Q103.26 0.22 101.89-1.36Q100.51-2.95 100.51-5.81L100.51-5.81Q100.51-8.89 101.79-10.45Q103.07-12.01 105.40-12.01L105.40-12.01Q107.53-12.01 108.75-10.69Q109.97-9.37 109.97-6.75L109.97-6.75L109.97-6.23L102.65-6.23Q102.67-3.98 102.98-2.62Q103.29-1.25 103.98-0.63Q104.67 0 105.79 0L105.79 0Q106.63 0 107.28-0.31Q107.93-0.62 108.37-1.22Q108.81-1.83 108.96-2.71L108.96-2.71Q109.23-2.66 109.36-2.44Q109.49-2.22 109.49-1.98L109.49-1.98Q109.49-1.54 109.07-1.02Q108.65-0.51 107.83-0.14Q107.00 0.22 105.73 0.22ZM102.65-6.45L107.75-6.45Q107.75-8.38 107.51-9.55Q107.27-10.71 106.74-11.25Q106.21-11.79 105.35-11.79L105.35-11.79Q104.45-11.79 103.88-11.25Q103.31-10.71 103.02-9.55Q102.74-8.38 102.65-6.45L102.65-6.45Z M116.00 0.22L116.00 0.22Q114.33 0.22 113.35-0.65Q112.37-1.52 112.37-3.04L112.37-3.04Q112.37-4.73 113.62-5.57Q114.86-6.40 117.39-6.49L117.39-6.49L119.22-6.56L119.22-8.21Q119.22-9.44 119.08-10.23Q118.95-11.02 118.51-11.41Q118.07-11.79 117.17-11.79L117.17-11.79Q115.89-11.79 115.53-11Q115.17-10.21 115.17-8.51L115.17-8.51Q114.24-8.51 113.77-8.82Q113.30-9.13 113.30-9.83L113.30-9.83Q113.30-10.63 113.84-11.10Q114.38-11.57 115.28-11.79Q116.18-12.01 117.26-12.01L117.26-12.01Q119.28-12.01 120.28-11.15Q121.28-10.30 121.28-8.21L121.28-8.21L121.28-1.63Q121.28-1.10 121.42-0.79Q121.55-0.48 121.86-0.35Q122.16-0.22 122.65-0.22L122.65-0.22L122.71-0.22L122.71 0L119.39 0L119.39-2.31L119.35-2.31Q119.13-1.43 118.64-0.87Q118.16-0.31 117.49-0.04Q116.82 0.22 116.00 0.22ZM116.44-0.09L116.44-0.09Q117.26-0.09 117.89-0.51Q118.51-0.92 118.86-1.63Q119.22-2.33 119.22-3.15L119.22-3.15L119.22-6.31L117.81-6.25Q115.94-6.16 115.22-5.39Q114.51-4.62 114.51-2.79L114.51-2.79Q114.51-1.91 114.72-1.31Q114.93-0.70 115.37-0.40Q115.81-0.09 116.44-0.09Z M130.09 0.22L130.09 0.22Q128.15 0.22 127.19-0.80Q126.24-1.83 126.24-4.09L126.24-4.09L126.24-9.59Q126.24-10.34 126.07-10.77Q125.91-11.20 125.51-11.38Q125.11-11.57 124.43-11.57L124.43-11.57L124.37-11.57L124.37-11.79L128.30-11.79L128.30-3.98Q128.30-2.57 128.50-1.73Q128.70-0.88 129.17-0.48Q129.65-0.09 130.44-0.09L130.44-0.09Q131.43-0.09 132.08-0.60Q132.73-1.12 133.06-2.12Q133.39-3.12 133.39-4.53L133.39-4.53L133.39-9.59Q133.39-10.34 133.22-10.77Q133.06-11.20 132.66-11.38Q132.26-11.57 131.58-11.57L131.58-11.57L131.52-11.57L131.52-11.79L135.45-11.79L135.45-2.18Q135.45-1.43 135.62-1.00Q135.78-0.57 136.18-0.40Q136.58-0.22 137.26-0.22L137.26-0.22L137.32-0.22L137.32 0L133.54 0L133.54-3.01L133.50-3.01Q133.32-1.89 132.94-1.24Q132.55-0.59 132.06-0.29Q131.56 0.02 131.04 0.12Q130.53 0.22 130.09 0.22Z M143.31 0.22L143.31 0.22Q141.64 0.22 140.88-0.54Q140.12-1.30 140.12-3.19L140.12-3.19L140.12-11.57L138.45-11.57L138.45-11.79Q139.24-11.79 139.82-11.93Q140.41-12.08 140.82-12.39L140.82-12.39Q141.26-12.69 141.54-13.22Q141.81-13.75 141.97-14.50L141.97-14.50L142.19-14.50L142.19-11.79L145.27-11.79L145.27-11.57L142.19-11.57L142.19-2.38Q142.19-1.23 142.63-0.66Q143.07-0.09 143.93-0.09L143.93-0.09Q144.23-0.09 144.56-0.15Q144.89-0.22 145.27-0.35L145.27-0.35L145.27-0.13Q144.98 0 144.41 0.11Q143.84 0.22 143.31 0.22Z M152.73 0L146.48 0L146.48-0.22L146.77-0.22Q147.43-0.22 147.82-0.40Q148.22-0.57 148.39-0.95Q148.57-1.32 148.57-1.91L148.57-1.91L148.57-9.86Q148.57-10.47 148.39-10.85Q148.22-11.22 147.82-11.40Q147.43-11.57 146.77-11.57L146.77-11.57L146.70-11.57L146.70-11.79L150.64-11.79L150.64-2.02Q150.64-1.36 150.81-0.97Q150.99-0.57 151.40-0.40Q151.80-0.22 152.44-0.22L152.44-0.22L152.73-0.22L152.73 0ZM149.49-13.90L149.49-13.90Q149.08-13.90 148.80-14.18Q148.53-14.45 148.53-15.14L148.53-15.14Q148.53-15.84 148.80-16.10Q149.08-16.37 149.49-16.37L149.49-16.37Q149.89-16.37 150.18-16.10Q150.46-15.84 150.46-15.14L150.46-15.14Q150.46-14.45 150.18-14.18Q149.89-13.90 149.49-13.90Z M160.61 0L153.81 0L153.81-0.22L154.09-0.22Q154.75-0.22 155.15-0.40Q155.55-0.57 155.72-0.95Q155.90-1.32 155.90-1.91L155.90-1.91L155.90-11.57L153.90-11.57L153.90-11.79L155.90-11.79L155.90-12.89Q155.90-14.85 156.93-15.89Q157.97-16.94 160.06-16.94L160.06-16.94Q161.00-16.94 161.62-16.74Q162.23-16.54 162.55-16.20Q162.87-15.86 162.87-15.40L162.87-15.40Q162.87-15.00 162.64-14.73Q162.41-14.45 162.00-14.31Q161.60-14.17 161.07-14.17L161.07-14.17Q161.07-15.58 160.75-16.15Q160.43-16.72 159.64-16.72L159.64-16.72Q158.71-16.72 158.34-15.92Q157.97-15.11 157.97-13.09L157.97-13.09L157.97-11.79L161.07-11.79L161.07-11.57L157.97-11.57L157.97-2.02Q157.97-1.36 158.14-0.97Q158.32-0.57 158.72-0.40Q159.13-0.22 159.77-0.22L159.77-0.22L160.61-0.22L160.61 0Z M167.76 0.22L167.76 0.22Q165.82 0.22 164.87-0.80Q163.91-1.83 163.91-4.09L163.91-4.09L163.91-9.59Q163.91-10.34 163.74-10.77Q163.58-11.20 163.18-11.38Q162.79-11.57 162.10-11.57L162.10-11.57L162.04-11.57L162.04-11.79L165.98-11.79L165.98-3.98Q165.98-2.57 166.17-1.73Q166.37-0.88 166.84-0.48Q167.32-0.09 168.11-0.09L168.11-0.09Q169.10-0.09 169.75-0.60Q170.40-1.12 170.73-2.12Q171.06-3.12 171.06-4.53L171.06-4.53L171.06-9.59Q171.06-10.34 170.89-10.77Q170.73-11.20 170.33-11.38Q169.94-11.57 169.25-11.57L169.25-11.57L169.19-11.57L169.19-11.79L173.13-11.79L173.13-2.18Q173.13-1.43 173.29-1.00Q173.46-0.57 173.85-0.40Q174.25-0.22 174.93-0.22L174.93-0.22L175.00-0.22L175.00 0L171.21 0L171.21-3.01L171.17-3.01Q170.99-1.89 170.61-1.24Q170.22-0.59 169.73-0.29Q169.23 0.02 168.72 0.12Q168.20 0.22 167.76 0.22Z M182.24 0L175.99 0L175.99-0.22L176.27-0.22Q176.93-0.22 177.33-0.40Q177.73-0.57 177.90-0.95Q178.08-1.32 178.08-1.91L178.08-1.91L178.08-14.78Q178.08-15.40 177.90-15.77Q177.73-16.15 177.33-16.32Q176.93-16.50 176.27-16.50L176.27-16.50L175.99-16.50L175.99-16.72L180.15-16.72L180.15-2.02Q180.15-1.36 180.32-0.97Q180.50-0.57 180.89-0.40Q181.29-0.22 181.95-0.22L181.95-0.22L182.24-0.22L182.24 0Z M194.63 0L188.38 0L188.38-0.22L188.66-0.22Q189.32-0.22 189.72-0.40Q190.12-0.57 190.29-0.95Q190.47-1.32 190.47-1.91L190.47-1.91L190.47-9.86Q190.47-10.47 190.29-10.85Q190.12-11.22 189.72-11.40Q189.32-11.57 188.66-11.57L188.66-11.57L188.60-11.57L188.60-11.79L192.54-11.79L192.54-2.02Q192.54-1.36 192.71-0.97Q192.89-0.57 193.30-0.40Q193.70-0.22 194.34-0.22L194.34-0.22L194.63-0.22L194.63 0ZM191.39-13.90L191.39-13.90Q190.97-13.90 190.70-14.18Q190.42-14.45 190.42-15.14L190.42-15.14Q190.42-15.84 190.70-16.10Q190.97-16.37 191.39-16.37L191.39-16.37Q191.79-16.37 192.07-16.10Q192.36-15.84 192.36-15.14L192.36-15.14Q192.36-14.45 192.07-14.18Q191.79-13.90 191.39-13.90Z M199.82 0.22L199.82 0.22Q198.72 0.22 197.88-0.04Q197.05-0.31 196.58-0.82Q196.10-1.34 196.10-2.11L196.10-2.11Q196.10-2.71 196.34-3.04Q196.59-3.37 196.91-3.50Q197.22-3.63 197.49-3.63L197.49-3.63Q197.49-2.44 197.71-1.64Q197.93-0.84 198.46-0.42Q198.98 0 199.86 0L199.86 0Q201.03 0 201.71-0.60Q202.39-1.21 202.39-2.40L202.39-2.40Q202.39-3.17 202.13-3.62Q201.87-4.07 201.26-4.42Q200.66-4.77 199.58-5.24L199.58-5.24Q198.32-5.79 197.60-6.30Q196.87-6.82 196.56-7.44Q196.26-8.05 196.26-8.89L196.26-8.89Q196.26-10.38 197.31-11.19Q198.37-11.99 200.24-11.99L200.24-11.99Q201.29-11.99 202.05-11.71Q202.81-11.44 203.21-10.98Q203.60-10.52 203.60-9.97L203.60-9.97Q203.60-9.37 203.20-9.01Q202.79-8.65 202.02-8.65L202.02-8.65Q202.02-10.34 201.56-11.05Q201.10-11.77 200.13-11.77L200.13-11.77Q199.38-11.77 198.89-11.53Q198.39-11.29 198.14-10.82Q197.88-10.36 197.88-9.66L197.88-9.66Q197.88-8.89 198.19-8.43Q198.50-7.96 199.15-7.63Q199.80-7.30 200.77-6.89L200.77-6.89Q202.02-6.38 202.75-5.86Q203.47-5.35 203.77-4.72Q204.07-4.09 204.07-3.23L204.07-3.23Q204.07-1.52 202.92-0.65Q201.78 0.22 199.82 0.22Z M216.70 0L210.78 0L210.78-0.22L210.96-0.22Q211.64-0.22 212.03-0.41Q212.43-0.59 212.60-1.03Q212.76-1.47 212.76-2.24L212.76-2.24L212.76-14.52Q212.76-15.27 212.60-15.70Q212.43-16.13 212.06-16.31Q211.68-16.50 211.00-16.50L211.00-16.50L210.89-16.50L210.89-16.72L214.83-16.72L214.83-12.28Q214.83-11.86 214.83-11.43Q214.83-11 214.83-10.58Q214.83-10.16 214.81-9.72L214.81-9.72L214.85-9.72Q215.16-10.76 215.71-11.24Q216.26-11.73 216.91-11.87Q217.56-12.01 218.11-12.01L218.11-12.01Q220.06-12.01 221.02-10.99Q221.98-9.97 221.98-7.70L221.98-7.70L221.98-2.24Q221.98-1.47 222.13-1.03Q222.29-0.59 222.65-0.41Q223.01-0.22 223.63-0.22L223.63-0.22L223.74-0.22L223.74 0L219.91 0L219.91-8.45Q219.91-9.88 219.38-10.78Q218.85-11.68 217.56-11.68L217.56-11.68Q216.52-11.68 215.93-11.13Q215.33-10.58 215.08-9.71Q214.83-8.84 214.83-7.90L214.83-7.90L214.83-2.24Q214.83-1.47 214.99-1.03Q215.16-0.59 215.54-0.41Q215.93-0.22 216.59-0.22L216.59-0.22L216.70-0.22L216.70 0Z M229.28 0.22L229.28 0.22Q227.61 0.22 226.63-0.65Q225.65-1.52 225.65-3.04L225.65-3.04Q225.65-4.73 226.90-5.57Q228.14-6.40 230.67-6.49L230.67-6.49L232.50-6.56L232.50-8.21Q232.50-9.44 232.36-10.23Q232.23-11.02 231.79-11.41Q231.35-11.79 230.45-11.79L230.45-11.79Q229.17-11.79 228.81-11Q228.45-10.21 228.45-8.51L228.45-8.51Q227.52-8.51 227.05-8.82Q226.58-9.13 226.58-9.83L226.58-9.83Q226.58-10.63 227.12-11.10Q227.66-11.57 228.56-11.79Q229.46-12.01 230.54-12.01L230.54-12.01Q232.56-12.01 233.56-11.15Q234.56-10.30 234.56-8.21L234.56-8.21L234.56-1.63Q234.56-1.10 234.70-0.79Q234.83-0.48 235.14-0.35Q235.44-0.22 235.93-0.22L235.93-0.22L235.99-0.22L235.99 0L232.67 0L232.67-2.31L232.63-2.31Q232.41-1.43 231.92-0.87Q231.44-0.31 230.77-0.04Q230.10 0.22 229.28 0.22ZM229.72-0.09L229.72-0.09Q230.54-0.09 231.16-0.51Q231.79-0.92 232.14-1.63Q232.50-2.33 232.50-3.15L232.50-3.15L232.50-6.31L231.09-6.25Q229.22-6.16 228.50-5.39Q227.79-4.62 227.79-2.79L227.79-2.79Q227.79-1.91 228.00-1.31Q228.21-0.70 228.65-0.40Q229.09-0.09 229.72-0.09Z M243.89 0L237.65 0L237.65-0.22L237.93-0.22Q238.59-0.22 238.99-0.40Q239.38-0.57 239.56-0.95Q239.74-1.32 239.74-1.91L239.74-1.91L239.74-9.86Q239.74-10.47 239.56-10.85Q239.38-11.22 238.99-11.40Q238.59-11.57 237.93-11.57L237.93-11.57L237.87-11.57L237.87-11.79L241.78-11.79L241.78-9.59L241.83-9.59Q241.98-10.16 242.29-10.71Q242.60-11.26 243.22-11.64Q243.85-12.01 244.91-12.01L244.91-12.01Q246.01-12.01 246.59-11.58Q247.17-11.15 247.17-10.38L247.17-10.38Q247.17-9.72 246.70-9.28Q246.23-8.84 245.13-8.84L245.13-8.84Q245.13-10.21 244.66-10.72Q244.20-11.24 243.63-11.24L243.63-11.24Q242.99-11.24 242.62-10.79Q242.24-10.34 242.07-9.63Q241.89-8.91 241.85-8.15Q241.80-7.39 241.80-6.75L241.80-6.75L241.80-2.02Q241.80-1.36 241.98-0.97Q242.16-0.57 242.56-0.40Q242.97-0.22 243.61-0.22L243.61-0.22L243.89-0.22L243.89 0Z M253.33 0.22L253.33 0.22Q251.90 0.22 250.91-0.47Q249.92-1.17 249.42-2.54Q248.91-3.92 248.91-5.92L248.91-5.92Q248.91-7.94 249.41-9.29Q249.90-10.65 250.88-11.33Q251.86-12.01 253.29-12.01L253.29-12.01Q254.79-12.01 255.63-11.21Q256.48-10.41 256.77-8.73L256.77-8.73L256.81-8.73Q256.79-9.53 256.78-10.29Q256.77-11.04 256.77-11.67Q256.77-12.30 256.77-12.67L256.77-12.67L256.77-14.78Q256.77-15.40 256.59-15.77Q256.41-16.15 256.02-16.32Q255.62-16.50 254.96-16.50L254.96-16.50L254.90-16.50L254.90-16.72L258.83-16.72L258.83-1.91Q258.83-1.32 259.01-0.95Q259.19-0.57 259.59-0.40Q260-0.22 260.64-0.22L260.64-0.22L260.81-0.22L260.81 0L256.79 0L256.79-3.10L256.74-3.10Q256.46-1.41 255.61-0.59Q254.76 0.22 253.33 0.22ZM253.71-0.11L253.71-0.11Q255.27-0.11 256.02-1.54Q256.77-2.97 256.77-5.92L256.77-5.92Q256.77-7.83 256.45-9.11Q256.13-10.38 255.47-11.03Q254.81-11.68 253.73-11.68L253.73-11.68Q252.76-11.68 252.17-11.11Q251.57-10.54 251.31-9.27Q251.05-8.01 251.05-5.94L251.05-5.94Q251.05-3.85 251.31-2.56Q251.57-1.28 252.17-0.69Q252.76-0.11 253.71-0.11Z M267.68-5.79L261.96-5.79L261.96-6.23L267.68-6.23L267.68-5.79Z M273.03 0L269.99-10.41Q269.88-10.85 269.69-11.10Q269.51-11.35 269.27-11.46Q269.02-11.57 268.69-11.57L268.69-11.57L268.45-11.57L268.45-11.79L273.89-11.79L273.89-11.57L273.40-11.57Q272.65-11.57 272.36-11.38Q272.06-11.20 272.06-10.76L272.06-10.76Q272.06-10.56 272.11-10.30Q272.17-10.03 272.26-9.70L272.26-9.70L273.75-4.25Q273.91-3.70 274.05-3.15Q274.19-2.60 274.35-2.06Q274.50-1.52 274.66-0.97L274.66-0.97L274.70-0.97Q274.85-1.54 274.99-2.09Q275.12-2.64 275.26-3.19Q275.40-3.74 275.56-4.31L275.56-4.31L277.49-11.73L278.90-11.73L281.39-4.20Q281.54-3.76 281.68-3.33Q281.83-2.90 281.97-2.49Q282.11-2.07 282.26-1.64Q282.40-1.21 282.53-0.77L282.53-0.77L282.58-0.77Q282.73-1.32 282.86-1.87Q282.99-2.42 283.14-2.97Q283.28-3.52 283.41-4.07L283.41-4.07L284.82-9.57Q284.91-9.92 284.96-10.20Q285.02-10.47 285.02-10.69L285.02-10.69Q285.02-11.20 284.67-11.38Q284.31-11.57 283.43-11.57L283.43-11.57L282.66-11.57L282.66-11.79L287.37-11.79L287.37-11.57L286.80-11.57Q286.38-11.57 286.06-11.42Q285.74-11.26 285.52-10.89Q285.30-10.52 285.13-9.86L285.13-9.86L282.60 0L280.86 0L277.41-10.45L274.68 0L273.03 0Z M293.91 0.22L293.91 0.22Q291.53 0.22 290.17-1.30Q288.80-2.82 288.80-5.92L288.80-5.92Q288.80-9.00 290.11-10.50Q291.42-12.01 293.97-12.01L293.97-12.01Q296.35-12.01 297.71-10.50Q299.08-9.00 299.08-5.92L299.08-5.92Q299.08-2.82 297.77-1.30Q296.46 0.22 293.91 0.22ZM293.95 0L293.95 0Q295.03 0 295.69-0.59Q296.35-1.19 296.65-2.49Q296.94-3.78 296.94-5.92L296.94-5.92Q296.94-8.03 296.65-9.33Q296.35-10.63 295.69-11.21Q295.03-11.79 293.93-11.79L293.93-11.79Q292.85-11.79 292.19-11.21Q291.53-10.63 291.23-9.33Q290.94-8.03 290.94-5.92L290.94-5.92Q290.94-3.78 291.23-2.49Q291.53-1.19 292.20-0.59Q292.87 0 293.95 0Z M307.02 0L301.10 0L301.10-0.22L301.28-0.22Q301.96-0.22 302.36-0.41Q302.75-0.59 302.92-1.03Q303.08-1.47 303.08-2.24L303.08-2.24L303.08-9.59Q303.08-10.34 302.92-10.77Q302.75-11.20 302.38-11.38Q302.01-11.57 301.32-11.57L301.32-11.57L301.21-11.57L301.21-11.79L305.13-11.79L305.13-9.72L305.17-9.72Q305.48-10.76 306.03-11.24Q306.58-11.73 307.23-11.87Q307.88-12.01 308.43-12.01L308.43-12.01Q310.39-12.01 311.34-10.99Q312.30-9.97 312.30-7.70L312.30-7.70L312.30-2.24Q312.30-1.47 312.46-1.03Q312.61-0.59 312.97-0.41Q313.34-0.22 313.95-0.22L313.95-0.22L314.06-0.22L314.06 0L310.23 0L310.23-8.45Q310.23-9.88 309.71-10.78Q309.18-11.68 307.88-11.68L307.88-11.68Q306.85-11.68 306.25-11.13Q305.66-10.58 305.40-9.71Q305.15-8.84 305.15-7.90L305.15-7.90L305.15-2.24Q305.15-1.47 305.32-1.03Q305.48-0.59 305.87-0.41Q306.25-0.22 306.91-0.22L306.91-0.22L307.02-0.22L307.02 0Z M317.63 0.15L317.63 0.15Q317.03 0.15 316.74-0.22Q316.44-0.59 316.44-1.34L316.44-1.34Q316.44-2.09 316.74-2.46Q317.03-2.84 317.63-2.84L317.63-2.84Q318.22-2.84 318.52-2.46Q318.82-2.09 318.82-1.34L318.82-1.34Q318.82-0.59 318.52-0.22Q318.22 0.15 317.63 0.15Z"/></g>
    </g>
  </g>

  <g fill="#5E4722" stroke="#5E4722" stroke-width="0.2" opacity="1"><animate attributeName="opacity" from="0" to="1" dur="1.2s" begin="0s" fill="freeze"/><path transform="translate(270 262)" d="M6.42 0.16L6.42 0.16Q4.56 0.16 3.34-0.58Q2.11-1.31 1.51-2.63Q0.91-3.95 0.91-5.73L0.91-5.73Q0.91-7.46 1.50-8.78Q2.10-10.10 3.30-10.84Q4.51-11.58 6.35-11.58L6.35-11.58Q7.54-11.58 8.36-11.36Q9.18-11.14 9.62-10.74Q10.05-10.35 10.05-9.84L10.05-9.84Q10.05-9.30 9.70-9.02Q9.36-8.74 8.56-8.67L8.56-8.67Q8.56-9.66 8.33-10.27Q8.10-10.88 7.60-11.15Q7.10-11.42 6.29-11.42L6.29-11.42Q4.99-11.42 4.20-10.86Q3.41-10.29 3.05-9.03Q2.69-7.78 2.69-5.73L2.69-5.73Q2.69-3.66 3.09-2.41Q3.49-1.15 4.37-0.58Q5.25 0 6.67 0L6.67 0Q7.14 0 7.57-0.07Q8-0.14 8.34-0.24L8.34-0.24L8.34-4.03Q8.34-4.40 8.19-4.64Q8.05-4.88 7.75-5Q7.46-5.12 7.02-5.12L7.02-5.12L6.96-5.12L6.96-5.28L11.12-5.28L11.12-5.12L11.06-5.12Q10.64-5.12 10.40-4.99Q10.16-4.86 10.06-4.61Q9.95-4.35 9.95-3.97L9.95-3.97L9.95-0.58Q9.15-0.21 8.30-0.02Q7.46 0.16 6.42 0.16Z M17.54 0L12.99 0L12.99-0.16L13.20-0.16Q13.68-0.16 13.97-0.29Q14.26-0.42 14.38-0.69Q14.51-0.96 14.51-1.39L14.51-1.39L14.51-7.17Q14.51-7.62 14.38-7.89Q14.26-8.16 13.97-8.29Q13.68-8.42 13.20-8.42L13.20-8.42L13.15-8.42L13.15-8.58L16.00-8.58L16.00-6.98L16.03-6.98Q16.14-7.39 16.37-7.79Q16.59-8.19 17.05-8.46Q17.50-8.74 18.27-8.74L18.27-8.74Q19.07-8.74 19.50-8.42Q19.92-8.11 19.92-7.55L19.92-7.55Q19.92-7.07 19.58-6.75Q19.23-6.43 18.43-6.43L18.43-6.43Q18.43-7.42 18.10-7.80Q17.76-8.18 17.34-8.18L17.34-8.18Q16.88-8.18 16.61-7.85Q16.34-7.52 16.21-7Q16.08-6.48 16.05-5.93Q16.02-5.38 16.02-4.91L16.02-4.91L16.02-1.47Q16.02-0.99 16.14-0.70Q16.27-0.42 16.57-0.29Q16.86-0.16 17.33-0.16L17.33-0.16L17.54-0.16L17.54 0Z M26.03 0.16L26.03 0.16Q24.24 0.16 23.24-0.99Q22.24-2.14 22.24-4.22L22.24-4.22Q22.24-6.46 23.17-7.60Q24.10-8.74 25.79-8.74L25.79-8.74Q27.34-8.74 28.23-7.78Q29.12-6.82 29.12-4.91L29.12-4.91L29.12-4.53L23.79-4.53Q23.81-2.90 24.03-1.90Q24.26-0.91 24.76-0.46Q25.26 0 26.08 0L26.08 0Q26.69 0 27.16-0.22Q27.63-0.45 27.95-0.89Q28.27-1.33 28.38-1.97L28.38-1.97Q28.58-1.94 28.67-1.78Q28.77-1.62 28.77-1.44L28.77-1.44Q28.77-1.12 28.46-0.74Q28.16-0.37 27.56-0.10Q26.96 0.16 26.03 0.16ZM23.79-4.69L27.50-4.69Q27.50-6.10 27.33-6.94Q27.15-7.79 26.77-8.18Q26.38-8.58 25.76-8.58L25.76-8.58Q25.10-8.58 24.69-8.18Q24.27-7.79 24.06-6.94Q23.86-6.10 23.79-4.69L23.79-4.69Z M35.79 0.16L35.79 0.16Q34 0.16 33-0.99Q32.00-2.14 32.00-4.22L32.00-4.22Q32.00-6.46 32.93-7.60Q33.86-8.74 35.55-8.74L35.55-8.74Q37.10-8.74 37.99-7.78Q38.88-6.82 38.88-4.91L38.88-4.91L38.88-4.53L33.55-4.53Q33.57-2.90 33.79-1.90Q34.02-0.91 34.52-0.46Q35.02 0 35.84 0L35.84 0Q36.45 0 36.92-0.22Q37.39-0.45 37.71-0.89Q38.03-1.33 38.14-1.97L38.14-1.97Q38.34-1.94 38.43-1.78Q38.53-1.62 38.53-1.44L38.53-1.44Q38.53-1.12 38.22-0.74Q37.92-0.37 37.32-0.10Q36.72 0.16 35.79 0.16ZM33.55-4.69L37.26-4.69Q37.26-6.10 37.09-6.94Q36.91-7.79 36.53-8.18Q36.14-8.58 35.52-8.58L35.52-8.58Q34.86-8.58 34.45-8.18Q34.03-7.79 33.82-6.94Q33.62-6.10 33.55-4.69L33.55-4.69Z M45.47 0L41.17 0L41.17-0.16L41.30-0.16Q41.78-0.16 42.06-0.29Q42.35-0.42 42.48-0.69Q42.61-0.96 42.61-1.39L42.61-1.39L42.61-10.75Q42.61-11.20 42.48-11.47Q42.35-11.74 42.06-11.87Q41.78-12 41.30-12L41.30-12L41.25-12L41.25-12.16L44.11-12.16L44.11-5.54Q44.11-5.22 44.11-4.90Q44.11-4.59 44.10-4.27Q44.10-3.95 44.08-3.63L44.08-3.63L46.80-6.67Q47.06-6.96 47.23-7.19Q47.41-7.42 47.50-7.61Q47.58-7.79 47.58-7.92L47.58-7.92Q47.58-8.19 47.23-8.30Q46.88-8.42 46.14-8.42L46.14-8.42L46.14-8.58L49.68-8.58L49.68-8.42Q49.28-8.42 48.97-8.34Q48.66-8.26 48.28-7.95Q47.90-7.65 47.28-6.96L47.28-6.96L46.03-5.55L48.50-1.76Q48.99-1.01 49.29-0.67Q49.58-0.34 49.79-0.25Q50-0.16 50.21-0.16L50.21-0.16L50.26-0.16L50.26 0L49.55 0Q49.07 0 48.71-0.06Q48.35-0.13 48.07-0.26Q47.79-0.40 47.56-0.63Q47.33-0.86 47.10-1.22L47.10-1.22L45.06-4.45L44.11-3.39L44.11-1.47Q44.11-0.99 44.24-0.70Q44.37-0.42 44.66-0.29Q44.94-0.16 45.42-0.16L45.42-0.16L45.47-0.16L45.47 0Z M60.83 3.84L56.53 3.84L56.53 3.68L56.66 3.68Q57.14 3.68 57.42 3.55Q57.71 3.42 57.84 3.15Q57.97 2.88 57.97 2.45L57.97 2.45L57.97-7.17Q57.97-7.62 57.84-7.89Q57.71-8.16 57.42-8.29Q57.14-8.42 56.66-8.42L56.66-8.42L56.45-8.42L56.45-8.58L59.44-8.58L59.44-6.35L59.47-6.35Q59.70-7.57 60.31-8.15Q60.93-8.74 62.00-8.74L62.00-8.74Q63.57-8.74 64.38-7.62Q65.18-6.50 65.18-4.30L65.18-4.30Q65.18-2.11 64.36-0.98Q63.54 0.16 61.97 0.16L61.97 0.16Q60.93 0.16 60.32-0.43Q59.71-1.02 59.49-2.26L59.49-2.26L59.46-2.26Q59.47-1.86 59.47-1.46Q59.47-1.06 59.47-0.66L59.47-0.66L59.47 2.37Q59.47 2.83 59.60 3.13Q59.73 3.42 60.02 3.55Q60.30 3.68 60.78 3.68L60.78 3.68L60.83 3.68L60.83 3.84ZM61.70-0.08L61.70-0.08Q62.40-0.08 62.82-0.50Q63.25-0.93 63.44-1.86Q63.63-2.80 63.63-4.32L63.63-4.32Q63.63-5.82 63.44-6.74Q63.25-7.66 62.82-8.08Q62.38-8.50 61.68-8.50L61.68-8.50Q60.91-8.50 60.42-8.02Q59.94-7.55 59.70-6.62Q59.47-5.70 59.47-4.30L59.47-4.30Q59.47-2.88 59.71-1.94Q59.95-0.99 60.45-0.54Q60.94-0.08 61.70-0.08Z M72.18 0L67.63 0L67.63-0.16L67.84-0.16Q68.32-0.16 68.61-0.29Q68.90-0.42 69.02-0.69Q69.15-0.96 69.15-1.39L69.15-1.39L69.15-7.17Q69.15-7.62 69.02-7.89Q68.90-8.16 68.61-8.29Q68.32-8.42 67.84-8.42L67.84-8.42L67.79-8.42L67.79-8.58L70.64-8.58L70.64-6.98L70.67-6.98Q70.78-7.39 71.01-7.79Q71.23-8.19 71.69-8.46Q72.14-8.74 72.91-8.74L72.91-8.74Q73.71-8.74 74.14-8.42Q74.56-8.11 74.56-7.55L74.56-7.55Q74.56-7.07 74.22-6.75Q73.87-6.43 73.07-6.43L73.07-6.43Q73.07-7.42 72.74-7.80Q72.40-8.18 71.98-8.18L71.98-8.18Q71.52-8.18 71.25-7.85Q70.98-7.52 70.85-7Q70.72-6.48 70.69-5.93Q70.66-5.38 70.66-4.91L70.66-4.91L70.66-1.47Q70.66-0.99 70.78-0.70Q70.91-0.42 71.21-0.29Q71.50-0.16 71.97-0.16L71.97-0.16L72.18-0.16L72.18 0Z M80.59 0.16L80.59 0.16Q78.86 0.16 77.87-0.94Q76.88-2.05 76.88-4.30L76.88-4.30Q76.88-6.54 77.83-7.64Q78.78-8.74 80.64-8.74L80.64-8.74Q82.37-8.74 83.36-7.64Q84.35-6.54 84.35-4.30L84.35-4.30Q84.35-2.05 83.40-0.94Q82.45 0.16 80.59 0.16ZM80.62 0L80.62 0Q81.41 0 81.89-0.43Q82.37-0.86 82.58-1.81Q82.80-2.75 82.80-4.30L82.80-4.30Q82.80-5.84 82.58-6.78Q82.37-7.73 81.89-8.15Q81.41-8.58 80.61-8.58L80.61-8.58Q79.82-8.58 79.34-8.15Q78.86-7.73 78.65-6.78Q78.43-5.84 78.43-4.30L78.43-4.30Q78.43-2.75 78.65-1.81Q78.86-0.86 79.35-0.43Q79.84 0 80.62 0Z M90.26 0L87.50-7.57Q87.39-7.89 87.26-8.07Q87.12-8.26 86.94-8.34Q86.77-8.42 86.50-8.42L86.50-8.42L86.50-8.58L90.50-8.58L90.50-8.42L90.11-8.42Q89.60-8.42 89.35-8.28Q89.10-8.14 89.10-7.81L89.10-7.81Q89.10-7.66 89.15-7.48Q89.20-7.30 89.28-7.06L89.28-7.06L90.54-3.52Q90.75-2.94 90.90-2.50Q91.06-2.06 91.21-1.62Q91.36-1.18 91.55-0.58L91.55-0.58Q91.65-0.88 91.73-1.14Q91.81-1.39 91.90-1.66Q92-1.94 92.13-2.29L92.13-2.29L93.74-6.96Q93.82-7.22 93.87-7.41Q93.92-7.60 93.92-7.76L93.92-7.76Q93.92-8.13 93.64-8.27Q93.36-8.42 92.75-8.42L92.75-8.42L92.22-8.42L92.22-8.58L95.65-8.58L95.65-8.42L95.20-8.42Q94.90-8.42 94.68-8.30Q94.46-8.19 94.30-7.92Q94.14-7.65 93.98-7.17L93.98-7.17L91.52 0L90.26 0Z M101.57 0.16L101.57 0.16Q99.78 0.16 98.78-0.99Q97.78-2.14 97.78-4.22L97.78-4.22Q97.78-6.46 98.70-7.60Q99.63-8.74 101.33-8.74L101.33-8.74Q102.88-8.74 103.77-7.78Q104.66-6.82 104.66-4.91L104.66-4.91L104.66-4.53L99.33-4.53Q99.34-2.90 99.57-1.90Q99.79-0.91 100.30-0.46Q100.80 0 101.62 0L101.62 0Q102.22 0 102.70-0.22Q103.17-0.45 103.49-0.89Q103.81-1.33 103.92-1.97L103.92-1.97Q104.11-1.94 104.21-1.78Q104.30-1.62 104.30-1.44L104.30-1.44Q104.30-1.12 104-0.74Q103.70-0.37 103.10-0.10Q102.50 0.16 101.57 0.16ZM99.33-4.69L103.04-4.69Q103.04-6.10 102.86-6.94Q102.69-7.79 102.30-8.18Q101.92-8.58 101.30-8.58L101.30-8.58Q100.64-8.58 100.22-8.18Q99.81-7.79 99.60-6.94Q99.39-6.10 99.33-4.69L99.33-4.69Z M111.57 0L107.02 0L107.02-0.16L107.23-0.16Q107.71-0.16 108-0.29Q108.29-0.42 108.42-0.69Q108.54-0.96 108.54-1.39L108.54-1.39L108.54-7.17Q108.54-7.62 108.42-7.89Q108.29-8.16 108-8.29Q107.71-8.42 107.23-8.42L107.23-8.42L107.18-8.42L107.18-8.58L110.03-8.58L110.03-6.98L110.06-6.98Q110.18-7.39 110.40-7.79Q110.62-8.19 111.08-8.46Q111.54-8.74 112.30-8.74L112.30-8.74Q113.10-8.74 113.53-8.42Q113.95-8.11 113.95-7.55L113.95-7.55Q113.95-7.07 113.61-6.75Q113.26-6.43 112.46-6.43L112.46-6.43Q112.46-7.42 112.13-7.80Q111.79-8.18 111.38-8.18L111.38-8.18Q110.91-8.18 110.64-7.85Q110.37-7.52 110.24-7Q110.11-6.48 110.08-5.93Q110.05-5.38 110.05-4.91L110.05-4.91L110.05-1.47Q110.05-0.99 110.18-0.70Q110.30-0.42 110.60-0.29Q110.90-0.16 111.36-0.16L111.36-0.16L111.57-0.16L111.57 0Z M121.12 0.16L121.12 0.16Q120.08 0.16 119.47-0.43Q118.86-1.02 118.64-2.26L118.64-2.26L118.61-2.26L118.61 0L115.68 0L115.68-0.16L115.81-0.16Q116.29-0.16 116.58-0.29Q116.86-0.42 116.99-0.69Q117.12-0.96 117.12-1.39L117.12-1.39L117.12-10.75Q117.12-11.20 116.99-11.47Q116.86-11.74 116.58-11.87Q116.29-12 115.81-12L115.81-12L115.76-12L115.76-12.16L118.62-12.16L118.62-9.22Q118.62-8.80 118.62-8.01Q118.62-7.22 118.59-6.35L118.59-6.35L118.62-6.35Q118.85-7.57 119.46-8.15Q120.08-8.74 121.15-8.74L121.15-8.74Q122.72-8.74 123.53-7.62Q124.34-6.50 124.34-4.30L124.34-4.30Q124.34-2.85 123.97-1.85Q123.60-0.85 122.89-0.34Q122.18 0.16 121.12 0.16ZM120.85-0.08L120.85-0.08Q121.55-0.08 121.98-0.50Q122.40-0.93 122.59-1.86Q122.78-2.80 122.78-4.32L122.78-4.32Q122.78-5.82 122.59-6.74Q122.40-7.66 121.97-8.08Q121.54-8.50 120.83-8.50L120.83-8.50Q119.66-8.50 119.14-7.44Q118.62-6.38 118.62-4.30L118.62-4.30Q118.62-2.16 119.18-1.12Q119.73-0.08 120.85-0.08Z M126.90 2.46L126.90 2.30Q127.39 2.14 127.77 1.92Q128.14 1.70 128.36 1.39Q128.58 1.09 128.58 0.69L128.58 0.69Q128.58 0.35 128.44 0.17Q128.30-0.02 128.11-0.12Q127.92-0.22 127.72-0.32Q127.52-0.42 127.38-0.59Q127.25-0.77 127.25-1.09L127.25-1.09Q127.25-1.57 127.54-1.82Q127.84-2.06 128.29-2.06L128.29-2.06Q128.78-2.06 129.15-1.72Q129.52-1.38 129.52-0.58L129.52-0.58Q129.52 0.35 128.90 1.21Q128.29 2.06 126.90 2.46L126.90 2.46Z M141.33 0L136.78 0L136.78-0.16L136.99-0.16Q137.47-0.16 137.76-0.29Q138.05-0.42 138.18-0.69Q138.30-0.96 138.30-1.39L138.30-1.39L138.30-7.17Q138.30-7.62 138.18-7.89Q138.05-8.16 137.76-8.29Q137.47-8.42 136.99-8.42L136.99-8.42L136.94-8.42L136.94-8.58L139.81-8.58L139.81-1.47Q139.81-0.99 139.94-0.70Q140.06-0.42 140.36-0.29Q140.66-0.16 141.12-0.16L141.12-0.16L141.33-0.16L141.33 0ZM138.98-10.11L138.98-10.11Q138.67-10.11 138.47-10.31Q138.27-10.51 138.27-11.01L138.27-11.01Q138.27-11.52 138.47-11.71Q138.67-11.90 138.98-11.90L138.98-11.90Q139.26-11.90 139.47-11.71Q139.68-11.52 139.68-11.01L139.68-11.01Q139.68-10.51 139.47-10.31Q139.26-10.11 138.98-10.11Z M147.49 0L143.18 0L143.18-0.16L143.31-0.16Q143.81-0.16 144.10-0.30Q144.38-0.43 144.50-0.75Q144.62-1.07 144.62-1.63L144.62-1.63L144.62-6.98Q144.62-7.52 144.50-7.83Q144.38-8.14 144.11-8.28Q143.84-8.42 143.34-8.42L143.34-8.42L143.26-8.42L143.26-8.58L146.11-8.58L146.11-7.07L146.14-7.07Q146.37-7.82 146.77-8.18Q147.17-8.53 147.64-8.63Q148.11-8.74 148.51-8.74L148.51-8.74Q149.94-8.74 150.63-7.99Q151.33-7.25 151.33-5.60L151.33-5.60L151.33-1.63Q151.33-1.07 151.44-0.75Q151.55-0.43 151.82-0.30Q152.08-0.16 152.53-0.16L152.53-0.16L152.61-0.16L152.61 0L149.82 0L149.82-6.14Q149.82-7.18 149.44-7.84Q149.06-8.50 148.11-8.50L148.11-8.50Q147.36-8.50 146.93-8.10Q146.50-7.70 146.31-7.06Q146.13-6.43 146.13-5.74L146.13-5.74L146.13-1.63Q146.13-1.07 146.25-0.75Q146.37-0.43 146.65-0.30Q146.93-0.16 147.41-0.16L147.41-0.16L147.49-0.16L147.49 0Z M164.32 0L159.66 0L159.66-0.16L159.87-0.16Q160.30-0.16 160.60-0.29Q160.90-0.42 161.04-0.67Q161.18-0.93 161.18-1.31L161.18-1.31L161.18-10.18Q161.18-10.54 161.04-10.78Q160.90-11.02 160.60-11.14Q160.30-11.26 159.87-11.26L159.87-11.26L159.66-11.26L159.66-11.42L164.16-11.42Q166.18-11.42 167.14-10.54Q168.10-9.65 168.10-8.08L168.10-8.08Q168.10-7.36 167.87-6.71Q167.65-6.06 167.14-5.55Q166.64-5.04 165.82-4.74Q164.99-4.45 163.81-4.45L163.81-4.45L162.80-4.45L162.80-1.31Q162.80-0.93 162.94-0.67Q163.09-0.42 163.38-0.29Q163.68-0.16 164.11-0.16L164.11-0.16L164.32-0.16L164.32 0ZM162.80-4.61L163.65-4.61Q164.38-4.61 164.90-4.80Q165.41-4.99 165.74-5.40Q166.06-5.81 166.22-6.46Q166.37-7.10 166.37-8.02L166.37-8.02Q166.37-9.18 166.12-9.90Q165.87-10.61 165.33-10.94Q164.78-11.26 163.89-11.26L163.89-11.26L162.80-11.26L162.80-4.61Z M174.67 0L170.13 0L170.13-0.16L170.34-0.16Q170.82-0.16 171.10-0.29Q171.39-0.42 171.52-0.69Q171.65-0.96 171.65-1.39L171.65-1.39L171.65-10.75Q171.65-11.20 171.52-11.47Q171.39-11.74 171.10-11.87Q170.82-12 170.34-12L170.34-12L170.13-12L170.13-12.16L173.15-12.16L173.15-1.47Q173.15-0.99 173.28-0.70Q173.41-0.42 173.70-0.29Q173.98-0.16 174.46-0.16L174.46-0.16L174.67-0.16L174.67 0Z M179.52 0.16L179.52 0.16Q178.30 0.16 177.59-0.47Q176.88-1.10 176.88-2.21L176.88-2.21Q176.88-3.44 177.78-4.05Q178.69-4.66 180.53-4.72L180.53-4.72L181.86-4.77L181.86-5.97Q181.86-6.86 181.76-7.44Q181.66-8.02 181.34-8.30Q181.02-8.58 180.37-8.58L180.37-8.58Q179.44-8.58 179.18-8Q178.91-7.42 178.91-6.19L178.91-6.19Q178.24-6.19 177.90-6.42Q177.55-6.64 177.55-7.15L177.55-7.15Q177.55-7.73 177.94-8.07Q178.34-8.42 178.99-8.58Q179.65-8.74 180.43-8.74L180.43-8.74Q181.90-8.74 182.63-8.11Q183.36-7.49 183.36-5.97L183.36-5.97L183.36-1.18Q183.36-0.80 183.46-0.58Q183.55-0.35 183.78-0.26Q184.00-0.16 184.35-0.16L184.35-0.16L184.40-0.16L184.40 0L181.98 0L181.98-1.68L181.95-1.68Q181.79-1.04 181.44-0.63Q181.09-0.22 180.60-0.03Q180.11 0.16 179.52 0.16ZM179.84-0.06L179.84-0.06Q180.43-0.06 180.89-0.37Q181.34-0.67 181.60-1.18Q181.86-1.70 181.86-2.29L181.86-2.29L181.86-4.59L180.83-4.54Q179.47-4.48 178.95-3.92Q178.43-3.36 178.43-2.03L178.43-2.03Q178.43-1.39 178.58-0.95Q178.74-0.51 179.06-0.29Q179.38-0.06 179.84-0.06Z M190.13 0.16L190.13 0.16Q188.91 0.16 188.36-0.39Q187.81-0.94 187.81-2.32L187.81-2.32L187.81-8.42L186.59-8.42L186.59-8.58Q187.17-8.58 187.59-8.68Q188.02-8.78 188.32-9.01L188.32-9.01Q188.64-9.23 188.84-9.62Q189.04-10 189.15-10.54L189.15-10.54L189.31-10.54L189.31-8.58L191.55-8.58L191.55-8.42L189.31-8.42L189.31-1.73Q189.31-0.90 189.63-0.48Q189.95-0.06 190.58-0.06L190.58-0.06Q190.80-0.06 191.04-0.11Q191.28-0.16 191.55-0.26L191.55-0.26L191.55-0.10Q191.34 0 190.93 0.08Q190.51 0.16 190.13 0.16Z M197.71 0.16L197.71 0.16Q195.98 0.16 194.99-0.94Q194.00-2.05 194.00-4.30L194.00-4.30Q194.00-6.54 194.95-7.64Q195.90-8.74 197.76-8.74L197.76-8.74Q199.49-8.74 200.48-7.64Q201.47-6.54 201.47-4.30L201.47-4.30Q201.47-2.05 200.52-0.94Q199.57 0.16 197.71 0.16ZM197.74 0L197.74 0Q198.53 0 199.01-0.43Q199.49-0.86 199.70-1.81Q199.92-2.75 199.92-4.30L199.92-4.30Q199.92-5.84 199.70-6.78Q199.49-7.73 199.01-8.15Q198.53-8.58 197.73-8.58L197.73-8.58Q196.94-8.58 196.46-8.15Q195.98-7.73 195.77-6.78Q195.55-5.84 195.55-4.30L195.55-4.30Q195.55-2.75 195.77-1.81Q195.98-0.86 196.47-0.43Q196.96 0 197.74 0Z M204.03 2.46L204.03 2.30Q204.53 2.14 204.90 1.92Q205.28 1.70 205.50 1.39Q205.71 1.09 205.71 0.69L205.71 0.69Q205.71 0.35 205.58 0.17Q205.44-0.02 205.25-0.12Q205.06-0.22 204.86-0.32Q204.66-0.42 204.52-0.59Q204.38-0.77 204.38-1.09L204.38-1.09Q204.38-1.57 204.68-1.82Q204.98-2.06 205.42-2.06L205.42-2.06Q205.92-2.06 206.29-1.72Q206.66-1.38 206.66-0.58L206.66-0.58Q206.66 0.35 206.04 1.21Q205.42 2.06 204.03 2.46L204.03 2.46Z M218.83 0L214.18 0L214.18-0.16L214.38-0.16Q214.82-0.16 215.11-0.29Q215.41-0.42 215.55-0.67Q215.70-0.93 215.70-1.31L215.70-1.31L215.70-10.18Q215.70-10.54 215.55-10.78Q215.41-11.02 215.11-11.14Q214.82-11.26 214.38-11.26L214.38-11.26L214.18-11.26L214.18-11.42L218.83-11.42L218.83-11.26L218.62-11.26Q218.19-11.26 217.90-11.14Q217.60-11.01 217.46-10.75Q217.31-10.50 217.31-10.11L217.31-10.11L217.31-6.05L222.50-6.05L222.50-10.11Q222.50-10.50 222.35-10.75Q222.21-11.01 221.92-11.14Q221.63-11.26 221.18-11.26L221.18-11.26L220.98-11.26L220.98-11.42L225.63-11.42L225.63-11.26L225.42-11.26Q224.99-11.26 224.70-11.14Q224.42-11.02 224.26-10.78Q224.11-10.54 224.11-10.18L224.11-10.18L224.11-1.31Q224.11-0.93 224.26-0.67Q224.42-0.42 224.70-0.29Q224.99-0.16 225.42-0.16L225.42-0.16L225.63-0.16L225.63 0L220.98 0L220.98-0.16L221.18-0.16Q221.63-0.16 221.92-0.29Q222.21-0.42 222.35-0.67Q222.50-0.93 222.50-1.31L222.50-1.31L222.50-5.89L217.31-5.89L217.31-1.31Q217.31-0.93 217.46-0.67Q217.60-0.42 217.90-0.29Q218.19-0.16 218.62-0.16L218.62-0.16L218.83-0.16L218.83 0Z M232.35 0L227.81 0L227.81-0.16L228.02-0.16Q228.50-0.16 228.78-0.29Q229.07-0.42 229.20-0.69Q229.33-0.96 229.33-1.39L229.33-1.39L229.33-7.17Q229.33-7.62 229.20-7.89Q229.07-8.16 228.78-8.29Q228.50-8.42 228.02-8.42L228.02-8.42L227.97-8.42L227.97-8.58L230.83-8.58L230.83-1.47Q230.83-0.99 230.96-0.70Q231.09-0.42 231.38-0.29Q231.68-0.16 232.14-0.16L232.14-0.16L232.35-0.16L232.35 0ZM230.00-10.11L230.00-10.11Q229.70-10.11 229.50-10.31Q229.30-10.51 229.30-11.01L229.30-11.01Q229.30-11.52 229.50-11.71Q229.70-11.90 230.00-11.90L230.00-11.90Q230.29-11.90 230.50-11.71Q230.70-11.52 230.70-11.01L230.70-11.01Q230.70-10.51 230.50-10.31Q230.29-10.11 230.00-10.11Z M238.35 3.84L234.05 3.84L234.05 3.68L234.18 3.68Q234.66 3.68 234.94 3.55Q235.23 3.42 235.36 3.15Q235.49 2.88 235.49 2.45L235.49 2.45L235.49-7.17Q235.49-7.62 235.36-7.89Q235.23-8.16 234.94-8.29Q234.66-8.42 234.18-8.42L234.18-8.42L233.97-8.42L233.97-8.58L236.96-8.58L236.96-6.35L236.99-6.35Q237.22-7.57 237.83-8.15Q238.45-8.74 239.52-8.74L239.52-8.74Q241.09-8.74 241.90-7.62Q242.70-6.50 242.70-4.30L242.70-4.30Q242.70-2.11 241.88-0.98Q241.06 0.16 239.49 0.16L239.49 0.16Q238.45 0.16 237.84-0.43Q237.23-1.02 237.01-2.26L237.01-2.26L236.98-2.26Q236.99-1.86 236.99-1.46Q236.99-1.06 236.99-0.66L236.99-0.66L236.99 2.37Q236.99 2.83 237.12 3.13Q237.25 3.42 237.54 3.55Q237.82 3.68 238.30 3.68L238.30 3.68L238.35 3.68L238.35 3.84ZM239.22-0.08L239.22-0.08Q239.92-0.08 240.34-0.50Q240.77-0.93 240.96-1.86Q241.15-2.80 241.15-4.32L241.15-4.32Q241.15-5.82 240.96-6.74Q240.77-7.66 240.34-8.08Q239.90-8.50 239.20-8.50L239.20-8.50Q238.43-8.50 237.94-8.02Q237.46-7.55 237.22-6.62Q236.99-5.70 236.99-4.30L236.99-4.30Q236.99-2.88 237.23-1.94Q237.47-0.99 237.97-0.54Q238.46-0.08 239.22-0.08Z M249.38 3.84L245.07 3.84L245.07 3.68L245.20 3.68Q245.68 3.68 245.97 3.55Q246.26 3.42 246.38 3.15Q246.51 2.88 246.51 2.45L246.51 2.45L246.51-7.17Q246.51-7.62 246.38-7.89Q246.26-8.16 245.97-8.29Q245.68-8.42 245.20-8.42L245.20-8.42L244.99-8.42L244.99-8.58L247.98-8.58L247.98-6.35L248.02-6.35Q248.24-7.57 248.86-8.15Q249.47-8.74 250.54-8.74L250.54-8.74Q252.11-8.74 252.92-7.62Q253.73-6.50 253.73-4.30L253.73-4.30Q253.73-2.11 252.90-0.98Q252.08 0.16 250.51 0.16L250.51 0.16Q249.47 0.16 248.86-0.43Q248.26-1.02 248.03-2.26L248.03-2.26L248.00-2.26Q248.02-1.86 248.02-1.46Q248.02-1.06 248.02-0.66L248.02-0.66L248.02 2.37Q248.02 2.83 248.14 3.13Q248.27 3.42 248.56 3.55Q248.85 3.68 249.33 3.68L249.33 3.68L249.38 3.68L249.38 3.84ZM250.24-0.08L250.24-0.08Q250.94-0.08 251.37-0.50Q251.79-0.93 251.98-1.86Q252.18-2.80 252.18-4.32L252.18-4.32Q252.18-5.82 251.98-6.74Q251.79-7.66 251.36-8.08Q250.93-8.50 250.22-8.50L250.22-8.50Q249.46-8.50 248.97-8.02Q248.48-7.55 248.25-6.62Q248.02-5.70 248.02-4.30L248.02-4.30Q248.02-2.88 248.26-1.94Q248.50-0.99 248.99-0.54Q249.49-0.08 250.24-0.08Z M260.72 0L256.18 0L256.18-0.16L256.38-0.16Q256.86-0.16 257.15-0.29Q257.44-0.42 257.57-0.69Q257.70-0.96 257.70-1.39L257.70-1.39L257.70-7.17Q257.70-7.62 257.57-7.89Q257.44-8.16 257.15-8.29Q256.86-8.42 256.38-8.42L256.38-8.42L256.34-8.42L256.34-8.58L259.20-8.58L259.20-1.47Q259.20-0.99 259.33-0.70Q259.46-0.42 259.75-0.29Q260.05-0.16 260.51-0.16L260.51-0.16L260.72-0.16L260.72 0ZM258.37-10.11L258.37-10.11Q258.06-10.11 257.86-10.31Q257.66-10.51 257.66-11.01L257.66-11.01Q257.66-11.52 257.86-11.71Q258.06-11.90 258.37-11.90L258.37-11.90Q258.66-11.90 258.86-11.71Q259.07-11.52 259.07-11.01L259.07-11.01Q259.07-10.51 258.86-10.31Q258.66-10.11 258.37-10.11Z M265.57 0.16L265.57 0.16Q264.35 0.16 263.64-0.47Q262.93-1.10 262.93-2.21L262.93-2.21Q262.93-3.44 263.83-4.05Q264.74-4.66 266.58-4.72L266.58-4.72L267.90-4.77L267.90-5.97Q267.90-6.86 267.81-7.44Q267.71-8.02 267.39-8.30Q267.07-8.58 266.42-8.58L266.42-8.58Q265.49-8.58 265.22-8Q264.96-7.42 264.96-6.19L264.96-6.19Q264.29-6.19 263.94-6.42Q263.60-6.64 263.60-7.15L263.60-7.15Q263.60-7.73 263.99-8.07Q264.38-8.42 265.04-8.58Q265.70-8.74 266.48-8.74L266.48-8.74Q267.95-8.74 268.68-8.11Q269.41-7.49 269.41-5.97L269.41-5.97L269.41-1.18Q269.41-0.80 269.50-0.58Q269.60-0.35 269.82-0.26Q270.05-0.16 270.40-0.16L270.40-0.16L270.45-0.16L270.45 0L268.03 0L268.03-1.68L268.00-1.68Q267.84-1.04 267.49-0.63Q267.14-0.22 266.65-0.03Q266.16 0.16 265.57 0.16ZM265.89-0.06L265.89-0.06Q266.48-0.06 266.94-0.37Q267.39-0.67 267.65-1.18Q267.90-1.70 267.90-2.29L267.90-2.29L267.90-4.59L266.88-4.54Q265.52-4.48 265.00-3.92Q264.48-3.36 264.48-2.03L264.48-2.03Q264.48-1.39 264.63-0.95Q264.78-0.51 265.10-0.29Q265.42-0.06 265.89-0.06Z M275.76 0.16L275.76 0.16Q274.96 0.16 274.35-0.03Q273.74-0.22 273.40-0.60Q273.06-0.98 273.06-1.54L273.06-1.54Q273.06-1.97 273.23-2.21Q273.41-2.45 273.64-2.54Q273.87-2.64 274.06-2.64L274.06-2.64Q274.06-1.78 274.22-1.19Q274.38-0.61 274.77-0.30Q275.15 0 275.79 0L275.79 0Q276.64 0 277.14-0.44Q277.63-0.88 277.63-1.74L277.63-1.74Q277.63-2.30 277.44-2.63Q277.25-2.96 276.81-3.22Q276.37-3.47 275.58-3.81L275.58-3.81Q274.67-4.21 274.14-4.58Q273.62-4.96 273.39-5.41Q273.17-5.86 273.17-6.46L273.17-6.46Q273.17-7.55 273.94-8.14Q274.70-8.72 276.06-8.72L276.06-8.72Q276.83-8.72 277.38-8.52Q277.94-8.32 278.22-7.98Q278.51-7.65 278.51-7.25L278.51-7.25Q278.51-6.82 278.22-6.55Q277.92-6.29 277.36-6.29L277.36-6.29Q277.36-7.52 277.02-8.04Q276.69-8.56 275.98-8.56L275.98-8.56Q275.44-8.56 275.08-8.38Q274.72-8.21 274.54-7.87Q274.35-7.54 274.35-7.02L274.35-7.02Q274.35-6.46 274.58-6.13Q274.80-5.79 275.27-5.55Q275.74-5.31 276.45-5.01L276.45-5.01Q277.36-4.64 277.89-4.26Q278.42-3.89 278.63-3.43Q278.85-2.98 278.85-2.35L278.85-2.35Q278.85-1.10 278.02-0.47Q277.18 0.16 275.76 0.16Z M289.86 0L286.16 0L286.16-0.16L286.78-0.16Q287.22-0.16 287.51-0.29Q287.81-0.42 287.95-0.67Q288.10-0.93 288.10-1.31L288.10-1.31L288.10-10.18Q288.10-10.54 287.95-10.78Q287.81-11.02 287.51-11.14Q287.22-11.26 286.78-11.26L286.78-11.26L286.16-11.26L286.16-11.42L289.41-11.42L293.49-1.79L297.02-11.42L299.95-11.42L299.95-11.26L299.74-11.26Q299.31-11.26 299.02-11.14Q298.72-11.01 298.58-10.75Q298.43-10.50 298.43-10.11L298.43-10.11L298.43-1.31Q298.43-0.93 298.58-0.67Q298.72-0.42 299.02-0.29Q299.31-0.16 299.74-0.16L299.74-0.16L299.95-0.16L299.95 0L295.70 0L295.70-0.16L295.74-0.16Q296.10-0.16 296.35-0.29Q296.61-0.42 296.75-0.67Q296.90-0.93 296.90-1.31L296.90-1.31L296.90-10.59L293.01 0L292.62 0L288.26-10.38L288.26-1.31Q288.26-0.93 288.40-0.67Q288.54-0.42 288.84-0.29Q289.14-0.16 289.57-0.16L289.57-0.16L289.86-0.16L289.86 0Z M305.20 0.16L305.20 0.16Q303.98 0.16 303.27-0.47Q302.56-1.10 302.56-2.21L302.56-2.21Q302.56-3.44 303.46-4.05Q304.37-4.66 306.21-4.72L306.21-4.72L307.54-4.77L307.54-5.97Q307.54-6.86 307.44-7.44Q307.34-8.02 307.02-8.30Q306.70-8.58 306.05-8.58L306.05-8.58Q305.12-8.58 304.86-8Q304.59-7.42 304.59-6.19L304.59-6.19Q303.92-6.19 303.58-6.42Q303.23-6.64 303.23-7.15L303.23-7.15Q303.23-7.73 303.62-8.07Q304.02-8.42 304.67-8.58Q305.33-8.74 306.11-8.74L306.11-8.74Q307.58-8.74 308.31-8.11Q309.04-7.49 309.04-5.97L309.04-5.97L309.04-1.18Q309.04-0.80 309.14-0.58Q309.23-0.35 309.46-0.26Q309.68-0.16 310.03-0.16L310.03-0.16L310.08-0.16L310.08 0L307.66 0L307.66-1.68L307.63-1.68Q307.47-1.04 307.12-0.63Q306.77-0.22 306.28-0.03Q305.79 0.16 305.20 0.16ZM305.52-0.06L305.52-0.06Q306.11-0.06 306.57-0.37Q307.02-0.67 307.28-1.18Q307.54-1.70 307.54-2.29L307.54-2.29L307.54-4.59L306.51-4.54Q305.15-4.48 304.63-3.92Q304.11-3.36 304.11-2.03L304.11-2.03Q304.11-1.39 304.26-0.95Q304.42-0.51 304.74-0.29Q305.06-0.06 305.52-0.06Z M312.03 3.84L311.78 3.84L311.78 3.68L311.89 3.68Q312.46 3.68 312.87 3.39Q313.28 3.10 313.49 2.34Q313.70 1.57 313.70 0.14L313.70 0.14L313.70-7.17Q313.70-7.62 313.57-7.89Q313.44-8.16 313.15-8.29Q312.86-8.42 312.38-8.42L312.38-8.42L312.34-8.42L312.34-8.58L315.20-8.58L315.20 0.13Q315.20 1.55 314.79 2.37Q314.38 3.18 313.67 3.51Q312.96 3.84 312.03 3.84L312.03 3.84ZM314.37-10.11L314.37-10.11Q314.06-10.11 313.86-10.31Q313.66-10.51 313.66-11.01L313.66-11.01Q313.66-11.52 313.86-11.71Q314.06-11.90 314.37-11.90L314.37-11.90Q314.66-11.90 314.86-11.71Q315.07-11.52 315.07-11.01L315.07-11.01Q315.07-10.51 314.86-10.31Q314.66-10.11 314.37-10.11Z M322.56 0.16L322.56 0.16Q320.83 0.16 319.84-0.94Q318.85-2.05 318.85-4.30L318.85-4.30Q318.85-6.54 319.80-7.64Q320.75-8.74 322.61-8.74L322.61-8.74Q324.34-8.74 325.33-7.64Q326.32-6.54 326.32-4.30L326.32-4.30Q326.32-2.05 325.37-0.94Q324.42 0.16 322.56 0.16ZM322.59 0L322.59 0Q323.38 0 323.86-0.43Q324.34-0.86 324.55-1.81Q324.77-2.75 324.77-4.30L324.77-4.30Q324.77-5.84 324.55-6.78Q324.34-7.73 323.86-8.15Q323.38-8.58 322.58-8.58L322.58-8.58Q321.79-8.58 321.31-8.15Q320.83-7.73 320.62-6.78Q320.40-5.84 320.40-4.30L320.40-4.30Q320.40-2.75 320.62-1.81Q320.83-0.86 321.32-0.43Q321.81 0 322.59 0Z M333.31 0L328.77 0L328.77-0.16L328.98-0.16Q329.46-0.16 329.74-0.29Q330.03-0.42 330.16-0.69Q330.29-0.96 330.29-1.39L330.29-1.39L330.29-7.17Q330.29-7.62 330.16-7.89Q330.03-8.16 329.74-8.29Q329.46-8.42 328.98-8.42L328.98-8.42L328.93-8.42L328.93-8.58L331.78-8.58L331.78-6.98L331.81-6.98Q331.92-7.39 332.14-7.79Q332.37-8.19 332.82-8.46Q333.28-8.74 334.05-8.74L334.05-8.74Q334.85-8.74 335.27-8.42Q335.70-8.11 335.70-7.55L335.70-7.55Q335.70-7.07 335.35-6.75Q335.01-6.43 334.21-6.43L334.21-6.43Q334.21-7.42 333.87-7.80Q333.54-8.18 333.12-8.18L333.12-8.18Q332.66-8.18 332.38-7.85Q332.11-7.52 331.98-7Q331.86-6.48 331.82-5.93Q331.79-5.38 331.79-4.91L331.79-4.91L331.79-1.47Q331.79-0.99 331.92-0.70Q332.05-0.42 332.34-0.29Q332.64-0.16 333.10-0.16L333.10-0.16L333.31-0.16L333.31 0Z M345.97 0.16L345.97 0.16Q344.99 0.16 344.30-0.09Q343.60-0.34 343.23-0.75Q342.86-1.17 342.86-1.66L342.86-1.66Q342.86-2.11 343.14-2.38Q343.42-2.64 343.87-2.64L343.87-2.64Q343.87-1.74 344.11-1.16Q344.35-0.58 344.82-0.29Q345.30 0 346.00 0L346.00 0Q346.80 0 347.30-0.35Q347.81-0.70 348.05-1.37Q348.29-2.03 348.29-2.96L348.29-2.96Q348.29-4.05 347.98-4.70Q347.66-5.36 347.02-5.66Q346.38-5.95 345.39-5.95L345.39-5.95L344.88-5.95L344.88-6.11L345.39-6.11Q346.26-6.11 346.81-6.43Q347.36-6.75 347.63-7.40Q347.90-8.05 347.90-9.02L347.90-9.02Q347.90-10.27 347.47-10.85Q347.04-11.42 346.21-11.42L346.21-11.42Q345.58-11.42 345.19-11.10Q344.80-10.77 344.62-10.10Q344.43-9.44 344.43-8.40L344.43-8.40Q343.86-8.40 343.46-8.66Q343.06-8.91 343.06-9.57L343.06-9.57Q343.06-10.16 343.42-10.61Q343.79-11.06 344.50-11.32Q345.20-11.58 346.21-11.58L346.21-11.58Q347.74-11.58 348.65-10.91Q349.55-10.24 349.55-8.94L349.55-8.94Q349.55-8.16 349.19-7.57Q348.83-6.98 348.12-6.60Q347.41-6.22 346.35-6.08L346.35-6.08Q347.25-6.03 347.92-5.82Q348.59-5.62 349.05-5.23Q349.50-4.85 349.73-4.31Q349.95-3.78 349.95-3.09L349.95-3.09Q349.95-2.19 349.62-1.57Q349.28-0.94 348.70-0.56Q348.13-0.18 347.42-0.01Q346.72 0.16 345.97 0.16Z M356.56 0.16L356.56 0.16Q355.25 0.16 354.42-0.58Q353.58-1.31 353.19-2.64Q352.80-3.97 352.80-5.74L352.80-5.74Q352.80-7.52 353.19-8.83Q353.58-10.14 354.42-10.86Q355.25-11.58 356.58-11.58L356.58-11.58Q357.82-11.58 358.66-10.86Q359.49-10.14 359.90-8.82Q360.30-7.50 360.30-5.73L360.30-5.73Q360.30-3.95 359.89-2.63Q359.47-1.31 358.65-0.58Q357.82 0.16 356.56 0.16ZM356.56 0L356.56 0Q357.14 0 357.54-0.30Q357.94-0.61 358.18-1.27Q358.42-1.94 358.53-3.04Q358.64-4.14 358.64-5.73L358.64-5.73Q358.64-7.31 358.53-8.40Q358.42-9.49 358.18-10.15Q357.94-10.82 357.54-11.12Q357.15-11.42 356.58-11.42L356.58-11.42Q355.98-11.42 355.58-11.12Q355.18-10.82 354.94-10.15Q354.69-9.49 354.58-8.40Q354.46-7.31 354.46-5.73L354.46-5.73Q354.46-4.14 354.58-3.04Q354.69-1.94 354.93-1.27Q355.17-0.61 355.58-0.30Q355.98 0 356.56 0Z M370.48 0L365.66 0L365.66-0.16L366.11-0.16Q366.54-0.16 366.84-0.29Q367.14-0.42 367.28-0.67Q367.42-0.93 367.42-1.31L367.42-1.31L367.42-3.14L362.50-3.14L362.50-3.79L367.44-11.42L368.96-11.42L368.96-4.03L370.94-4.03L370.94-3.14L368.96-3.14L368.96-1.31Q368.96-0.93 369.10-0.67Q369.25-0.42 369.54-0.29Q369.84-0.16 370.27-0.16L370.27-0.16L370.48-0.16L370.48 0ZM366.11-9.09L362.83-4.03L367.42-4.03L367.42-6.99Q367.42-7.34 367.42-7.90Q367.42-8.45 367.42-9.06Q367.42-9.68 367.43-10.25Q367.44-10.82 367.46-11.18L367.46-11.18Q367.33-10.98 367.16-10.71Q366.99-10.45 366.81-10.17Q366.62-9.89 366.45-9.61Q366.27-9.33 366.11-9.09L366.11-9.09Z M377.04 0.16L377.04 0.16Q375.25 0.16 374.25-0.99Q373.25-2.14 373.25-4.22L373.25-4.22Q373.25-6.46 374.18-7.60Q375.10-8.74 376.80-8.74L376.80-8.74Q378.35-8.74 379.24-7.78Q380.13-6.82 380.13-4.91L380.13-4.91L380.13-4.53L374.80-4.53Q374.82-2.90 375.04-1.90Q375.26-0.91 375.77-0.46Q376.27 0 377.09 0L377.09 0Q377.70 0 378.17-0.22Q378.64-0.45 378.96-0.89Q379.28-1.33 379.39-1.97L379.39-1.97Q379.58-1.94 379.68-1.78Q379.78-1.62 379.78-1.44L379.78-1.44Q379.78-1.12 379.47-0.74Q379.17-0.37 378.57-0.10Q377.97 0.16 377.04 0.16ZM374.80-4.69L378.51-4.69Q378.51-6.10 378.34-6.94Q378.16-7.79 377.78-8.18Q377.39-8.58 376.77-8.58L376.77-8.58Q376.11-8.58 375.70-8.18Q375.28-7.79 375.07-6.94Q374.86-6.10 374.80-4.69L374.80-4.69Z M390.37 0.16L390.37 0.16Q389.15 0.16 388.44-0.47Q387.73-1.10 387.73-2.21L387.73-2.21Q387.73-3.44 388.63-4.05Q389.54-4.66 391.38-4.72L391.38-4.72L392.70-4.77L392.70-5.97Q392.70-6.86 392.61-7.44Q392.51-8.02 392.19-8.30Q391.87-8.58 391.22-8.58L391.22-8.58Q390.29-8.58 390.02-8Q389.76-7.42 389.76-6.19L389.76-6.19Q389.09-6.19 388.74-6.42Q388.40-6.64 388.40-7.15L388.40-7.15Q388.40-7.73 388.79-8.07Q389.18-8.42 389.84-8.58Q390.50-8.74 391.28-8.74L391.28-8.74Q392.75-8.74 393.48-8.11Q394.21-7.49 394.21-5.97L394.21-5.97L394.21-1.18Q394.21-0.80 394.30-0.58Q394.40-0.35 394.62-0.26Q394.85-0.16 395.20-0.16L395.20-0.16L395.25-0.16L395.25 0L392.83 0L392.83-1.68L392.80-1.68Q392.64-1.04 392.29-0.63Q391.94-0.22 391.45-0.03Q390.96 0.16 390.37 0.16ZM390.69-0.06L390.69-0.06Q391.28-0.06 391.74-0.37Q392.19-0.67 392.45-1.18Q392.70-1.70 392.70-2.29L392.70-2.29L392.70-4.59L391.68-4.54Q390.32-4.48 389.80-3.92Q389.28-3.36 389.28-2.03L389.28-2.03Q389.28-1.39 389.43-0.95Q389.58-0.51 389.90-0.29Q390.22-0.06 390.69-0.06Z M401.89 0L397.58 0L397.58-0.16L397.71-0.16Q398.21-0.16 398.50-0.30Q398.78-0.43 398.90-0.75Q399.02-1.07 399.02-1.63L399.02-1.63L399.02-6.98Q399.02-7.52 398.90-7.83Q398.78-8.14 398.51-8.28Q398.24-8.42 397.74-8.42L397.74-8.42L397.66-8.42L397.66-8.58L400.51-8.58L400.51-7.07L400.54-7.07Q400.77-7.82 401.17-8.18Q401.57-8.53 402.04-8.63Q402.51-8.74 402.91-8.74L402.91-8.74Q404.34-8.74 405.03-7.99Q405.73-7.25 405.73-5.60L405.73-5.60L405.73-1.63Q405.73-1.07 405.84-0.75Q405.95-0.43 406.22-0.30Q406.48-0.16 406.93-0.16L406.93-0.16L407.01-0.16L407.01 0L404.22 0L404.22-6.14Q404.22-7.18 403.84-7.84Q403.46-8.50 402.51-8.50L402.51-8.50Q401.76-8.50 401.33-8.10Q400.90-7.70 400.71-7.06Q400.53-6.43 400.53-5.74L400.53-5.74L400.53-1.63Q400.53-1.07 400.65-0.75Q400.77-0.43 401.05-0.30Q401.33-0.16 401.81-0.16L401.81-0.16L401.89-0.16L401.89 0Z M412.75 0.16L412.75 0.16Q411.71 0.16 410.99-0.34Q410.27-0.85 409.90-1.85Q409.54-2.85 409.54-4.30L409.54-4.30Q409.54-5.78 409.90-6.76Q410.26-7.74 410.97-8.24Q411.68-8.74 412.72-8.74L412.72-8.74Q413.81-8.74 414.42-8.15Q415.04-7.57 415.25-6.35L415.25-6.35L415.28-6.35Q415.26-6.93 415.26-7.48Q415.25-8.03 415.25-8.49Q415.25-8.94 415.25-9.22L415.25-9.22L415.25-10.75Q415.25-11.20 415.12-11.47Q414.99-11.74 414.70-11.87Q414.42-12 413.94-12L413.94-12L413.89-12L413.89-12.16L416.75-12.16L416.75-1.39Q416.75-0.96 416.88-0.69Q417.01-0.42 417.30-0.29Q417.60-0.16 418.06-0.16L418.06-0.16L418.19-0.16L418.19 0L415.26 0L415.26-2.26L415.23-2.26Q415.02-1.02 414.41-0.43Q413.79 0.16 412.75 0.16ZM413.02-0.08L413.02-0.08Q414.16-0.08 414.70-1.12Q415.25-2.16 415.25-4.30L415.25-4.30Q415.25-5.70 415.02-6.62Q414.78-7.55 414.30-8.02Q413.82-8.50 413.04-8.50L413.04-8.50Q412.34-8.50 411.90-8.08Q411.47-7.66 411.28-6.74Q411.09-5.82 411.09-4.32L411.09-4.32Q411.09-2.80 411.28-1.86Q411.47-0.93 411.90-0.50Q412.34-0.08 413.02-0.08Z M429.74 0L425.09 0L425.09-0.16L425.30-0.16Q425.73-0.16 426.02-0.29Q426.32-0.42 426.46-0.67Q426.61-0.93 426.61-1.31L426.61-1.31L426.61-10.18Q426.61-10.54 426.46-10.78Q426.32-11.02 426.02-11.14Q425.73-11.26 425.30-11.26L425.30-11.26L425.09-11.26L425.09-11.42L429.39-11.42Q430.78-11.42 431.70-11.08Q432.61-10.74 433.06-10.06Q433.50-9.39 433.50-8.43L433.50-8.43Q433.50-7.50 433.13-6.90Q432.75-6.30 432.17-5.97Q431.58-5.63 430.96-5.46L430.96-5.46L433.22-1.94Q433.55-1.42 433.80-1.08Q434.05-0.74 434.26-0.54Q434.46-0.34 434.65-0.25Q434.83-0.16 435.02-0.16L435.02-0.16L435.07-0.16L435.07 0L434.85 0Q434.10 0 433.61-0.06Q433.12-0.11 432.80-0.26Q432.48-0.40 432.23-0.68Q431.98-0.96 431.70-1.41L431.70-1.41L429.23-5.33L428.22-5.33L428.22-1.31Q428.22-0.93 428.37-0.67Q428.51-0.42 428.81-0.29Q429.10-0.16 429.54-0.16L429.54-0.16L429.74-0.16L429.74 0ZM428.22-5.49L429.34-5.49Q430.24-5.49 430.78-5.77Q431.31-6.05 431.55-6.67Q431.79-7.30 431.79-8.32L431.79-8.32Q431.79-9.38 431.54-10.02Q431.30-10.67 430.75-10.97Q430.21-11.26 429.31-11.26L429.31-11.26L428.22-11.26L428.22-5.49Z M440.85 0.16L440.85 0.16Q439.06 0.16 438.06-0.99Q437.06-2.14 437.06-4.22L437.06-4.22Q437.06-6.46 437.98-7.60Q438.91-8.74 440.61-8.74L440.61-8.74Q442.16-8.74 443.05-7.78Q443.94-6.82 443.94-4.91L443.94-4.91L443.94-4.53L438.61-4.53Q438.62-2.90 438.85-1.90Q439.07-0.91 439.58-0.46Q440.08 0 440.90 0L440.90 0Q441.50 0 441.98-0.22Q442.45-0.45 442.77-0.89Q443.09-1.33 443.20-1.97L443.20-1.97Q443.39-1.94 443.49-1.78Q443.58-1.62 443.58-1.44L443.58-1.44Q443.58-1.12 443.28-0.74Q442.98-0.37 442.38-0.10Q441.78 0.16 440.85 0.16ZM438.61-4.69L442.32-4.69Q442.32-6.10 442.14-6.94Q441.97-7.79 441.58-8.18Q441.20-8.58 440.58-8.58L440.58-8.58Q439.92-8.58 439.50-8.18Q439.09-7.79 438.88-6.94Q438.67-6.10 438.61-4.69L438.61-4.69Z M450.53 3.84L446.22 3.84L446.22 3.68L446.35 3.68Q446.83 3.68 447.12 3.55Q447.41 3.42 447.54 3.15Q447.66 2.88 447.66 2.45L447.66 2.45L447.66-7.17Q447.66-7.62 447.54-7.89Q447.41-8.16 447.12-8.29Q446.83-8.42 446.35-8.42L446.35-8.42L446.14-8.42L446.14-8.58L449.14-8.58L449.14-6.35L449.17-6.35Q449.39-7.57 450.01-8.15Q450.62-8.74 451.70-8.74L451.70-8.74Q453.26-8.74 454.07-7.62Q454.88-6.50 454.88-4.30L454.88-4.30Q454.88-2.11 454.06-0.98Q453.23 0.16 451.66 0.16L451.66 0.16Q450.62 0.16 450.02-0.43Q449.41-1.02 449.18-2.26L449.18-2.26L449.15-2.26Q449.17-1.86 449.17-1.46Q449.17-1.06 449.17-0.66L449.17-0.66L449.17 2.37Q449.17 2.83 449.30 3.13Q449.42 3.42 449.71 3.55Q450.00 3.68 450.48 3.68L450.48 3.68L450.53 3.68L450.53 3.84ZM451.39-0.08L451.39-0.08Q452.10-0.08 452.52-0.50Q452.94-0.93 453.14-1.86Q453.33-2.80 453.33-4.32L453.33-4.32Q453.33-5.82 453.14-6.74Q452.94-7.66 452.51-8.08Q452.08-8.50 451.38-8.50L451.38-8.50Q450.61-8.50 450.12-8.02Q449.63-7.55 449.40-6.62Q449.17-5.70 449.17-4.30L449.17-4.30Q449.17-2.88 449.41-1.94Q449.65-0.99 450.14-0.54Q450.64-0.08 451.39-0.08Z M461.49 0.16L461.49 0.16Q460.08 0.16 459.38-0.58Q458.69-1.33 458.69-2.98L458.69-2.98L458.69-6.98Q458.69-7.52 458.57-7.83Q458.45-8.14 458.16-8.28Q457.87-8.42 457.38-8.42L457.38-8.42L457.33-8.42L457.33-8.58L460.19-8.58L460.19-2.90Q460.19-1.87 460.34-1.26Q460.48-0.64 460.82-0.35Q461.17-0.06 461.74-0.06L461.74-0.06Q462.46-0.06 462.94-0.44Q463.41-0.82 463.65-1.54Q463.89-2.27 463.89-3.30L463.89-3.30L463.89-6.98Q463.89-7.52 463.77-7.83Q463.65-8.14 463.36-8.28Q463.07-8.42 462.58-8.42L462.58-8.42L462.53-8.42L462.53-8.58L465.39-8.58L465.39-1.58Q465.39-1.04 465.51-0.73Q465.63-0.42 465.92-0.29Q466.21-0.16 466.70-0.16L466.70-0.16L466.75-0.16L466.75 0L464.00 0L464.00-2.19L463.97-2.19Q463.84-1.38 463.56-0.90Q463.28-0.43 462.92-0.21Q462.56 0.02 462.18 0.09Q461.81 0.16 461.49 0.16Z M474.05 0.16L474.05 0.16Q473.01 0.16 472.40-0.43Q471.79-1.02 471.57-2.26L471.57-2.26L471.54-2.26L471.54 0L468.61 0L468.61-0.16L468.74-0.16Q469.22-0.16 469.50-0.29Q469.79-0.42 469.92-0.69Q470.05-0.96 470.05-1.39L470.05-1.39L470.05-10.75Q470.05-11.20 469.92-11.47Q469.79-11.74 469.50-11.87Q469.22-12 468.74-12L468.74-12L468.69-12L468.69-12.16L471.55-12.16L471.55-9.22Q471.55-8.80 471.55-8.01Q471.55-7.22 471.52-6.35L471.52-6.35L471.55-6.35Q471.78-7.57 472.39-8.15Q473.01-8.74 474.08-8.74L474.08-8.74Q475.65-8.74 476.46-7.62Q477.26-6.50 477.26-4.30L477.26-4.30Q477.26-2.85 476.90-1.85Q476.53-0.85 475.82-0.34Q475.10 0.16 474.05 0.16ZM473.78-0.08L473.78-0.08Q474.48-0.08 474.90-0.50Q475.33-0.93 475.52-1.86Q475.71-2.80 475.71-4.32L475.71-4.32Q475.71-5.82 475.52-6.74Q475.33-7.66 474.90-8.08Q474.46-8.50 473.76-8.50L473.76-8.50Q472.59-8.50 472.07-7.44Q471.55-6.38 471.55-4.30L471.55-4.30Q471.55-2.16 472.10-1.12Q472.66-0.08 473.78-0.08Z M484.10 0L479.55 0L479.55-0.16L479.76-0.16Q480.24-0.16 480.53-0.29Q480.82-0.42 480.94-0.69Q481.07-0.96 481.07-1.39L481.07-1.39L481.07-10.75Q481.07-11.20 480.94-11.47Q480.82-11.74 480.53-11.87Q480.24-12 479.76-12L479.76-12L479.55-12L479.55-12.16L482.58-12.16L482.58-1.47Q482.58-0.99 482.70-0.70Q482.83-0.42 483.12-0.29Q483.41-0.16 483.89-0.16L483.89-0.16L484.10-0.16L484.10 0Z M490.42 0L485.87 0L485.87-0.16L486.08-0.16Q486.56-0.16 486.85-0.29Q487.14-0.42 487.26-0.69Q487.39-0.96 487.39-1.39L487.39-1.39L487.39-7.17Q487.39-7.62 487.26-7.89Q487.14-8.16 486.85-8.29Q486.56-8.42 486.08-8.42L486.08-8.42L486.03-8.42L486.03-8.58L488.90-8.58L488.90-1.47Q488.90-0.99 489.02-0.70Q489.15-0.42 489.45-0.29Q489.74-0.16 490.21-0.16L490.21-0.16L490.42-0.16L490.42 0ZM488.06-10.11L488.06-10.11Q487.76-10.11 487.56-10.31Q487.36-10.51 487.36-11.01L487.36-11.01Q487.36-11.52 487.56-11.71Q487.76-11.90 488.06-11.90L488.06-11.90Q488.35-11.90 488.56-11.71Q488.77-11.52 488.77-11.01L488.77-11.01Q488.77-10.51 488.56-10.31Q488.35-10.11 488.06-10.11Z M496.38 0.16L496.38 0.16Q495.30 0.16 494.46-0.28Q493.63-0.72 493.17-1.71Q492.70-2.70 492.70-4.32L492.70-4.32Q492.70-5.97 493.18-6.94Q493.65-7.90 494.45-8.32Q495.25-8.74 496.26-8.74L496.26-8.74Q496.93-8.74 497.58-8.56Q498.22-8.38 498.64-8.02Q499.06-7.66 499.06-7.07L499.06-7.07Q499.06-6.72 498.89-6.50Q498.72-6.29 498.41-6.19Q498.10-6.10 497.63-6.10L497.63-6.10Q497.63-6.94 497.51-7.50Q497.39-8.05 497.09-8.31Q496.78-8.58 496.22-8.58L496.22-8.58Q495.65-8.58 495.20-8.22Q494.75-7.86 494.50-6.94Q494.26-6.02 494.26-4.30L494.26-4.30Q494.26-2.74 494.50-1.78Q494.74-0.83 495.26-0.42Q495.79 0 496.62 0L496.62 0Q497.15 0 497.58-0.18Q498.00-0.35 498.31-0.79Q498.62-1.23 498.80-2L498.80-2Q498.96-1.97 499.05-1.84Q499.14-1.71 499.14-1.49L499.14-1.49Q499.14-1.10 498.83-0.73Q498.53-0.35 497.92-0.10Q497.31 0.16 496.38 0.16Z M513.95 0L509.14 0L509.14-0.16L509.58-0.16Q510.02-0.16 510.31-0.29Q510.61-0.42 510.75-0.67Q510.90-0.93 510.90-1.31L510.90-1.31L510.90-3.14L505.97-3.14L505.97-3.79L510.91-11.42L512.43-11.42L512.43-4.03L514.42-4.03L514.42-3.14L512.43-3.14L512.43-1.31Q512.43-0.93 512.58-0.67Q512.72-0.42 513.02-0.29Q513.31-0.16 513.74-0.16L513.74-0.16L513.95-0.16L513.95 0ZM509.58-9.09L506.30-4.03L510.90-4.03L510.90-6.99Q510.90-7.34 510.90-7.90Q510.90-8.45 510.90-9.06Q510.90-9.68 510.90-10.25Q510.91-10.82 510.93-11.18L510.93-11.18Q510.80-10.98 510.63-10.71Q510.46-10.45 510.28-10.17Q510.10-9.89 509.92-9.61Q509.74-9.33 509.58-9.09L509.58-9.09Z M519.87 0.16L519.87 0.16Q518.90 0.16 518.20-0.09Q517.50-0.34 517.14-0.75Q516.77-1.17 516.77-1.66L516.77-1.66Q516.77-2.11 517.05-2.38Q517.33-2.64 517.78-2.64L517.78-2.64Q517.78-1.74 518.02-1.16Q518.26-0.58 518.73-0.29Q519.20 0 519.90 0L519.90 0Q520.70 0 521.21-0.35Q521.71-0.70 521.95-1.37Q522.19-2.03 522.19-2.96L522.19-2.96Q522.19-4.05 521.88-4.70Q521.57-5.36 520.93-5.66Q520.29-5.95 519.30-5.95L519.30-5.95L518.78-5.95L518.78-6.11L519.30-6.11Q520.16-6.11 520.71-6.43Q521.26-6.75 521.54-7.40Q521.81-8.05 521.81-9.02L521.81-9.02Q521.81-10.27 521.38-10.85Q520.94-11.42 520.11-11.42L520.11-11.42Q519.49-11.42 519.10-11.10Q518.70-10.77 518.52-10.10Q518.34-9.44 518.34-8.40L518.34-8.40Q517.76-8.40 517.36-8.66Q516.96-8.91 516.96-9.57L516.96-9.57Q516.96-10.16 517.33-10.61Q517.70-11.06 518.40-11.32Q519.10-11.58 520.11-11.58L520.11-11.58Q521.65-11.58 522.55-10.91Q523.46-10.24 523.46-8.94L523.46-8.94Q523.46-8.16 523.10-7.57Q522.74-6.98 522.02-6.60Q521.31-6.22 520.26-6.08L520.26-6.08Q521.15-6.03 521.82-5.82Q522.50-5.62 522.95-5.23Q523.41-4.85 523.63-4.31Q523.86-3.78 523.86-3.09L523.86-3.09Q523.86-2.19 523.52-1.57Q523.18-0.94 522.61-0.56Q522.03-0.18 521.33-0.01Q520.62 0.16 519.87 0.16Z M529.97 0.18L529.97 0.18Q528.91 0.18 528.26-0.07Q527.62-0.32 527.32-0.71Q527.02-1.10 527.02-1.50L527.02-1.50Q527.02-1.87 527.27-2.14Q527.52-2.40 528.03-2.40L528.03-2.40Q528.03-1.57 528.27-1.03Q528.51-0.50 528.98-0.25Q529.44 0 530.10 0L530.10 0Q530.80 0 531.25-0.35Q531.70-0.70 531.90-1.46Q532.11-2.21 532.11-3.39L532.11-3.39Q532.11-4.58 531.87-5.28Q531.63-5.98 531.12-6.30Q530.61-6.62 529.78-6.62L529.78-6.62Q529.17-6.62 528.74-6.46Q528.32-6.30 528.03-6.07Q527.74-5.84 527.52-5.62L527.52-5.62L527.33-5.68L527.82-11.41L533.17-11.41L533.25-8.99L533.09-8.99L533.07-9.17Q533.04-9.54 532.92-9.74Q532.80-9.95 532.57-10.04Q532.34-10.13 531.95-10.13L531.95-10.13L527.87-10.13L527.49-5.79Q527.97-6.34 528.65-6.60Q529.33-6.86 530.13-6.86L530.13-6.86Q531.10-6.86 531.93-6.51Q532.75-6.16 533.26-5.41Q533.78-4.66 533.78-3.46L533.78-3.46Q533.78-2.69 533.56-2.02Q533.34-1.36 532.89-0.87Q532.43-0.38 531.70-0.10Q530.98 0.18 529.97 0.18Z M540.69 0.16L540.69 0.16Q539.60 0.16 538.77-0.28Q537.94-0.72 537.47-1.71Q537.01-2.70 537.01-4.32L537.01-4.32Q537.01-5.97 537.48-6.94Q537.95-7.90 538.75-8.32Q539.55-8.74 540.56-8.74L540.56-8.74Q541.23-8.74 541.88-8.56Q542.53-8.38 542.94-8.02Q543.36-7.66 543.36-7.07L543.36-7.07Q543.36-6.72 543.19-6.50Q543.02-6.29 542.71-6.19Q542.40-6.10 541.94-6.10L541.94-6.10Q541.94-6.94 541.82-7.50Q541.70-8.05 541.39-8.31Q541.09-8.58 540.53-8.58L540.53-8.58Q539.95-8.58 539.50-8.22Q539.06-7.86 538.81-6.94Q538.56-6.02 538.56-4.30L538.56-4.30Q538.56-2.74 538.80-1.78Q539.04-0.83 539.57-0.42Q540.10 0 540.93 0L540.93 0Q541.46 0 541.88-0.18Q542.30-0.35 542.62-0.79Q542.93-1.23 543.10-2L543.10-2Q543.26-1.97 543.35-1.84Q543.44-1.71 543.44-1.49L543.44-1.49Q543.44-1.10 543.14-0.73Q542.83-0.35 542.22-0.10Q541.62 0.16 540.69 0.16Z"/></g>
</svg>